<svg xmlns="http://www.w3.org/2000/svg" width="43.687" height="52.75" viewBox="0 0 43.687 52.75">
  <g id="Group_13" data-name="Group 13" transform="translate(-83.942 -101.357)">
    <g id="Group_12" data-name="Group 12" transform="translate(83.942 101.357)">
      <g id="Group_11" data-name="Group 11" transform="translate(0 0)">
        <path id="Path_15" data-name="Path 15" d="M118.191,101.415c-.529.739-1.3.477-2.05.531-.666.048-1.2.623-1.7.35a1.146,1.146,0,0,1-1.269.2,10.041,10.041,0,0,1-1.347.7c-.464.161-.936.1-1.317.246-.688.267-1.208.99-1.852.722a4.006,4.006,0,0,1-1.321,1.082c-.247.134-.553.184-.761.324-.16.107-.212.315-.342.424-.249.207-.555.324-.8.538a8.764,8.764,0,0,0-1.084,1.3,3.635,3.635,0,0,1-.523.64,7.322,7.322,0,0,0-.988.687.833.833,0,0,1,.176-.46c.08-.136.119-.317.206-.45.072-.111.188-.22.266-.335a4.09,4.09,0,0,1,.579-.768c.117-.108.273-.173.393-.279a5.964,5.964,0,0,0,.817-1.063,6.166,6.166,0,0,1,2.514-1.753c.43-.2.886-.443,1.368-.616.181-.065.384-.052.571-.126.129-.051.242-.146.385-.2.127-.049.269-.044.4-.085s.271-.135.414-.192.3-.065.454-.115.308-.149.463-.193c.125-.036.269-.024.388-.055.175-.047.315-.15.482-.2.122-.038.257-.023.387-.055s.286-.136.424-.173.292,0,.427-.027.23-.085.338-.1c.165-.027.338-.015.495-.038.177-.026.332-.083.5-.116.189-.036.364-.024.533-.058.411-.083.817-.266,1.218-.342a2.718,2.718,0,0,0,1.157.058Z" transform="translate(-100.918 -101.357)" fill-rule="evenodd"/>
        <path id="Path_16" data-name="Path 16" d="M103.279,111.834c-.234.267-.583.015-.864.035-.331.023-.634.232-.956.279a5.592,5.592,0,0,1-1.673-.155c-.151.4-.545.165-.869.258-.179.051-.3.2-.52.271-.181.056-.415-.038-.612,0-.446.088-.908.566-1.239.255a2.276,2.276,0,0,1-1.439.433,13.727,13.727,0,0,0-1.379.549c-.43.233-.824.433-1.222.662a1.252,1.252,0,0,1-.385.2c-.179.02-.258-.176-.44-.187-.116.178-.071.382-.223.557-.167.192-.428.24-.673.4-.2.129-.306.34-.5.455-.141.085-.335.094-.473.173-.383.221-.5,1.042-1.094.718-.1.188-.048.425-.115.623-.6.17-.646.789-1.049,1.087-.118.087-.28.092-.395.182-.209.162-.212.6-.659.614a25.2,25.2,0,0,1-2.461,3.073c-.045-.127-.062-.384-.1-.562a2.2,2.2,0,0,0,.7-.779c.082-.171.077-.372.165-.576a3.526,3.526,0,0,1,1.077-1.174c.271-.227.525-.555.792-.83a23.9,23.9,0,0,0,2.248-2.5c.971-.383,1.539-1.432,2.605-1.531a11.559,11.559,0,0,1,4.28-1.794,3.459,3.459,0,0,0,.6-.117c.1-.046.166-.169.258-.209s.273.016.418,0c.633-.059,1.384-.517,1.9-.305,1.407-.874,2.517-.364,3.731-.454.18.145.4.158.569.34Z" transform="translate(-83.942 -110.404)" fill-rule="evenodd"/>
        <path id="Path_17" data-name="Path 17" d="M106,121.865a2.1,2.1,0,0,0-.737.042,3.839,3.839,0,0,1-.4.211c-.249.061-.477-.173-.692-.153-.7.393-1.251.091-1.94.131-.387.022-.722.3-1.1.33-.145.013-.307-.091-.438-.089a4.983,4.983,0,0,0-1.333.4,6.065,6.065,0,0,1-1.324.373c-.271.025-.5-.037-.738-.006-.987.123-1.675.9-2.611,1.192-.174.054-.384.012-.552.068-.5.168-.966.658-1.418.569-.187.28-.426.695-.835.558a2.069,2.069,0,0,1-.879.8,2.019,2.019,0,0,0-.338.1c-.134.1-.117.368-.2.47a4.108,4.108,0,0,1-.488.426,17.5,17.5,0,0,0-2,2.269c-.263.327-.635.556-.868.87-.13.174-.175.421-.31.578-.228.264-.622.408-.881.7-.37.424-.406.994-1.087,1.155-.057-.065.057-.4.048-.564a9.547,9.547,0,0,0,1.11-1.486,11.779,11.779,0,0,1,.863-1.161c.341-.365.757-.658,1.118-1.049.147-.159.3-.364.466-.562.231-.284.373-.619.8-.665a7.476,7.476,0,0,1,2.773-2.476c.184-.082.4-.1.589-.185a4.794,4.794,0,0,0,.518-.368c1.62-1.093,3.67-1.446,5.421-2.1a6.95,6.95,0,0,1,.7-.294,5.294,5.294,0,0,1,.913.013,7.792,7.792,0,0,0,.987-.221c.254-.037.541.122.778.084.161-.026.209-.11.4-.182,1.018-.392,1.926.024,2.892-.138a7.01,7.01,0,0,0,.793.346Z" transform="translate(-84.722 -119.44)" fill-rule="evenodd"/>
        <path id="Path_18" data-name="Path 18" d="M106.93,131.585a.872.872,0,0,1,.133.4c-.575.376-1.228.024-1.773.216-.111.039-.214.142-.327.171-.13.033-.3-.088-.438-.041s-.21.2-.336.249c-.416.149-.927-.389-1.251.09-.2.006-.3-.1-.506-.079-.6.071-1.336.72-1.818.459a4.341,4.341,0,0,1-1.692.418c-.141.393-.607.246-.877.384-.152.078-.252.262-.4.357-.5.316-1.157.325-1.707.671a16.08,16.08,0,0,1-1.776,1.2,1.862,1.862,0,0,0-.29.1c-.1.069-.152.273-.246.373-.286.3-.787.436-1.084.738a4.125,4.125,0,0,0-.349.6c-.753,1.153-1.923,2.162-2.817,3.283-.25.313-.4.619-.8.665a1.429,1.429,0,0,1-1.3,1.266c.654-1.618,2.488-2.866,3.351-4.419.3-.054.408-.324.6-.486.1-.08.23-.111.317-.19.135-.122.136-.348.254-.451.1-.089.259-.11.366-.191a3.06,3.06,0,0,0,.417-.561,1.673,1.673,0,0,1,1.065-.728c.09-.066.112-.258.2-.373a4.4,4.4,0,0,1,1.207-.924,8.907,8.907,0,0,1,.943-.492c.321-.137.692-.154,1.024-.29.612-.25,1.128-.669,1.684-.9a5.379,5.379,0,0,1,1.642-.514c.142,0,.3.083.429.07a6.339,6.339,0,0,0,.927-.288,10.764,10.764,0,0,1,1.781-.342c.276-.028.569.023.825-.014.238-.035.459-.127.677-.158a10.27,10.27,0,0,0,1.947-.257Z" transform="translate(-86.934 -128.516)" fill-rule="evenodd"/>
        <path id="Path_19" data-name="Path 19" d="M111.06,141.284c-1.365.582-2.6.3-3.893.612-.4.1-.73.258-1.085.126a7.916,7.916,0,0,1-1.943.5c-.212.06-.412.207-.665.274a4.8,4.8,0,0,1-.563,0c-1.025.117-2.222,1.025-3.317,1.389a3.363,3.363,0,0,0-.454.115c-.106.06-.213.27-.324.365-.451.387-1.2.639-1.575,1.018-.12.123-.182.346-.3.452a3.6,3.6,0,0,1-.5.261c-.915.57-1.352,1.728-2.2,2.4-.13.1-.316.165-.461.29-.172.148-.277.465-.454.678-.373.449-.782.828-1.172,1.273-.292.334-.4.715-.909.793-.08.176-.06.355-.166.527a2.705,2.705,0,0,1-.852.714c-.317-.591.334-.757.7-1.2.326-.394.424-.941.755-1.276.15-.151.351-.251.508-.388a12.939,12.939,0,0,0,.991-1.1c.322-.356.62-.766.971-1.095.134-.125.327-.209.46-.338.094-.091.131-.271.236-.393.205-.238.544-.407.746-.635.172-.193.225-.479.377-.638a6.514,6.514,0,0,1,.739-.508,16.9,16.9,0,0,1,5.513-2.952c.326-.087.706-.1,1.035-.222.14-.052.232-.181.365-.24a3.649,3.649,0,0,1,.746-.12c.489-.07.958-.154,1.471-.278.263-.064.529-.17.754-.2.4-.049.859.184,1.259-.216,1.013.157,2.393-.584,3.215.012Z" transform="translate(-89.508 -137.019)" fill-rule="evenodd"/>
        <path id="Path_20" data-name="Path 20" d="M104.534,156.321c.792-.766,2.005-.781,2.906-1a2.184,2.184,0,0,1,1.163-.166.456.456,0,0,1,.834-.044.262.262,0,0,1-.082.312c-.291.206-.463-.244-.692-.153-.142.056-.085.3-.217.383a1.864,1.864,0,0,1-.417.046c-.4.064-.864.269-1.295.382-.614.161-1.28.029-1.812.236a3.072,3.072,0,0,0-.624.4c-.152.108-.416.331-.557.34-.081,0-.2-.1-.332-.121-.193.157-.2.345-.361.482a8.074,8.074,0,0,1-1.1.524,6.938,6.938,0,0,0-2.224,1.651,3.2,3.2,0,0,1-.314.384c-.089.071-.208.1-.308.161a2.9,2.9,0,0,0-.929,1.318c-.21.476-.337,1-.558,1.418-.529,1.011-1.547,1.509-1.936,2.578-.2.072-.2.206-.393.279a10.726,10.726,0,0,1-2.5,3.093c-.064-.2.012-.35.254-.451.06-1.183,1.448-2.136,2.139-3.174a9.551,9.551,0,0,1,.606-.9c.095-.11.236-.191.315-.287.12-.145.108-.361.224-.509s.309-.255.43-.4a8.8,8.8,0,0,0,1.185-2.235,2.9,2.9,0,0,1,.489-.892c.077-.059.191-.058.3-.132.2-.137.3-.419.475-.591.4-.393,1.087-.626,1.594-1.028a9.914,9.914,0,0,1,1.438-1.093c.4-.211.943-.357,1.378-.6.353-.195.568-.394.919-.21Z" transform="translate(-91.871 -149.423)" fill-rule="evenodd"/>
        <path id="Path_21" data-name="Path 21" d="M290.113,130.047c.222-.54.888-.383,1.344-.334.061.007.3.017.321.053.031.064-.107.218-.2.275a1.834,1.834,0,0,1-1.466.006Z" transform="translate(-269.181 -126.781)" fill-rule="evenodd"/>
        <path id="Path_22" data-name="Path 22" d="M171.676,156.643c-.422.34-1,.043-1.453.22a6.83,6.83,0,0,1-.809.373,3.573,3.573,0,0,1-.99.027c-.942-.049-2.1.34-2.961.052a3.982,3.982,0,0,1-1.229.225c-1.1.232-2.155.953-3.224,1.144-.145.026-.291-.007-.427.027-.442.109-.854.542-1.228.323-.15.379-.583.453-1.028.659a12.456,12.456,0,0,0-4.235,2.725c-.154.2-.329.418-.625.351-.165-.58.555-.8.941-1.153.124-.112.177-.292.284-.393a10.955,10.955,0,0,1,1.316-.81c1.757-1.133,3.889-2.313,5.609-2.439.315-.423.737-.229,1.227-.371.285-.083.562-.3.79-.363a4.214,4.214,0,0,1,.8.025,8.248,8.248,0,0,0,.85-.248,12.579,12.579,0,0,1,1.357-.169,7.191,7.191,0,0,0,1.291-.013c.119-.043.248-.179.375-.22a3.165,3.165,0,0,1,.845.024,6.162,6.162,0,0,0,.835,0c.6-.053,1.288-.544,1.69,0Z" transform="translate(-146.387 -150.802)" fill-rule="evenodd"/>
        <path id="Path_23" data-name="Path 23" d="M95.974,219.8c-.136.72-.907,1.043-1.263,1.663-.176.307-.294.618-.47.882-.2.3-.538.467-.773.771s-.341.755-.692.974a3.192,3.192,0,0,0-.3.131c-.079.064-.1.221-.169.333a2.136,2.136,0,0,1-.986.833c-.139-.524.389-.881.686-1.313.081-.119.119-.272.2-.373.153-.2.366-.346.525-.543a4.88,4.88,0,0,1,1.516-1.6,4.408,4.408,0,0,1,1.727-1.759Z" transform="translate(-90.553 -207.773)" fill-rule="evenodd"/>
        <path id="Path_24" data-name="Path 24" d="M268.551,148.534a10.792,10.792,0,0,1-2.392.391c-.239,0-.491-.085-.72-.065-.426.037-.792.239-1.2.089-.988.447-1.684-.034-2.664.386l-.141-.269c.508-.494,1.067-.258,1.626-.31.418-.039.78-.2,1.076-.1.248-.312.592-.127.871-.161.171-.021.329-.105.493-.135a7.04,7.04,0,0,1,1.349-.043c.59.005,1.286-.244,1.7.213Z" transform="translate(-243.412 -143.496)" fill-rule="evenodd"/>
        <path id="Path_25" data-name="Path 25" d="M302.962,138.387a13.766,13.766,0,0,1-1.917-.2c-.293.142-.719.318-.853.1-.089-.143.058-.351.264-.432.507-.2,1.286.065,1.726-.166.265.185.859.2.779.7Z" transform="translate(-278.213 -134.003)" fill-rule="evenodd"/>
        <path id="Path_26" data-name="Path 26" d="M214.852,180.8c-.2.215-.385-.025-.555-.078-.631.224-1.147-.129-1.79-.192-1-.1-1.994,0-2.984-.132-.23-.032-.483-.072-.721-.114a4.889,4.889,0,0,0-.711-.143c-.507,0-.97.269-1.4-.15-.427.294-.939.06-1.437.015a11.027,11.027,0,0,0-2.271.059,10.522,10.522,0,0,1-1.182.176,3.8,3.8,0,0,1-.536-.136c-1.24-.205-2.39.734-3.727.7a3.44,3.44,0,0,1-1.935.986c-.306-.672,1.174-1.164,1.748-1.108.669-.776,1.75-.487,2.525-1.122a21.056,21.056,0,0,0,3.826-.038c.429-.039.883-.145,1.318-.149a5.308,5.308,0,0,1,.681.085,24.369,24.369,0,0,0,4.8.334c.1.145.237.168.345.285.865-.174,1.546.237,2.4.094a3.747,3.747,0,0,0,1.045.312c.215.051.478.1.559.32Z" transform="translate(-184.228 -171.449)" fill-rule="evenodd"/>
        <path id="Path_27" data-name="Path 27" d="M107.154,202.778c-.011.7-.91.661-1.575,1.018-.478.257-.77.785-1.148.991-.133.072-.3.08-.415.143-.45.241-.6.834-1.071.951-.3.774-1.148,1.463-1.4,2.2-.494.039-.515.5-.822.772-.088.079-.244.135-.307.209-.1.115-.05.329-.1.468a4.747,4.747,0,0,1-.595.972c-.217.316-.446.632-.663.934a4.833,4.833,0,0,1-1.561,1.795c-.13-.891.732-1.481,1.261-2.275.264-.4.5-.79.785-1.218a2.4,2.4,0,0,1,.255-.4c.084-.071.236-.128.3-.18.289-.244.3-.639.547-.922.194-.225.452-.391.64-.6a5.723,5.723,0,0,0,.622-1.06,3.744,3.744,0,0,1,.769-1.014c.334-.292.8-.552,1.208-.876a9.291,9.291,0,0,1,1.082-.883c.191-.111.419-.2.635-.332.514-.306.972-.813,1.551-.687Z" transform="translate(-96.111 -192.463)" fill-rule="evenodd"/>
        <path id="Path_28" data-name="Path 28" d="M250.3,165.645c1.986-.8,3.869-.3,5.817-.587a3.21,3.21,0,0,0,.842-.17c.108-.056.188-.178.3-.229a3.1,3.1,0,0,1,.9-.1,15.2,15.2,0,0,1,1.747-.079c.275.01.607.042.649.445a5.017,5.017,0,0,1-2.038.084c-.324-.008-.685.016-1.03,0-.328-.017-.753-.049-.985.318.238.332.617.058.913.013a6.134,6.134,0,0,1,1.255.1c1.242.1,2.532.161,3.725.333.114.155.376.308.359.547-.111.082-.321.011-.5-.011-.846-.1-1.744-.319-2.628-.343-.368-.01-.711.069-1.125.1a5.3,5.3,0,0,1-1.519-.236,5.221,5.221,0,0,0-1.5-.294c-.148.011-.29.088-.435.1-.548.061-1.1-.221-1.654-.165-.283.029-.57.167-.851.2-.2.023-.408-.083-.594-.058a3.482,3.482,0,0,0-.4.133,1.537,1.537,0,0,1-1.255-.1Z" transform="translate(-233.41 -158.064)" fill-rule="evenodd"/>
        <path id="Path_29" data-name="Path 29" d="M137.047,212.977c.19.523-.536.622-.925,1-.129.125-.205.352-.341.521-.234.292-.5.663-.838.413a4.843,4.843,0,0,1-.852,1.277,8.117,8.117,0,0,0-1.067,1.194c-.217.389-.036.944-.563,1.127-.175-.259.078-.383,0-.612-.563.2-.573.721-1.158.972a.64.64,0,0,1,.22-.752c.217-.16.523-.227.721-.4a3.765,3.765,0,0,0,.579-.768,8.769,8.769,0,0,1,.637-.749c.225-.263.39-.551.607-.807a9.8,9.8,0,0,1,2.978-2.412Z" transform="translate(-126.452 -201.644)" fill-rule="evenodd"/>
        <path id="Path_30" data-name="Path 30" d="M208.2,191.6a5.048,5.048,0,0,1-2.822-.339c-1.24.172-2.244-.405-3.463-.3a1.04,1.04,0,0,0-1.108-.058c-.191-.024-.345-.165-.537-.185-.579.315-1.027-.062-1.585-.128-.507-.06-1.119.124-1.572.086-.229-.019-.449-.143-.663-.144-.46,0-.956.3-1.413.248-.2-.021-.379-.219-.6-.252a4.164,4.164,0,0,0-.961.036c-.163.04-.3.15-.482.2a8.546,8.546,0,0,1-1,.153,4.51,4.51,0,0,0-1.034.271c-.713.293-1.376.762-2.126,1.135a6.375,6.375,0,0,0-1.012.455c-.28.2-.363.609-.786.606-.186-.32.45-.579.742-.877a1.042,1.042,0,0,0,.207-.4c1.617-.86,3.494-1.868,5.153-1.858.332,0,.654.038,1.01.011.683-.052,1.363-.169,2.084-.231a4.055,4.055,0,0,1,1.009-.037c.137.028.261.129.4.158a8.356,8.356,0,0,0,1.748.018c1.465-.036,2.815.341,4.251.4.294.012.587-.036.874-.015a7.856,7.856,0,0,1,.937.246,18.529,18.529,0,0,0,1.871.395c.318.037.7.023.871.4Z" transform="translate(-176.54 -180.973)" fill-rule="evenodd"/>
        <path id="Path_31" data-name="Path 31" d="M337.789,155.032a1.01,1.01,0,0,1-1.037.125c.038-.487.832-.512,1.037-.125Z" transform="translate(-311.085 -149.341)" fill-rule="evenodd"/>
        <path id="Path_32" data-name="Path 32" d="M105.576,228.644c-.35.072-.351.336-.6.486a1.094,1.094,0,0,1,.152-.741,20.057,20.057,0,0,1,1.1-1.7,1.691,1.691,0,0,1,.188-.343c.108-.093.3-.127.385-.2.137-.122.181-.565.3-.792a19.774,19.774,0,0,1,1.672-2.1,4.619,4.619,0,0,1,.387-.619c.1-.1.286-.169.365-.24.154-.138.228-.427.349-.6.39-.553,1.077-1.068,1.516-1.6.152-.184.22-.423.349-.6a9.956,9.956,0,0,1,1.75-1.575,17.641,17.641,0,0,1,2.15-1.465c.318-.185,1.135-.566,1.588-.8.317-.167.882-.54,1.026-.193.108.262-.331.361-.526.446a16.143,16.143,0,0,0-2.6,1.357c-.373.254-.728.555-1.083.835s-.783.535-1.112.826-.638.75-.952,1.085c-.338.361-.733.679-1.05,1.038-.193.218-.291.488-.463.707s-.44.373-.679.624a6.1,6.1,0,0,0-.52.786c-1.185,1.763-2.581,3.583-3.684,5.376Z" transform="translate(-102.816 -203.841)" fill-rule="evenodd"/>
        <path id="Path_33" data-name="Path 33" d="M104.517,269.79c.172.344-.258.5-.219.8.767,0,.747-1.011,1.377-1.209.063.089.011.217-.014.3-.235.8-1.174,1.316-1.81,2.023-.478.531-.841,1.234-1.279,1.819-.159.212-.362.382-.5.582-.132.184-.037.47-.36.531.108-1.79,1.99-3.023,2.355-4.732.167-.089.342-.2.454-.115Z" transform="translate(-99.904 -252.322)" fill-rule="evenodd"/>
        <path id="Path_34" data-name="Path 34" d="M243.675,201.858c.187-.387.57-.311,1-.425.108-.029.224-.116.3-.131.185-.038.439.073.642.057.243-.02.478-.15.715-.178a6.647,6.647,0,0,1,.807.044c.8.024,1.614.087,2.439.074a6.881,6.881,0,0,1,1.586.176,5.446,5.446,0,0,0,1.947.257,1.162,1.162,0,0,1,.451.254,8.731,8.731,0,0,1,2.237.2c.343.055.728.131,1.091.214.317.072.847.041.96.479a6.218,6.218,0,0,1-3.485-.483c-.206.094-.359.017-.562.1-1.224-.35-2.618-.355-3.935-.64-.3-.065-.481-.2-.807-.044-1.688-.192-3.566.22-5.29.141a3.576,3.576,0,0,1-2.455.645c-.01-.127.1-.134.171-.187a3.551,3.551,0,0,1,2.185-.553Z" transform="translate(-225.34 -191.04)" fill-rule="evenodd"/>
        <path id="Path_35" data-name="Path 35" d="M126.083,219.736a12.409,12.409,0,0,1-2.769,1.029.851.851,0,0,1-.926.385c-.216.5-1.074.628-1.624.97a7.247,7.247,0,0,0-1,.892c-.333.312-.7.593-1.014.872-.674.6-1.268,1.257-1.813,1.828a17.428,17.428,0,0,0-1.491,1.929,9.994,9.994,0,0,0-1.355,1.956c-.362.219-.427.531-.812.742-.091.468-.618.688-.875,1.045-.185.258-.16.6-.285.908a4.6,4.6,0,0,1-1.206,1.585,1.941,1.941,0,0,1,.423-1.348,12.784,12.784,0,0,0,.892-1.2c.064-.128.043-.292.1-.419a5.2,5.2,0,0,1,.76-.984c.274-.32.555-.635.8-.956.512-.671.875-1.347,1.364-1.986s1.26-1.165,1.8-1.848c.229-.288.511-.624.8-.956a4.43,4.43,0,0,1,.916-.919c.1-.052.231-.037.319-.093.185-.119.334-.5.561-.709a1.132,1.132,0,0,1,.645-.312,2.945,2.945,0,0,1,1.854-1.139,1.286,1.286,0,0,1,.185.026c.064-.034.166-.368.341-.472s.274-.065.456-.018c1.071-.576,2.207-1.085,2.958-.809Z" transform="translate(-108.163 -207.648)" fill-rule="evenodd"/>
        <path id="Path_36" data-name="Path 36" d="M353.331,165.355a.482.482,0,0,1,.674.212.84.84,0,0,1-.269.189.761.761,0,0,1-.405-.4Z" transform="translate(-325.98 -158.802)" fill-rule="evenodd"/>
        <path id="Path_37" data-name="Path 37" d="M263.005,212.244a2.047,2.047,0,0,1,1.885-.47c.514-.309,1.013-.063,1.581-.115.309-.029.606-.163.871-.161.233,0,.458.175.692.153.159-.015.316-.1.474-.125a4.771,4.771,0,0,1,1.566.138,15.024,15.024,0,0,1,1.482.353c.379-.233.67-.03,1.04.069a6.567,6.567,0,0,0,1.441.227c.248.013.512-.036.757,0,.292.039.6.2.9.266.592.135,1.258.192,1.832.366.3.091.56.216.86.335.174.068.433.038.47.2.065.285-.339.312-.549.262s-.432-.171-.606-.223c-.6-.178-1.281-.055-1.784-.415a2.654,2.654,0,0,1-1.665-.282,1.241,1.241,0,0,1-.993-.119c-.184.039-.36.052-.542.087-.5-.28-1.118-.163-1.592-.516-.465.2-.748-.181-1.223.051a14.2,14.2,0,0,0-3.79-.128c-.424.006-.864-.061-1.263-.027-.624.054-1.33.565-1.844.081Z" transform="translate(-244.825 -200.315)" fill-rule="evenodd"/>
        <path id="Path_38" data-name="Path 38" d="M129.2,239.361a.463.463,0,0,1-.151.212,12.918,12.918,0,0,0-6.146,5.45l-.03.03a1.986,1.986,0,0,1-.545.454c-.242.969-1.423,1.635-1.332,2.755-.424.757-.787,1.7-1.241,2.513-.151.3-.333.545-.484.817-.151.333-.091.757-.3,1.06-.121.182-.333.3-.454.454-.454.575-.3,1.423-.969,1.938-.091-1.241.787-2.362,1.181-3.512a2.284,2.284,0,0,1,.182-.484c.151-.273.394-.454.545-.7.969-1.484.878-3.391,2.361-4.784a1.749,1.749,0,0,0,.363-.3,2.263,2.263,0,0,0,.182-.394,9.643,9.643,0,0,1,.939-1.029,9.94,9.94,0,0,1,.969-1c.121-.121.273-.212.394-.333.091-.091.121-.273.212-.394a1.677,1.677,0,0,1,1-.727c.394-.757,1.635-1.241,2.483-1.817C128.567,239.422,128.931,239.21,129.2,239.361Z" transform="translate(-114.129 -225.303)" fill-rule="evenodd"/>
        <path id="Path_39" data-name="Path 39" d="M257.5,225.346c-.091.061-.272,0-.424-.03-2.331-.363-4.541-1.393-6.842-1.937a3.279,3.279,0,0,0-.878-.545,6.318,6.318,0,0,0-.908-.454c-.182-.03-.424-.03-.636-.061a13,13,0,0,0-3.936-.424,2.587,2.587,0,0,1-.7.151,5.894,5.894,0,0,1-.606-.151c-.817.091-1.7.333-2.543.484h-.061a8.029,8.029,0,0,1-.848.091,2.045,2.045,0,0,1-.424-.06,1.052,1.052,0,0,1-.363.212.112.112,0,0,0-.091.03,7.337,7.337,0,0,0-1.09.3,1.845,1.845,0,0,0-.363.151h-.061a.227.227,0,0,1-.151-.03c0-.151.212-.242.333-.333a3.313,3.313,0,0,1,1.3-.575c.151,0,.333.061.454.061a2.764,2.764,0,0,0,.515-.272,3.374,3.374,0,0,1,1.423-.424c.212,0,.424.121.636.121.575,0,1.09-.363,1.7-.333.182,0,.363.151.545.182a7.139,7.139,0,0,0,.787-.03h.787a9.115,9.115,0,0,1,1.574.03c.424.091.878.272,1.332.363a5.374,5.374,0,0,0,1.362.151c.182,0,.363-.091.515-.091a2.912,2.912,0,0,1,.908.3c.606.151,1.423.03,2.028.242a8.252,8.252,0,0,0,.757.333c.424.121.908-.03,1.241.394a2.048,2.048,0,0,1,1.7.817,1.772,1.772,0,0,1-.878-.121,10.384,10.384,0,0,1-2.422-.818c-1.211.061-2.149-.575-3.33-.606h-.061a16.127,16.127,0,0,0,3.058,1.12,22.642,22.642,0,0,0,3.118.848C256.414,224.982,257.111,224.71,257.5,225.346Z" transform="translate(-221.086 -209.138)" fill-rule="evenodd"/>
        <path id="Path_40" data-name="Path 40" d="M305.35,234.458c-.515.454-.969-.121-1.453-.182a2.3,2.3,0,0,0-.424.03,4.32,4.32,0,0,1-1.181-.333,3.659,3.659,0,0,1-1.15-.484.923.923,0,0,1-.212-.3,4.331,4.331,0,0,1-2.241-.7,22.717,22.717,0,0,1-2.3-.818c-.939-.242-1.847-.515-2.755-.848-.7.121-1.271-.151-1.968-.061-.152.03-.3.061-.484.091h-.03a14.269,14.269,0,0,0-1.786-.363,2.022,2.022,0,0,1,.575-.151c.151,0,.3.121.454.121a4.074,4.074,0,0,0,.545-.091,1.957,1.957,0,0,1,.939.091,3.315,3.315,0,0,0,.333-.182,39.986,39.986,0,0,1,4.753.939c1.241.817,2.755.908,4,1.7a3.264,3.264,0,0,1,1.484.454C303.382,233.7,304.654,233.58,305.35,234.458Z" transform="translate(-268.509 -217.191)" fill-rule="evenodd"/>
        <path id="Path_41" data-name="Path 41" d="M127.591,352.7a1.063,1.063,0,0,0-.151.242c-.242.424-.394.938-.606,1.392a4.806,4.806,0,0,1-.394.666c-.151.212-.363.363-.515.606a3.472,3.472,0,0,0-.242.848c-.333.818-.908,1.635-1.241,2.362-.454-1.15.727-1.817.848-2.816.121-.061.182-.212.3-.212a6.26,6.26,0,0,1,.939-1.847c.212-.393.3-.878.515-1.272a10.7,10.7,0,0,1,.484-1.029A4.16,4.16,0,0,0,127.591,352.7Z" transform="translate(-120.238 -326.234)" fill-rule="evenodd"/>
        <path id="Path_42" data-name="Path 42" d="M329.593,242.852c-.818.333-1.362-.242-2.119-.06-2.937-.878-5.843-2.24-8.81-3.27a4.405,4.405,0,0,0-.575-.212c-.212-.03-.424,0-.666-.03-.091,0-.182-.03-.242-.03h-.03a12.362,12.362,0,0,0-1.544-.7,3.061,3.061,0,0,1,1.181.03c.515.091,1.03.333,1.514.454a27.514,27.514,0,0,1,3.058.969,37.316,37.316,0,0,1,3.784,1.3c.242.091.424.3.7.424.878.424,2.028.151,2.815.757C329.018,242.459,329.381,242.368,329.593,242.852Z" transform="translate(-292.085 -224.586)" fill-rule="evenodd"/>
        <path id="Path_43" data-name="Path 43" d="M138.121,373.19v.03c-.03.091-.03.151-.061.242a1.7,1.7,0,0,0-.394,1.514,5.18,5.18,0,0,0-.636,2.24c-.636.878-.151,2.18-1.362,2.846-.091-.091-.03-.242,0-.333a23.336,23.336,0,0,1,1.635-5.3,1.639,1.639,0,0,1,.091-.848,2.685,2.685,0,0,1,.06-.515c.061-.182.242-.394.333-.605a1.8,1.8,0,0,0,.121-.242A9.073,9.073,0,0,0,138.121,373.19Z" transform="translate(-130.374 -344.721)" fill-rule="evenodd"/>
        <path id="Path_44" data-name="Path 44" d="M365.227,269.123a1.276,1.276,0,0,1-.575.091c-.182-.03-.394,0-.545-.03a6.8,6.8,0,0,1-.878-.363c-1.937-.818-3.936-1.665-5.843-2.543-1.423-.636-2.785-1.362-4.208-1.907l.212-.394a2.222,2.222,0,0,0,.787.424c.212.061.515,0,.666.061a3.884,3.884,0,0,1,.394.333c.212.152.575.121.848.242a9.926,9.926,0,0,1,.939.515c.908.454,1.968.787,2.937,1.211.636.242,1.3.545,1.937.848a11.548,11.548,0,0,0,1.938.818C364.409,268.547,364.984,268.457,365.227,269.123Z" transform="translate(-325.842 -247.466)" fill-rule="evenodd"/>
        <path id="Path_45" data-name="Path 45" d="M115.215,321.264c-.069,1.057-.965,1.993-1.668,2.9a7.345,7.345,0,0,1-.161.819,1.89,1.89,0,0,1-.3.646c-.062.066-.152.093-.211.159-.344.386-.137,1.279-.872,1.239-.169-.361.238-.569.335-.86.037-.112-.01-.292.022-.428a5.97,5.97,0,0,1,.554-1.1c.508-.921,1.025-1.73,1.575-2.659.2-.341.268-.609.725-.722Z" transform="translate(-109.119 -298.937)" fill-rule="evenodd"/>
        <path id="Path_46" data-name="Path 46" d="M125.508,314.966a10.335,10.335,0,0,0-.545,2.271v.03l-.182.273c-.03,1.211-1,2.21-1.483,3.3a5.1,5.1,0,0,1-.151.545c-.151.273-.454.484-.636.757-.424.666-.363,1.544-1,2.059-.272-.575.424-.969.273-1.574.151-.061.151-.212.333-.3.333-1.665,1.847-2.967,2-4.693C124.9,316.843,124.963,315.814,125.508,314.966Z" transform="translate(-117.64 -293.279)" fill-rule="evenodd"/>
        <path id="Path_47" data-name="Path 47" d="M359.558,278.917c-.182-.484-.545-.424-.939-.515a12.808,12.808,0,0,1-4.481-2.271,9.433,9.433,0,0,1,2.543,1.241,18.583,18.583,0,0,0,2.3.757c.121.03.182.121.3.091.182-.061.3-.273.515-.3-.03.3.091.636.484.3v-.03a.952.952,0,0,1-.151-.3c-.515-.545-1.241-.3-1.726-.939a.674.674,0,0,0,.394-.7,2.637,2.637,0,0,0-1.726-.424,15.642,15.642,0,0,0-3.512-1.7,2.238,2.238,0,0,1-1.06-.454c-1.181-.666-2.513-1.211-3.724-1.816a12.77,12.77,0,0,0-2.18-.939.957.957,0,0,1-.273-.091l-.212.424a14.089,14.089,0,0,0,2.694,1,8.571,8.571,0,0,0,3.33,1.726c.151.333.424.273.666.363.454.151.969.606,1.393.757.272.091.575.03.848.121a6.083,6.083,0,0,1,.545.394,6.645,6.645,0,0,0,1.635.908c.363.121.727.091,1.029.394a2.293,2.293,0,0,1-.908,0c-.182-.061-.363-.242-.575-.333-2.634-1.362-5.449-2.3-8.023-3.845a5.21,5.21,0,0,0-.545-.333c-.121-.061-.272-.061-.424-.121a2.218,2.218,0,0,0-.757-.242,3.3,3.3,0,0,0-1-.575l-.3.575a6.508,6.508,0,0,0,1.544.454c1.7,1.029,3.451,1.786,5.147,2.785l.485-.182c.06.182.151.363.212.575a.915.915,0,0,1,.848.3c-.151,0-.333-.091-.484.091a2.026,2.026,0,0,0,.787.878c.878.7,1.907,1.06,2.785,1.756a2.375,2.375,0,0,1,.666.151,4.688,4.688,0,0,0,.666.363c.121.03.272.121.363.151a1.455,1.455,0,0,1,.363,0,2.747,2.747,0,0,0,1.635-.03A1.08,1.08,0,0,0,359.558,278.917Z" transform="translate(-319.144 -253.627)" fill-rule="evenodd"/>
        <path id="Path_48" data-name="Path 48" d="M145.291,387.386a9.662,9.662,0,0,0-.636,1.7c.151,1.483-.848,2.573-.817,4.027-.424.394-.3.908-.848,1.271v-.03a4.235,4.235,0,0,1,.121-1.635,5.551,5.551,0,0,1,.242-.757,4.064,4.064,0,0,0,.363-.727,7.077,7.077,0,0,0,.121-.787,7.55,7.55,0,0,1,.575-2.3,4.484,4.484,0,0,0,.242-.394,4.728,4.728,0,0,0,.151-1.332.431.431,0,0,1,.061-.182,2.994,2.994,0,0,0,.151.484A4.394,4.394,0,0,0,145.291,387.386Z" transform="translate(-136.969 -357.312)" fill-rule="evenodd"/>
        <path id="Path_49" data-name="Path 49" d="M353.283,256.124a1.74,1.74,0,0,1-1.726-.273,4.5,4.5,0,0,1-1.847-.787c-.908-.515-2.089-.636-3-1.09-.242-.121-.485-.272-.727-.394s-.515-.151-.727-.272c-.151-.091-.272-.242-.454-.272-.091-.03-.212.03-.333.03a4.458,4.458,0,0,1-1-.424c-.333-.182-.666-.363-.939-.515a4.211,4.211,0,0,0-.848-.363l-.03-.03a.111.111,0,0,0-.091-.03,6.731,6.731,0,0,0-1.211-.848.515.515,0,0,1,.212.03c2.059.605,4.178,1.665,6.025,2.271.091.182.272.151.363.333a8.157,8.157,0,0,1,3.179,1.211c.151-.121,0-.333.091-.454a3.068,3.068,0,0,1,2.331.848c-.7.273-1.12-.3-1.786-.151C351.466,255.579,352.617,255.276,353.283,256.124Z" transform="translate(-314.322 -235.678)" fill-rule="evenodd"/>
        <path id="Path_50" data-name="Path 50" d="M161.55,290.683a2.278,2.278,0,0,0-.242.545,2.709,2.709,0,0,1-.273.484,4.4,4.4,0,0,0-.575,1.029c-.03.151.061.3.03.454l1.453-2.846A2.278,2.278,0,0,0,161.55,290.683Zm.727-1.937a6.047,6.047,0,0,0-.575.636,10.971,10.971,0,0,0-1.15,1.241,6.486,6.486,0,0,0-.454.666c-.121.212-.121.454-.212.636a1.614,1.614,0,0,1-.363.606c-.151,1.514-.7,2.906-.878,4.42l.878-1.756c-.03.03-.03,0-.061,0,0-.121.121-.212.212-.3l.061-.151a4.584,4.584,0,0,0,.182-.969,7.6,7.6,0,0,1,.757-2.392,2.087,2.087,0,0,1,.212-.454c.121-.151.3-.272.454-.454a5.588,5.588,0,0,1,1.272-1.423l.333-.636A2.74,2.74,0,0,0,162.276,288.746Zm.787,10.415-.212.454a3.676,3.676,0,0,0,.606.273C163.306,299.645,163.185,299.4,163.064,299.161Zm1.877.787c-.03-.091-.272.061-.363-.06a7.033,7.033,0,0,0-.878-1.968l-.515,1.06v.03c.151.272.424.575.636.878.03.06.061.091.091.151.333.091.7.151,1.06.212A.545.545,0,0,0,164.941,299.948Zm1.06-.06a.878.878,0,0,0-.151-.545c-.121-.151-.363-.182-.484-.333a6.454,6.454,0,0,1-.606-1.211,11.208,11.208,0,0,1-.424-1.181l-.454.969a.273.273,0,0,0,.03.151,4.757,4.757,0,0,0,.394.545c.424.666.817,1.393,1.241,2a7.944,7.944,0,0,0,.818-.03A4.112,4.112,0,0,1,166,299.887Zm1.937-.121a2.476,2.476,0,0,1-.575-.182c-.7-.333-1.12-1.3-1.635-2a4.338,4.338,0,0,1-.575-.878,4.172,4.172,0,0,1-.06-1.6l-.515,1.03.091.454a5.679,5.679,0,0,0,1.029,2.21c.121.121.3.212.424.333.3.272.606.727.908,1.06a6.125,6.125,0,0,0,1-.272C168,299.857,167.968,299.827,167.938,299.766Zm3.663-6.176a2.606,2.606,0,0,0,.03-.454,5,5,0,0,0-.636-1.272,8.675,8.675,0,0,0-1.7-1.907,6.862,6.862,0,0,0-.878-.787.911.911,0,0,0-.3-.121l-.3.575c.212.03.484.212.666.212.03.454.545.515.878.787a10.442,10.442,0,0,1,1.211,1.756,5.85,5.85,0,0,1,.393.515,3.868,3.868,0,0,1,.182.7,11.078,11.078,0,0,1,.182,1.968C172.328,295.437,171.662,294.286,171.6,293.59Zm-.091,2.24c-.212.061-.273-.182-.515-.182-1.665,1.15-3.482.575-3.693-1.332.545-.606,1.574-.787,2-.363-.545.424-1.423-.212-1.7.606.484.363,2.271.363,2.331-.545.061-.848-1.06-1.362-1.453-1.968,1.029-.242,1.483,1.3,1.907,2.271-.061.242-.333.484-.061.787-.182.061-.394-.272-.636-.242-.182,0-.515.242-.757.273-.424.061-1-.424-1.181.091.363.545.938.363,1.362.727.575-.363,1.211-.212,1.574-.666.272-.333.091-.757.242-1.15-.666-1.362-1.272-3.179-2.452-3.663a2.447,2.447,0,0,1-.908-.394l-.484,1c.636-.091,1.544-.091,1.12.575a8.28,8.28,0,0,1-1.241-.3l-1.847,3.693a10.967,10.967,0,0,0,.666,1.907,3.016,3.016,0,0,0,.333.3c.151.212.242.454.363.636a5.952,5.952,0,0,0,2.089,1.847h.03a4.083,4.083,0,0,0,.727-.363,8.1,8.1,0,0,1-1-.636c-.3-.212-.7-.394-.666-.818-.575.242-.7-.394-1.06-.848-.091-.091-.242-.152-.333-.273a3.535,3.535,0,0,1-.182-.666,3.852,3.852,0,0,1-.484-2,4.472,4.472,0,0,0,.908-.7,3.118,3.118,0,0,1,1.756-.454.79.79,0,0,1,.636.333c-.394.182-1.06-.03-1.574.06a1.758,1.758,0,0,0-.727.333c-.182.212-.03.545-.061.818-.151-.151-.273-.3-.454-.272-.484.545.03,1.544.545,2.24a5.726,5.726,0,0,0,1.7,1.453,4.746,4.746,0,0,1,.454-.182c.272.121.515.394.818.454A2.909,2.909,0,0,0,171,298.01a6.634,6.634,0,0,0,.606-.757,4.239,4.239,0,0,1-1.211.333,3.4,3.4,0,0,1-3.815-2.785c.605.484.878,1.3,1.393,1.726.636.545,1.423.484,2.089.878.394-.242,1.393-.424,1.544-.939.121-.061.242.03.394-.03a4.519,4.519,0,0,0,.333-1.211C172.025,295.376,171.843,295.77,171.51,295.83Zm-3.754-3.361c-.363,0-.848.121-1.15-.061.03-.484.7-.3.908,0,.182-.151.515-.182.575.091C168,292.561,167.877,292.5,167.756,292.47Zm2.15,4.148c.333-.242.666-.151,1.06-.394C170.9,296.587,170.178,296.92,169.906,296.618Zm2.271-4.814a7.463,7.463,0,0,0-.666-.757,12.1,12.1,0,0,0-.818-.939c-.242-.272-.606-.454-.848-.757a5.991,5.991,0,0,0-.817-.908,3.948,3.948,0,0,0-.454-.3l-.272.545c.817.636,1.514,1.423,2.361,2.15a4.756,4.756,0,0,1,.757.817c.182.272.242.575.424.878.151.212.333.454.545.7v-.061A11.823,11.823,0,0,0,172.176,291.8Zm.575,12.685a1.5,1.5,0,0,0-.394-.091c-.3.151-.636.333-1,.515a3.312,3.312,0,0,1,2.241.061c-.787.272-1.423,0-2.18.151-.061-.091-.182,0-.242-.151a6.485,6.485,0,0,1-.666.3c.272.061.545.424.787.424.182,0,.394-.151.575-.151a2.571,2.571,0,0,1,.666.121,3.411,3.411,0,0,0,2.15-.848A1.728,1.728,0,0,0,172.752,304.489Zm.666,3.3c-.787-.182-1.756.273-2.513-.061-.091.152-.273.091-.424.182-.848-.3-1.877-.03-2.664-.484-.636.3-1-.212-1.574-.061-.515-.515-1.241-.3-1.756-.787-.545.212-.908-.151-1.3-.484a12.6,12.6,0,0,1-1.847-.424l.061.06a3.334,3.334,0,0,0,.787.545c.3.212.545.454.787.606a3.769,3.769,0,0,0,.817.3,11.367,11.367,0,0,1,2.483.818,1.785,1.785,0,0,1,1.423.272c.908.061,1.938.091,2.876.212a5.682,5.682,0,0,0,.939.121,7.061,7.061,0,0,0,.757-.212,5.5,5.5,0,0,1,.757-.212c.454-.091.969.03,1.392-.3C174.265,307.456,173.811,307.547,173.418,307.789Zm5.086-15.168a.351.351,0,0,1-.3-.121c.03.363.061.727.061,1.09.03.061.091.121.121.182a3.7,3.7,0,0,1,.606,1.06c.061.182.03.484.091.787a4.456,4.456,0,0,1,.151.787c-.03.545-.424.939-.636,1.484-.182.484-.151.969-.3,1.3-.182.454-.666.727-1.06,1.12-.3.272-.575.545-.878.787a5.043,5.043,0,0,1-.848.545c-.212.272-.454.545-.7.817a.762.762,0,0,1,.212-.121c.3-.151.666-.182.939-.333a6.321,6.321,0,0,0,.606-.454,8.036,8.036,0,0,0,2.6-3.028c.091-.182.091-.424.182-.606.121-.212.273-.363.363-.545C180.351,295.982,179.745,294.226,178.5,292.621Zm5.51,2.3c-.121.03-.272.03-.363.061a2.4,2.4,0,0,0-.363.394c-.817.848-1.362,1.665-2.089,2.483-.121.151-.3.242-.394.393-.121.242-.06.575-.212.787-.061.091-.212.182-.3.3-.666.7-1.15,1.544-1.816,2.24a10.712,10.712,0,0,1-3.27,2c-.515,0-1.029-.06-1.574-.091-.182.151-.363.3-.575.454a.837.837,0,0,0,.273.03c.333,0,.7-.06.969-.06.212,0,.424.151.606.151a4.833,4.833,0,0,0,1.271-.424,12.577,12.577,0,0,0,5.389-5.268,4.7,4.7,0,0,1,.636-1c.151-.182.363-.3.545-.515a6.522,6.522,0,0,1,1.453-1.574c.333-.182.575-.03.757-.394C184.771,294.438,184.377,294.8,184.014,294.922Zm1.937,1.726c-.242.03-.363.272-.515.454-.394.484-1.15.939-1.453,1.453-.121.242-.121.484-.3.666-.121.152-.363.273-.515.424-.091.121-.151.394-.273.575-.454.515-1.332.848-1.907,1.362-.515.454-1,1.09-1.514,1.574a19.141,19.141,0,0,1-2.089,1.332c-.394.212-.787.394-1.211.605a7.262,7.262,0,0,1-1.12.515c-.121,0-.242-.091-.363-.061a2.46,2.46,0,0,0-.636.3,4.015,4.015,0,0,1-1.181.121,8.555,8.555,0,0,1-1.211.06c-.7-.03-1.3-.363-2-.454a2.06,2.06,0,0,0-.242.091,9.94,9.94,0,0,1-1.7.424,1.361,1.361,0,0,1,.545.212c.606-.363.878.3,1.514-.121.7.121,1.393.605,2.21.182a5.116,5.116,0,0,0,2.755-.151c.273.121.606-.151.939-.363a5.884,5.884,0,0,1,2.028-.939c.787-.7,1.635-1.06,2.422-1.665.727-.575,1.211-1.362,1.938-1.847a1.192,1.192,0,0,0,.394-.182c.151-.121.182-.363.333-.515a1.59,1.59,0,0,0,.3-.182c.121-.091.151-.333.273-.454.272-.3.666-.515.939-.848.3-.394.515-.908.848-1.271S186.285,297.253,185.952,296.648Zm.091,1.332c-.333.151-.424.454-.818.545a16.718,16.718,0,0,1-2.361,2.785c-.3.3-.7.545-1,.848s-.575.636-.878.908c-.7.575-1.453,1.12-2.241,1.665a9.136,9.136,0,0,1-1.211.787c-.545.273-1.423.333-1.665.848a3.091,3.091,0,0,0-1.15.3,5.652,5.652,0,0,1-1.029.121,9.181,9.181,0,0,1-2,.121c-.484-.03-.939-.242-1.362.061-.151-.061-.273-.182-.424-.242-.394.272-.606.091-.969-.03-.7-.182-1.393-.3-2.089-.484a11.893,11.893,0,0,1-2.543,0,10.554,10.554,0,0,1,2.059.757,1.956,1.956,0,0,1,.727,0c.242.061.454.242.666.272a4.257,4.257,0,0,0,.878.03,16.458,16.458,0,0,1,1.756.151c.3.03.636.151.848.151a2.738,2.738,0,0,0,.484-.091,2.292,2.292,0,0,1,.908,0,2.143,2.143,0,0,0,.424.03,3.5,3.5,0,0,0,.333-.151c.939-.272,2.18.091,2.785-.727.818.03,1.423-.787,2.21-1.181a7.39,7.39,0,0,0,.727-.3c.091-.091.152-.242.273-.333.212-.182.575-.272.848-.454.666-.424,1.12-1.12,1.7-1.483.212-.151.515-.212.7-.394.212-.212.3-.545.515-.757.151-.121.394-.242.545-.363a7.831,7.831,0,0,0,1.362-1.665,7.227,7.227,0,0,0,.908-1.3C186.012,298.283,186.133,298.041,186.042,297.98Zm.7,3.179a12.276,12.276,0,0,0-2.573,1.816c-.273.212-.606.394-.848.605s-.424.484-.666.7c-1.726,1.6-4.208,2.785-6.328,4.087a16,16,0,0,0-3.3,1.181c-.424-.212-1.12.484-1.453-.03.545-.424,1.211-.121,1.817-.363.424-.151.7-.575,1.06-.424.121-.484,1.15-.666,1.453-1.09.212,0,.363.212.575.121.152-.091.121-.272.273-.363.121-.061.333-.03.484-.091a14.394,14.394,0,0,0,1.484-.848,2.03,2.03,0,0,0,.454-.182,2.454,2.454,0,0,1,.273-.3,7.21,7.21,0,0,1,.848-.394,19.967,19.967,0,0,0,1.544-1.362c.212-.121.424-.151.606-.273.212-.121.272-.333.454-.484a6.284,6.284,0,0,1,1.12-.818,8.928,8.928,0,0,0,.939-.908c.605-.575,1.453-.908,1.665-1.574.03-.06.06-.182,0-.242-.454.182-.575.636-1.029.939-.515.333-1.211.394-1.635.817-.151.151-.182.394-.333.545a8.791,8.791,0,0,1-1,.787c-.969.757-1.968,1.574-2.967,2.3a21.9,21.9,0,0,1-2.3,1.362,5.238,5.238,0,0,1-1.181.545,5.662,5.662,0,0,0-1.211.394c-.3.182-.394.515-.666.7a4.757,4.757,0,0,1-1.907.454q-.5.045-.908.091c-.333.03-.636.061-.939.061a6.656,6.656,0,0,1-1.12-.212,3.328,3.328,0,0,0-1.211.091,14.473,14.473,0,0,0-3.754-.908,2.468,2.468,0,0,0-.515-.333c-.394-.151-.908-.091-1.272-.272a4.68,4.68,0,0,1-1.362-1.151c-.151-.182-.333-.394-.484-.606-.3-.121-.575-.242-.848-.363a8.071,8.071,0,0,0,.605,1.453,2.909,2.909,0,0,0,.666.485,6,6,0,0,0,2.089,1.181,13.4,13.4,0,0,1,1.514.3,3.358,3.358,0,0,0,1.877.333c.908.485,2.028.3,2.967.636a1.964,1.964,0,0,1,1.665.03c-.182.333-.545.06-.757.06a8.709,8.709,0,0,0-.878.121,5.949,5.949,0,0,1-2.3-.394c-.182.121-.3.06-.484.151-1.06-.575-2.513-.545-3.724-.848a2.3,2.3,0,0,1-.878-.394c-.333-.212-.7-.515-1.06-.7-.152-.061-.454-.091-.575-.242a4.612,4.612,0,0,1-.727-1.393,7.978,7.978,0,0,1-.3-.908c-.212-.121-.424-.212-.606-.333a13.855,13.855,0,0,0,.666,1.877,4.076,4.076,0,0,0,.242.727c.787,1.423,2.392,1.393,3.33,2.089a1.913,1.913,0,0,1,1.241.212c.121-.06.333,0,.424-.121a8.09,8.09,0,0,0,3.118.666,13.584,13.584,0,0,0,2.422.3,5.174,5.174,0,0,0,.908-.273c.394-.091.848.061,1.271-.091a1.418,1.418,0,0,0,.273-.182c.242-.091.575-.061.878-.151a10.485,10.485,0,0,0,2.755-1.211c.363.061.666-.3,1.029-.515.515-.333,1.15-.515,1.7-.817a33.1,33.1,0,0,0,3.694-2.543c.242-.212.545-.333.757-.545.091-.091.121-.333.272-.454.182-.151.484-.212.7-.363.666-.454,1.029-1.15,1.544-1.544C186.466,301.613,186.86,301.492,186.739,301.159Zm-2.361-7.478c-.151-.03-.394-.061-.424-.212.272-.242.606.182.848-.121-.272-.666-1.181-.3-1.665-.454-.939-.333-1.816-.908-2.725-1.241-.212-.394-.636-.333-.969-.545a7.88,7.88,0,0,1-.818-.666c-.333-.3-.636-.605-.969-.878.061.242.151.515.212.818a6.546,6.546,0,0,0,.757.818,10.369,10.369,0,0,0,1.907,1c.969.454,1.816,1.211,2.816,1.665a2.339,2.339,0,0,0,1,.3,1.589,1.589,0,0,0,.575-.333C184.8,293.681,184.589,293.711,184.377,293.681Zm-1.817.394c-.242-.152-.394-.424-.666-.605-.242-.151-.545-.273-.757-.424a3.018,3.018,0,0,0-.636-.606.741.741,0,0,0-.363-.121c-.091-.03-.273-.121-.333.03a3.954,3.954,0,0,0,1.3,1.423c.484.363,1.029.636,1.483.969-.3.182-.212.454-.515.636-.121-.454-.363-1.181-.817-1.211-.454.394.273,1.06.3,1.6a2.267,2.267,0,0,1-.151.484.716.716,0,0,1-.363.424,2.667,2.667,0,0,0-.182-1.7c-.091-.363-.03-.727-.182-.969-.182-.424-.575-.605-.818-.908-.393-.454-.575-.969-.939-1.393a8.74,8.74,0,0,0-.969-.878c.061.333.121.666.182,1.06a9.348,9.348,0,0,1,1.12,1.271,4.561,4.561,0,0,1,.575.757c.7,1.151.363,1.968.666,3.028a20.065,20.065,0,0,1-2.907,4.39c-.7.03-.969.787-1.544,1.09s-1.272.121-1.726.666c.3.333.757.151,1.12,0a5.746,5.746,0,0,0,1.3-.636,4.372,4.372,0,0,0,.666-.636,6.49,6.49,0,0,1,.787-.575c.182-.182.333-.484.515-.7a8.239,8.239,0,0,0,1.786-2.573c.3-.151.242-.636.484-.818.121-.091.272-.121.393-.212.394-.333.484-.939.878-1.181.121-.091.272-.091.363-.182.182-.151.212-.454.394-.605.182-.121.787-.212.7-.515C183.59,294.044,182.773,294.256,182.561,294.075ZM154.223,300.8a.881.881,0,0,0,.061.272,9.487,9.487,0,0,0-.7,3.33c-.03.394,0,.818-.06,1.181-.061.3-.182.575-.212.878a3.773,3.773,0,0,1-.3,1.453c.091.515-.242.878.061,1.453.363-.151.273-.454.3-.7a2.512,2.512,0,0,0,.424-1.756.836.836,0,0,0,.061-.848c.363-.575-.03-1.423.363-2a4.8,4.8,0,0,1,.182-1.726c.091-.333.242-.666.333-1A4.386,4.386,0,0,1,154.223,300.8Zm.757.787a13.681,13.681,0,0,0-.515,3.905,1.607,1.607,0,0,0-.151,1.453c.515-.212.363-.878.454-1.332.03-.151.121-.273.151-.424s-.03-.333,0-.515a11.245,11.245,0,0,0,.242-2,.77.77,0,0,0,.273-.636Zm1.06.939a4.788,4.788,0,0,1-.454-.363.23.23,0,0,0-.061.121,4.449,4.449,0,0,0-.03,1.423,5.311,5.311,0,0,1-.212,1.362,10.19,10.19,0,0,1-.7,2.634c-.394.151-.363.393-.424.666a2.044,2.044,0,0,0-.121,1.635c.636-.272.484-.908.666-1.362.091-.182.242-.333.333-.515a11.66,11.66,0,0,1,.424-1.09,1.407,1.407,0,0,1,.091-.939,3.353,3.353,0,0,0,.212-.484,4.9,4.9,0,0,0-.03-.666,5.361,5.361,0,0,1,.03-.7A12.006,12.006,0,0,1,156.04,302.521Zm6.146-16.863a4.954,4.954,0,0,0-.908.424,9.589,9.589,0,0,0-4.481,5.661,1.823,1.823,0,0,1-.182.575c-.03.06-.151.121-.212.182a1.338,1.338,0,0,0-.182.484v.03a3.209,3.209,0,0,0,.182.575,1.47,1.47,0,0,0,.03-.363c.7-1.271,1.211-2.543,2.119-3.905a7.113,7.113,0,0,1,3.815-3.24c.182-.03.363.06.575.03a5.48,5.48,0,0,0,.939-.273c.03,0,.061-.03.091-.03A5.288,5.288,0,0,0,162.186,285.658Zm1.3.727a10.233,10.233,0,0,0-1.847.515,8.558,8.558,0,0,0-2.725,2.816c-.242.363-.575.636-.818,1a4.313,4.313,0,0,0-.272.818c-.273.757-.757,1.453-.939,2.18-.061.182-.03.363-.121.515a.227.227,0,0,0-.151.03,2.366,2.366,0,0,0,.151.424.23.23,0,0,0,.06-.121,1.932,1.932,0,0,0,.636-.787c.151-.333.121-.666.242-.939.091-.212.272-.363.363-.545a5.492,5.492,0,0,0,.424-1.181,2.093,2.093,0,0,1,.212-.575,2.189,2.189,0,0,1,.273-.242c.212-.273.3-.606.7-.787,0-.575.757-.969,1.211-1.423a1.606,1.606,0,0,1,.272-.333,4.788,4.788,0,0,1,1.332-.575c.212-.091.424-.212.666-.3a6.154,6.154,0,0,1,.666-.273h.03l.182-.363C163.851,286.294,163.669,286.324,163.487,286.384Zm9.749,2.513c-.3-.242-.605-.454-.878-.636-.606-.424-1.241-.787-1.756-1.211-.151-.121-.3-.3-.424-.394a5.21,5.21,0,0,0-.727-.3l-.242.515a1.839,1.839,0,0,1,.363.151c.3.151.575.394.908.575.273.182.575.363.878.545a8.123,8.123,0,0,1,1.756,1.272,1.661,1.661,0,0,1,.212.272l.636-.212C173.781,289.291,173.448,289.109,173.236,288.9Zm-20.859,9.264c-.121-.212-.242-.454-.363-.7-.666,2.089-.939,4.3-1.726,6.3.151.424-.394.818.091,1.151.606-.3.606-.817.575-1.332a21.021,21.021,0,0,0,1.181-4.753A5.881,5.881,0,0,0,152.377,298.162Zm7.992-12.14a8.339,8.339,0,0,0-1.937,1.211,5.157,5.157,0,0,1-.969,1.029,6.655,6.655,0,0,0-.575.908,7.833,7.833,0,0,0-.394.939,6.129,6.129,0,0,0,.545-.393,5.128,5.128,0,0,0,.394-.818,7.046,7.046,0,0,1,2.089-2.271,8.583,8.583,0,0,1,1.029-.666C160.49,285.991,160.43,285.991,160.369,286.021Zm14.532,2.21a3.189,3.189,0,0,1,.939.515l.666-.242c-.091-.061-.151-.121-.242-.182-.424-.242-.939-.212-1.241-.666-1.453-.06-2.361-1.514-3.754-1.816-.212-.03-.454,0-.7-.03a2.348,2.348,0,0,1-.666-.363l-.272.545a1.481,1.481,0,0,0,.848.333c.242.03.484-.151.666.121-.152.061-.363,0-.454.182a3.116,3.116,0,0,0,1.393,1.029,9.127,9.127,0,0,1,1.423,1.06c.242.212.454.424.7.636l1.211-.454-.03-.03c-.212-.242-.3-.515-.545-.515-.121-.03-.394.06-.424.151-.06.212.212.3.242.545-.636-.212-.908-.939-1.484-1.241-.151-.091-.424-.061-.545-.182-.121-.061-.182-.242-.273-.3-.3-.272-.727-.363-.969-.7.969-.03,1.544.908,2.392,1.272C174.175,288.05,174.538,288.05,174.9,288.231Z" transform="translate(-143.449 -266.756)" fill-rule="evenodd"/>
        <path id="Path_51" data-name="Path 51" d="M161.107,417.213a5.608,5.608,0,0,0-.394,1.211c0,.182.091.394.091.545.03.787-.636,1.665-.636,2.483a2.166,2.166,0,0,1,.03.878c-.03.212-.212.333-.3.515-.091.212.03.454-.182.606-.242-.121-.333-.545-.363-.757,0-.3.152-.666.152-1.029.03-.152-.03-.3,0-.454a7.268,7.268,0,0,1,.394-1.241c.363-1.453.666-3,1-4.511a4.163,4.163,0,0,0,.515.757C161.319,416.547,161.228,416.88,161.107,417.213Z" transform="translate(-151.695 -383.567)" fill-rule="evenodd"/>
        <path id="Path_52" data-name="Path 52" d="M169.485,428.394a2.7,2.7,0,0,0-.242,1.06c0,.151.091.3.091.454a5.729,5.729,0,0,1-.273.636c-.151.575,0,1.272-.151,1.907-.061.3-.273.606-.363.908-.151.666.061,1.362-.636,1.816-.272-.333.03-.515.121-.787a4.8,4.8,0,0,0,.091-.969,7.593,7.593,0,0,1,.3-2.331c.03-.152.121-.3.151-.454a6.265,6.265,0,0,0,.091-.787c.121-1.029.363-2.028.575-3.058a4.722,4.722,0,0,0,.484.606A3.017,3.017,0,0,1,169.485,428.394Z" transform="translate(-159.285 -393.748)" fill-rule="evenodd"/>
        <path id="Path_53" data-name="Path 53" d="M209.639,336.956a1.77,1.77,0,0,1-.242.666c-.151.182-.363.363-.484.545a.158.158,0,0,0-.061.121,4.252,4.252,0,0,1,.03-.606C209.064,337.379,209.124,336.744,209.639,336.956Z" transform="translate(-196.17 -312.997)" fill-rule="evenodd"/>
        <path id="Path_54" data-name="Path 54" d="M194.191,318.065v.121c-.03.182-.151.333-.182.484a7.085,7.085,0,0,0,.03.787,15.787,15.787,0,0,1-.727,4.3,2.4,2.4,0,0,1-.575,1.181c.212.484-.03.818-.212,1.181-.152.242-.333.545-.152.787.212,0,.182-.3.394-.515.363-.272.939-.393.545-.908a1.046,1.046,0,0,0,.3-.333,8.709,8.709,0,0,0,.121-.878c.787-1.756.727-3.875.908-5.843A2.973,2.973,0,0,1,194.191,318.065Zm2.967-12.019c-.3.515-.545,1.09-.818,1.635-.3.545-.605,1.09-.848,1.635a5.064,5.064,0,0,0-.363,1.483,1.944,1.944,0,0,0,.3.394,3.53,3.53,0,0,1,.363-1.241c.091-.182.242-.3.3-.454.091-.242.03-.515.121-.757.182-.363.575-.545.787-.908.121-.212.091-.515.242-.757a1.317,1.317,0,0,1,.272-.333c.212-1.483,1.756-2.816,3.542-3.633l.333-.636A7.207,7.207,0,0,0,197.158,306.046Zm13.049-.727.515-.182a13.575,13.575,0,0,0-2.18-1.847,6.635,6.635,0,0,0-1.665-.848l-.273.575a.23.23,0,0,1,.121.06c.333.272.454.787.848,1.12.151.121.424.182.575.3.121.121.212.3.333.424.242.242.515.454.757.666l.454.454a2.872,2.872,0,0,0-.182-.454l.394-.151a3.327,3.327,0,0,0-.757-.818c-.333-.212-.787-.272-.878-.727A4.116,4.116,0,0,1,210.207,305.319Zm-2.543-1.907c.121-.03.182.03.242.182C207.754,303.654,207.694,303.563,207.663,303.412Zm.121,10.475a1.184,1.184,0,0,0-1.181-.242c.151.545.7.575,1.181.606a4.328,4.328,0,0,0,.545-.454A1.713,1.713,0,0,1,207.784,313.887Z" transform="translate(-181.297 -282.027)" fill-rule="evenodd"/>
        <path id="Path_55" data-name="Path 55" d="M130.5,388.223c-.181,1.145-.821,2.145-1.03,3.281-.633.44-.3,1.181-.914,1.628a.882.882,0,0,1,.3-1.306,2.11,2.11,0,0,0-.154-.483,6.156,6.156,0,0,0,.76-1.5,8,8,0,0,1,.653-1.517c.066-.1.243-.1.387-.1Z" transform="translate(-123.871 -359.098)" fill-rule="evenodd"/>
        <path id="Path_56" data-name="Path 56" d="M201.788,467.776c-.091.151-.091.3-.212.454a1.338,1.338,0,0,1,.03.908c-.091.06-.272.091-.363.182a2.889,2.889,0,0,0-.212.666,4.862,4.862,0,0,1-1.151,1.817c-.091,0-.182-.091-.272-.121.121-.272.061-.605.424-.787a21.2,21.2,0,0,0,1.211-3.542,3.918,3.918,0,0,0,.151-1.3c-.03-.151-.121-.3-.151-.454a5.4,5.4,0,0,1,.182-1.544,4.554,4.554,0,0,0,.212-1.181c.151.121.333.242.484.363-.061.454-.151.878-.182,1.332A16.3,16.3,0,0,1,201.788,467.776Z" transform="translate(-187.865 -426.167)" fill-rule="evenodd"/>
        <path id="Path_57" data-name="Path 57" d="M227.147,362.662a3,3,0,0,0-.394,1.211c0,.121.061.242.061.394,0,.182-.151.3-.212.515,0,.061-.03.091,0,.151a2.639,2.639,0,0,1-.454-.394v-.03c.03-.242.06-.515.091-.757a6.335,6.335,0,0,0,.727-2.21c.03-.152.3-.182.394-.152A2.038,2.038,0,0,1,227.147,362.662Z" transform="translate(-211.71 -334.98)" fill-rule="evenodd"/>
        <path id="Path_58" data-name="Path 58" d="M231.279,477.2a3.338,3.338,0,0,0-.727-.061c-.182.03-.242.121-.363.151a7.356,7.356,0,0,1-1.393-.061c-.757,0-1.362.3-1.938.061-.484.363-1.06.03-1.574.03-.636,0-1.332.242-1.847-.091-.848.424-1.453.606-2.271,1-.242-.515.394-1.09.848-1.362,1-.636,2.028-.151,2.937-.212.152,0,.273-.06.394-.06a4.665,4.665,0,0,1,.515.151,3.013,3.013,0,0,0,1.635-.03c-.363-.424-.939,0-1.423-.091-.3-.03-.515-.3-.787-.333-.152,0-.333.091-.515.091-.212,0-.394-.212-.575-.212s-.363.121-.545.121c-.515.091-.969-.212-1.453-.242-.151-.212-.121-.424-.272-.575-.242.212-.121.484-.03.787-.878.908-1.06,2.149-2.361,2.876-.182-.515.3-.848.545-1.211a3.184,3.184,0,0,0,.757-1.7,2.616,2.616,0,0,0,.485-.545c-.363-.666-.485-1.211-.061-1.635.394.333.242.848.575,1.3a4.144,4.144,0,0,0,.121-.7c-.212-.545-.575-.757-.817-1.3a6.415,6.415,0,0,1-.333-1.847,8.048,8.048,0,0,0-.212-1.181l.545.363c.061.424.182.908.3,1.393.091.333.182.666.3,1.06a4.35,4.35,0,0,0,.454,1,2.188,2.188,0,0,0,.969.545,2.9,2.9,0,0,1,1,.545.327.327,0,0,0-.06.242c-.727.212-1.211-.333-1.786-.545.091.939,1.09.575,1.6.878.424-.333.787-.182,1.181-.121a6.807,6.807,0,0,0,2.482.242,5.966,5.966,0,0,0,1.817.7c.3.03.636-.121.969-.091.242,0,.515.121.817.151.242,0,.7-.151.848.061C232.369,477.229,231.551,477.2,231.279,477.2Z" transform="translate(-205.73 -432.865)" fill-rule="evenodd"/>
        <path id="Path_59" data-name="Path 59" d="M207.555,471.755a.424.424,0,0,1,.261-.063,3.042,3.042,0,0,1,.165,1.677c.574.678.036,1.3.122,1.969.027.21.147.391.175.57a2.943,2.943,0,0,1-.258,1.335,5.5,5.5,0,0,1-.649,1.2c-.261.379-.586.738-.825,1.141s-.458.915-.962,1.066c-.072-.048.014-.134.026-.185a4.544,4.544,0,0,1,.212-.674,1.978,1.978,0,0,1,.52-.835c.07-.047.192-.056.26-.111.144-.116.1-.429.231-.684.118-.235.333-.367.437-.571.206-.405.026-.838.437-1.134-.226-.392-.063-.9-.053-1.368.023-1.075-.135-2.3-.1-3.329Z" transform="translate(-193.207 -434.092)" fill-rule="evenodd"/>
        <path id="Path_60" data-name="Path 60" d="M392.741,393.855c.266-.212.468-.068.678-.109a5.312,5.312,0,0,0,1.436-.627,9.584,9.584,0,0,0,2.357-1.818,10.335,10.335,0,0,0,1.257-1.44,2.832,2.832,0,0,1,.3-.452c.091-.087.253-.15.326-.219a4.568,4.568,0,0,0,.593-1.069,8.444,8.444,0,0,1,.691-1.022,9.892,9.892,0,0,1,1.7-1.991c.177-.143.522-.195.621-.03.214.358-.388.543-.7.779a3.419,3.419,0,0,0-.733.848c-.163.267-.176.579-.335.812a7.945,7.945,0,0,1-.669.643c-.569.632-.762,1.54-1.408,2.229a14.412,14.412,0,0,1-1.436,1.19,16.071,16.071,0,0,1-3.117,2.24c-.5.247-1.235.633-1.573.037Z" transform="translate(-361.389 -356.179)" fill-rule="evenodd"/>
        <path id="Path_61" data-name="Path 61" d="M467.2,385.839a1.263,1.263,0,0,1-.411.949c-.4.439-1.015.727-.978,1.27-1.01.659-1.009,1.635-2.185,2.243-.2-.836,1-1.23,1.043-1.99.317-.095.347-.5.513-.66a2.788,2.788,0,0,1,.3-.18c.618-.464.852-1.231,1.72-1.632Z" transform="translate(-425.054 -356.956)" fill-rule="evenodd"/>
        <path id="Path_62" data-name="Path 62" d="M223.6,499.231a12.2,12.2,0,0,1,4.479-.428c.241,0,.494-.016.737-.042s.5-.137.755-.149c.125-.006.282.059.428.07a14.421,14.421,0,0,1,1.836.046c.315-.27.741-.085,1.027-.144a4.69,4.69,0,0,0,.588-.234,14.183,14.183,0,0,1,2.716-.756c.347-.057.709-.051,1.037-.125a6.317,6.317,0,0,0,.916-.356,8.682,8.682,0,0,0,.926-.385,11.85,11.85,0,0,1,1.356-.781,5.872,5.872,0,0,1,1.342-.431c.164-.326.659-.451,1.114-.728.472-.288.864-.712,1.228-.886.178-.085.539-.152.593.009.077.233-.231.241-.412.337-.659.352-1.358,1.32-2.2,1.417a5.854,5.854,0,0,1-2.708,1.193,1.616,1.616,0,0,1-1.228.886c-.231.032-.562-.108-.758-.045a3.689,3.689,0,0,0-.317.19c-.33.147-.817.155-1.208.313a6.213,6.213,0,0,1-.723.3c-.406.108-.917.131-1.365.247-.259.067-.494.194-.715.226-.185.027-.388-.019-.582.01-.489.074-.9.363-1.289.158a1.414,1.414,0,0,1-.949.152,2.668,2.668,0,0,1-.632-.037c-.626.455-1.273.049-1.922.072-.492.018-.987.273-1.442.287-.248.008-.508-.138-.76-.142-1.323.432-3.123.716-3.88,1.9a1.4,1.4,0,0,0-.754.2c-.063-.054.127-.3.216-.431a3.678,3.678,0,0,1,1.368-1.179c.438-.218.991-.318,1.182-.739Z" transform="translate(-206.923 -453.966)" fill-rule="evenodd"/>
        <path id="Path_63" data-name="Path 63" d="M493.074,417.523c.113.354-.319.5-.57.738-.4.39-.428.991-1.146,1.137-.212-.587.56-.752,1.027-1.271.229-.255.316-.61.689-.6Z" transform="translate(-449.962 -385.423)" fill-rule="evenodd"/>
        <path id="Path_64" data-name="Path 64" d="M250.191,533c.032.622-1.069,1.018-1.558.862-.211.4-.81.364-1.16.312a1.392,1.392,0,0,1-1.138.447,1.927,1.927,0,0,0-.467-.05c-.124.039-.2.175-.316.239a4.65,4.65,0,0,1-1.268.246c-1.061.154-2.018.16-3.1.394a4.942,4.942,0,0,1-.629.157,3.708,3.708,0,0,1-.5-.108,11.254,11.254,0,0,1-1.544,0c-.451.781-1.385.131-2.081.376-.173.061-.333.217-.52.271-.292.085-.632-.036-.932.045-.192.052-.435.173-.656.245a3.9,3.9,0,0,0-.618.176c-.256.154-.353.759-.77.4a2.391,2.391,0,0,1,1.8-1.527c.243-.037.477.061.729.036.5-.049.985-.444,1.449-.462.34-.013.707.128,1.06.108.613-.034,1.171-.392,1.693-.37.277.012.6.208.916.159a7.553,7.553,0,0,1,1.141-.253,9.907,9.907,0,0,0,1.03.05c.431-.047.859-.314,1.247-.333.186-.009.4.095.584.087.884-.037,1.711-.786,2.543-.617a1.294,1.294,0,0,1,1.353-.364,3.556,3.556,0,0,1,1.71-.525Z" transform="translate(-217.809 -489.171)" fill-rule="evenodd"/>
        <path id="Path_65" data-name="Path 65" d="M255.764,546.021a3.622,3.622,0,0,1-2.627.833c-.08.04-.092.146-.239.2s-.38-.051-.535-.039a9.394,9.394,0,0,0-1.432.307,12.1,12.1,0,0,1-1.413.3c-.44.052-.925.045-1.377.131a10.022,10.022,0,0,1-1.431.355c-.2,0-.353-.109-.575-.116a6.08,6.08,0,0,0-1.4.267c-1.341.31-2.9.261-4.275,1.007a.608.608,0,0,1-.365-.324,4.369,4.369,0,0,1,2.188-.971c.436-.1.872-.263,1.228-.323.192-.032.414-.015.621-.03,1.226-.093,2.574-.408,3.8-.416a3.342,3.342,0,0,0,.911-.084,1.5,1.5,0,0,0,.551-.165c.64.244,1.432-.258,2.248-.292a6.2,6.2,0,0,0,.632.037c.147-.024.289-.126.454-.163.1-.023.226.026.34-.006.252-.07.518-.242.791-.315s.57-.054.746-.12c.447-.167.867-.594,1.164-.069Z" transform="translate(-224.238 -500.647)" fill-rule="evenodd"/>
        <path id="Path_66" data-name="Path 66" d="M261.229,554.793c-.185.6-1.29.807-1.746.691-.481.425-1.013.162-1.491.24-.606.729-1.485.255-2.2.563-.117.05-.215.164-.336.2-.152.045-.376-.071-.526-.069-.6.011-1.365.49-2.031.473-.133,0-.324-.091-.429-.07-.208.042-.381.167-.6.214-.485.105-1.18,0-1.639.145-.178.057-.333.2-.51.242-.238.05-.5-.073-.729-.036-.321.052-.622.293-.937.317-.185.014-.377-.089-.545-.058-.257.046-.475.334-.755.149-.26.3-.81.463-1.045.2,1.091-.982,2.6-.9,3.776-1.212.231-.061.47-.218.714-.275.491-.114,1.118.143,1.573-.037.094-.037.179-.13.279-.17a4.585,4.585,0,0,1,1.25-.138,6.22,6.22,0,0,0,1.241-.109c.122-.034.223-.123.337-.151.247-.061.495.055.738.007.168-.033.282-.159.453-.212.311-.1.667.089,1,.041.176-.2.51-.237.781-.334.091-.033.185-.122.269-.141.107-.024.251.04.36.033a2.939,2.939,0,0,0,.435-.1c.135-.034.286-.031.407-.065.185-.053.34-.152.511-.193a6.027,6.027,0,0,1,1.4-.141Z" transform="translate(-229.284 -508.756)" fill-rule="evenodd"/>
        <path id="Path_67" data-name="Path 67" d="M462.8,449.861c.21.327-.171.554-.366.754a7.958,7.958,0,0,1-2.093,1.95c-.119.057-.252.08-.367.142-.229.124-.5.368-.767.548-.461.3-.871.572-.954.988-.492.137-.554.872-1.1.748-.291-.4.166-.576.4-.774.418-.349.667-.945,1.134-1.253.143-.095.328-.136.472-.222.215-.128.332-.367.525-.543.426-.389,1.016-.738,1.544-1.124.257-.188.51-.375.757-.567.3-.231.506-.431.814-.646Z" transform="translate(-419.179 -414.478)" fill-rule="evenodd"/>
        <path id="Path_68" data-name="Path 68" d="M260.373,564.286c-.909-.488-2.264.447-3.287.32-.345.295-.585.118-.91.133-.416.018-.814.14-1.11-.155.344-.461.975-.305,1.411-.394l.068-.011a3.837,3.837,0,0,1,1.809-.381,4.187,4.187,0,0,1,1.792-.274c.249-.026.53-.079.8-.1a2.587,2.587,0,0,0,.794-.121c.112-.05.209-.173.326-.219.2-.08.455.083.671.066a6.621,6.621,0,0,0,.677-.158c.641-.131,1.324-.225,1.975-.345a8.856,8.856,0,0,1,2.633-.493c.052.4-.628.591-.886.414-.533.727-1.511.206-2.112.833a1.73,1.73,0,0,0,1.483-.162,9.268,9.268,0,0,1,1.165-.584c.133-.039.291.017.408-.017.517-.151.662-.6,1.074-.757.143-.054.283.031.475-.028.36-.11.68-.467.8-.024a4.247,4.247,0,0,0-.581.671.934.934,0,0,1-.388.007c-.453.565-1.611.292-1.72,1.021,1.024-.1,2.189-1.158,3.127-1.094.152.287-.3.347-.213.577.087.245.339.039.555.078-.057.329-.255.794-.048,1.176a1.143,1.143,0,0,0,.306.305c-.078.171-.351.456-.577.35-.142-.216.131-.3.03-.506-.454-.062-.38.541-.2.887a8.729,8.729,0,0,1-1.612.572c.03-.157.177-.277.245-.422-.165-.282-.428-.542-.188-.735a.483.483,0,0,1,.573.019c.071-.133.174-.256.236-.393-.182-.215-.56-.011-.694-.25-.233-.418.693-.446.959-.7-.483-.256-1.853.109-1.927.859a2.766,2.766,0,0,0-1.809.381c.6.668,1.52-.239,2.4-.566.335.411-.225.984-.591.651-.128.357-.9.511-.985.881-.433-.132-1.017.408-1.545.513.242,1.036,1.156-.245,1.681.029-.073.257-.434.453-.757.567-.166.058-.393.055-.59.137a1.708,1.708,0,0,1-.618.224c-.407-.26-.729-.789-1.246-.7-.109-.088-.183-.356-.25-.433-.441.1-1.239.189-1.135-.485-.567-.4-1.145.258-1.79.371-.181.032-.383-.048-.6-.028-.58.052-1.37.577-1.971.588-.166,0-.328-.108-.468-.1-.1-.127-.309-.177-.364-.275a10.942,10.942,0,0,1,1.7-.35,1.615,1.615,0,0,0,.571-.127c.1-.066.089-.223.189-.295a1.591,1.591,0,0,1,.707-.1,1.591,1.591,0,0,0,.716-.129c-.848-.544-2.316.439-3.363.36-.36.281-.587.156-.93.142-.32-.012-.661.022-.85-.315a30.774,30.774,0,0,0,3.956-.914Zm.572-.078a9.267,9.267,0,0,0,2.041-.453c-.508-.342-1.416.084-2.041.453Zm2.552-.647c.3.26.832.084,1.222-.1a.962.962,0,0,0-1.222.1Zm-.217.946c.514.056,1.506.28,1.809-.43-.989.245-1.946.391-2.913.566.254.292.732.119,1.1-.136Zm.384.877c-.106-.209-.3-.15-.487-.089.09.23.35.178.487.089Zm2.074-1.328c.116.217.372.082.5-.019-.088-.239-.389-.151-.5.019Zm1.093-.252c.165.172.6.037.706-.2-.173-.132-.529.006-.706.2Zm-1.66,1.136c.173.257.842.092.821-.257a.922.922,0,0,0-.821.257Zm-.324.88c.075.116.238.061.417-.046-.106-.407-.563-.178-.417.046Zm1-.2c.146.037.216-.119.2-.227-.072.008-.133-.021-.223.043a.279.279,0,0,1,.023.184Zm-.7.634c.069.194.268.177.389.042-.063-.2-.284-.143-.389-.042Zm4.676-1.364a.7.7,0,0,0,.122.328c.109-.057.216-.114.21-.208-.1-.084-.178-.219-.332-.12Z" transform="translate(-237.692 -514.883)" fill-rule="evenodd"/>
        <path id="Path_69" data-name="Path 69" d="M481.032,466.611c.044.045-.01.215-.043.292a2.1,2.1,0,0,1-.571.69,9.377,9.377,0,0,0-.8.616c-.107.112-.14.281-.245.422-.367.492-1.086.76-1.464,1.23a.523.523,0,0,1-.48-.264c.045-.169.357-.22.47-.319.161-.141.2-.407.359-.579.38-.419,1.093-.778,1.464-1.23a2.3,2.3,0,0,1,.2-.275c.281-.25.781-.346,1.116-.583Z" transform="translate(-437.473 -429.527)" fill-rule="evenodd"/>
        <path id="Path_70" data-name="Path 70" d="M473.946,485.306a1.31,1.31,0,0,1-1.042.96,1.11,1.11,0,0,1,1.042-.96Z" transform="translate(-433.414 -446.324)" fill-rule="evenodd"/>
        <path id="Path_71" data-name="Path 71" d="M414.1,501.783c.194.463-.605.615-.623,1.011-.645-.092-.838.625-1.374.84-.355.746-1.632.816-2.258,1.4a.47.47,0,0,1-.3-.286c.19-.342.669-.483,1.046-.717a6.037,6.037,0,0,1,1.357-.733,8.21,8.21,0,0,1,1.035-.785,2.493,2.493,0,0,1,1.114-.728Z" transform="translate(-376.489 -461.128)" fill-rule="evenodd"/>
        <path id="Path_72" data-name="Path 72" d="M405.2,498.629c.073.63-.719.755-1.2,1.118-.248.186-.483.477-.775.674a6.3,6.3,0,0,0-.951.619c-.093.1-.14.292-.227.363-.067.056-.2.072-.318.142-.469.286-.814.727-1.233.546-.109.369-.772.681-1.343.946a3.243,3.243,0,0,1-.492.183c-.16.044-.336.028-.474.076-.2.068-.348.228-.559.243a.341.341,0,0,1-.384-.314c.245-.387.743-.375,1.109-.456a3.544,3.544,0,0,0,.714-.275c.455-.21.927-.41,1.416-.666a11.141,11.141,0,0,0,1.944-1.578,3.712,3.712,0,0,1,.661-.516c.082-.039.2-.03.28-.073a3.38,3.38,0,0,0,.411-.386,2.056,2.056,0,0,1,1.426-.646Z" transform="translate(-365.434 -458.293)" fill-rule="evenodd"/>
        <path id="Path_73" data-name="Path 73" d="M416.83,488.3c.381.668-.912.62-.951,1.133-.45-.088-.547.327-.805.616a21.5,21.5,0,0,1-2.477,1.636c-.219.178-.33.469-.662.468-.162.125-.137.348-.293.471-.179.142-.538.191-.771.353-.131.092-.192.254-.276.316-.248.183-.622.312-.933.512a12.483,12.483,0,0,1-1.807,1.042c-.375.165-.766.243-.854.005-.069-.187.383-.5.524-.592a5.727,5.727,0,0,1,.809-.374,21.4,21.4,0,0,0,4.027-2.421c.254-.179.54-.332.739-.508.1-.089.171-.239.285-.345.6-.553,1.678-.867,1.964-1.54.655.134.854-.958,1.482-.774Z" transform="translate(-374.194 -448.992)" fill-rule="evenodd"/>
        <path id="Path_74" data-name="Path 74" d="M478.737,501.1c.077.59-.878.995-1.489,1.463-.29.223-.471.643-.751.392,0-.635,1.143-1.094,1.73-1.565.166-.133.251-.42.51-.291Z" transform="translate(-436.641 -460.489)" fill-rule="evenodd"/>
        <path id="Path_75" data-name="Path 75" d="M474.928,497.071c.01.6-.661,1.065-1.157,1.584-.157.164-.264.421-.408.532-.116.089-.3.119-.434.2-.729.45-1.176,1.264-2.024,1.424-.026-.558.712-.879,1.249-1.313.215-.174.336-.415.6-.583a5.84,5.84,0,0,1,.569-.224c.538-.285.449-.93.814-1.209.241-.184.649-.177.789-.412Z" transform="translate(-431.617 -456.895)" fill-rule="evenodd"/>
        <path id="Path_76" data-name="Path 76" d="M295.6,604.406c.378-.093.9-.052,1.207-.409a6.358,6.358,0,0,1,.854-.005c.443-.322,1.031-.685,1.3-.091-.485.6-1.4.283-1.942.549-.129.063-.2.195-.326.219a1.728,1.728,0,0,1-.409-.08,1.522,1.522,0,0,1-.683-.182Z" transform="translate(-274.113 -552.592)" fill-rule="evenodd"/>
        <path id="Path_77" data-name="Path 77" d="M438.307,521.934c.059.748-1.184,1.033-1.75,1.575-.134.128-.2.323-.323.414a7.035,7.035,0,0,1-.685.284c-.445.242-.7.8-1.12.389a40.435,40.435,0,0,1,3.877-2.661Z" transform="translate(-398.845 -479.233)" fill-rule="evenodd"/>
        <path id="Path_78" data-name="Path 78" d="M415.623,550.611c.01-.17-.172-.378-.212-.453a3.573,3.573,0,0,1,1.039-.543c.216.363-.371.473-.385.764.221.512,1.069-.67,1.306-.314.172.258-.439.629-.774.722a.779.779,0,0,1-.779-.132c-.011.184.173.43.147.609.118.156.342.048.393.284.07.322-.649.412-.886.414-.1-.171.122-.241.12-.381-.167-.22-.42-.164-.608-.32-.025-.126.009-.233-.016-.359a.432.432,0,0,1-.1-.756c.179-.1.425-.077.486.04.07.135-.3.745.27.423Z" transform="translate(-381.106 -504.105)" fill-rule="evenodd"/>
        <path id="Path_79" data-name="Path 79" d="M409.191,558.872c.084.151-.079.232-.2.275l-.08-.154a.209.209,0,0,1,.28-.121Z" transform="translate(-375.917 -512.402)" fill-rule="evenodd"/>
        <path id="Path_80" data-name="Path 80" d="M470.41,519.186c-.029-.111-.1-.233-.074-.329.042-.176.31-.227.479-.348.134-.1.25-.308.438-.474.471-.415,1.344-.86,1.794-1.255.147-.129.283-.357.372-.414.119-.077.3-.16.379.022.067.152-.245.47-.387.619-.527.548-1.5,1-2.071,1.522-.27.246-.48.772-.931.657Z" transform="translate(-431.102 -474.152)" fill-rule="evenodd"/>
        <path id="Path_81" data-name="Path 81" d="M444.952,537.573c.191.482-.468.85-.964.969-.03.228-.99.975-1.2.6-.143-.249.307-.379.515-.514.5-.32.987-.914,1.652-1.058Z" transform="translate(-406.327 -493.285)" fill-rule="evenodd"/>
        <path id="Path_82" data-name="Path 82" d="M313.772,609.478c.861-.317,1.714-.606,2.549-.841.177.2-.1.327-.02.525.148.387.587-.026.867.16.053.246-.225.464-.389.521-.351.124-.829-.075-1.137-.019.127-.116.385-.19.353-.356-.415-.321-.975.087-1.484.113-.081,0-.192-.055-.3-.063-.18-.012-.324.07-.438-.041Z" transform="translate(-290.438 -557.134)" fill-rule="evenodd"/>
        <path id="Path_83" data-name="Path 83" d="M444.078,544.48c.251.31-.083.52-.377.686a10.811,10.811,0,0,0-1.613,1.038c-.231.188-.611.49-.764.178-.2-.4.665-.579.923-.531a5.071,5.071,0,0,1,1.831-1.372Z" transform="translate(-405.013 -499.49)" fill-rule="evenodd"/>
        <path id="Path_84" data-name="Path 84" d="M485.477,525.677a4.71,4.71,0,0,1-1.725,1.856c-.158-.027-.341.028-.45-.157.463-.113.673-.523,1.026-.756.1-.063.24-.077.318-.142s.07-.185.141-.294a1.256,1.256,0,0,1,.69-.507Z" transform="translate(-442.756 -482.596)" fill-rule="evenodd"/>
        <path id="Path_85" data-name="Path 85" d="M435.363,562.12c.25.294-.251.555-.382.4-.146-.179.166-.388.382-.4Z" transform="translate(-399.307 -515.339)" fill-rule="evenodd"/>
        <path id="Path_86" data-name="Path 86" d="M467.5,544.319c.232.317.013.58-.309.627-.207.34-.865,1.012-1.318.713.07-.456.761-.542,1.131-.884.174-.161.195-.493.5-.455Z" transform="translate(-427.094 -499.343)" fill-rule="evenodd"/>
        <path id="Path_87" data-name="Path 87" d="M423.881,571.592c.153.273-.149.4-.135.634.26.19.617-.21.946-.3.067.268-.1.365-.4.551a3.3,3.3,0,0,1-1.166.535,4.524,4.524,0,0,0-.324-.761c.179-.43.562-.405,1.076-.66Z" transform="translate(-388.401 -523.85)" fill-rule="evenodd"/>
        <path id="Path_88" data-name="Path 88" d="M439.714,560.194a.965.965,0,0,1,.122.328c.672-.248,1.081-1.014,1.769-1.021.133.262-.19.312-.342.424a12.342,12.342,0,0,1-1.148.991c-.245-.38-.674-.176-.932-.518.111-.14.392-.276.531-.2Z" transform="translate(-403.116 -512.986)" fill-rule="evenodd"/>
        <path id="Path_89" data-name="Path 89" d="M380.218,598.8c.113.353-.574.987-.8.344.2-.23.541-.246.8-.344Z" transform="translate(-349.419 -548.293)" fill-rule="evenodd"/>
        <path id="Path_90" data-name="Path 90" d="M119.741,199.517c-.013.509-.507.353-.887.365a8.661,8.661,0,0,0-2.466.577c-.879.318-1.694.893-2.629,1.3-.157.068-.336.1-.492.183-.322.171-.525.492-.824.626-.16.072-.332.05-.454.115-.2.108-.341.4-.476.542-.219.239-.5.436-.756.664a9.183,9.183,0,0,0-1.827,2.13c-.453.125-.467.432-.638.7-.457.716-1.26,1.328-1.508,2.085a3.664,3.664,0,0,0-.9.958,10.136,10.136,0,0,0-.662,1.031,6.518,6.518,0,0,1-.3.695c-.422.614-1.178,1.005-1.573,1.678-.092-.356.273-.745.5-1.194a5.31,5.31,0,0,1,.544-1.117c.085-.092.227-.146.336-.249.479-.453.533-1.271,1.011-1.63.3-.226.657-.32.64-.6.873-.417.925-1.169,1.387-1.753.116-.147.3-.226.421-.367s.227-.463.348-.647a5.291,5.291,0,0,1,.465-.61c.356-.4.82-.766,1.106-1.165.094-.131.122-.306.216-.431.394-.524,1.277-.777,1.921-1.2a9.146,9.146,0,0,1,.8-.587c.14-.069.269-.034.387-.1s.112-.2.218-.285a4.537,4.537,0,0,1,.8-.393,17.283,17.283,0,0,1,2.382-.974c.514-.157,1.028-.248,1.509-.347a1.939,1.939,0,0,1,1.4,0Z" transform="translate(-101.37 -189.428)" fill-rule="evenodd"/>
      </g>
    </g>
  </g>
</svg>
