<svg xmlns="http://www.w3.org/2000/svg" xmlns:xlink="http://www.w3.org/1999/xlink" width="18" height="18" viewBox="0 0 18 18">
  <defs>
    <clipPath id="clip-path">
      <rect id="Rectangle_55" data-name="Rectangle 55" width="18" height="18" transform="translate(1571 26)" fill="#47474c" stroke="#707070" stroke-width="1"/>
    </clipPath>
  </defs>
  <g id="Mask_Group_27" data-name="Mask Group 27" transform="translate(-1571 -26)" clip-path="url(#clip-path)">
    <path id="heart_2_" data-name="heart (2)" d="M9,16.014a1.056,1.056,0,0,1-.7-.261c-.727-.636-1.428-1.233-2.047-1.76l0,0A38.067,38.067,0,0,1,1.785,9.795,6.7,6.7,0,0,1,0,5.41,5.626,5.626,0,0,1,1.428,1.567,4.84,4.84,0,0,1,5.028,0,4.528,4.528,0,0,1,7.857.976,5.786,5.786,0,0,1,9,2.17,5.787,5.787,0,0,1,10.144.976,4.528,4.528,0,0,1,12.972,0a4.841,4.841,0,0,1,3.6,1.567A5.626,5.626,0,0,1,18,5.41a6.7,6.7,0,0,1-1.785,4.385,38.059,38.059,0,0,1-4.469,4.194c-.62.528-1.322,1.126-2.051,1.764A1.056,1.056,0,0,1,9,16.014ZM5.028,1.054A3.8,3.8,0,0,0,2.2,2.282,4.576,4.576,0,0,0,1.054,5.41,5.637,5.637,0,0,0,2.6,9.122a37.459,37.459,0,0,0,4.341,4.065l0,0c.621.529,1.325,1.129,2.057,1.769.737-.642,1.442-1.243,2.064-1.773A37.466,37.466,0,0,0,15.4,9.122,5.638,5.638,0,0,0,16.946,5.41,4.576,4.576,0,0,0,15.8,2.282a3.8,3.8,0,0,0-2.825-1.227,3.5,3.5,0,0,0-2.183.756A5.116,5.116,0,0,0,9.572,3.218a.666.666,0,0,1-1.143,0A5.112,5.112,0,0,0,7.212,1.81,3.5,3.5,0,0,0,5.028,1.054Zm0,0" transform="translate(1571 26.993)" fill="#47474c"/>
  </g>
</svg>
