<svg xmlns="http://www.w3.org/2000/svg" xmlns:xlink="http://www.w3.org/1999/xlink" width="30" height="30" viewBox="0 0 30 30">
  <defs>
    <clipPath id="clip-path">
      <rect id="Rectangle_303" data-name="Rectangle 303" width="30" height="30" transform="translate(119 5267)" fill="#fff" stroke="#707070" stroke-width="1"/>
    </clipPath>
  </defs>
  <g id="Mask_Group_73" data-name="Mask Group 73" transform="translate(-119 -5267)" clip-path="url(#clip-path)">
    <g id="heart_1_" data-name="heart (1)" transform="translate(119 5268.552)">
      <path id="Path_215" data-name="Path 215" d="M21,1.552a8.956,8.956,0,0,0-6,2.305A8.989,8.989,0,0,0,0,10.552c0,6.194,6.724,13.694,15,17.9,8.276-4.2,15-11.7,15-17.9A9,9,0,0,0,21,1.552Z" transform="translate(0 -1.552)" fill="#ff5a4e"/>
      <path id="Path_216" data-name="Path 216" d="M6.207,12.109C6.207,7.5,8.724,3.6,12.23,2.155A8.991,8.991,0,0,0,0,10.552c0,6.194,6.724,13.694,15,17.9l.02-.011C9.826,23.591,6.207,17.439,6.207,12.109Z" transform="translate(0 -1.552)" fill="#eb443f"/>
      <path id="Path_217" data-name="Path 217" d="M21,1.552c-.2,0-.389.015-.583.028,3.9.284,7,4.186,7,8.972,0,6.194-5.565,13.694-12.414,17.9,8.276-4.2,15-11.7,15-17.9A9,9,0,0,0,21,1.552Z" transform="translate(0 -1.552)" fill="#ff7e68"/>
      <circle id="Ellipse_51" data-name="Ellipse 51" cx="1.552" cy="1.552" r="1.552" transform="translate(22.759 6.724)" fill="#ff9a79"/>
      <circle id="Ellipse_52" data-name="Ellipse 52" cx="0.776" cy="0.776" r="0.776" transform="translate(22.759 4.138)" fill="#ffbeac"/>
    </g>
  </g>
</svg>
