<svg width="31" height="30" viewBox="0 0 31 30" fill="none" xmlns="http://www.w3.org/2000/svg">
<rect x="0.5" width="30" height="30" rx="15" fill="#4FB3AC"/>
<path d="M19.8132 20.483C19.7339 20.483 19.6772 20.4773 19.6432 20.466C19.6092 20.4433 19.5752 20.3923 19.5412 20.313L18.3172 17.253H12.7752L11.5512 20.313C11.5286 20.3923 11.5002 20.4433 11.4662 20.466C11.4322 20.4773 11.3756 20.483 11.2962 20.483H9.73222C9.52822 20.483 9.46022 20.4037 9.52822 20.245L14.4922 7.852C14.5262 7.76133 14.5489 7.71033 14.5602 7.699C14.5829 7.67633 14.6509 7.665 14.7642 7.665H16.3452C16.4472 7.665 16.5096 7.67633 16.5322 7.699C16.5549 7.71033 16.5832 7.76133 16.6172 7.852L21.5812 20.245C21.6379 20.4037 21.5699 20.483 21.3772 20.483H19.8132ZM13.4722 15.468H17.6032L15.5462 10.232L13.4722 15.468Z" fill="white"/>
</svg>
