<svg width="16" height="16" viewBox="0 0 16 16" fill="none" xmlns="http://www.w3.org/2000/svg">
<g clip-path="url(#clip0)">
<path d="M7.5576 0.183318C7.55741 0.183506 7.55719 0.183662 7.557 0.183881L4.307 3.44963C4.06353 3.69429 4.06443 4.09 4.30912 4.33354C4.55378 4.57704 4.9495 4.5761 5.193 4.33144L7.375 2.13882L7.375 15.375C7.375 15.7202 7.65482 16 8.00001 16C8.34519 16 8.62501 15.7202 8.62501 15.375L8.62501 2.13885L10.807 4.33141C11.0505 4.57607 11.4462 4.577 11.6909 4.3335C11.9356 4.08997 11.9364 3.69422 11.693 3.4496L8.443 0.183849C8.44282 0.183661 8.4426 0.183505 8.44241 0.183286C8.1981 -0.061495 7.8011 -0.060713 7.5576 0.183318Z" fill="white"/>
</g>
<defs>
<clipPath id="clip0">
<rect width="16" height="16" fill="white" transform="translate(0 16) rotate(-90)"/>
</clipPath>
</defs>
</svg>
