<svg width="70" height="70" viewBox="0 0 70 70" fill="none" xmlns="http://www.w3.org/2000/svg">
<path d="M32.5378 47.5754C31.7463 47.5754 31.0427 47.2236 30.6031 46.696L17.3241 32.2739C16.3568 31.2186 16.4448 29.5477 17.5 28.5804C18.5552 27.613 20.2262 27.701 21.1935 28.7563L32.6256 41.1557L64.284 9.58535C65.3392 8.53014 67.0102 8.53014 67.9775 9.58535C68.9449 10.6406 69.0327 12.3115 67.9775 13.2789L34.3846 46.7839C33.9448 47.3116 33.2414 47.5754 32.5378 47.5754Z" fill="#E87623"/>
<path d="M35.0001 70C15.7412 70 0 54.2588 0 35.0001C0 15.7413 15.7412 0 35.0001 0C36.4951 0 37.6382 1.14324 37.6382 2.63811C37.6382 4.13298 36.495 5.27623 35.0001 5.27623C18.6432 5.27623 5.2764 18.643 5.2764 34.9999C5.2764 51.3568 18.6432 64.7236 35.0001 64.7236C51.357 64.7236 64.7238 51.3568 64.7238 34.9999C64.7238 33.5049 65.867 32.3618 67.3619 32.3618C68.8568 32.3618 70 33.505 70 34.9999C70 54.2588 54.2588 70 35.0001 70Z" fill="#4FB3AC"/>
</svg>
