<svg width="14" height="15" viewBox="0 0 14 15" fill="none" xmlns="http://www.w3.org/2000/svg">
<g clip-path="url(#clip0)">
<path d="M13.4167 6.72917C13.0947 6.72917 12.8333 6.9905 12.8333 7.3125C12.8333 10.529 10.2165 13.1458 7 13.1458C3.7835 13.1458 1.16667 10.529 1.16667 7.3125C1.16667 4.096 3.7835 1.47917 7 1.47917C8.56596 1.47917 10.036 2.09108 11.1393 3.20233C11.3663 3.43071 11.7358 3.43217 11.9642 3.20525C12.1928 2.97833 12.194 2.60879 11.9671 2.38013C10.6432 1.04692 8.87892 0.3125 7 0.3125C3.14008 0.3125 0 3.45258 0 7.3125C0 11.1724 3.14008 14.3125 7 14.3125C10.8596 14.3125 14 11.1724 14 7.3125C14 6.9905 13.7387 6.72917 13.4167 6.72917Z" fill="#A5A6AD"/>
<path d="M7.82508 7.31276L9.16266 5.97517C9.39045 5.74738 9.39045 5.37813 9.16266 5.15034C8.93487 4.92254 8.56562 4.92254 8.33783 5.15034L7.00025 6.48792L5.66267 5.15034C5.43517 4.92254 5.06534 4.92254 4.83784 5.15034C4.61004 5.37813 4.61004 5.74738 4.83784 5.97517L6.17542 7.31276L4.83784 8.65034C4.61004 8.87813 4.61004 9.24738 4.83784 9.47517C4.95159 9.58922 5.10092 9.64609 5.25025 9.64609C5.39958 9.64609 5.54892 9.58922 5.66267 9.47517L7.00025 8.13759L8.33783 9.47517C8.45187 9.58922 8.60091 9.64609 8.75025 9.64609C8.89958 9.64609 9.04862 9.58922 9.16266 9.47517C9.39045 9.24738 9.39045 8.87813 9.16266 8.65034L7.82508 7.31276Z" fill="#A5A6AD"/>
</g>
<defs>
<clipPath id="clip0">
<rect width="14" height="14" fill="white" transform="translate(0 0.3125)"/>
</clipPath>
</defs>
</svg>
