<svg width="70" height="71" viewBox="0 0 70 71" fill="none" xmlns="http://www.w3.org/2000/svg">
<g clip-path="url(#clip0)">
<path d="M67.0833 32.5833C65.4733 32.5833 64.1667 33.89 64.1667 35.5C64.1667 51.5825 51.0825 64.6667 35 64.6667C18.9175 64.6667 5.83333 51.5825 5.83333 35.5C5.83333 19.4175 18.9175 6.33333 35 6.33333C42.8298 6.33333 50.1798 9.39292 55.6967 14.9492C56.8313 16.091 58.679 16.0983 59.8208 14.9638C60.9642 13.8292 60.97 11.9815 59.8354 10.8381C53.216 4.17208 44.3946 0.5 35 0.5C15.7004 0.5 0 16.2004 0 35.5C0 54.7996 15.7004 70.5 35 70.5C54.2981 70.5 70 54.7996 70 35.5C70 33.89 68.6933 32.5833 67.0833 32.5833Z" fill="#DB4D41"/>
<path d="M39.1244 35.5003L45.8124 28.8124C46.9513 27.6734 46.9513 25.8272 45.8124 24.6882C44.6734 23.5492 42.8272 23.5492 41.6882 24.6882L35.0003 31.3761L28.3124 24.6882C27.1749 23.5492 25.3257 23.5492 24.1882 24.6882C23.0492 25.8272 23.0492 27.6734 24.1882 28.8124L30.8761 35.5003L24.1882 42.1882C23.0492 43.3272 23.0492 45.1734 24.1882 46.3124C24.757 46.8826 25.5036 47.167 26.2503 47.167C26.997 47.167 27.7436 46.8826 28.3124 46.3124L35.0003 39.6245L41.6882 46.3124C42.2584 46.8826 43.0036 47.167 43.7503 47.167C44.4969 47.167 45.2422 46.8826 45.8124 46.3124C46.9513 45.1734 46.9513 43.3272 45.8124 42.1882L39.1244 35.5003Z" fill="#E87623"/>
</g>
<defs>
<clipPath id="clip0">
<rect width="70" height="70" fill="white" transform="translate(0 0.5)"/>
</clipPath>
</defs>
</svg>
