<svg width="14" height="14" viewBox="0 0 14 14" fill="none" xmlns="http://www.w3.org/2000/svg">
<path d="M7.00005 9.15652C8.19041 9.15652 9.15538 8.19155 9.15538 7.0012C9.15538 5.81084 8.19041 4.84587 7.00005 4.84587C5.8097 4.84587 4.84473 5.81084 4.84473 7.0012C4.84473 8.19155 5.8097 9.15652 7.00005 9.15652Z" fill="#C4C4C4"/>
<path d="M13.7853 6.40417C12.1285 4.40214 9.62066 2.47501 7.00003 2.47501C4.37888 2.47501 1.87043 4.40349 0.214792 6.40417C-0.0715972 6.75009 -0.0715972 7.25228 0.214792 7.59821C0.631039 8.10121 1.50368 9.07218 2.66917 9.92057C5.60443 12.0574 8.38916 12.0621 11.3309 9.92057C12.4964 9.07218 13.369 8.10121 13.7853 7.59821C14.0708 7.25296 14.0723 6.75123 13.7853 6.40417ZM7.00003 3.98374C8.66394 3.98374 10.0175 5.33728 10.0175 7.00119C10.0175 8.6651 8.66394 10.0186 7.00003 10.0186C5.33612 10.0186 3.98257 8.6651 3.98257 7.00119C3.98257 5.33728 5.33612 3.98374 7.00003 3.98374Z" fill="#C4C4C4"/>
</svg>
