<svg width="12" height="14" viewBox="0 0 12 14" fill="none" xmlns="http://www.w3.org/2000/svg">
<path d="M1.54559 5.72721H10.4545C10.6269 5.72721 10.7761 5.66428 10.902 5.53832C11.0278 5.41238 11.091 5.26326 11.091 5.09091C11.091 4.91855 11.0279 4.7695 10.902 4.64339L6.4475 0.188896C6.32163 0.0631048 6.17254 0 6.00009 0C5.82763 0 5.67854 0.0631048 5.55257 0.188896L1.09808 4.64339C0.97211 4.76936 0.90918 4.91855 0.90918 5.09091C0.90918 5.26323 0.97211 5.41238 1.09808 5.53832C1.22418 5.66428 1.37327 5.72721 1.54559 5.72721Z" fill="#A5A6AD"/>
<path d="M10.4545 8.27287H1.54559C1.37313 8.27287 1.22404 8.33583 1.09808 8.46166C0.97211 8.58762 0.90918 8.73672 0.90918 8.90907C0.90918 9.08143 0.97211 9.23062 1.09808 9.35652L5.55257 13.811C5.67868 13.9369 5.82777 14 6.00009 14C6.1724 14 6.32163 13.9369 6.4475 13.811L10.902 9.35648C11.0278 9.23062 11.091 9.08143 11.091 8.90904C11.091 8.73672 11.0279 8.58762 10.902 8.46162C10.7761 8.33569 10.6269 8.27287 10.4545 8.27287Z" fill="#A5A6AD"/>
</svg>
