<svg width="70" height="71" viewBox="0 0 70 71" fill="none" xmlns="http://www.w3.org/2000/svg">
<g clip-path="url(#clip0)">
<path d="M34.9996 32.6287C34.4207 32.6287 33.8912 32.2475 33.7049 31.7005C33.5186 31.1538 33.7072 30.5261 34.1675 30.176C34.6102 29.8391 35.2239 29.8056 35.702 30.089C36.1991 30.3837 36.4579 30.9862 36.3348 31.55C36.1989 32.1707 35.6365 32.6287 34.9996 32.6287Z" fill="#4FB3AC"/>
<path d="M28.7392 32.6028C29.4942 32.6028 30.1064 31.9907 30.1064 31.2356V21.907C30.1064 21.1519 29.4942 20.5398 28.7392 20.5398H13.0535C12.2984 20.5398 11.6863 21.1519 11.6863 21.907V31.2356C11.6863 31.9907 12.2984 32.6028 13.0535 32.6028H28.7392ZM27.372 29.8684H22.2635V23.2742H27.372V29.8684ZM14.4207 23.2742H19.5292V29.8684H14.4207V23.2742Z" fill="#4FB3AC"/>
<path d="M63.791 7.34847L49.6878 0.673447C49.3174 0.498174 48.8883 0.498174 48.5179 0.673447L34.9996 7.07161L21.4812 0.673447C21.1108 0.498174 20.6817 0.498174 20.3113 0.673447L6.20809 7.34847C5.73039 7.5746 5.42578 8.05571 5.42578 8.58413V69.1747C5.42578 69.9298 6.03801 70.5419 6.79297 70.5419H63.206C63.9611 70.5419 64.5732 69.9298 64.5732 69.1747V8.58413C64.5733 8.05571 64.2687 7.5746 63.791 7.34847ZM49.1028 3.42177L61.8388 9.4497V14.8227L49.6877 9.07167C49.6646 9.06073 49.6412 9.05048 49.6175 9.04091C49.2873 8.90665 48.9179 8.90665 48.5879 9.04091C48.5644 9.05048 48.541 9.06073 48.5178 9.07167L36.3667 14.8227V9.4497L49.1028 3.42177ZM20.8963 3.42177L33.6324 9.4497V14.8227L21.4812 9.07167C21.4581 9.06073 21.4347 9.05048 21.4111 9.04091C21.0809 8.90665 20.7115 8.90665 20.3814 9.04091C20.3579 9.05048 20.3346 9.06073 20.3113 9.07167L8.16029 14.8227V9.4497L20.8963 3.42177ZM8.16029 17.8479L20.8963 11.82L33.6324 17.8479V25.0551C33.6324 25.8102 34.2445 26.4222 34.9996 26.4222C35.7545 26.4222 36.3667 25.8102 36.3667 25.0551V17.8479L49.1028 11.82L61.8388 17.8479V53.1246H54.0534C53.2984 53.1246 52.6862 53.7367 52.6862 54.4918V67.8076H36.3667V37.4161C36.3667 36.661 35.7545 36.0489 34.9996 36.0489C34.2445 36.0489 33.6324 36.661 33.6324 37.4161V53.1245H25.8469C25.0918 53.1245 24.4797 53.7366 24.4797 54.4917V67.8076H8.16029V17.8479ZM27.2141 55.859H33.6324V67.8076H27.2141V55.859ZM61.8389 67.8076H55.4207V55.8589H61.8389V67.8076Z" fill="#4FB3AC"/>
<path d="M41.2603 48.2937H56.946C57.701 48.2937 58.3132 47.6816 58.3132 46.9265V37.5979C58.3132 36.8428 57.701 36.2307 56.946 36.2307H41.2603C40.5053 36.2307 39.8931 36.8428 39.8931 37.5979V46.9265C39.8931 47.6816 40.5053 48.2937 41.2603 48.2937ZM55.5789 45.5593H50.4705V38.9651H55.5789V45.5593ZM42.6274 38.9651H47.7359V45.5593H42.6274V38.9651Z" fill="#4FB3AC"/>
<path d="M48.4195 65.1877H41.2603C40.5053 65.1877 39.8931 64.5756 39.8931 63.8205V54.4919C39.8931 53.7368 40.5053 53.1248 41.2603 53.1248H48.4195C49.1745 53.1248 49.7867 53.7368 49.7867 54.4919V63.8205C49.7867 64.5756 49.1746 65.1877 48.4195 65.1877ZM42.6274 62.4534H47.0523V55.8591H42.6274V62.4534Z" fill="#4FB3AC"/>
<path d="M56.9461 32.6028H41.2603C40.5053 32.6028 39.8931 31.9907 39.8931 31.2356V21.907C39.8931 21.1519 40.5053 20.5398 41.2603 20.5398H56.946C57.701 20.5398 58.3132 21.1519 58.3132 21.907V31.2356C58.3133 31.9907 57.7011 32.6028 56.9461 32.6028ZM42.6274 29.8684H55.5788V23.2742H42.6274V29.8684Z" fill="#4FB3AC"/>
<path d="M20.2127 65.1877H13.0535C12.2984 65.1877 11.6863 64.5756 11.6863 63.8205V54.4919C11.6863 53.7368 12.2984 53.1248 13.0535 53.1248H20.2127C20.9678 53.1248 21.5799 53.7368 21.5799 54.4919V63.8205C21.5799 64.5756 20.9677 65.1877 20.2127 65.1877ZM14.4207 62.4534H18.8456V55.8591H14.4207V62.4534Z" fill="#4FB3AC"/>
<path d="M28.7392 48.2937H13.0535C12.2984 48.2937 11.6863 47.6816 11.6863 46.9265V37.5979C11.6863 36.8428 12.2984 36.2307 13.0535 36.2307H28.7392C29.4942 36.2307 30.1064 36.8428 30.1064 37.5979V46.9265C30.1064 47.6816 29.4943 48.2937 28.7392 48.2937ZM14.4207 45.5593H27.372V38.9651H14.4207V45.5593Z" fill="#4FB3AC"/>
</g>
<defs>
<clipPath id="clip0">
<rect width="70" height="70" fill="white" transform="translate(0 0.541992)"/>
</clipPath>
</defs>
</svg>
