<svg width="70" height="71" viewBox="0 0 70 71" fill="none" xmlns="http://www.w3.org/2000/svg">
<g clip-path="url(#clip0)">
<path d="M66.9265 54.9781C66.3628 54.9781 65.8474 54.6204 65.6483 54.0933C65.4443 53.5533 65.6116 52.9205 66.0593 52.5545C66.5074 52.1883 67.1562 52.1454 67.648 52.4509C68.1287 52.7495 68.375 53.3248 68.2663 53.8791C68.1422 54.511 67.5697 54.9781 66.9265 54.9781Z" fill="#4FB3AC"/>
<path d="M66.9269 48.7731C67.6819 48.7731 68.2941 48.161 68.2941 47.4059V39.9519C68.2941 39.1968 67.6819 38.5847 66.9269 38.5847H60.4985V17.6276C60.4985 16.8725 59.8863 16.2604 59.1313 16.2604H53.106C52.463 12.1959 50.4684 8.46596 47.4085 5.65078C44.0175 2.53113 39.6109 0.812988 35.0001 0.812988C30.3892 0.812988 25.9827 2.53113 22.5915 5.65078C19.5316 8.46596 17.537 12.1959 16.894 16.2604H10.8687C10.1137 16.2604 9.50148 16.8725 9.50148 17.6276V38.5848H3.07324C2.31828 38.5848 1.70605 39.1969 1.70605 39.952V69.4458C1.70605 70.2009 2.31828 70.813 3.07324 70.813H66.927C67.682 70.813 68.2942 70.2009 68.2942 69.4458V59.7671C68.2942 59.012 67.682 58.3999 66.927 58.3999C66.1721 58.3999 65.5599 59.012 65.5599 59.7671V68.0786H61.532V57.44C61.532 53.2956 58.1602 49.9239 54.0157 49.9239C49.8714 49.9239 46.4996 53.2956 46.4996 57.44V68.0786H42.5162V57.44C42.5162 53.2956 39.1444 49.9239 34.9999 49.9239C30.8554 49.9239 27.4837 53.2956 27.4837 57.44V68.0786H23.5003V57.44C23.5003 53.2956 20.1285 49.9239 15.984 49.9239C11.8395 49.9239 8.46789 53.2956 8.46789 57.44V68.0786H4.44043V41.3191H65.5599V47.4059C65.5597 48.161 66.1719 48.7731 66.9269 48.7731ZM49.234 57.44C49.234 54.8034 51.3791 52.6582 54.0159 52.6582C56.6525 52.6582 58.7976 54.8034 58.7976 57.44V68.0786H49.2341V57.44H49.234ZM30.2182 57.44C30.2182 54.8034 32.3633 52.6582 35.0001 52.6582C37.6368 52.6582 39.782 54.8034 39.782 57.44V68.0786H30.2183V57.44H30.2182ZM11.2025 57.44C11.2025 54.8034 13.3477 52.6582 15.9844 52.6582C18.621 52.6582 20.7662 54.8034 20.7662 57.44V68.0786H11.2027V57.44H11.2025ZM35.0001 3.54736C42.6327 3.54736 48.9812 8.91603 50.3338 16.2604H19.6664C21.0189 8.91603 27.3675 3.54736 35.0001 3.54736ZM20.7958 38.5847V30.509C20.7958 28.3131 22.5822 26.5266 24.778 26.5266C26.974 26.5266 28.7604 28.3131 28.7604 30.509V38.5847H20.7958ZM41.2398 38.5847V30.509C41.2398 28.3131 43.0261 26.5266 45.2221 26.5266C47.4178 26.5266 49.2043 28.3131 49.2043 30.509V38.5847H41.2398ZM51.9387 38.5847V30.509C51.9387 26.8054 48.9257 23.7923 45.2221 23.7923C41.5186 23.7923 38.5054 26.8054 38.5054 30.509V38.5847H31.4949V30.509C31.4949 26.8054 28.4817 23.7923 24.7782 23.7923C21.0746 23.7923 18.0616 26.8054 18.0616 30.509V38.5847H12.236V18.9948H57.7644V38.5848H51.9387V38.5847Z" fill="#4FB3AC"/>
</g>
<defs>
<clipPath id="clip0">
<rect width="70" height="70" fill="white" transform="translate(0 0.812988)"/>
</clipPath>
</defs>
</svg>
