<svg width="70" height="68" viewBox="0 0 70 68" fill="none" xmlns="http://www.w3.org/2000/svg">
<path d="M35.0244 41.4394C34.4452 41.4394 33.9172 41.0583 33.731 40.5113C33.5452 39.9655 33.7321 39.3369 34.1923 38.9866C34.6349 38.6497 35.2498 38.6161 35.7275 38.8996C36.2245 39.1947 36.4841 39.7962 36.3608 40.3606C36.2253 40.9813 35.6607 41.4394 35.0244 41.4394Z" fill="#4FB3AC"/>
<path d="M58.3977 59.9551H47.6672C46.9121 59.9551 46.3 59.343 46.3 58.5879V46.425C46.3 45.67 46.9121 45.0579 47.6672 45.0579H58.3977C59.1527 45.0579 59.7649 45.67 59.7649 46.425V58.5879C59.7649 59.343 59.1527 59.9551 58.3977 59.9551ZM49.0343 57.2208H57.0304V47.7922H49.0343V57.2208Z" fill="#4FB3AC"/>
<path d="M22.5415 59.4096H11.811C11.0559 59.4096 10.4438 58.7975 10.4438 58.0424V46.425C10.4438 45.67 11.0559 45.0579 11.811 45.0579H22.5415C23.2966 45.0579 23.9087 45.67 23.9087 46.425V58.0424C23.9087 58.7975 23.2966 59.4096 22.5415 59.4096ZM13.1782 56.6753H21.1743V47.7922H13.1782V56.6753Z" fill="#4FB3AC"/>
<path d="M69.8441 31.7251L58.8401 10.7109C58.604 10.2602 58.1375 9.97791 57.6289 9.97791H44.5744L35.9666 1.37107C35.4328 0.83718 34.5671 0.837317 34.0332 1.37107L25.4255 9.97791H12.3711C11.8625 9.97791 11.3959 10.2602 11.1599 10.7109L0.155984 31.7251C-0.0659099 32.1489 -0.0501873 32.6578 0.197547 33.0671C0.445144 33.4764 0.888796 33.7265 1.36717 33.7265H3.29313V66.1745C3.29313 66.9296 3.90522 67.5416 4.66032 67.5416H65.3395C66.0944 67.5416 66.7066 66.9296 66.7066 66.1745V33.7265H68.6327C69.1111 33.7265 69.5548 33.4764 69.8025 33.0671C70.0501 32.6579 70.0659 32.1489 69.8441 31.7251ZM23.3611 15.9092L35 4.27128L46.6388 15.9092V23.3159H41.5921V15.9795C41.5921 15.2244 40.9799 14.6123 40.2249 14.6123H29.775C29.0199 14.6123 28.4078 15.2244 28.4078 15.9795V23.3159H23.3611V15.9092ZM31.1422 23.316V17.3468H38.8577V23.316H31.1422ZM39.7844 64.8073H30.4244V47.7921H39.7844V64.8073ZM63.9723 38.7043H41.303C40.548 38.7043 39.9358 39.3164 39.9358 40.0715C39.9358 40.8266 40.548 41.4386 41.303 41.4386H63.9723V64.8073H42.5188V46.4249C42.5188 45.6698 41.9066 45.0577 41.1516 45.0577H29.0572C28.3021 45.0577 27.69 45.6698 27.69 46.4249V64.8073H6.02764V41.4386H28.697C29.452 41.4386 30.0641 40.8266 30.0641 40.0715C30.0641 39.3164 29.452 38.7043 28.697 38.7043H6.02764V33.7265H63.9724V38.7043H63.9723ZM3.62645 30.9921L13.1984 12.7123H22.6909L17.9332 17.4697C17.3993 18.0036 17.3993 18.8693 17.9332 19.4033C18.4671 19.9372 19.3328 19.9372 19.8668 19.4033L20.6269 18.6434V23.3166H15.8703C15.1152 23.3166 14.5031 23.9287 14.5031 24.6838C14.5031 25.4389 15.1152 26.051 15.8703 26.051H54.1299C54.8849 26.051 55.4971 25.4389 55.4971 24.6838C55.4971 23.9287 54.8849 23.3166 54.1299 23.3166H49.3732V18.6434L50.1332 19.4033C50.4002 19.6703 50.7501 19.8037 51.0999 19.8037C51.4498 19.8037 51.7997 19.6703 52.0667 19.4033C52.6006 18.8694 52.6006 18.0037 52.0667 17.4697L47.3089 12.7123H56.8014L66.3735 30.9921H3.62645Z" fill="#4FB3AC"/>
</svg>
