<svg width="40" height="41" viewBox="0 0 40 41" fill="none" xmlns="http://www.w3.org/2000/svg">
<g opacity="0.3" clip-path="url(#clip0)">
<path d="M18.5934 27.8306C18.1411 27.8306 17.7391 27.6296 17.4879 27.3281L9.89989 19.0869C9.34711 18.4839 9.39742 17.5291 10.0004 16.9763C10.6034 16.4236 11.5582 16.4739 12.111 17.0768L18.6436 24.1622L36.7341 6.12203C37.3371 5.51906 38.2919 5.51906 38.8447 6.12203C39.3974 6.72501 39.4477 7.67983 38.8447 8.2326L19.6487 27.3784C19.3974 27.6799 18.9954 27.8306 18.5934 27.8306Z" fill="black"/>
<path d="M20 40.6445C8.99495 40.6445 0 31.6496 0 20.6446C0 9.63958 8.99495 0.644531 20 0.644531C20.8544 0.644531 21.5075 1.29781 21.5075 2.15203C21.5075 3.00624 20.8543 3.65952 20 3.65952C10.6533 3.65952 3.01508 11.2977 3.01508 20.6445C3.01508 29.9913 10.6533 37.6294 20 37.6294C29.3468 37.6294 36.985 29.9913 36.985 20.6445C36.985 19.7902 37.6383 19.137 38.4925 19.137C39.3467 19.137 40 19.7903 40 20.6445C40 31.6496 31.0051 40.6445 20 40.6445Z" fill="black"/>
</g>
<defs>
<clipPath id="clip0">
<rect width="40" height="40" fill="white" transform="translate(0 0.644531)"/>
</clipPath>
</defs>
</svg>
