<svg width="40" height="41" viewBox="0 0 40 41" fill="none" xmlns="http://www.w3.org/2000/svg">
<g opacity="0.3">
<path d="M32.3733 0.645508H7.62667C5.60503 0.649033 3.66721 1.45369 2.23769 2.8832C0.808178 4.31271 0.00352509 6.25054 0 8.27217V33.0188C0.00352509 35.0405 0.808178 36.9783 2.23769 38.4078C3.66721 39.8373 5.60503 40.642 7.62667 40.6455H32.3733C34.395 40.642 36.3328 39.8373 37.7623 38.4078C39.1918 36.9783 39.9965 35.0405 40 33.0188V8.27217C39.9965 6.25054 39.1918 4.31271 37.7623 2.8832C36.3328 1.45369 34.395 0.649033 32.3733 0.645508ZM37.3333 33.0188C37.3298 34.3332 36.8061 35.5928 35.8767 36.5222C34.9473 37.4516 33.6877 37.9753 32.3733 37.9788H7.62667C6.31227 37.9753 5.05272 37.4516 4.1233 36.5222C3.19389 35.5928 2.67019 34.3332 2.66667 33.0188V8.27217C2.67019 6.95778 3.19389 5.69823 4.1233 4.76881C5.05272 3.83939 6.31227 3.31569 7.62667 3.31217H32.3733C33.6877 3.31569 34.9473 3.83939 35.8767 4.76881C36.8061 5.69823 37.3298 6.95778 37.3333 8.27217V33.0188Z" fill="black"/>
<path d="M32.0001 23.0989C31.6465 23.0989 31.3073 23.2393 31.0573 23.4894C30.8072 23.7394 30.6667 24.0786 30.6667 24.4322V29.4322L11.2134 9.97886H16.2134C16.567 9.97886 16.9062 9.83839 17.1562 9.58834C17.4063 9.33829 17.5467 8.99915 17.5467 8.64553C17.5467 8.29191 17.4063 7.95277 17.1562 7.70272C16.9062 7.45267 16.567 7.31219 16.2134 7.31219H7.58675C7.34275 7.31219 7.10874 7.40912 6.93621 7.58166C6.76368 7.75419 6.66675 7.9882 6.66675 8.23219V16.8589C6.66675 17.2125 6.80722 17.5516 7.05727 17.8017C7.30732 18.0517 7.64646 18.1922 8.00008 18.1922C8.3537 18.1922 8.69284 18.0517 8.94289 17.8017C9.19294 17.5516 9.33341 17.2125 9.33341 16.8589V11.8589L28.7867 31.3122H23.7867C23.4331 31.3122 23.094 31.4527 22.8439 31.7027C22.5939 31.9528 22.4534 32.2919 22.4534 32.6455C22.4534 32.9991 22.5939 33.3383 22.8439 33.5883C23.094 33.8384 23.4331 33.9789 23.7867 33.9789H32.4134C32.6574 33.9789 32.8914 33.8819 33.064 33.7094C33.2365 33.5369 33.3334 33.3029 33.3334 33.0589V24.4322C33.3334 24.0786 33.1929 23.7394 32.9429 23.4894C32.6928 23.2393 32.3537 23.0989 32.0001 23.0989Z" fill="black"/>
</g>
</svg>
