<svg width="40" height="41" viewBox="0 0 40 41" fill="none" xmlns="http://www.w3.org/2000/svg">
<g opacity="0.3">
<path d="M40 7.10067C39.9965 5.31243 39.2845 3.59843 38.0201 2.33395C36.7556 1.06947 35.0416 0.357528 33.2533 0.354004H6.74667C4.95842 0.357528 3.24443 1.06947 1.97995 2.33395C0.715463 3.59843 0.00352364 5.31243 0 7.10067V33.6073C0.00352364 35.3956 0.715463 37.1096 1.97995 38.3741C3.24443 39.6385 4.95842 40.3505 6.74667 40.354H33.2533C35.0416 40.3505 36.7556 39.6385 38.0201 38.3741C39.2845 37.1096 39.9965 35.3956 40 33.6073V7.10067ZM37.3333 33.6073C37.3333 34.6894 36.9035 35.7272 36.1383 36.4923C35.3732 37.2575 34.3354 37.6873 33.2533 37.6873H6.74667C5.66458 37.6873 4.62682 37.2575 3.86167 36.4923C3.09652 35.7272 2.66667 34.6894 2.66667 33.6073V7.10067C2.66667 6.01859 3.09652 4.98082 3.86167 4.21568C4.62682 3.45053 5.66458 3.02067 6.74667 3.02067H33.2533C34.3354 3.02067 35.3732 3.45053 36.1383 4.21568C36.9035 4.98082 37.3333 6.01859 37.3333 7.10067V33.6073Z" fill="black"/>
</g>
</svg>
