<svg width="40" height="41" viewBox="0 0 40 41" fill="none" xmlns="http://www.w3.org/2000/svg">
<g opacity="0.3" clip-path="url(#clip0)">
<path d="M18.5751 0.644531C18.1972 0.644531 17.8348 0.794665 17.5675 1.0619C17.3003 1.32914 17.1501 1.6916 17.1501 2.06953V19.2195C17.1501 20.3566 17.6019 21.4472 18.4059 22.2513C19.21 23.0553 20.3005 23.507 21.4376 23.507H38.5751C38.7633 23.507 38.9497 23.4698 39.1234 23.3974C39.2971 23.325 39.4547 23.2189 39.5872 23.0852C39.7197 22.9516 39.8244 22.793 39.8953 22.6187C39.9661 22.4444 40.0018 22.2577 40.0001 22.0695C39.9935 16.3893 37.7341 10.9436 33.7176 6.92708C29.7011 2.91054 24.2554 0.651148 18.5751 0.644531V0.644531ZM21.4376 20.6445C21.2495 20.6462 21.0628 20.6105 20.8885 20.5397C20.7141 20.4688 20.5556 20.3641 20.4219 20.2316C20.2883 20.0991 20.1822 19.9415 20.1098 19.7678C20.0374 19.594 20.0001 19.4077 20.0001 19.2195V3.55703C24.4166 3.90369 28.5643 5.81529 31.6969 8.94781C34.8294 12.0803 36.741 16.2281 37.0876 20.6445H21.4376Z" fill="black"/>
<path d="M35.2 26.4447C35.0228 26.3815 34.8348 26.354 34.6469 26.3638C34.459 26.3737 34.2749 26.4206 34.1052 26.5019C33.9355 26.5833 33.7836 26.6974 33.6583 26.8378C33.533 26.9782 33.4367 27.1419 33.375 27.3197C32.2597 30.5354 30.1225 33.2977 27.2898 35.1846C24.4571 37.0716 21.0847 37.9795 17.6875 37.7697C13.8047 37.5288 10.1467 35.8661 7.41212 33.0992C4.67749 30.3323 3.05785 26.6551 2.86251 22.7697C2.70154 19.4033 3.63336 16.0751 5.51892 13.2817C7.40447 10.4883 10.1427 8.3794 13.325 7.26971C13.5023 7.20734 13.6656 7.11065 13.8055 6.98518C13.9454 6.8597 14.0592 6.7079 14.1405 6.53843C14.2217 6.36897 14.2688 6.18515 14.279 5.99749C14.2892 5.80983 14.2624 5.622 14.2 5.44471C14.1376 5.26743 14.0409 5.10417 13.9155 4.96425C13.79 4.82433 13.6382 4.7105 13.4687 4.62924C13.2993 4.54799 13.1154 4.50092 12.9278 4.4907C12.7401 4.48049 12.5523 4.50734 12.375 4.56971C8.61923 5.87683 5.38588 8.36169 3.15614 11.6545C0.926391 14.9473 -0.180563 18.8721 7.48783e-06 22.8447C0.223357 27.4425 2.13027 31.7975 5.35748 35.0801C8.58468 38.3626 12.9066 40.3433 17.5 40.6447H18.55C22.3937 40.6667 26.1479 39.4853 29.2862 37.266C32.4246 35.0467 34.7897 31.901 36.05 28.2697C36.1789 27.915 36.1618 27.5236 36.0024 27.1814C35.8431 26.8393 35.5545 26.5743 35.2 26.4447Z" fill="black"/>
</g>
<defs>
<clipPath id="clip0">
<rect width="40" height="40" fill="white" transform="translate(0 0.644531)"/>
</clipPath>
</defs>
</svg>
