<svg width="20" height="21" viewBox="0 0 20 21" fill="none" xmlns="http://www.w3.org/2000/svg">
<g opacity="0.5">
<path d="M8.13422 3.75215C8.05931 3.602 7.90783 3.50545 7.74004 3.50079C7.57458 3.50462 7.42194 3.59052 7.33255 3.72984L0.0599075 16.4572C-0.0204927 16.598 -0.0199933 16.771 0.0615721 16.9111C0.142971 17.0513 0.292785 17.1374 0.454917 17.1372H14.0913C14.249 17.1374 14.3955 17.056 14.4782 16.9218C14.5611 16.7878 14.5686 16.6203 14.498 16.4795L8.13422 3.75215Z" fill="black"/>
<path d="M19.9441 16.4652L14.4895 6.4653C14.4152 6.32847 14.2761 6.23924 14.1208 6.22909C13.9655 6.21877 13.8158 6.28885 13.7241 6.41453L11.7988 9.04926L15.8428 17.1372H19.5454C19.7057 17.1371 19.8542 17.0525 19.9359 16.9147C20.0176 16.7768 20.0208 16.606 19.9441 16.4652Z" fill="black"/>
</g>
</svg>
