<svg width="17" height="17" viewBox="0 0 17 17" fill="none" xmlns="http://www.w3.org/2000/svg">
<g clip-path="url(#clip0)">
<path d="M7.875 11.0619V8.87439H5.6875C5.34229 8.87439 5.0625 8.5946 5.0625 8.24939C5.0625 7.9043 5.34229 7.62439 5.6875 7.62439H7.875V5.43689C7.875 5.0918 8.15479 4.81189 8.5 4.81189C8.84521 4.81189 9.125 5.0918 9.125 5.43689V7.62439H11.3125C11.6577 7.62439 11.9375 7.9043 11.9375 8.24939C11.9375 8.5946 11.6577 8.87439 11.3125 8.87439H9.125V11.0619C9.125 11.4071 8.84521 11.6869 8.5 11.6869C8.15479 11.6869 7.875 11.4071 7.875 11.0619ZM14.1569 2.59314C12.6459 1.08215 10.6368 0.25 8.5 0.25C6.36316 0.25 4.35413 1.08215 2.84314 2.59314C1.33215 4.10413 0.5 6.11316 0.5 8.25C0.5 10.3868 1.33215 12.3959 2.84314 13.9069C4.35413 15.4178 6.36316 16.25 8.5 16.25C9.96289 16.25 11.3943 15.8513 12.6394 15.097C12.9347 14.9182 13.0291 14.5339 12.8502 14.2388C12.6714 13.9435 12.287 13.8491 11.9918 14.028C10.942 14.6638 9.7345 15 8.5 15C4.77808 15 1.75 11.9719 1.75 8.25C1.75 4.52808 4.77808 1.5 8.5 1.5C12.2219 1.5 15.25 4.52808 15.25 8.25C15.25 9.58093 14.8542 10.8763 14.1055 11.9965C13.9136 12.2833 13.9907 12.6715 14.2777 12.8634C14.5646 13.0552 14.9528 12.978 15.1447 12.6912C16.0312 11.3649 16.5 9.8291 16.5 8.25C16.5 6.11316 15.6678 4.10413 14.1569 2.59314Z" fill="#E87623"/>
</g>
<defs>
<clipPath id="clip0">
<rect width="16" height="16" fill="white" transform="translate(0.5 0.25)"/>
</clipPath>
</defs>
</svg>
