<svg width="40" height="40" viewBox="0 0 40 40" fill="none" xmlns="http://www.w3.org/2000/svg">
<rect x="0.5" y="0.5" width="39" height="39" rx="19.5" fill="white" stroke="#C4C4C4"/>
<path d="M20 12C16.8936 12 14.3665 14.5669 14.3665 17.7218V22.2783C14.3665 25.4333 16.8936 28 20 28C23.1062 28 25.6336 25.4411 25.6336 22.2958V17.7218C25.6336 14.5669 23.1062 12 20 12ZM24.574 22.2958C24.574 24.8569 22.5222 26.9404 20 26.9404C17.478 26.9404 15.4261 24.8489 15.4261 22.2782V17.7218C15.4261 15.1511 17.478 13.0596 20 13.0596C22.5222 13.0596 24.574 15.1511 24.574 17.7218V22.2958Z" fill="#4FB3AC"/>
<path d="M20 16.3796C19.7073 16.3796 19.4702 16.6168 19.4702 16.9095V18.7638C19.4702 19.0564 19.7073 19.2936 20 19.2936C20.2926 19.2936 20.5298 19.0564 20.5298 18.7638V16.9095C20.5298 16.6168 20.2926 16.3796 20 16.3796Z" fill="#4FB3AC"/>
</svg>
