<svg width="50" height="51" viewBox="0 0 50 51" fill="none" xmlns="http://www.w3.org/2000/svg">
<path d="M25 0.25L31.7984 4.32676L39.6946 5.02457L42.7984 12.3187L48.7764 17.5246L47 25.25L48.7764 32.9754L42.7984 38.1813L39.6946 45.4754L31.7984 46.1732L25 50.25L18.2016 46.1732L10.3054 45.4754L7.20163 38.1813L1.22359 32.9754L3 25.25L1.22359 17.5246L7.20163 12.3187L10.3054 5.02457L18.2016 4.32676L25 0.25Z" fill="#4FB3AC"/>
<path d="M33.3899 20.2166L30.3539 21.971C30.1554 22.0849 29.9256 22.1323 29.6982 22.1061C29.4708 22.08 29.2578 21.9816 29.0904 21.8255L25.7272 18.7259C25.5298 18.5418 25.2699 18.4395 25 18.4395C24.7301 18.4395 24.4702 18.5418 24.2728 18.7259L20.9096 21.8255C20.7422 21.9816 20.5292 22.08 20.3018 22.1061C20.0744 22.1323 19.8446 22.0849 19.6461 21.971L16.6101 20.2166C16.4356 20.1166 16.2366 20.0675 16.0356 20.0749C15.8345 20.0824 15.6396 20.146 15.473 20.2587C15.3064 20.3714 15.1747 20.5285 15.0929 20.7123C15.0111 20.8961 14.9825 21.0991 15.0103 21.2983C15.5012 24.7979 15.992 27.3794 16.4738 31.1243C16.5079 31.3826 16.6344 31.6198 16.8299 31.792C17.0255 31.9641 17.2768 32.0595 17.5373 32.0606H32.4627C32.7232 32.0595 32.9745 31.9641 33.1701 31.792C33.3656 31.6198 33.4921 31.3826 33.5262 31.1243C34.008 27.3794 34.4988 24.7979 34.9897 21.2983C35.0175 21.0991 34.9889 20.8961 34.9071 20.7123C34.8253 20.5285 34.6936 20.3714 34.527 20.2587C34.3604 20.146 34.1655 20.0824 33.9644 20.0749C33.7634 20.0675 33.5644 20.1166 33.3899 20.2166ZM27.7269 29.3337H22.2731C22.032 29.3337 21.8008 29.2379 21.6303 29.0674C21.4599 28.897 21.3641 28.6658 21.3641 28.4247C21.3641 28.1836 21.4599 27.9524 21.6303 27.7819C21.8008 27.6115 22.032 27.5157 22.2731 27.5157H27.7269C27.968 27.5157 28.1992 27.6115 28.3697 27.7819C28.5401 27.9524 28.6359 28.1836 28.6359 28.4247C28.6359 28.6658 28.5401 28.897 28.3697 29.0674C28.1992 29.2379 27.968 29.3337 27.7269 29.3337Z" fill="white"/>
</svg>
