<svg width="10" height="5" viewBox="0 0 10 5" fill="none" xmlns="http://www.w3.org/2000/svg">
<path d="M0.114522 2.14537C0.114386 2.14549 0.114638 2.14525 0.114522 2.14537L2.15597 0.113749C2.30888 -0.0384192 2.5562 -0.037853 2.70841 0.115077C2.86059 0.267987 2.86001 0.515311 2.7071 0.667498L1.33671 2.03125H9.60932C9.82506 2.03125 9.99995 2.20613 9.99995 2.42187C9.99995 2.63761 9.82506 2.8125 9.60932 2.8125H1.33673L2.70708 4.17625C2.85999 4.32843 2.86057 4.57576 2.70839 4.72867C2.55618 4.88162 2.30884 4.88214 2.15595 4.73L0.114854 2.69875C0.11499 2.69886 0.114736 2.69863 0.114854 2.69875C-0.0381347 2.54605 -0.0379983 2.29756 0.114522 2.14537Z" fill="white"/>
</svg>
