<svg xmlns="http://www.w3.org/2000/svg" width="12.75" height="17" viewBox="0 0 12.75 17">
  <g id="padlock" opacity="0.5">
    <path id="Path_624" data-name="Path 624" d="M11.375,1A4.761,4.761,0,0,0,6.594,5.781V7.906A1.565,1.565,0,0,0,5,9.5v6.906A1.565,1.565,0,0,0,6.594,18h9.563a1.565,1.565,0,0,0,1.594-1.594V9.5a1.565,1.565,0,0,0-1.594-1.594V5.781A4.761,4.761,0,0,0,11.375,1Zm5.313,8.5v6.906a.5.5,0,0,1-.531.531H6.594a.5.5,0,0,1-.531-.531V9.5a.5.5,0,0,1,.531-.531h9.563A.5.5,0,0,1,16.688,9.5ZM7.656,7.906V5.781a3.719,3.719,0,0,1,7.438,0V7.906Z" transform="translate(-5 -1)"/>
    <path id="Path_625" data-name="Path 625" d="M15.594,19A1.565,1.565,0,0,0,14,20.594a1.547,1.547,0,0,0,1.063,1.487V23.25a.531.531,0,0,0,1.063,0V22.081a1.547,1.547,0,0,0,1.063-1.487A1.565,1.565,0,0,0,15.594,19Zm0,2.125a.531.531,0,1,1,.531-.531A.5.5,0,0,1,15.594,21.125Z" transform="translate(-9.219 -9.438)"/>
  </g>
</svg>
