<svg xmlns="http://www.w3.org/2000/svg" xmlns:xlink="http://www.w3.org/1999/xlink" width="14" height="14" viewBox="0 0 14 14">
  <defs>
    <clipPath id="clip-path">
      <rect id="Rectangle_22" data-name="Rectangle 22" width="14" height="14" transform="translate(675 913)" fill="#262e67" stroke="#707070" stroke-width="1"/>
    </clipPath>
  </defs>
  <g id="Mask_Group_3" data-name="Mask Group 3" transform="translate(-675 -913)" opacity="0.5" clip-path="url(#clip-path)">
    <g id="calendar" transform="translate(675 913)">
      <g id="Group_1" data-name="Group 1">
        <path id="Path_3" data-name="Path 3" d="M2.116,14h9.769a1.858,1.858,0,0,0,1.856-1.856V2.893a1.858,1.858,0,0,0-1.856-1.856h-.736V.519a.519.519,0,0,0-1.037,0v.519H3.889V.519a.519.519,0,0,0-1.037,0v.519H2.116A1.858,1.858,0,0,0,.259,2.893v9.25A1.858,1.858,0,0,0,2.116,14ZM1.3,2.893a.821.821,0,0,1,.819-.819h.736v.519a.519.519,0,0,0,1.037,0V2.074h6.222v.519a.519.519,0,0,0,1.037,0V2.074h.736a.821.821,0,0,1,.819.819v9.25a.821.821,0,0,1-.819.819H2.116a.821.821,0,0,1-.819-.819Z" fill="#262e67"/>
        <circle id="Ellipse_1" data-name="Ellipse 1" cx="0.648" cy="0.648" r="0.648" transform="translate(3.37 4.667)" fill="#262e67"/>
        <circle id="Ellipse_2" data-name="Ellipse 2" cx="0.648" cy="0.648" r="0.648" transform="translate(6.222 4.667)" fill="#262e67"/>
        <circle id="Ellipse_3" data-name="Ellipse 3" cx="0.648" cy="0.648" r="0.648" transform="translate(9.074 4.667)" fill="#262e67"/>
        <circle id="Ellipse_4" data-name="Ellipse 4" cx="0.648" cy="0.648" r="0.648" transform="translate(3.37 7.259)" fill="#262e67"/>
        <circle id="Ellipse_5" data-name="Ellipse 5" cx="0.648" cy="0.648" r="0.648" transform="translate(6.222 7.259)" fill="#262e67"/>
        <circle id="Ellipse_6" data-name="Ellipse 6" cx="0.648" cy="0.648" r="0.648" transform="translate(9.074 7.259)" fill="#262e67"/>
        <circle id="Ellipse_7" data-name="Ellipse 7" cx="0.648" cy="0.648" r="0.648" transform="translate(3.37 9.852)" fill="#262e67"/>
        <circle id="Ellipse_8" data-name="Ellipse 8" cx="0.648" cy="0.648" r="0.648" transform="translate(6.222 9.852)" fill="#262e67"/>
        <circle id="Ellipse_9" data-name="Ellipse 9" cx="0.648" cy="0.648" r="0.648" transform="translate(9.074 9.852)" fill="#262e67"/>
      </g>
    </g>
  </g>
</svg>
