<svg xmlns="http://www.w3.org/2000/svg" xmlns:xlink="http://www.w3.org/1999/xlink" width="18" height="18" viewBox="0 0 18 18">
  <defs>
    <clipPath id="clip-path">
      <rect id="Rectangle_1964" data-name="Rectangle 1964" width="18" height="18" transform="translate(375 355)" fill="#e7194a" stroke="#707070" stroke-width="1"/>
    </clipPath>
  </defs>
  <g id="Mask_Group_170" data-name="Mask Group 170" transform="translate(-375 -355)" opacity="0.7" clip-path="url(#clip-path)">
    <g id="cart" transform="translate(374.4 354.4)">
      <path id="Path_573" data-name="Path 573" d="M4.2,13.8a2.4,2.4,0,1,0,2.4,2.4A2.4,2.4,0,0,0,4.2,13.8Zm0,3.6a1.2,1.2,0,1,1,1.2-1.2A1.2,1.2,0,0,1,4.2,17.4Z" fill="#e7194a"/>
      <path id="Path_574" data-name="Path 574" d="M12.6,13.8A2.4,2.4,0,1,0,15,16.2,2.4,2.4,0,0,0,12.6,13.8Zm0,3.6a1.2,1.2,0,1,1,1.2-1.2A1.2,1.2,0,0,1,12.6,17.4Z" fill="#e7194a"/>
      <path id="Path_575" data-name="Path 575" d="M18,.6H16.2a.6.6,0,0,0-.6.456L15.131,3H1.2a.593.593,0,0,0-.594.684l1.2,8.4A.6.6,0,0,0,2.4,12.6h12a.6.6,0,0,0,.6-.516l1.2-8.37L16.667,1.8H18A.6.6,0,1,0,18,.6ZM13.877,11.4H2.922L1.89,4.2h13.02Z" fill="#e7194a"/>
    </g>
  </g>
</svg>
