<svg xmlns="http://www.w3.org/2000/svg" xmlns:xlink="http://www.w3.org/1999/xlink" width="18" height="18" viewBox="0 0 18 18">
  <defs>
    <clipPath id="clip-path">
      <rect id="Rectangle_2123" data-name="Rectangle 2123" width="18" height="18" fill="#e7194a" stroke="#707070" stroke-width="1"/>
    </clipPath>
  </defs>
  <g id="Mask_Group_440" data-name="Mask Group 440" clip-path="url(#clip-path)">
    <path id="video-camera" d="M17.768,4.609a.527.527,0,0,0-.491-.053l-4.925,1.97V5.046a1.659,1.659,0,0,0-1.657-1.657H1.657A1.659,1.659,0,0,0,0,5.046v7.908a1.659,1.659,0,0,0,1.657,1.657h9.037a1.659,1.659,0,0,0,1.657-1.657v-1.48l4.925,1.97a.527.527,0,0,0,.723-.49V5.046a.527.527,0,0,0-.232-.437ZM11.3,12.954a.6.6,0,0,1-.6.6H1.657a.6.6,0,0,1-.6-.6V5.046a.6.6,0,0,1,.6-.6h9.037a.6.6,0,0,1,.6.6Zm5.648-.779-4.594-1.838V7.662l4.594-1.838Z" fill="#e7194a"/>
  </g>
</svg>
