<svg xmlns="http://www.w3.org/2000/svg" xmlns:xlink="http://www.w3.org/1999/xlink" width="18" height="18" viewBox="0 0 18 18">
  <defs>
    <clipPath id="clip-path">
      <rect id="Rectangle_2189" data-name="Rectangle 2189" width="18" height="18" transform="translate(679 944)" fill="#e7194a" stroke="#707070" stroke-width="1"/>
    </clipPath>
  </defs>
  <g id="Mask_Group_442" data-name="Mask Group 442" transform="translate(-679 -944)" clip-path="url(#clip-path)">
    <g id="text-document" transform="translate(679 944)">
      <path id="Path_597" data-name="Path 597" d="M12.511,0H3.451a1.105,1.105,0,0,0-1.1,1.1V16.9a1.105,1.105,0,0,0,1.1,1.1h11.1a1.1,1.1,0,0,0,1.1-1.1V3.413Zm.26,1.652,1.377,1.5H12.771ZM14.725,16.9a.178.178,0,0,1-.177.177H3.451a.177.177,0,0,1-.177-.177V1.1A.177.177,0,0,1,3.451.927h8.393V3.612a.464.464,0,0,0,.464.463h2.417ZM4.91,4.93h7.871a.347.347,0,0,1,0,.695H4.91a.347.347,0,1,1,0-.695Zm8.219,2.681a.347.347,0,0,1-.347.347H4.91a.347.347,0,1,1,0-.695h7.871A.347.347,0,0,1,13.129,7.611Zm0,2.257a.347.347,0,0,1-.347.347H4.91a.347.347,0,1,1,0-.695h7.871A.347.347,0,0,1,13.129,9.868Zm0,2.3a.347.347,0,0,1-.347.347H4.91a.347.347,0,1,1,0-.695h7.871A.347.347,0,0,1,13.129,12.164Z" fill="#e7194a"/>
    </g>
  </g>
</svg>
