<svg xmlns="http://www.w3.org/2000/svg" xmlns:xlink="http://www.w3.org/1999/xlink" width="18" height="18" viewBox="0 0 18 18">
  <defs>
    <clipPath id="clip-path">
      <rect id="Rectangle_2122" data-name="Rectangle 2122" width="18" height="18" fill="#e7194a" stroke="#707070" stroke-width="1"/>
    </clipPath>
  </defs>
  <g id="Mask_Group_439" data-name="Mask Group 439" clip-path="url(#clip-path)">
    <g id="information">
      <g id="Group_536" data-name="Group 536">
        <g id="Group_535" data-name="Group 535">
          <path id="Path_578" data-name="Path 578" d="M9,0a9,9,0,1,0,9,9A8.995,8.995,0,0,0,9,0ZM9,16.594A7.594,7.594,0,1,1,16.594,9,7.589,7.589,0,0,1,9,16.594Z" fill="#e7194a"/>
        </g>
      </g>
      <g id="Group_538" data-name="Group 538" transform="translate(8.297 7.535)">
        <g id="Group_537" data-name="Group 537">
          <path id="Path_579" data-name="Path 579" d="M9,7.535a.7.7,0,0,0-.7.7v4.528a.7.7,0,1,0,1.406,0V8.238A.7.7,0,0,0,9,7.535Z" transform="translate(-8.297 -7.535)" fill="#e7194a"/>
        </g>
      </g>
      <g id="Group_540" data-name="Group 540" transform="translate(8.051 4.776)">
        <g id="Group_539" data-name="Group 539">
          <circle id="Ellipse_318" data-name="Ellipse 318" cx="0.949" cy="0.949" r="0.949" fill="#e7194a"/>
        </g>
      </g>
    </g>
  </g>
</svg>
