<svg width="40" height="40" viewBox="0 0 40 40" fill="none" xmlns="http://www.w3.org/2000/svg">
<path d="M28.3085 9.33449L9.33443 28.3085C8.7161 28.9268 8.7161 29.9294 9.33443 30.5477L9.45228 30.6655C10.0706 31.2839 11.0731 31.2839 11.6915 30.6655L30.6655 11.6915C31.2838 11.0732 31.2838 10.0707 30.6655 9.45233L30.5476 9.33448C29.9293 8.71615 28.9268 8.71616 28.3085 9.33449Z" fill="#fff"/>
<path d="M30.4507 28.0936L11.4766 9.11959C10.8583 8.50126 9.8558 8.50126 9.23747 9.11959L9.11962 9.23744C8.50129 9.85577 8.50129 10.8583 9.11962 11.4766L28.0936 30.4506C28.712 31.069 29.7145 31.069 30.3328 30.4506L30.4507 30.3328C31.069 29.7145 31.069 28.7119 30.4507 28.0936Z" fill="#fff"/>
</svg>
