<svg width="108" height="75" viewBox="0 0 108 75" fill="none" xmlns="http://www.w3.org/2000/svg">
<path d="M50.8149 25.3545V33.1015H73.7152C73.7152 33.1015 72.5161 48.1839 55.1789 57.1218C73.0471 55.9063 84.6058 40.9317 81.6962 25.3545H50.8149Z" fill="url(#paint0_linear_1266_5273)"/>
<path d="M72.5163 35.6982C72.5163 35.6982 69.5876 45.8317 56.6534 49.0069C43.7188 52.1825 33.1433 46.3806 29.5266 43.8719C31.8856 47.9095 40.0233 57.4745 54.4126 57.1218C61.9889 52.7178 70.6882 45.5572 72.5163 35.6982Z" fill="#19ACDC"/>
<path d="M28.3472 15.667C28.3472 15.667 23.7152 20.6982 25.3396 32.6602C26.1064 38.3052 28.7009 42.7154 28.7009 42.7154C28.7009 42.7154 41.6745 52.5351 56.5941 48.5364C45.3306 48.8895 28.1113 42.1863 28.3472 15.667Z" fill="url(#paint1_linear_1266_5273)"/>
<path d="M38.0574 41.324C38.0574 41.324 30.7054 34.7185 29.5262 23.9972C28.5793 15.3883 29.0546 13.7267 29.0546 13.7267C29.0546 13.7267 35.541 1.16926 52.1711 0C36.8974 9.55171 27.0493 25.6631 38.0574 41.324Z" fill="#19ACDC"/>
<path d="M35.011 21.0182C35.011 21.0182 39.9841 8.1996 54.7662 8.55232C64.5955 8.78675 69.5089 16.0786 69.5089 16.0786H79.475C79.475 16.0786 72.6934 0 53.9408 0C51.1495 1.30054 39.6697 7.02349 35.011 21.0182Z" fill="url(#paint2_linear_1266_5273)"/>
<path d="M5.42593 74.7553C4.64718 74.7553 3.92703 74.6099 3.26619 74.3182C2.60536 74.0267 2.0317 73.6275 1.54484 73.1208C1.05799 72.6148 0.67892 72.0139 0.40728 71.3178C0.135278 70.6221 0 69.8701 0 69.0619C0 68.2432 0.136001 67.4963 0.408003 66.8211C0.679643 66.1456 1.05943 65.5704 1.54665 65.0946C2.03423 64.6189 2.60898 64.2507 3.27053 63.9896C3.93245 63.7285 4.65333 63.5986 5.43317 63.5986H11.4975V65.5476H5.43317C4.9304 65.5476 4.46561 65.6371 4.04024 65.816C3.61415 65.9952 3.24775 66.2433 2.93957 66.5604C2.63176 66.8777 2.39087 67.2561 2.21616 67.6961C2.04146 68.1361 1.95465 68.6219 1.95465 69.1539C1.95465 69.6754 2.04146 70.1616 2.21616 70.612C2.39087 71.0621 2.6314 71.4484 2.93957 71.7705C3.24775 72.0929 3.61415 72.3461 4.04024 72.5304C4.46561 72.7143 4.93004 72.8066 5.43317 72.8066H10.2196V69.9062H5.17129V68.2638H12.1746V74.7556H5.42593V74.7553Z" fill="url(#paint3_linear_1266_5273)"/>
<path d="M13.9905 74.7556V63.5986H23.9949V65.5476H15.9451V72.8066H24.0101V74.7556H13.9905ZM17.3612 69.9062V68.2638H23.5641V69.9062H17.3612Z" fill="url(#paint4_linear_1266_5273)"/>
<path d="M37.3389 74.756L35.661 71.9475H30.3667L31.2901 70.3667H34.7223L32.2291 66.1921L27.1497 74.756H24.918L31.3516 64.0747C31.4645 63.8803 31.5976 63.727 31.752 63.6141C31.9057 63.5016 32.0906 63.4453 32.3058 63.4453C32.5214 63.4453 32.7037 63.5016 32.8523 63.6141C33.0006 63.727 33.1316 63.8803 33.2448 64.0747L39.6932 74.756H37.3389Z" fill="url(#paint5_linear_1266_5273)"/>
<path d="M51.2834 74.7556L48.4516 71.6558H44.2653V69.9369H48.9287C49.6366 69.9369 50.1704 69.7475 50.5293 69.3692C50.8888 68.9909 51.0682 68.4329 51.0682 67.6964C51.0682 66.96 50.8808 66.4175 50.5072 66.0695C50.1336 65.7218 49.6087 65.548 48.9331 65.548H42.8492V74.756H40.8945V63.5986H48.9287C49.5646 63.5986 50.1346 63.6931 50.6374 63.8825C51.1398 64.0718 51.5655 64.3427 51.915 64.6958C52.2636 65.0488 52.5306 65.4759 52.7154 65.9772C52.8999 66.4789 52.9921 67.0415 52.9921 67.6654C52.9921 68.5967 52.7921 69.3764 52.3924 70.0058C51.992 70.6347 51.4227 71.0877 50.6837 71.364L54.0544 74.7556H51.2834Z" fill="url(#paint6_linear_1266_5273)"/>
<path d="M68.9988 74.7556L66.8597 66.9138L63.689 74.1724C63.5761 74.4079 63.4401 74.5893 63.281 74.7174C63.1218 74.845 62.9243 74.9089 62.6885 74.9089C62.2364 74.9089 61.9036 74.6636 61.688 74.1724L58.5332 66.9138L56.3934 74.7556H54.4695L57.3479 64.2586C57.481 63.7266 57.8044 63.4604 58.3177 63.4604C58.5231 63.4604 58.7152 63.5167 58.8949 63.6296C59.074 63.7421 59.21 63.9055 59.3029 64.1205L62.7503 72.0088L66.1981 64.1205C66.3826 63.6808 66.6955 63.4604 67.1367 63.4604C67.6084 63.4604 67.9216 63.7266 68.0761 64.2586L70.9386 74.7556H68.9988Z" fill="url(#paint7_linear_1266_5273)"/>
<path d="M72.2305 74.7556V63.5986H82.2349V65.5476H74.1851V72.8066H82.2501V74.7556H72.2305ZM75.6012 69.9062V68.2638H81.8037V69.9062H75.6012Z" fill="url(#paint8_linear_1266_5273)"/>
<path d="M85.7286 66.5913V74.7556H83.8662V64.6268C83.8662 64.2687 83.9559 63.9849 84.1357 63.7749C84.3151 63.5654 84.5589 63.4604 84.8671 63.4604C85.0103 63.4604 85.1488 63.4911 85.2823 63.5528C85.4154 63.6137 85.5543 63.7162 85.6979 63.8593L93.5935 71.6709V63.5063H95.456V73.7273C95.456 74.0956 95.3659 74.3819 95.1865 74.5864C95.0067 74.7913 94.7734 74.8937 94.4862 74.8937C94.1679 74.8937 93.8706 74.7552 93.5935 74.4793L85.7286 66.5913Z" fill="url(#paint9_linear_1266_5273)"/>
<path d="M100.935 74.7556V65.5476H96.687V63.5986H107.137V65.5476H102.89V74.7556H100.935Z" fill="url(#paint10_linear_1266_5273)"/>
<defs>
<linearGradient id="paint0_linear_1266_5273" x1="66.0437" y1="57.1674" x2="66.5128" y2="25.4147" gradientUnits="userSpaceOnUse">
<stop stop-color="#0C619B"/>
<stop offset="1" stop-color="#13A0D2"/>
</linearGradient>
<linearGradient id="paint1_linear_1266_5273" x1="48.7263" y1="53.9114" x2="23.1116" y2="18.7953" gradientUnits="userSpaceOnUse">
<stop stop-color="#0C619B"/>
<stop offset="1" stop-color="#13A0D2"/>
</linearGradient>
<linearGradient id="paint2_linear_1266_5273" x1="57.1451" y1="16.56" x2="56.4415" y2="2.2125" gradientUnits="userSpaceOnUse">
<stop stop-color="#0C619B"/>
<stop offset="1" stop-color="#13A0D2"/>
</linearGradient>
<linearGradient id="paint3_linear_1266_5273" x1="-1.22153" y1="69.1768" x2="108.59" y2="69.1768" gradientUnits="userSpaceOnUse">
<stop offset="0.22" stop-color="#0A5F9A"/>
<stop offset="0.76" stop-color="#12ABDD"/>
<stop offset="0.9619" stop-color="#12ABDD"/>
</linearGradient>
<linearGradient id="paint4_linear_1266_5273" x1="-0.817472" y1="69.1772" x2="106.984" y2="69.1772" gradientUnits="userSpaceOnUse">
<stop offset="0.22" stop-color="#0A5F9A"/>
<stop offset="0.76" stop-color="#12ABDD"/>
<stop offset="0.9619" stop-color="#12ABDD"/>
</linearGradient>
<linearGradient id="paint5_linear_1266_5273" x1="-1.11448" y1="69.1006" x2="108.849" y2="69.1006" gradientUnits="userSpaceOnUse">
<stop offset="0.22" stop-color="#0A5F9A"/>
<stop offset="0.76" stop-color="#12ABDD"/>
<stop offset="0.9619" stop-color="#12ABDD"/>
</linearGradient>
<linearGradient id="paint6_linear_1266_5273" x1="-1.11456" y1="69.1772" x2="108.849" y2="69.1772" gradientUnits="userSpaceOnUse">
<stop offset="0.22" stop-color="#0A5F9A"/>
<stop offset="0.76" stop-color="#12ABDD"/>
<stop offset="0.9619" stop-color="#12ABDD"/>
</linearGradient>
<linearGradient id="paint7_linear_1266_5273" x1="-1.11487" y1="69.1846" x2="108.85" y2="69.1846" gradientUnits="userSpaceOnUse">
<stop offset="0.22" stop-color="#0A5F9A"/>
<stop offset="0.76" stop-color="#12ABDD"/>
<stop offset="0.9619" stop-color="#12ABDD"/>
</linearGradient>
<linearGradient id="paint8_linear_1266_5273" x1="0.326314" y1="69.1772" x2="108.129" y2="69.1772" gradientUnits="userSpaceOnUse">
<stop offset="0.22" stop-color="#0A5F9A"/>
<stop offset="0.76" stop-color="#12ABDD"/>
<stop offset="0.9619" stop-color="#12ABDD"/>
</linearGradient>
<linearGradient id="paint9_linear_1266_5273" x1="0.454029" y1="69.1771" x2="108.388" y2="69.1771" gradientUnits="userSpaceOnUse">
<stop offset="0.22" stop-color="#0A5F9A"/>
<stop offset="0.76" stop-color="#12ABDD"/>
<stop offset="0.9619" stop-color="#12ABDD"/>
</linearGradient>
<linearGradient id="paint10_linear_1266_5273" x1="-0.93754" y1="69.1772" x2="108.627" y2="69.1772" gradientUnits="userSpaceOnUse">
<stop offset="0.22" stop-color="#0A5F9A"/>
<stop offset="0.76" stop-color="#12ABDD"/>
<stop offset="0.9619" stop-color="#12ABDD"/>
</linearGradient>
</defs>
</svg>
