<svg width="33" height="33" viewBox="0 0 33 33" fill="none" xmlns="http://www.w3.org/2000/svg">
<path d="M23.0347 25.3462H19.2622C19.0118 25.3462 18.808 25.1423 18.808 24.8901C18.808 24.6378 19.011 24.4339 19.2622 24.4339H23.0347C26.2514 24.4339 28.8679 21.8062 28.8679 18.5756C28.8679 16.1503 27.4148 14.0101 25.1658 13.123C25.0525 13.0783 24.9621 12.9898 24.9146 12.8774C23.6119 9.81062 20.6257 7.82885 17.3075 7.82885C14.2123 7.82885 11.4009 9.54495 9.97 12.3081C9.86774 12.5061 9.63803 12.5998 9.42684 12.5314C9.2001 12.4577 8.9652 12.4197 8.72882 12.4197C7.48244 12.4197 6.46874 13.4378 6.46874 14.6895C6.46874 14.8495 6.48727 15.014 6.52284 15.1784C6.56656 15.3786 6.47171 15.584 6.2909 15.6793C4.76443 16.4867 3.81594 18.0614 3.81594 19.7894C3.81594 22.3502 5.89076 24.4339 8.44056 24.4339H15.0074C15.2578 24.4339 15.4616 24.6378 15.4616 24.8901C15.4616 25.1423 15.2586 25.3462 15.0074 25.3462H8.44056C5.38984 25.3462 2.9082 22.854 2.9082 19.7902C2.9082 17.8337 3.92412 16.0409 5.58102 15.0363C5.56842 14.9202 5.56175 14.8049 5.56175 14.6902C5.56175 12.9362 6.983 11.5089 8.72956 11.5089C8.93407 11.5089 9.13785 11.5289 9.33866 11.5684C10.9726 8.69062 13.9937 6.91797 17.3082 6.91797C20.928 6.91797 24.1914 9.04262 25.6749 12.3468C26.8457 12.8469 27.8461 13.6648 28.5767 14.7208C29.3622 15.8556 29.7771 17.1892 29.7771 18.5764C29.7756 22.3092 26.7516 25.3462 23.0347 25.3462Z" fill="#020A4B"/>
<path d="M25.7821 18.6807C25.7414 18.6807 25.6999 18.6748 25.6584 18.6636C25.4168 18.5952 25.2768 18.3436 25.345 18.101C25.6414 17.0472 25.6443 16.1743 25.6443 16.1661C25.6443 15.0141 25.4146 13.9001 24.9611 12.8538C24.8611 12.6231 24.9663 12.3544 25.196 12.2539C25.4257 12.1535 25.6932 12.2592 25.7933 12.4899C26.2971 13.6515 26.5521 14.8884 26.5521 16.1654C26.5521 16.2041 26.5513 17.1663 26.2186 18.3496C26.1623 18.5498 25.98 18.6807 25.7821 18.6807ZM11.351 14.2588C11.165 14.2588 10.9909 14.1434 10.9242 13.9574C10.6011 13.0577 9.74601 12.4534 8.79603 12.4534C8.54557 12.4534 8.3418 12.2495 8.3418 11.9972C8.3418 11.7449 8.54483 11.541 8.79603 11.541C10.1269 11.541 11.3251 12.3872 11.7778 13.6471C11.8631 13.8837 11.7408 14.1449 11.5052 14.2305C11.454 14.2499 11.4022 14.2588 11.351 14.2588Z" fill="#020A4B"/>
<path d="M17.1847 26.5513C16.9342 26.5513 16.7305 26.3474 16.7305 26.0951V16.1974C16.7305 15.9459 16.9335 15.7412 17.1847 15.7412C17.4359 15.7412 17.6389 15.9451 17.6389 16.1974V26.0951C17.6382 26.3466 17.4352 26.5513 17.1847 26.5513Z" fill="#020A4B"/>
<path d="M13.5865 20.1043C13.4702 20.1043 13.3538 20.0596 13.2656 19.9711C13.0885 19.7932 13.0885 19.5045 13.2656 19.3266L16.8966 15.6801C16.9825 15.5938 17.1004 15.5476 17.2197 15.5469C17.3404 15.5476 17.4568 15.5967 17.5412 15.6831L21.1077 19.3296C21.2833 19.5089 21.2811 19.7977 21.1018 19.974C20.9232 20.1504 20.6357 20.1474 20.4601 19.9681L17.2152 16.6498L13.9081 19.9711C13.8192 20.0596 13.7028 20.1043 13.5865 20.1043Z" fill="#020A4B"/>
</svg>
