<svg xmlns="http://www.w3.org/2000/svg" xmlns:xlink="http://www.w3.org/1999/xlink" width="16" height="16" viewBox="0 0 16 16">
  <defs>
    <clipPath id="clip-path">
      <rect id="Rectangle_240" data-name="Rectangle 240" width="16" height="16" transform="translate(1489 267)" fill="#7f7f7f" stroke="#707070" stroke-width="1"/>
    </clipPath>
  </defs>
  <g id="Mask_Group_54" data-name="Mask Group 54" transform="translate(-1489 -267)" clip-path="url(#clip-path)">
    <g id="Pin" transform="translate(1489 267)">
      <path id="Path_140" data-name="Path 140" d="M8,3.25A2.75,2.75,0,1,0,10.75,6,2.75,2.75,0,0,0,8,3.25Zm0,5A2.25,2.25,0,1,1,10.25,6,2.25,2.25,0,0,1,8,8.25Z" fill="#7f7f7f"/>
      <path id="Path_141" data-name="Path 141" d="M8,0A6.007,6.007,0,0,0,2,6c0,4.307,5.589,9.7,5.827,9.931a.25.25,0,0,0,.346,0C8.411,15.7,14,10.307,14,6A6.007,6.007,0,0,0,8,0ZM8,15.4C7.049,14.444,2.5,9.686,2.5,6a5.5,5.5,0,1,1,11,0C13.5,9.684,8.951,14.444,8,15.4Z" fill="#7f7f7f"/>
    </g>
  </g>
</svg>
