<svg xmlns="http://www.w3.org/2000/svg" xmlns:xlink="http://www.w3.org/1999/xlink" width="18" height="18" viewBox="0 0 18 18">
  <defs>
    <clipPath id="clip-path">
      <rect id="Rectangle_44" data-name="Rectangle 44" width="18" height="18" transform="translate(1609 26)" fill="#7f7f7f" stroke="#707070" stroke-width="1"/>
    </clipPath>
  </defs>
  <g id="ic-cart" transform="translate(-1609 -26)" clip-path="url(#clip-path)">
    <path id="shopping-bag_7_" data-name="shopping-bag (7)" d="M15.576,17.408,14.208,4.38a.536.536,0,0,0-.533-.48H11.1V3.314a3.314,3.314,0,0,0-6.629,0V3.9H1.9a.536.536,0,0,0-.533.48L0,17.408A.536.536,0,0,0,.536,18H15.043a.536.536,0,0,0,.533-.592ZM5.547,3.314a2.243,2.243,0,0,1,4.486,0V3.9H5.547ZM1.131,16.929,2.386,4.972H4.475V6.153a.536.536,0,1,0,1.071,0V4.972h4.486V6.153a.536.536,0,1,0,1.071,0V4.972h2.089l1.256,11.957Zm0,0" transform="translate(1610.21 26)" fill="#7f7f7f"/>
  </g>
</svg>
