<svg xmlns="http://www.w3.org/2000/svg" xmlns:xlink="http://www.w3.org/1999/xlink" width="18" height="18" viewBox="0 0 18 18">
  <defs>
    <clipPath id="clip-path">
      <rect id="Rectangle_45" data-name="Rectangle 45" width="18" height="18" transform="translate(1647 26)" fill="#7f7f7f" stroke="#707070" stroke-width="1"/>
    </clipPath>
  </defs>
  <g id="ic-user" transform="translate(-1647 -26)" clip-path="url(#clip-path)">
    <g id="_x36_-User" transform="translate(1642.5 21.5)">
      <g id="Group_18" data-name="Group 18">
        <path id="Path_92" data-name="Path 92" d="M13.5,14.063a3.375,3.375,0,1,0-3.375-3.375A3.379,3.379,0,0,0,13.5,14.063Zm0-5.625a2.25,2.25,0,1,1-2.25,2.25A2.253,2.253,0,0,1,13.5,8.438Z" fill="#7f7f7f"/>
        <path id="Path_93" data-name="Path 93" d="M13.5,4.5a9,9,0,1,0,9,9A9.01,9.01,0,0,0,13.5,4.5Zm0,1.125a7.866,7.866,0,0,1,6.583,12.184,8.4,8.4,0,0,0-13.167,0A7.866,7.866,0,0,1,13.5,5.625Zm0,15.75a7.849,7.849,0,0,1-5.876-2.65,7.29,7.29,0,0,1,11.752,0A7.849,7.849,0,0,1,13.5,21.375Z" fill="#7f7f7f"/>
      </g>
    </g>
  </g>
</svg>
