<svg xmlns="http://www.w3.org/2000/svg" xmlns:xlink="http://www.w3.org/1999/xlink" width="51" height="51" viewBox="0 0 51 51">
  <defs>
    <clipPath id="clip-path">
      <rect id="Rectangle_26" data-name="Rectangle 26" width="51" height="51" transform="translate(-0.283 -0.283)" fill="#a9d046" stroke="#707070" stroke-width="1" opacity="0.8"/>
    </clipPath>
  </defs>
  <g id="Mask_Group_3" data-name="Mask Group 3" transform="translate(0.283 0.283)" clip-path="url(#clip-path)">
    <g id="orientation" transform="translate(9.699 0)">
      <g id="LINE_298_" transform="translate(13.579 11.639)">
        <g id="Group_1034" data-name="Group 1034">
          <path id="Path_186" data-name="Path 186" d="M48.094,37.391a1.94,1.94,0,0,1-1.371-3.311l5.819-5.819A1.94,1.94,0,0,1,55.285,31l-5.819,5.819a1.932,1.932,0,0,1-1.371.568Z" transform="translate(-46.154 -27.693)" fill="#a9d046"/>
        </g>
      </g>
      <g id="LINE_297_" transform="translate(7.759 11.639)">
        <g id="Group_1035" data-name="Group 1035">
          <path id="Path_187" data-name="Path 187" d="M44.682,37.391a1.932,1.932,0,0,1-1.371-.568L37.492,31a1.94,1.94,0,1,1,2.743-2.743l5.819,5.819a1.94,1.94,0,0,1-1.371,3.311Z" transform="translate(-36.923 -27.693)" fill="#a9d046"/>
        </g>
      </g>
      <g id="LINE_296_" transform="translate(13.579 0)">
        <g id="Group_1036" data-name="Group 1036">
          <path id="Path_188" data-name="Path 188" d="M48.094,30.569a1.941,1.941,0,0,1-1.94-1.94V11.171a1.94,1.94,0,0,1,3.88,0V28.629A1.941,1.941,0,0,1,48.094,30.569Z" transform="translate(-46.154 -9.231)" fill="#a9d046"/>
        </g>
      </g>
      <g id="LINE_268_" transform="translate(0 38.796)">
        <g id="Group_1037" data-name="Group 1037">
          <path id="Path_189" data-name="Path 189" d="M53.712,74.649H26.555a1.94,1.94,0,0,1,0-3.88H53.712a1.94,1.94,0,0,1,0,3.88Z" transform="translate(-24.615 -70.769)" fill="#a9d046"/>
        </g>
      </g>
      <g id="LINE_267_" transform="translate(1.94 0)">
        <g id="Group_1038" data-name="Group 1038">
          <path id="Path_190" data-name="Path 190" d="M52.91,13.11H29.632a1.94,1.94,0,1,1,0-3.88H52.91a1.94,1.94,0,1,1,0,3.88Z" transform="translate(-27.692 -9.231)" fill="#a9d046"/>
        </g>
      </g>
      <g id="ARC_170_" transform="translate(25.217 0)">
        <g id="Group_1039" data-name="Group 1039">
          <path id="Path_191" data-name="Path 191" d="M68.495,15.05a1.941,1.941,0,0,1-1.94-1.94v0a1.939,1.939,0,1,1,0-3.878,3.884,3.884,0,0,1,3.88,3.88A1.941,1.941,0,0,1,68.495,15.05Z" transform="translate(-64.615 -9.231)" fill="#a9d046"/>
        </g>
      </g>
      <g id="LINE_266_" transform="translate(1.94 46.555)">
        <g id="Group_1040" data-name="Group 1040">
          <path id="Path_192" data-name="Path 192" d="M52.91,86.957H29.632a1.94,1.94,0,1,1,0-3.88H52.91a1.94,1.94,0,1,1,0,3.88Z" transform="translate(-27.692 -83.077)" fill="#a9d046"/>
        </g>
      </g>
      <g id="ARC_169_" transform="translate(25.217 44.615)">
        <g id="Group_1041" data-name="Group 1041">
          <path id="Path_193" data-name="Path 193" d="M66.555,85.819a1.94,1.94,0,0,1,0-3.88h0a1.939,1.939,0,1,1,3.878,0A3.884,3.884,0,0,1,66.555,85.819Z" transform="translate(-64.615 -80)" fill="#a9d046"/>
        </g>
      </g>
      <g id="LINE_265_" transform="translate(27.157 1.94)">
        <g id="Group_1042" data-name="Group 1042">
          <path id="Path_194" data-name="Path 194" d="M69.632,58.863a1.941,1.941,0,0,1-1.94-1.94V14.247a1.94,1.94,0,0,1,3.88,0V56.923A1.941,1.941,0,0,1,69.632,58.863Z" transform="translate(-67.692 -12.308)" fill="#a9d046"/>
        </g>
      </g>
      <g id="ARC_168_" transform="translate(0 44.615)">
        <g id="Group_1043" data-name="Group 1043">
          <path id="Path_195" data-name="Path 195" d="M28.495,85.819a3.884,3.884,0,0,1-3.88-3.88,1.94,1.94,0,1,1,3.88,0v0a1.938,1.938,0,1,1,0,3.877Z" transform="translate(-24.615 -80)" fill="#a9d046"/>
        </g>
      </g>
      <g id="LINE_264_" transform="translate(0 1.94)">
        <g id="Group_1044" data-name="Group 1044">
          <path id="Path_196" data-name="Path 196" d="M26.555,58.863a1.941,1.941,0,0,1-1.94-1.94V14.247a1.94,1.94,0,1,1,3.88,0V56.923A1.941,1.941,0,0,1,26.555,58.863Z" transform="translate(-24.615 -12.308)" fill="#a9d046"/>
        </g>
      </g>
      <g id="ARC_167_" transform="translate(0 0)">
        <g id="Group_1045" data-name="Group 1045">
          <path id="Path_197" data-name="Path 197" d="M26.554,15.05a1.939,1.939,0,0,1-1.939-1.94,3.884,3.884,0,0,1,3.88-3.88,1.94,1.94,0,0,1,0,3.88h0A1.938,1.938,0,0,1,26.554,15.05Z" transform="translate(-24.615 -9.231)" fill="#a9d046"/>
        </g>
      </g>
    </g>
  </g>
</svg>
