<svg width="24" height="24" viewBox="0 0 24 24" fill="none" xmlns="http://www.w3.org/2000/svg">
<g filter="url(#filter0_d)">
<path d="M12 8.72732C12.4016 8.72732 12.7273 8.4017 12.7273 8.00004C12.7273 7.59838 12.4016 7.27277 12 7.27277C11.5983 7.27277 11.2727 7.59838 11.2727 8.00004C11.2727 8.4017 11.5983 8.72732 12 8.72732Z" fill="#E87623"/>
<path d="M15.6365 8.72732C16.0381 8.72732 16.3637 8.4017 16.3637 8.00004C16.3637 7.59838 16.0381 7.27277 15.6365 7.27277C15.2348 7.27277 14.9092 7.59838 14.9092 8.00004C14.9092 8.4017 15.2348 8.72732 15.6365 8.72732Z" fill="#E87623"/>
<path d="M8.36375 8.72732C8.76541 8.72732 9.09102 8.4017 9.09102 8.00004C9.09102 7.59838 8.76541 7.27277 8.36375 7.27277C7.96208 7.27277 7.63647 7.59838 7.63647 8.00004C7.63647 8.4017 7.96208 8.72732 8.36375 8.72732Z" fill="#E87623"/>
<path d="M12 4.10036e-06C10.5879 -0.00142609 9.20069 0.371303 7.97948 1.08025C6.75828 1.7892 5.74671 2.80906 5.04775 4.03601C4.34878 5.26296 3.98739 6.6532 4.00034 8.06522C4.01329 9.47724 4.40013 10.8606 5.12148 12.0745L4.73297 15.1825C4.72026 15.2848 4.72944 15.3887 4.75989 15.4872C4.79034 15.5857 4.84137 15.6766 4.90959 15.7538C4.97781 15.8311 5.06168 15.893 5.15563 15.9355C5.24958 15.9779 5.35148 15.9999 5.45457 16C5.51408 16.0001 5.57338 15.9928 5.63107 15.9782L8.59871 15.2364C9.66144 15.7411 10.8235 16.002 12 16C14.1217 16 16.1566 15.1571 17.6569 13.6568C19.1572 12.1566 20 10.1217 20 8C20 5.87827 19.1572 3.84344 17.6569 2.34315C16.1566 0.842858 14.1217 4.10036e-06 12 4.10036e-06ZM12 14.5454C10.9607 14.5467 9.93638 14.2975 9.01383 13.8189C8.91086 13.7662 8.7968 13.7387 8.68111 13.7389C8.62159 13.7388 8.56229 13.7461 8.5046 13.7607L6.30824 14.3097L6.59638 12.0007C6.61762 11.8322 6.57902 11.6615 6.48729 11.5185C5.70708 10.2936 5.35671 8.84384 5.49139 7.39783C5.62607 5.95181 6.23816 4.59173 7.23116 3.53199C8.22416 2.47225 9.5416 1.7731 10.9758 1.54477C12.41 1.31644 13.8794 1.5719 15.1524 2.27089C16.4254 2.96988 17.4296 4.07264 18.0067 5.40535C18.5837 6.73805 18.7009 8.22491 18.3396 9.63153C17.9784 11.0382 17.1593 12.2846 16.0114 13.1743C14.8636 14.064 13.4523 14.5464 12 14.5454Z" fill="#E87623"/>
</g>
<defs>
<filter id="filter0_d" x="0" y="0" width="24" height="24" filterUnits="userSpaceOnUse" color-interpolation-filters="sRGB">
<feFlood flood-opacity="0" result="BackgroundImageFix"/>
<feColorMatrix in="SourceAlpha" type="matrix" values="0 0 0 0 0 0 0 0 0 0 0 0 0 0 0 0 0 0 127 0" result="hardAlpha"/>
<feOffset dy="4"/>
<feGaussianBlur stdDeviation="2"/>
<feComposite in2="hardAlpha" operator="out"/>
<feColorMatrix type="matrix" values="0 0 0 0 0 0 0 0 0 0 0 0 0 0 0 0 0 0 0.25 0"/>
<feBlend mode="normal" in2="BackgroundImageFix" result="effect1_dropShadow"/>
<feBlend mode="normal" in="SourceGraphic" in2="effect1_dropShadow" result="shape"/>
</filter>
</defs>
</svg>
