<svg width="16" height="16" viewBox="0 0 16 16" fill="none" xmlns="http://www.w3.org/2000/svg">
<path d="M12.3636 0H3.63636C1.63127 0 0 1.63127 0 3.63636V9.45455C0 11.2102 1.25164 12.6793 2.90909 13.0175V15.2727C2.90909 15.5411 3.05673 15.7876 3.29309 15.9142C3.40073 15.9716 3.51855 16 3.63636 16C3.77745 16 3.91782 15.9585 4.04 15.8778L8.22036 13.0909H12.3636C14.3687 13.0909 16 11.4596 16 9.45455V3.63636C16 1.63127 14.3687 0 12.3636 0ZM7.59636 11.7585L4.36364 13.9135V12.3636C4.36364 11.9622 4.03782 11.6364 3.63636 11.6364C2.43345 11.6364 1.45455 10.6575 1.45455 9.45455V3.63636C1.45455 2.43345 2.43345 1.45455 3.63636 1.45455H12.3636C13.5665 1.45455 14.5455 2.43345 14.5455 3.63636V9.45455C14.5455 10.6575 13.5665 11.6364 12.3636 11.6364H8C7.94909 11.6356 7.87636 11.6407 7.79345 11.6655C7.70618 11.6909 7.64 11.7287 7.59636 11.7585Z" fill="#A5A6AD"/>
<path d="M12.3637 4.36365H3.63645C3.235 4.36365 2.90918 4.68947 2.90918 5.09093C2.90918 5.49238 3.235 5.8182 3.63645 5.8182H12.3637C12.7652 5.8182 13.091 5.49238 13.091 5.09093C13.091 4.68947 12.7652 4.36365 12.3637 4.36365Z" fill="#A5A6AD"/>
<path d="M10.909 7.27274H5.0908C4.68934 7.27274 4.36353 7.59856 4.36353 8.00001C4.36353 8.40147 4.68934 8.72729 5.0908 8.72729H10.909C11.3104 8.72729 11.6363 8.40147 11.6363 8.00001C11.6363 7.59856 11.3104 7.27274 10.909 7.27274Z" fill="#A5A6AD"/>
</svg>
