<svg width="16" height="16" viewBox="0 0 16 16" fill="none" xmlns="http://www.w3.org/2000/svg">
<path d="M15.2188 7.21875C14.7875 7.21875 14.4375 7.56875 14.4375 8C14.4375 11.55 11.55 14.4375 8 14.4375C4.45 14.4375 1.5625 11.55 1.5625 8C1.5625 7.56875 1.2125 7.21875 0.78125 7.21875C0.35 7.21875 0 7.56875 0 8C0 10.1375 0.83125 12.1469 2.34375 13.6562C3.85625 15.1688 5.8625 16 8 16C10.1375 16 12.1469 15.1688 13.6562 13.6562C15.1688 12.1437 16 10.1375 16 8C16 7.56875 15.65 7.21875 15.2188 7.21875Z" fill="#A5A6AD"/>
<path d="M6.92814 10.7375C7.21564 11.025 7.59689 11.1812 8.00001 11.1812C8.40626 11.1812 8.78751 11.0219 9.07189 10.7375L11.0375 8.77188C11.3438 8.46563 11.3438 7.97188 11.0375 7.66563C10.7313 7.35938 10.2375 7.35938 9.93126 7.66563L8.78127 8.81875V0.78125C8.78127 0.35 8.43126 0 8.00001 0C7.56876 0 7.21876 0.35 7.21876 0.78125V8.81875L6.06564 7.66563C5.75939 7.35938 5.26564 7.35938 4.95939 7.66563C4.65314 7.97188 4.65314 8.46563 4.95939 8.77188L6.92814 10.7375Z" fill="#A5A6AD"/>
</svg>
