<svg width="70" height="57" viewBox="0 0 70 57" fill="none" xmlns="http://www.w3.org/2000/svg">
<path d="M44.702 35.0504C44.1394 35.0504 43.6203 34.6922 43.4223 34.165C43.2189 33.6236 43.3864 32.993 43.8347 32.6266C44.2771 32.265 44.9139 32.2185 45.4043 32.5115C45.8934 32.8038 46.1552 33.3917 46.0419 33.951C45.9139 34.5824 45.3471 35.0504 44.702 35.0504Z" fill="#4FB3AC"/>
<path d="M69.9471 20.6539L64.4783 1.55295C64.3104 0.966289 63.7742 0.562012 63.1641 0.562012H6.83599C6.22581 0.562012 5.6896 0.966289 5.52157 1.55295L0.0528277 20.6539C-0.0652972 21.0665 0.0171441 21.5106 0.275406 21.8532C0.533804 22.196 0.938081 22.3973 1.3671 22.3973H3.29306V55.1745C3.29306 55.9296 3.90515 56.5417 4.66025 56.5417H65.3394C66.0944 56.5417 66.7066 55.9296 66.7066 55.1745V22.3975H68.6328C69.062 22.3975 69.4662 22.196 69.7245 21.8533C69.9829 21.5106 70.0653 21.0665 69.9471 20.6539ZM4.10749 19.6631H3.18068L7.86657 3.29652H21.0342L4.10749 19.6631ZM29.7365 53.8075H19.6251V43.4359H29.7365V53.8075ZM52.4448 53.8075H46.0684V43.4359H52.4448V53.8075ZM63.9723 34.6695H57.646V27.4554H63.9723V34.6695ZM63.9723 24.7209H56.2788C55.5238 24.7209 54.9116 25.333 54.9116 26.0881V36.0365C54.9116 36.7916 55.5238 37.4037 56.2788 37.4037H63.9723V53.8075H55.1791V42.0687C55.1791 41.3136 54.5671 40.7015 53.812 40.7015H46.0684V39.8391C46.0684 39.084 45.4563 38.4719 44.7012 38.4719C43.9462 38.4719 43.334 39.084 43.334 39.8391V53.8075H32.4709V42.0687C32.4709 41.3136 31.8588 40.7015 31.1037 40.7015H18.2579C17.5028 40.7015 16.8907 41.3136 16.8907 42.0687V53.8075H6.02757V21.6101L24.4151 3.83109L43.2194 22.0132C43.2559 22.0484 43.2942 22.0814 43.334 22.1122V27.4781C43.334 28.2332 43.9462 28.8453 44.7012 28.8453C45.4563 28.8453 46.0684 28.2332 46.0684 27.4781V22.3975H63.9723V24.7209ZM44.7226 19.6631L38.0912 13.2511H58.3981C59.153 13.2511 59.7652 12.6391 59.7652 11.884C59.7652 11.1289 59.153 10.5168 58.3981 10.5168H35.2633L27.796 3.29652H62.1333L66.8194 19.6631H44.7226Z" fill="#4FB3AC"/>
<path d="M21.2888 36.5729H10.7869C10.0318 36.5729 9.41968 35.9608 9.41968 35.2057V23.2275C9.41968 22.4724 10.0318 21.8604 10.7869 21.8604H21.2886C22.0437 21.8604 22.6558 22.4724 22.6558 23.2275V35.2057C22.656 35.9608 22.0439 36.5729 21.2888 36.5729ZM12.1541 33.8385H19.9214V24.5947H12.1541V33.8385Z" fill="#4FB3AC"/>
<path d="M38.5755 36.5729H28.0737C27.3186 36.5729 26.7065 35.9608 26.7065 35.2057V23.2275C26.7065 22.4724 27.3186 21.8604 28.0737 21.8604H38.5755C39.3304 21.8604 39.9427 22.4724 39.9427 23.2275V35.2057C39.9427 35.9608 39.3306 36.5729 38.5755 36.5729ZM29.4409 33.8385H37.2083V24.5947H29.4409V33.8385Z" fill="#4FB3AC"/>
</svg>
