<svg width="40" height="41" viewBox="0 0 40 41" fill="none" xmlns="http://www.w3.org/2000/svg">
<g opacity="0.3" clip-path="url(#clip0)">
<path d="M31.2506 40.6446H8.75104C6.6829 40.6446 5.00112 38.9628 5.00112 36.8947V22.3116H2.08461C0.93626 22.3116 0.0012207 21.3765 0.0012207 20.2282C0.0012207 19.6767 0.226436 19.1366 0.617968 18.7451L19.136 0.992135C19.6193 0.528582 20.3826 0.528582 20.866 0.992135L39.3656 18.7249C39.7755 19.1366 40.0004 19.6767 40.0004 20.2282C40.0004 21.3765 39.0657 22.3116 37.9173 22.3116H35.0005V36.8947C35.0005 38.9628 33.319 40.6446 31.2506 40.6446ZM3.11639 19.8116H6.25109C6.94108 19.8116 7.50106 20.3716 7.50106 21.0616V36.8947C7.50106 37.5847 8.06105 38.1447 8.75104 38.1447H31.2506C31.9406 38.1447 32.5005 37.5847 32.5005 36.8947V21.0616C32.5005 20.3716 33.0605 19.8116 33.7505 19.8116H36.8855L20.0008 3.62697L3.11639 19.8116ZM37.6173 20.5117H37.6338H37.6173Z" fill="black"/>
</g>
<defs>
<clipPath id="clip0">
<rect width="40" height="40" fill="white" transform="translate(0 0.644531)"/>
</clipPath>
</defs>
</svg>
