<svg width="70" height="71" viewBox="0 0 70 71" fill="none" xmlns="http://www.w3.org/2000/svg">
<g clip-path="url(#clip0)">
<path d="M51.6195 53.622C51.0562 53.622 50.5388 53.2642 50.3398 52.7372C50.1357 52.1963 50.3039 51.5643 50.7523 51.199C51.1968 50.8366 51.8283 50.7914 52.3212 51.0833C52.8114 51.3737 53.0723 51.9647 52.9594 52.5228C52.8317 53.1542 52.2648 53.622 51.6195 53.622Z" fill="#4FB3AC"/>
<path d="M66.3261 33.1807H52.9863V12.5708C52.9863 11.8157 52.3741 11.2036 51.6192 11.2036H47.9375V6.28461C47.9375 5.52951 47.3252 4.91742 46.5703 4.91742H36.3672V2.18018C36.3672 1.42508 35.755 0.812988 35 0.812988C34.2449 0.812988 33.6328 1.42508 33.6328 2.18018V4.91742H23.4298C22.6747 4.91742 22.0626 5.52951 22.0626 6.28461V11.2036H18.3809C17.6258 11.2036 17.0137 11.8157 17.0137 12.5708V33.1807H3.67407C2.91897 33.1807 2.30688 33.7928 2.30688 34.5479V69.4458C2.30688 70.2009 2.91897 70.813 3.67407 70.813H66.3261C67.0811 70.813 67.6933 70.2009 67.6933 69.4458V34.5479C67.6933 33.7928 67.0811 33.1807 66.3261 33.1807ZM64.9589 47.9402H60.3399V44.4611H64.9589V47.9402ZM24.797 7.6518H45.2031V11.2036H24.797V7.6518ZM5.04112 44.4611H9.66017V47.9402H5.04112V44.4611ZM5.04112 57.0276H9.66017V60.5067H5.04112V57.0276ZM5.04112 63.2411H11.0274C11.7825 63.2411 12.3945 62.629 12.3945 61.8739V55.6604C12.3945 54.9054 11.7825 54.2933 11.0274 54.2933H5.04112V50.6746H11.0274C11.7825 50.6746 12.3945 50.0625 12.3945 49.3074V43.0939C12.3945 42.3388 11.7825 41.7268 11.0274 41.7268H5.04112V35.915H17.0136V68.0786H5.04112V63.2411ZM29.9953 68.0786V60.6769H40.0046V68.0786H29.9953ZM52.9862 68.0786V58.411C52.9862 57.6559 52.374 57.0438 51.619 57.0438C50.8641 57.0438 50.2518 57.6559 50.2518 58.411V68.0786H42.739V59.3097C42.739 58.5546 42.1268 57.9426 41.3718 57.9426H28.6281C27.873 57.9426 27.2609 58.5546 27.2609 59.3097V68.0786H19.748V13.938H50.2518V46.0498C50.2518 46.8049 50.8641 47.417 51.619 47.417C52.374 47.417 52.9862 46.8049 52.9862 46.0498V35.915H64.9588V41.7268H58.9726C58.2176 41.7268 57.6054 42.3388 57.6054 43.0939V49.3074C57.6054 50.0625 58.2176 50.6746 58.9726 50.6746H64.9588V54.2933H58.9726C58.2176 54.2933 57.6054 54.9054 57.6054 55.6604V61.8739C57.6054 62.629 58.2176 63.2411 58.9726 63.2411H64.9588V68.0786H52.9862ZM64.9589 60.5067H60.3399V57.0276H64.9589V60.5067Z" fill="#4FB3AC"/>
<path d="M32.0595 40.9579H25.197C24.4419 40.9579 23.8298 40.3458 23.8298 39.5907V33.4246C23.8298 32.6695 24.4419 32.0574 25.197 32.0574H32.0595C32.8146 32.0574 33.4267 32.6695 33.4267 33.4246V39.5907C33.4267 40.3458 32.8146 40.9579 32.0595 40.9579ZM26.5642 38.2235H30.6923V34.7917H26.5642V38.2235Z" fill="#4FB3AC"/>
<path d="M44.8032 40.9579H37.9409C37.1858 40.9579 36.5737 40.3458 36.5737 39.5907V33.4246C36.5737 32.6695 37.1858 32.0574 37.9409 32.0574H44.8032C45.5582 32.0574 46.1704 32.6695 46.1704 33.4246V39.5907C46.1704 40.3458 45.5582 40.9579 44.8032 40.9579ZM39.3081 38.2235H43.4361V34.7917H39.3081V38.2235Z" fill="#4FB3AC"/>
<path d="M44.8032 53.4677H37.9409C37.1858 53.4677 36.5737 52.8556 36.5737 52.1005V45.9343C36.5737 45.1792 37.1858 44.5671 37.9409 44.5671H44.8032C45.5582 44.5671 46.1704 45.1792 46.1704 45.9343V52.1005C46.1704 52.8556 45.5582 53.4677 44.8032 53.4677ZM39.3081 50.7333H43.4361V47.3015H39.3081V50.7333Z" fill="#4FB3AC"/>
<path d="M32.0595 53.4677H25.197C24.4419 53.4677 23.8298 52.8556 23.8298 52.1005V45.9343C23.8298 45.1792 24.4419 44.5671 25.197 44.5671H32.0595C32.8146 44.5671 33.4267 45.1792 33.4267 45.9343V52.1005C33.4267 52.8556 32.8146 53.4677 32.0595 53.4677ZM26.5642 50.7333H30.6923V47.3015H26.5642V50.7333Z" fill="#4FB3AC"/>
<path d="M44.8032 27.0802H37.9409C37.1858 27.0802 36.5737 26.4681 36.5737 25.713V19.5469C36.5737 18.7918 37.1858 18.1797 37.9409 18.1797H44.8032C45.5582 18.1797 46.1704 18.7918 46.1704 19.5469V25.713C46.1704 26.4681 45.5582 27.0802 44.8032 27.0802ZM39.3081 24.3458H43.4361V20.9141H39.3081V24.3458Z" fill="#4FB3AC"/>
<path d="M32.0595 27.0802H25.197C24.4419 27.0802 23.8298 26.4681 23.8298 25.713V19.5469C23.8298 18.7918 24.4419 18.1797 25.197 18.1797H32.0595C32.8146 18.1797 33.4267 18.7918 33.4267 19.5469V25.713C33.4267 26.4681 32.8146 27.0802 32.0595 27.0802ZM26.5642 24.3458H30.6923V20.9141H26.5642V24.3458Z" fill="#4FB3AC"/>
</g>
<defs>
<clipPath id="clip0">
<rect width="70" height="70" fill="white" transform="translate(0 0.812988)"/>
</clipPath>
</defs>
</svg>
