<svg width="20" height="20" viewBox="0 0 20 20" fill="none" xmlns="http://www.w3.org/2000/svg">
<g opacity="0.5">
<path d="M2.33398 8H5.00065V8.66667H2.33398V8Z" fill="black"/>
<path d="M9.99935 5.33335C10.7357 5.33335 11.3327 4.7364 11.3327 4.00002C11.3327 3.26364 10.7357 2.66669 9.99935 2.66669C9.26297 2.66669 8.66602 3.26364 8.66602 4.00002C8.66602 4.7364 9.26297 5.33335 9.99935 5.33335Z" fill="black"/>
<path d="M8.66602 8H11.3327V8.66667H8.66602V8Z" fill="black"/>
<path d="M8.66602 6H11.3327V7.33334H8.66602V6Z" fill="black"/>
<path d="M8.66602 9.33331H11.3327V17.3333H8.66602V9.33331Z" fill="black"/>
<path d="M15 8H17.6667V8.66667H15V8Z" fill="black"/>
<path d="M15 6H17.6667V7.33334H15V6Z" fill="black"/>
<path d="M19.333 5.00002C19.333 5.08843 19.2979 5.17321 19.2354 5.23573C19.1728 5.29824 19.0881 5.33336 18.9996 5.33336H11.4863C11.689 5.11102 11.838 4.84516 11.9218 4.55621C12.0056 4.26727 12.0219 3.96296 11.9697 3.66669H19.3053C19.3228 3.70656 19.3322 3.74949 19.333 3.79302V5.00002Z" fill="black"/>
<path d="M9.90098 0.681685C9.96525 0.661769 10.034 0.661769 10.0983 0.681685L17.5703 3.00002H11.7303C11.5554 2.69607 11.3034 2.4436 10.9998 2.26804C10.6962 2.09249 10.3517 2.00006 10.001 2.00006C9.65027 2.00006 9.30576 2.09249 9.00216 2.26804C8.69856 2.4436 8.44659 2.69607 8.27164 3.00002H2.43164L9.90098 0.681685Z" fill="black"/>
<path d="M0.666016 5.00002V3.79302C0.666798 3.74949 0.676201 3.70656 0.693682 3.66669H8.02935C7.97707 3.96296 7.99346 4.26727 8.07725 4.55621C8.16104 4.84516 8.31001 5.11102 8.51268 5.33336H0.999349C0.910943 5.33336 0.826159 5.29824 0.763647 5.23573C0.701135 5.17321 0.666016 5.08843 0.666016 5.00002Z" fill="black"/>
<path d="M2.33398 6H5.00065V7.33334H2.33398V6Z" fill="black"/>
<path d="M2.33398 9.33331H5.00065V17.3333H2.33398V9.33331Z" fill="black"/>
<path d="M19.3327 18.3333V19C19.3327 19.0884 19.2976 19.1732 19.2351 19.2357C19.1725 19.2982 19.0878 19.3333 18.9993 19.3333H0.999349C0.910943 19.3333 0.826159 19.2982 0.763647 19.2357C0.701135 19.1732 0.666016 19.0884 0.666016 19V18.3333C0.666016 18.2449 0.701135 18.1601 0.763647 18.0976C0.826159 18.0351 0.910943 18 0.999349 18H18.9993C19.0878 18 19.1725 18.0351 19.2351 18.0976C19.2976 18.1601 19.3327 18.2449 19.3327 18.3333Z" fill="black"/>
<path d="M15 9.33331H17.6667V17.3333H15V9.33331Z" fill="black"/>
</g>
</svg>
