<svg width="20" height="20" viewBox="0 0 20 20" fill="none" xmlns="http://www.w3.org/2000/svg">
<g clip-path="url(#clip0_129:216)">
<path d="M19.9389 12.5668C19.9394 12.5658 19.9391 12.5647 19.9395 12.5637C20.0045 12.4316 20.0066 12.2281 19.9704 12.1193L17.5875 5.08805C17.508 4.84887 17.2843 4.6875 17.0319 4.6875H16.446V3.51562H17.0319C17.3558 3.51562 17.6179 3.25355 17.6179 2.92969C17.6179 2.60582 17.3558 2.34375 17.0319 2.34375H11.6506C11.4736 1.84734 11.0831 1.45684 10.5867 1.2798V0.585938C10.5867 0.26207 10.3246 0 10.0007 0C9.67685 0 9.41478 0.26207 9.41478 0.585938V1.2798C8.91837 1.45684 8.52786 1.84734 8.35083 2.34375H1.79759C1.47372 2.34375 1.21165 2.60582 1.21165 2.92969C1.21165 3.25355 1.47372 3.51562 1.79759 3.51562H3.5554V4.6875H2.96946C2.71712 4.6875 2.49337 4.84887 2.41384 5.08805L0.031026 12.1193C-0.0329193 12.3115 0.0428228 12.4494 0.0625103 12.5668C0.166768 12.6841 1.14161 15.2344 4.14134 15.2344C7.14263 15.2344 8.07689 12.6841 8.1811 12.5668C8.21536 12.4601 8.27794 12.3158 8.21259 12.1193L5.86884 5.08805C5.78931 4.84887 5.56556 4.6875 5.31321 4.6875H4.72728V3.51562H8.35083C8.52786 4.01203 8.91837 4.40254 9.41478 4.57957V12.1662L8.3047 14.3864C8.26407 14.4676 8.2429 14.5575 8.2429 14.6484V17.0703C8.2429 18.0396 7.45438 18.8281 6.48509 18.8281C6.16122 18.8281 5.89915 19.0902 5.89915 19.4141C5.89915 19.7379 6.16122 20 6.48509 20H13.5163C13.8402 20 14.1023 19.7379 14.1023 19.4141C14.1023 19.0902 13.8402 18.8281 13.5163 18.8281C12.547 18.8281 11.7585 18.0396 11.7585 17.0703V14.6484C11.7585 14.5575 11.7374 14.4676 11.6967 14.3864L10.5867 12.1662V4.57957C11.0831 4.40254 11.4736 4.01203 11.6506 3.51562H15.2742V4.6875H14.6882C14.4359 4.6875 14.2121 4.84887 14.1326 5.08805L11.7888 12.1193C11.7526 12.2281 11.7547 12.4316 11.8197 12.5637C11.8202 12.5647 11.8198 12.5658 11.8203 12.5668C11.9246 12.6841 12.8603 15.2344 15.86 15.2344C18.8614 15.2344 19.8347 12.6841 19.9389 12.5668ZM3.5554 11.7188H1.39939L3.39173 5.85938H3.55536V11.7188H3.5554ZM4.89091 5.85938L6.84419 11.7188H4.72724V5.85938H4.89091ZM15.2742 11.7188H13.1572L15.1105 5.85938H15.2741V11.7188H15.2742ZM16.446 11.7188V5.85938H16.6097L18.602 11.7188H16.446Z" fill="#707070"/>
</g>
<defs>
<clipPath id="clip0_129:216">
<rect width="20" height="20" fill="white"/>
</clipPath>
</defs>
</svg>
