<svg width="25" height="30" viewBox="0 0 25 30" fill="none" xmlns="http://www.w3.org/2000/svg">
<path d="M20.2988 2.79585C18.8679 1.63753 17.1947 0.807597 15.4001 0.365923C13.6054 -0.07575 11.734 -0.118158 9.92074 0.241758C7.58929 0.714313 5.44438 1.83947 3.74151 3.48319C2.03865 5.12691 0.849603 7.21992 0.316021 9.51289C-0.21756 11.8059 -0.0731879 14.2021 0.731941 16.4163C1.53707 18.6304 2.96902 20.5691 4.85721 22.0013C7.01301 23.5612 8.84851 25.5128 10.2656 27.7518L11.2311 29.3391C11.3537 29.5407 11.527 29.7075 11.7342 29.8233C11.9413 29.9391 12.1752 30 12.4132 30C12.6512 30 12.8851 29.9391 13.0922 29.8233C13.2993 29.7075 13.4726 29.5407 13.5953 29.3391L14.5208 27.8145C15.7548 25.67 17.4373 23.8105 19.4561 22.36C21.039 21.2833 22.3472 19.8577 23.2774 18.1956C24.2076 16.5335 24.7345 14.6805 24.8163 12.7827C24.8982 10.8849 24.5328 8.99422 23.7491 7.2599C22.9654 5.52558 21.7847 3.99504 20.3002 2.78903L20.2988 2.79585ZM12.4118 17.7291C11.3206 17.7291 10.2539 17.4091 9.34655 16.8098C8.43923 16.2104 7.73206 15.3586 7.31446 14.3619C6.89687 13.3652 6.78761 12.2684 7.0005 11.2104C7.21338 10.1523 7.73886 9.18038 8.51047 8.41755C9.28208 7.65472 10.2652 7.13522 11.3354 6.92476C12.4057 6.71429 13.515 6.82231 14.5232 7.23515C15.5314 7.64799 16.3931 8.34712 16.9993 9.24411C17.6056 10.1411 17.9291 11.1957 17.9291 12.2745C17.9291 13.7211 17.3479 15.1085 16.3132 16.1315C15.2785 17.1544 13.8751 17.7291 12.4118 17.7291Z" fill="#0367B4"/>
</svg>
