<svg width="10" height="6" viewBox="0 0 10 6" fill="none" xmlns="http://www.w3.org/2000/svg">
<path d="M9.88542 2.72349C9.88531 2.72338 9.88521 2.72324 9.88507 2.72312L7.84398 0.691874C7.69107 0.539706 7.44375 0.540272 7.29154 0.693202C7.13935 0.846112 7.13994 1.09344 7.29285 1.24562L8.66324 2.60937H0.390625C0.174883 2.60937 0 2.78426 0 3C0 3.21574 0.174883 3.39062 0.390625 3.39062H8.66322L7.29287 4.75437C7.13996 4.90656 7.13937 5.15388 7.29156 5.30679C7.44377 5.45974 7.69111 5.46027 7.844 5.30812L9.88509 3.27687C9.88521 3.27675 9.88531 3.27662 9.88544 3.2765C10.0384 3.12381 10.0379 2.87568 9.88542 2.72349Z" fill="black"/>
</svg>
