<svg width="16" height="16" viewBox="0 0 16 16" fill="none" xmlns="http://www.w3.org/2000/svg">
<path d="M10.6802 1.82958C8.24076 -0.609861 4.27077 -0.609861 1.82958 1.82958C-0.609861 4.2699 -0.609861 8.24076 1.82958 10.6802C3.01176 11.8624 4.58334 12.5137 6.25533 12.5137C7.62478 12.5137 8.92292 12.0703 9.99842 11.2627L14.4738 15.7381C14.6484 15.9127 14.8772 16 15.1059 16C15.3347 16 15.5634 15.9127 15.7381 15.7381C16.0873 15.3888 16.0873 14.8231 15.7381 14.4738L11.2627 9.99842C12.0703 8.92298 12.5137 7.62478 12.5137 6.25533C12.5137 4.58334 11.8624 3.01176 10.6802 1.82958ZM3.09383 9.41595C1.35112 7.67324 1.35112 4.83741 3.09383 3.09383C3.96518 2.22248 5.11069 1.7868 6.25533 1.7868C7.39996 1.7868 8.5446 2.22248 9.41595 3.09383C10.2602 3.93812 10.7256 5.06093 10.7256 6.25533C10.7256 7.44886 10.2602 8.57166 9.41595 9.41595C8.57166 10.2602 7.44886 10.7256 6.25533 10.7256C5.06093 10.7256 3.93812 10.2602 3.09383 9.41595Z" fill="#C4C4C4"/>
</svg>
