<svg width="50" height="50" viewBox="0 0 50 50" fill="none" xmlns="http://www.w3.org/2000/svg">
<path d="M25 0L31.7984 4.07676L39.6946 4.77457L42.7984 12.0687L48.7764 17.2746L47 25L48.7764 32.7254L42.7984 37.9313L39.6946 45.2254L31.7984 45.9232L25 50L18.2016 45.9232L10.3054 45.2254L7.20163 37.9313L1.22359 32.7254L3 25L1.22359 17.2746L7.20163 12.0687L10.3054 4.77457L18.2016 4.07676L25 0Z" fill="#4FB3AC"/>
<path d="M20.3125 30.3125C21.6069 30.3125 22.6562 29.2632 22.6562 27.9688C22.6562 26.6743 21.6069 25.625 20.3125 25.625C19.0181 25.625 17.9688 26.6743 17.9688 27.9688C17.9688 29.2632 19.0181 30.3125 20.3125 30.3125Z" fill="white"/>
<path d="M16.2109 34.4141C16.2109 34.7379 16.473 35 16.7969 35H23.8281C24.152 35 24.4141 34.7379 24.4141 34.4141C24.4141 32.1527 22.5739 30.3125 20.3125 30.3125C18.0511 30.3125 16.2109 32.1527 16.2109 34.4141Z" fill="white"/>
<path d="M29.6875 30.3125C30.9819 30.3125 32.0312 29.2632 32.0312 27.9688C32.0312 26.6743 30.9819 25.625 29.6875 25.625C28.3931 25.625 27.3438 26.6743 27.3438 27.9688C27.3438 29.2632 28.3931 30.3125 29.6875 30.3125Z" fill="white"/>
<path d="M25.5859 34.4141C25.5859 34.7379 25.848 35 26.1719 35H33.2031C33.527 35 33.7891 34.7379 33.7891 34.4141C33.7891 32.1527 31.9489 30.3125 29.6875 30.3125C27.4261 30.3125 25.5859 32.1527 25.5859 34.4141Z" fill="white"/>
<path d="M33.2422 15H16.7578C15.7885 15 15 15.7885 15 16.7578V21.4453C15 22.4146 15.7885 23.2031 16.7578 23.2031H18.8589L19.8591 24.2033C20.088 24.4322 20.4588 24.4322 20.6877 24.2033L21.6879 23.2031H28.3121L29.3123 24.2033C29.5411 24.4322 29.9119 24.4322 30.1408 24.2033L31.1411 23.2031H33.2422C34.2115 23.2031 35 22.4146 35 21.4453V16.7578C35 15.7885 34.2115 15 33.2422 15ZM22.6172 20.8594H17.9297C17.6058 20.8594 17.3438 20.5973 17.3438 20.2734C17.3438 19.9496 17.6058 19.6875 17.9297 19.6875H22.6172C22.9411 19.6875 23.2031 19.9496 23.2031 20.2734C23.2031 20.5973 22.9411 20.8594 22.6172 20.8594ZM22.6172 18.5156H17.9297C17.6058 18.5156 17.3438 18.2536 17.3438 17.9297C17.3438 17.6058 17.6058 17.3438 17.9297 17.3438H22.6172C22.9411 17.3438 23.2031 17.6058 23.2031 17.9297C23.2031 18.2536 22.9411 18.5156 22.6172 18.5156ZM32.0703 20.8594H27.3828C27.0589 20.8594 26.7969 20.5973 26.7969 20.2734C26.7969 19.9496 27.0589 19.6875 27.3828 19.6875H32.0703C32.3942 19.6875 32.6562 19.9496 32.6562 20.2734C32.6562 20.5973 32.3942 20.8594 32.0703 20.8594ZM32.0703 18.5156H27.3828C27.0589 18.5156 26.7969 18.2536 26.7969 17.9297C26.7969 17.6058 27.0589 17.3438 27.3828 17.3438H32.0703C32.3942 17.3438 32.6562 17.6058 32.6562 17.9297C32.6562 18.2536 32.3942 18.5156 32.0703 18.5156Z" fill="white"/>
</svg>
