<svg id="Layer_1" data-name="Layer 1" xmlns="http://www.w3.org/2000/svg" viewBox="0 0 1172.51 785.04"><defs><style>.cls-1{fill:#fff;stroke:#000;stroke-linecap:round;stroke-miterlimit:10;stroke-width:430px;}</style></defs><path class="cls-1" d="M602,419c58.36-29,116.79-21.21,156-14,222.19,40.83,500.1,185.38,487,285-.81,6.15-5.86,44.54-33,58-14.16,7-35.91,8-44.23-2.48C1154.43,728.66,1187,696.43,1172,672c-4.63-7.56-8.56-5.81-28.79-20.61-19.82-14.5-30.9-27.07-35.34-31.26C1076.54,590.58,987.45,611.72,834,638c-25.37,4.34-55.56,9.36-95,14-43.23,5.09-67.24,6.17-108,8-66.35,3-73.89,0-79.06-2.69C514.35,637.86,498.51,582.24,504,539,513.66,463,589.32,425.31,602,419Z" transform="translate(-287.94 -183.31)"/></svg>