<svg xmlns="http://www.w3.org/2000/svg" xmlns:xlink="http://www.w3.org/1999/xlink" width="34" height="34" viewBox="0 0 34 34">
  <defs>
    <clipPath id="clip-path">
      <rect id="Rectangle_1246" data-name="Rectangle 1246" width="34" height="34" transform="translate(414 612)" fill="#fff" stroke="#707070" stroke-width="1"/>
    </clipPath>
  </defs>
  <g id="icon-blog-cate" transform="translate(-414 -612)" clip-path="url(#clip-path)">
    <g id="landing-page_1_" data-name="landing-page (1)" transform="translate(414 613.7)">
      <path id="Path_808" data-name="Path 808" d="M29.75.023H4.25A4.255,4.255,0,0,0,0,4.274v22.1a4.255,4.255,0,0,0,4.25,4.25h25.5A4.255,4.255,0,0,0,34,26.373V4.274A4.255,4.255,0,0,0,29.75.023Zm-25.5,1.7h25.5a2.553,2.553,0,0,1,2.55,2.55v.85H1.7v-.85A2.553,2.553,0,0,1,4.25,1.724Zm25.5,27.2H4.25a2.553,2.553,0,0,1-2.55-2.55V6.824H32.3v19.55A2.553,2.553,0,0,1,29.75,28.923Zm0,0" transform="translate(0 -0.023)" fill="#fff"/>
      <path id="Path_809" data-name="Path 809" d="M5.35,17.323h6.8a.85.85,0,0,0,.85-.85v-5.1a.85.85,0,0,0-.85-.85H5.35a.849.849,0,0,0-.85.85v5.1a.849.849,0,0,0,.85.85Zm.85-5.1h5.1v3.4H6.2Zm0,0" transform="translate(0.6 1.377)" fill="#fff"/>
      <path id="Path_810" data-name="Path 810" d="M26.05,10.523H15.85a.85.85,0,1,0,0,1.7h10.2a.85.85,0,1,0,0-1.7Zm0,0" transform="translate(2 1.377)" fill="#fff"/>
      <path id="Path_811" data-name="Path 811" d="M26.05,15.023H15.85a.85.85,0,1,0,0,1.7h10.2a.85.85,0,1,0,0-1.7Zm0,0" transform="translate(2 1.977)" fill="#fff"/>
      <path id="Path_812" data-name="Path 812" d="M27.45,19.523H5.35a.85.85,0,1,0,0,1.7h22.1a.85.85,0,1,0,0-1.7Zm0,0" transform="translate(0.6 2.577)" fill="#fff"/>
    </g>
  </g>
</svg>
