<svg xmlns="http://www.w3.org/2000/svg" width="32.438" height="25.647" viewBox="0 0 32.438 25.647">
  <g id="icon-money" transform="translate(0 -53.593)">
    <path id="Path_787" data-name="Path 787" d="M31.8,72.053H.634A.634.634,0,0,1,0,71.42V54.227a.634.634,0,0,1,.634-.634H31.8a.634.634,0,0,1,.634.634V71.42A.634.634,0,0,1,31.8,72.053Z" transform="translate(0 0)" fill="#7fd061"/>
    <path id="Path_788" data-name="Path 788" d="M59.7,92.065v3.3a1.319,1.319,0,0,1-1.319,1.319A1.319,1.319,0,0,0,57.064,98a1.319,1.319,0,0,1-1.319,1.319H35.176A1.319,1.319,0,0,1,33.857,98a1.319,1.319,0,0,0-1.319-1.319,1.319,1.319,0,0,1-1.319-1.319V88.769a1.319,1.319,0,0,1,1.319-1.319,1.319,1.319,0,0,0,1.319-1.319,1.319,1.319,0,0,1,1.319-1.319h20.57a1.319,1.319,0,0,1,1.319,1.319,1.319,1.319,0,0,0,1.319,1.319A1.319,1.319,0,0,1,59.7,88.769Z" transform="translate(-29.242 -29.242)" fill="#acdf91"/>
    <g id="Group_455" data-name="Group 455" transform="translate(7.516 53.593)">
      <path id="Path_789" data-name="Path 789" d="M491.187,53.593v18.46h.666a.653.653,0,0,0,.653-.653V54.246a.653.653,0,0,0-.653-.653Z" transform="translate(-467.584 -53.593)" fill="#51be26"/>
      <circle id="Ellipse_160" data-name="Ellipse 160" cx="4.615" cy="4.615" r="4.615" transform="translate(4.088 4.615)" fill="#51be26"/>
      <circle id="Ellipse_161" data-name="Ellipse 161" cx="0.989" cy="0.989" r="0.989" transform="translate(15.428 8.241)" fill="#51be26"/>
      <circle id="Ellipse_162" data-name="Ellipse 162" cx="0.989" cy="0.989" r="0.989" transform="translate(0 8.241)" fill="#51be26"/>
    </g>
    <circle id="Ellipse_163" data-name="Ellipse 163" cx="7.648" cy="7.648" r="7.648" transform="translate(17.142 63.944)" fill="#fce25c"/>
    <path id="Path_790" data-name="Path 790" d="M308.858,244.5a7.648,7.648,0,0,1-10.766,10.766A7.648,7.648,0,1,0,308.858,244.5Z" transform="translate(-279.207 -178.81)" fill="#e6b700"/>
    <circle id="Ellipse_164" data-name="Ellipse 164" cx="5.099" cy="5.099" r="5.099" transform="translate(19.691 66.493)" fill="#e6b700"/>
    <path id="Path_791" data-name="Path 791" d="M420.749,192.538H419.43a.489.489,0,1,1,0-.979h1.319a.489.489,0,1,1,0,.979Z" transform="translate(-392.399 -129.225)" fill="#51be26"/>
    <path id="Path_792" data-name="Path 792" d="M58.6,192.538H57.283a.489.489,0,1,1,0-.979H58.6a.489.489,0,0,1,0,.979Z" transform="translate(-53.196 -129.225)" fill="#51be26"/>
    <path id="Path_793" data-name="Path 793" d="M229.6,147.7h-.659a.5.5,0,1,1,0-1h1.648a.489.489,0,0,0,0-.979h-.829v-.5a.489.489,0,1,0-.979,0v.508a1.478,1.478,0,0,0,.16,2.948h.659a.5.5,0,1,1,0,1H227.95a.489.489,0,0,0,0,.979h.829v.5a.489.489,0,1,0,.979,0v-.508a1.478,1.478,0,0,0-.16-2.948Z" transform="translate(-213.05 -85.364)" fill="#acdf91"/>
    <path id="Path_794" data-name="Path 794" d="M363.839,283.712h-.7a.553.553,0,1,1,0-1.107h1.738a.489.489,0,1,0,0-.979h-.9v-.553a.489.489,0,1,0-.979,0v.56a1.532,1.532,0,0,0,.142,3.058h.7a.553.553,0,0,1,0,1.107H362.1a.489.489,0,1,0,0,.979h.9v.553a.489.489,0,1,0,.979,0v-.56a1.532,1.532,0,0,0-.142-3.058Z" transform="translate(-338.701 -212.61)" fill="#fce25c"/>
  </g>
</svg>
