<svg xmlns="http://www.w3.org/2000/svg" xmlns:xlink="http://www.w3.org/1999/xlink" width="22" height="22" viewBox="0 0 22 22">
  <defs>
    <clipPath id="clip-path">
      <rect id="Rectangle_1245" data-name="Rectangle 1245" width="22" height="22" transform="translate(375 633)" fill="#0086da" stroke="#707070" stroke-width="1"/>
    </clipPath>
  </defs>
  <g id="icon-calender" transform="translate(-375 -633)" clip-path="url(#clip-path)">
    <g id="alarm-clock_1_" data-name="alarm-clock (1)" transform="translate(375 633)">
      <g id="Group_483" data-name="Group 483">
        <g id="Group_482" data-name="Group 482">
          <path id="Path_802" data-name="Path 802" d="M11,3.309A8.389,8.389,0,1,0,19.389,11.7,8.4,8.4,0,0,0,11,3.309Zm0,15.259A6.869,6.869,0,1,1,17.869,11.7,6.877,6.877,0,0,1,11,18.568Z" fill="#0086da"/>
        </g>
      </g>
      <g id="Group_485" data-name="Group 485">
        <g id="Group_484" data-name="Group 484">
          <path id="Path_803" data-name="Path 803" d="M13.332,11.445H11.3V8.505a.76.76,0,1,0-1.521,0v3.7a.76.76,0,0,0,.76.76h2.788a.76.76,0,1,0,0-1.521Z" fill="#0086da"/>
        </g>
      </g>
      <g id="Group_487" data-name="Group 487">
        <g id="Group_486" data-name="Group 486">
          <path id="Path_804" data-name="Path 804" d="M6.693,17.141a.76.76,0,0,0-1.074.057L3.338,19.732a.76.76,0,1,0,1.13,1.017L6.75,18.214A.76.76,0,0,0,6.693,17.141Z" fill="#0086da"/>
        </g>
      </g>
      <g id="Group_489" data-name="Group 489">
        <g id="Group_488" data-name="Group 488">
          <path id="Path_805" data-name="Path 805" d="M18.662,19.732,16.381,17.2a.76.76,0,0,0-1.13,1.017l2.281,2.535a.76.76,0,1,0,1.13-1.017Z" fill="#0086da"/>
        </g>
      </g>
      <g id="Group_491" data-name="Group 491">
        <g id="Group_490" data-name="Group 490">
          <path id="Path_806" data-name="Path 806" d="M6.564,2.107a3.872,3.872,0,0,0-5.429.006A3.831,3.831,0,0,0,0,4.86,3.773,3.773,0,0,0,1.141,7.553a.761.761,0,0,0,1.07-.006L6.57,3.188a.761.761,0,0,0-.006-1.081ZM1.756,5.851a2.266,2.266,0,0,1-.235-1A2.321,2.321,0,0,1,3.843,2.518a2.375,2.375,0,0,1,1.018.229Z" fill="#0086da"/>
        </g>
      </g>
      <g id="Group_493" data-name="Group 493">
        <g id="Group_492" data-name="Group 492">
          <path id="Path_807" data-name="Path 807" d="M20.865,2.113a3.872,3.872,0,0,0-5.429-.006.76.76,0,0,0-.006,1.081L19.79,7.548a.76.76,0,0,0,1.07.005A3.77,3.77,0,0,0,22,4.86,3.833,3.833,0,0,0,20.865,2.113Zm-.621,3.738-3.1-3.1a2.327,2.327,0,0,1,3.34,2.105A2.266,2.266,0,0,1,20.244,5.851Z" fill="#0086da"/>
        </g>
      </g>
    </g>
  </g>
</svg>
