<svg xmlns="http://www.w3.org/2000/svg" xmlns:xlink="http://www.w3.org/1999/xlink" width="20" height="20" viewBox="0 0 20 20">
  <defs>
    <clipPath id="clip-path">
      <rect id="Rectangle_1211" data-name="Rectangle 1211" width="20" height="20" transform="translate(375 592)" fill="#ff5d5d" stroke="#707070" stroke-width="1"/>
    </clipPath>
  </defs>
  <g id="icon-trend" transform="translate(-375 -592)" clip-path="url(#clip-path)">
    <path id="trending-topic" d="M14.433,21.117a8.74,8.74,0,0,0-2.068-11.034l-.005,0,.014.035,0,.026a6.422,6.422,0,0,1-.235,5.125l-.553,1.12-.17-1.237a5.248,5.248,0,0,0-.919-2.325h-.077l-.041-.115a9.064,9.064,0,0,1-.794,3.737,5.237,5.237,0,0,0,.274,4.81l.6,1L9.378,21.8a7.169,7.169,0,0,1-3.5-10.084A10.356,10.356,0,0,0,6.99,8.667l.2-1.037.51.925a5.314,5.314,0,0,1,.535,1.42l.011.012.012.08.011,0a13.087,13.087,0,0,0,2.579-7.119l.034-.663.556.363a9.939,9.939,0,0,1,4.335,6.521l.011.055.006.008.025-.035a3.324,3.324,0,0,0,.68-2.023V6.032l.688.908a11.456,11.456,0,0,1,2.308,7.375,8.7,8.7,0,0,1-4.542,7.326l-1.173.641Z" transform="translate(372.756 589.718)" fill="#ff5d5d"/>
  </g>
</svg>
