<svg xmlns="http://www.w3.org/2000/svg" width="27.918" height="27.916" viewBox="0 0 27.918 27.916">
  <path id="Icon_ionic-ios-call" data-name="Icon ionic-ios-call" d="M31.6,26.361a23.45,23.45,0,0,0-4.9-3.278c-1.468-.7-2.006-.69-3.045.058-.865.625-1.424,1.206-2.42.988s-2.958-1.7-4.862-3.6-3.387-3.866-3.6-4.862.371-1.555.988-2.42c.749-1.039.77-1.577.058-3.045a22.986,22.986,0,0,0-3.278-4.9c-1.068-1.068-1.308-.836-1.9-.625A10.794,10.794,0,0,0,6.913,5.6a5.24,5.24,0,0,0-2.086,2.2c-.414.894-.894,2.558,1.548,6.9a38.526,38.526,0,0,0,6.774,9.034h0l.007.007.007.007h0A38.677,38.677,0,0,0,22.2,30.533c4.346,2.442,6.01,1.962,6.9,1.548A5.151,5.151,0,0,0,31.3,30a10.794,10.794,0,0,0,.923-1.737C32.438,27.67,32.678,27.43,31.6,26.361Z" transform="translate(-4.49 -4.503)" fill="#fff"/>
</svg>
