<svg xmlns="http://www.w3.org/2000/svg" xmlns:xlink="http://www.w3.org/1999/xlink" width="18" height="18" viewBox="0 0 18 18">
  <defs>
    <clipPath id="clip-path">
      <rect id="Rectangle_1962" data-name="Rectangle 1962" width="18" height="18" transform="translate(375 386)" fill="#e7194a" stroke="#707070" stroke-width="1"/>
    </clipPath>
  </defs>
  <g id="Mask_Group_168" data-name="Mask Group 168" transform="translate(-375 -386)" opacity="0.7" clip-path="url(#clip-path)">
    <g id="privacy" transform="translate(377.429 386)">
      <path id="Path_568" data-name="Path 568" d="M6.571,13.512a.527.527,0,0,0,.527-.527V10.8a.527.527,0,1,0-1.055,0v2.184A.527.527,0,0,0,6.571,13.512Zm0,0" fill="#e7194a"/>
      <path id="Path_569" data-name="Path 569" d="M12.615,5.784h-2.5V3.215A3.4,3.4,0,0,0,6.571,0,3.4,3.4,0,0,0,3.023,3.215V5.784H.527A.527.527,0,0,0,0,6.312v6.744A4.95,4.95,0,0,0,4.944,18H8.2a4.95,4.95,0,0,0,4.944-4.944V6.312A.528.528,0,0,0,12.615,5.784ZM4.078,3.215A2.348,2.348,0,0,1,6.571,1.055,2.348,2.348,0,0,1,9.065,3.215V5.784H4.078Zm8.01,9.84a3.894,3.894,0,0,1-3.89,3.89H4.944a3.894,3.894,0,0,1-3.89-3.89V6.839H12.088Zm0,0" fill="#e7194a"/>
    </g>
  </g>
</svg>
