<svg xmlns="http://www.w3.org/2000/svg" xmlns:xlink="http://www.w3.org/1999/xlink" width="20" height="20" viewBox="0 0 20 20">
  <defs>
    <clipPath id="clip-path">
      <rect id="Rectangle_301" data-name="Rectangle 301" width="20" height="20" transform="translate(375 622)" fill="#e7194a" stroke="#707070" stroke-width="1"/>
    </clipPath>
  </defs>
  <g id="Mask_Group_86" data-name="Mask Group 86" transform="translate(-375 -622)" clip-path="url(#clip-path)">
    <g id="calendar" transform="translate(375 622)">
      <g id="Group_66" data-name="Group 66">
        <path id="Path_177" data-name="Path 177" d="M3.022,20H16.978a2.654,2.654,0,0,0,2.652-2.652V4.133a2.654,2.654,0,0,0-2.652-2.652H15.926V.741a.741.741,0,0,0-1.482,0v.741H5.556V.741a.741.741,0,0,0-1.482,0v.741H3.022A2.654,2.654,0,0,0,.37,4.133V17.348A2.654,2.654,0,0,0,3.022,20ZM1.852,4.133a1.173,1.173,0,0,1,1.17-1.17H4.074V3.7a.741.741,0,0,0,1.481,0V2.963h8.889V3.7a.741.741,0,0,0,1.481,0V2.963h1.052a1.173,1.173,0,0,1,1.17,1.17V17.348a1.173,1.173,0,0,1-1.17,1.17H3.022a1.173,1.173,0,0,1-1.17-1.17Z" fill="#e7194a"/>
        <circle id="Ellipse_138" data-name="Ellipse 138" cx="0.926" cy="0.926" r="0.926" transform="translate(4.815 6.667)" fill="#e7194a"/>
        <circle id="Ellipse_139" data-name="Ellipse 139" cx="0.926" cy="0.926" r="0.926" transform="translate(8.889 6.667)" fill="#e7194a"/>
        <circle id="Ellipse_140" data-name="Ellipse 140" cx="0.926" cy="0.926" r="0.926" transform="translate(12.963 6.667)" fill="#e7194a"/>
        <circle id="Ellipse_141" data-name="Ellipse 141" cx="0.926" cy="0.926" r="0.926" transform="translate(4.815 10.37)" fill="#e7194a"/>
        <circle id="Ellipse_142" data-name="Ellipse 142" cx="0.926" cy="0.926" r="0.926" transform="translate(8.889 10.37)" fill="#e7194a"/>
        <circle id="Ellipse_143" data-name="Ellipse 143" cx="0.926" cy="0.926" r="0.926" transform="translate(12.963 10.37)" fill="#e7194a"/>
        <circle id="Ellipse_144" data-name="Ellipse 144" cx="0.926" cy="0.926" r="0.926" transform="translate(4.815 14.074)" fill="#e7194a"/>
        <circle id="Ellipse_145" data-name="Ellipse 145" cx="0.926" cy="0.926" r="0.926" transform="translate(8.889 14.074)" fill="#e7194a"/>
        <circle id="Ellipse_146" data-name="Ellipse 146" cx="0.926" cy="0.926" r="0.926" transform="translate(12.963 14.074)" fill="#e7194a"/>
      </g>
    </g>
  </g>
</svg>
