<svg xmlns="http://www.w3.org/2000/svg" xmlns:xlink="http://www.w3.org/1999/xlink" width="20" height="20" viewBox="0 0 20 20">
  <defs>
    <clipPath id="clip-path">
      <rect id="Rectangle_305" data-name="Rectangle 305" width="20" height="20" transform="translate(375 748)" fill="#e7194a" stroke="#707070" stroke-width="1"/>
    </clipPath>
  </defs>
  <g id="Mask_Group_89" data-name="Mask Group 89" transform="translate(-375 -748)" clip-path="url(#clip-path)">
    <g id="layers" transform="translate(375 748)">
      <g id="Group_67" data-name="Group 67">
        <path id="Path_181" data-name="Path 181" d="M20,10a.586.586,0,0,0-.278-.5L17.689,8.248l2.035-1.266a.586.586,0,0,0,0-.994L10.311.089a.586.586,0,0,0-.622,0L.275,5.988a.586.586,0,0,0,0,.994L2.3,8.24.275,9.5a.586.586,0,0,0,0,.994L2.3,11.755.275,13.019a.586.586,0,0,0,0,.993l9.414,5.9a.586.586,0,0,0,.622,0l9.414-5.9a.586.586,0,0,0,0-1l-2.033-1.253L19.724,10.5A.586.586,0,0,0,20,10ZM1.692,6.483,10,1.277l8.308,5.205L10,11.654ZM18.3,13.52l-8.3,5.2L1.691,13.516,3.4,12.445,9.69,16.357a.586.586,0,0,0,.619,0l6.268-3.9ZM10,15.169,1.693,10,3.4,8.929,9.69,12.841a.586.586,0,0,0,.619,0l6.268-3.9L18.3,10Z" fill="#e7194a"/>
      </g>
    </g>
  </g>
</svg>
