<svg xmlns="http://www.w3.org/2000/svg" xmlns:xlink="http://www.w3.org/1999/xlink" width="20" height="20" viewBox="0 0 20 20">
  <defs>
    <clipPath id="clip-path">
      <rect id="Rectangle_303" data-name="Rectangle 303" width="20" height="20" transform="translate(375 685)" fill="#e7194a" stroke="#707070" stroke-width="1"/>
    </clipPath>
  </defs>
  <g id="Mask_Group_85" data-name="Mask Group 85" transform="translate(-375 -685)" clip-path="url(#clip-path)">
    <g id="time_1_" data-name="time (1)" transform="translate(375 685)">
      <g id="Group_65" data-name="Group 65">
        <path id="Path_175" data-name="Path 175" d="M10,20A10,10,0,1,0,0,10,10.012,10.012,0,0,0,10,20ZM10,1.333A8.667,8.667,0,1,1,1.333,10,8.675,8.675,0,0,1,10,1.333Z" fill="#e7194a"/>
        <path id="Path_176" data-name="Path 176" d="M12.917,13.187a.656.656,0,0,0,.417.147.667.667,0,0,0,.417-1.187L10.667,9.68V4.667a.667.667,0,0,0-1.333,0V10a.669.669,0,0,0,.25.52Z" fill="#e7194a"/>
      </g>
    </g>
  </g>
</svg>
