<svg id="Layer_1" data-name="Layer 1" xmlns="http://www.w3.org/2000/svg" viewBox="0 0 1000.13 340.43"><title>CHU KY</title><path fill="#d72323" d="M313,264.13c-18,40.29-36.11,80.53-54.61,120.61-9.26,20-18.59,40-28.31,59.85-4.84,9.94-10,19.7-15,29.54s-9.91,19.7-14.77,29.59-9.68,19.82-14.36,29.8c-2.33,5-4.65,10-6.84,15l-.42,1c.45.67-5.53-2-2.91-1.21l.13-.53.57-2c.38-1.34.79-2.67,1.2-4q1.24-4,2.61-7.9a397.81,397.81,0,0,1,27.12-60.62,372.84,372.84,0,0,1,37-55.21c3.49-4.31,7.12-8.56,10.93-12.62s7.75-8,11.78-11.8c8-7.65,16.42-14.9,24.91-22s17.13-14,25.84-20.8,17.45-13.53,26.44-20.05A396.07,396.07,0,0,1,401.06,296c5-2.47,10.09-4.74,15.24-6.89,2.59-1.05,5.18-2.08,7.81-3,1.29-.48,2.68-1,4.08-1.38s2.81-.78,4.23-1.06a53.52,53.52,0,0,1,17.36-.7,39.45,39.45,0,0,1,16.68,5.81,28.39,28.39,0,0,1,3.62,2.79,24.15,24.15,0,0,1,3.14,3.48,27.58,27.58,0,0,1,4.06,8.23A49.71,49.71,0,0,1,479,320.64a103.48,103.48,0,0,1-2.48,16.83c-1.22,5.5-2.77,10.89-4.49,16.21a311.17,311.17,0,0,1-12.24,31.07,284.77,284.77,0,0,1-15.42,29.68,289.85,289.85,0,0,1-40.76,52.92,312,312,0,0,1-51.48,42.56q-3.48,2.31-7,4.52-1.77,1.11-3.57,2.19c-1.2.73-2.38,1.43-3.54,2.11-.57.34-1.18.67-1.73,1l-1.77,1.12-3.6,2.17c-2.39,1.43-4.81,2.82-7.24,4.19-9.7,5.46-19.61,10.5-29.64,15.27s-20.26,9.12-30.56,13.29l-7.77,3-3.89,1.49-3.92,1.41L240,564.52c-2.62.91-5.27,1.75-7.9,2.63s-5.26,1.79-7.93,2.57l-8,2.41q-8,2.46-16.17,4.42a129.59,129.59,0,0,1-16.82,2.92,74.51,74.51,0,0,1-17.46-.16,53.6,53.6,0,0,1-17.05-5.19q-2-1-3.93-2.19l-.48-.29-.57-.38c-.37-.25-.68-.49-1-.73q-.94-.72-1.8-1.47a47.49,47.49,0,0,1-6.24-6.6,39.65,39.65,0,0,1-4.82-7.89,31.59,31.59,0,0,1-2.62-9.13,46.07,46.07,0,0,1-.39-9.07,37.24,37.24,0,0,1,1.7-9.15,59,59,0,0,1,8.2-15.81,135.76,135.76,0,0,1,10.77-13.27c3.79-4.18,7.72-8.17,11.74-12.06s8.18-7.67,12.41-11.35A310.65,310.65,0,0,1,227.08,437c19.66-10.65,40.22-19.33,60.82-27.39l15.46-6c2.6-1,5.2-2,7.89-2.93s5.46-1.79,8.1-2.56c10.5-3.09,20.92-6.53,31.37-10S371.6,381,382.3,377.77c5.35-1.59,10.72-3.12,16.32-4.35,1.41-.3,2.83-.58,4.31-.81a31,31,0,0,1,4.79-.45,13.14,13.14,0,0,1,1.49.06,9,9,0,0,1,2,.43,6.7,6.7,0,0,1,1.5.75,5.41,5.41,0,0,1,1.75,2,5.25,5.25,0,0,1,.49,3.23,7,7,0,0,1-.29,1.1l-.3.93-.24.83c-.16.59-.28,1.12-.44,1.82-.29,1.33-.58,2.64-.74,3.74a7.74,7.74,0,0,0-.1,1.19,1.56,1.56,0,0,0-.1-.32,2.51,2.51,0,0,0-.44-.72,3.1,3.1,0,0,0-.89-.72,2.28,2.28,0,0,0-1.11-.3c-.11,0,0,0,.08,0a6.72,6.72,0,0,0,1.17-.44,23.07,23.07,0,0,0,3-1.72,29,29,0,0,0,5.51-4.72c.45-.48.91-1,1.49-1.59a11,11,0,0,1,2.54-2,7.09,7.09,0,0,1,2.27-.84,7.89,7.89,0,0,1,1.26-.12,6.88,6.88,0,0,1,1.46.16,7.33,7.33,0,0,1,2.2.92,11.55,11.55,0,0,1,1.23.86c1.36,1.07,2.28,1.93,3.39,2.92s2.21,2.1,3.17,3.13a12.31,12.31,0,0,0,1,1,1.53,1.53,0,0,0,.25.16,2.57,2.57,0,0,0,.37.16,4.39,4.39,0,0,0,2.14.13,19.29,19.29,0,0,0,3.29-.83c1.21-.39,2.42-.83,3.63-1.31,2.41-1,4.8-2.08,7.17-3.29s4.71-2.52,7.11-3.88c1.2-.68,2.4-1.36,3.75-2.07.34-.18.69-.35,1.09-.54a11,11,0,0,1,1.55-.59,4.8,4.8,0,0,1,2.2-.18c2.07-.65,4.76,4.72,3.53,5.35a5.88,5.88,0,0,1-.65,1.5c-.16.26-.29.47-.41.64L474,380.64c-.35.52-.68,1-1,1.54a23.81,23.81,0,0,0-1.61,3.19,33.4,33.4,0,0,0-1.31,3.48,10.61,10.61,0,0,0-.51,2.9,3,3,0,0,0,.11.87.9.9,0,0,0,.21.39,3.42,3.42,0,0,0,1.66.85,9.23,9.23,0,0,0,2.87.26,7.74,7.74,0,0,0,2.73-.62,20,20,0,0,0,5.44-4.19c1.91-1.87,3.92-3.89,6-5.82s4.25-3.8,6.49-5.56a17.25,17.25,0,0,1,4.41-2.82,6.7,6.7,0,0,1,4.35-.27A6.18,6.18,0,0,1,506,376a7.63,7.63,0,0,1,1.38,1.53,11.14,11.14,0,0,1,1.31,2.83,19.58,19.58,0,0,1,.57,2.49,34.12,34.12,0,0,1,.41,4.6l0,1.09v1.16c0,.77-.06,1.54-.13,2.3a39.34,39.34,0,0,1-.67,4.5,61.67,61.67,0,0,1-6.24,16.33,116.25,116.25,0,0,1-9.25,14.31,209.09,209.09,0,0,1-22.4,25c-2,1.94-4.06,3.84-6.14,5.71-1,.94-2.08,1.86-3.15,2.78l-.81.69-.43.35c-.15.13-.35.29-.53.42a13.32,13.32,0,0,1-2.3,1.35,14.87,14.87,0,0,1-5,1.27,10.15,10.15,0,0,1-5.65-1,6.31,6.31,0,0,1-2.59-2.65,8.18,8.18,0,0,1-.83-3.05,16.29,16.29,0,0,1,.5-5c.17-.76.38-1.49.61-2.19l.34-1,.42-1.09a28.88,28.88,0,0,1,2-4.1,48.21,48.21,0,0,1,5.24-7,94.84,94.84,0,0,1,12.52-11.5,241,241,0,0,1,27.9-18.33q14.16-8.38,27.74-17.75c4.52-3.13,9-6.33,13.34-9.66q3.28-2.49,6.44-5.09c2.1-1.74,4.17-3.57,6.23-5.39a585.65,585.65,0,0,0,47-46.32,309.07,309.07,0,0,0,20.79-25.61,158.37,158.37,0,0,0,8.93-13.84,83.42,83.42,0,0,0,6.82-14.93l.86.27a84.92,84.92,0,0,1-6.64,15.24,158.75,158.75,0,0,1-8.75,14.12,295,295,0,0,1-20.48,26.1,589.13,589.13,0,0,1-46.56,47.2c-4.08,3.71-8.28,7.42-12.63,10.86S527.5,389.75,523,393c-9,6.51-18.15,12.71-27.6,18.52A237.91,237.91,0,0,0,468.37,430a90.42,90.42,0,0,0-11.62,11.07,40.29,40.29,0,0,0-4.52,6.3,24.69,24.69,0,0,0-1.58,3.34l-.31.84-.29.94q-.29.92-.48,1.8a10.84,10.84,0,0,0-.3,3.22,2.42,2.42,0,0,0,.23.91c.1.17.09.14.28.25a4.85,4.85,0,0,0,2.41.26,9.18,9.18,0,0,0,3-.8,6.83,6.83,0,0,0,1.25-.76l.28-.23.37-.31.75-.66c1-.9,2-1.81,3-2.74,2-1.85,4-3.74,5.89-5.65a205.1,205.1,0,0,0,21.35-24.56,110.46,110.46,0,0,0,8.51-13.59A54.78,54.78,0,0,0,502,395.11a31.16,31.16,0,0,0,.51-3.69c.05-.61.07-1.22.08-1.83v-.9l0-1a28.82,28.82,0,0,0-.35-3.64,7.44,7.44,0,0,0-.78-2.45h0a1.23,1.23,0,0,0,.39.21c.39.1.54,0,.31.08a12.71,12.71,0,0,0-2.46,1.75c-2.07,1.67-4.06,3.43-6,5.27s-3.81,3.75-5.82,5.76c-1,1-2.07,2-3.3,3a19.32,19.32,0,0,1-4.34,2.76,15.78,15.78,0,0,1-5.27,1.29,16.8,16.8,0,0,1-5.34-.44,11,11,0,0,1-5.47-3.1,8.86,8.86,0,0,1-1.86-3.16,10.86,10.86,0,0,1-.53-3.2,18,18,0,0,1,.78-5.24,44.27,44.27,0,0,1,1.54-4.29,34.13,34.13,0,0,1,2.06-4.21c.4-.68.81-1.33,1.23-2l1.17-1.71.15-.23s0-.07-.22.56c-1.1.3,1.39,5.25,3.08,4.6a2.76,2.76,0,0,0,1.19,0l-.38.16-.75.39c-1.09.58-2.29,1.28-3.48,2-2.39,1.38-4.85,2.79-7.38,4.1s-5.13,2.57-7.84,3.67q-2,.83-4.14,1.53a27.5,27.5,0,0,1-4.72,1.19,12.72,12.72,0,0,1-6-.49,9.2,9.2,0,0,1-1.52-.66,9.44,9.44,0,0,1-1.49-1,17.3,17.3,0,0,1-1.94-1.84c-.92-1-1.77-1.8-2.73-2.65s-2.08-1.85-2.89-2.48c-.21-.16-.38-.26-.47-.32s-.06,0,.31.1a1.73,1.73,0,0,0,.44.05.93.93,0,0,0,.23,0,1.28,1.28,0,0,0,.35-.11,6.53,6.53,0,0,0-.63.59L426.31,385a37.26,37.26,0,0,1-7,6.06,32.09,32.09,0,0,1-4.15,2.41,16,16,0,0,1-2.7,1,9.06,9.06,0,0,1-2,.29,6.4,6.4,0,0,1-3.12-.69,5.86,5.86,0,0,1-1.69-1.37,5.94,5.94,0,0,1-.95-1.6,7.45,7.45,0,0,1-.51-2.34,14.23,14.23,0,0,1,.15-2.93c.23-1.64.53-3,.82-4.39.14-.65.32-1.46.51-2.21.1-.38.21-.77.33-1.15l.33-1c0-.08.06-.24,0,.11a3.82,3.82,0,0,0,.36,2.22,3.28,3.28,0,0,0,1.06,1.23,2.62,2.62,0,0,0,.57.3c.19.06.11,0,0,0l-.58,0a24.9,24.9,0,0,0-3.43.37c-1.25.21-2.53.47-3.82.76-5.16,1.17-10.41,2.7-15.61,4.3-10.43,3.2-20.77,6.87-31.27,10.43s-21,7.07-31.63,10.25c-2.65.79-5.16,1.56-7.67,2.46s-5.06,1.88-7.61,2.86l-15.4,6c-20.48,8-40.6,16.63-59.83,26.89a301.34,301.34,0,0,0-54,36.4c-4.11,3.55-8.16,7.16-12.06,10.94s-7.75,7.63-11.39,11.6a129.11,129.11,0,0,0-10.16,12.34,50.31,50.31,0,0,0-7.12,13.37,31.74,31.74,0,0,0-1.09,14.5,26.5,26.5,0,0,0,5.62,13,39.64,39.64,0,0,0,5.07,5.45c.47.4.93.79,1.4,1.15.22.18.46.35.66.5l.29.19.4.25c1.07.67,2.16,1.28,3.28,1.86a45.6,45.6,0,0,0,14.43,4.49c10.18,1.45,20.86,0,31.35-2.4,5.25-1.23,10.52-2.63,15.77-4.22l7.87-2.32c2.64-.75,5.22-1.66,7.83-2.49s5.22-1.66,7.81-2.55l7.75-2.72,3.87-1.37,3.84-1.46,7.69-2.91c10.18-4,20.27-8.32,30.21-12.92s19.72-9.55,29.27-14.86c2.39-1.33,4.77-2.67,7.11-4.06l3.5-2.09,1.73-1.08c.61-.39,1.22-.71,1.83-1.07,1.22-.71,2.42-1.41,3.58-2.11s2.33-1.4,3.49-2.12q3.5-2.15,6.91-4.39a305,305,0,0,0,50.57-41.36A283,283,0,0,0,439,411.18a278.88,278.88,0,0,0,15.23-28.94,305.12,305.12,0,0,0,12.17-30.42c1.7-5.16,3.23-10.38,4.43-15.65a99.42,99.42,0,0,0,2.43-15.86,44.34,44.34,0,0,0-1.38-15.38,22,22,0,0,0-3.18-6.57,18.77,18.77,0,0,0-2.38-2.66,23.14,23.14,0,0,0-2.91-2.27,34,34,0,0,0-14.3-5,48.2,48.2,0,0,0-15.57.56c-1.28.25-2.54.57-3.79.92s-2.46.79-3.76,1.27c-2.57.9-5.1,1.9-7.63,2.9-5,2.07-10,4.28-14.95,6.67a391.39,391.39,0,0,0-56.19,34c-8.91,6.39-17.67,13.1-26.41,19.81S303.43,368.11,295,375.11s-16.84,14.15-24.84,21.65q-6,5.61-11.67,11.55c-3.77,3.95-7.34,8.07-10.83,12.31a369,369,0,0,0-37,54.39,394.2,394.2,0,0,0-27.3,59.89c-.92,2.59-1.8,5.18-2.63,7.79-.42,1.31-.83,2.61-1.22,3.92l-.55,2-.13.47c2.55,1-3.61-.88-2.92-.82l.41-.93c2.25-5.06,4.6-10.06,7-15,4.76-10,9.65-19.86,14.59-29.74s9.93-19.71,15-29.52,10.27-19.53,15.16-29.4c9.84-19.73,19.31-39.66,28.71-59.61,18.77-39.93,37.15-80.05,55.44-120.21Z" transform="translate(-126.76 -239.47)"/><path fill="#d72323" d="M650.52,240c-15.71,27.65-30.3,55.86-43.35,84.74q-4.9,10.81-9.47,21.79c-1.58,3.63-3.08,7.29-4.57,11s-3,7.34-4.4,11c-5.73,14.75-11.16,29.62-16,44.66s-9.36,30.19-13.1,45.51q-2.93,11.52-5.55,23.1c-1.76,7.71-3.5,15.43-4.87,23.15-.33,1.93-.65,3.85-.92,5.76a48.69,48.69,0,0,0-.52,5.53c0,.41,0,.81,0,1.09a1.76,1.76,0,0,0,0,.24l-.09-.18a2.19,2.19,0,0,0-.59-.65,2.51,2.51,0,0,0-1.62-.51,2.08,2.08,0,0,0-.91.24c-.25.15-.19.15-.14.09a5.1,5.1,0,0,0,.62-.74,41.26,41.26,0,0,0,2.81-4.76c1.79-3.43,3.44-7,5.07-10.62s3.24-7.31,5-10.9c3.57-7.21,7.43-14.19,11.39-21.11s8-13.81,12-20.65l12.13-20.56,6.08-10.26,6-10.29c4-6.86,8.07-13.69,12.06-20.61s8.2-13.67,12.44-20.4c8.53-13.47,17.54-26.65,27.15-39.43a333.41,333.41,0,0,1,31.26-36.57,161.33,161.33,0,0,1,18.51-15.87,93,93,0,0,1,10.57-6.55,24.54,24.54,0,0,1,3.15-1.45,14.38,14.38,0,0,1,4-.91,9.69,9.69,0,0,1,4.86.85,9.57,9.57,0,0,1,3.8,3.26,17.8,17.8,0,0,1,2.65,7.23,41.64,41.64,0,0,1,.48,6.58,97.21,97.21,0,0,1-.9,12.43c-1.06,8.11-2.68,16-4.46,23.84s-3.76,15.54-5.83,23.3-4.38,15.45-6.83,23.08C713.65,380.67,708,395.63,702,410.46l-.45.87a3.65,3.65,0,0,0,.32-.54c0-.1.09-.22.06-.15l0,.06-.1.25-.2.5-.39,1-.78,2-1.54,4.06-3,8.18q-3,8.17-5.74,16.45c-3.66,11-7,22.13-9.93,33.34a287.61,287.61,0,0,0-7,33.85,46.78,46.78,0,0,0-.6,8,12.83,12.83,0,0,0,.16,1.65,4.5,4.5,0,0,0,.25.93s0,0-.16-.16a1.6,1.6,0,0,0-.69-.35,1,1,0,0,0-.46,0s0,0,.17,0a9.91,9.91,0,0,0,2.57-1.64,34.21,34.21,0,0,0,2.91-2.69c.94-1,1.92-2,2.83-3.08s1.78-2.13,2.66-3.22c3.47-4.5,6.76-9.28,10-14.11s6.37-9.73,9.48-14.67c6.21-9.88,12.26-19.88,18.29-29.9l17.93-30.17,17.82-30.27.79.43c-5.23,10.48-10.58,20.9-16,31.3l-8.12,15.59-8.3,15.49q-8.34,15.48-17.15,30.73c-5.91,10.17-11.88,20.25-18.91,30-.92,1.21-1.82,2.43-2.83,3.63s-1.94,2.31-3,3.47a42.31,42.31,0,0,1-3.44,3.37,16.93,16.93,0,0,1-4.79,3.08,8.53,8.53,0,0,1-1.94.51,6.93,6.93,0,0,1-2.64-.15,6.33,6.33,0,0,1-2.58-1.43,7.31,7.31,0,0,1-1.48-1.89,11.08,11.08,0,0,1-1.11-3.23,19.67,19.67,0,0,1-.34-2.71,53.75,53.75,0,0,1,.46-9.48,294.82,294.82,0,0,1,6.46-35c2.83-11.49,6.12-22.83,9.72-34.06q2.7-8.43,5.63-16.77c1-2.79,2-5.55,3-8.32l1.57-4.14.81-2.07.41-1,.2-.52.11-.26.14-.34a6.8,6.8,0,0,1,.42-.8l-.45.87q8.91-22,16.53-44.4,3.78-11.2,7-22.56c2.13-7.57,4.2-15.26,6.07-22.89s3.53-15.32,4.63-23a88.69,88.69,0,0,0,1-11.33,36.33,36.33,0,0,0-.3-5.31,10.64,10.64,0,0,0-1.22-4,1.8,1.8,0,0,0-.62-.63,1.85,1.85,0,0,0-1-.15,6.41,6.41,0,0,0-1.82.4,16.93,16.93,0,0,0-2.28,1,85.94,85.94,0,0,0-9.81,5.81,153.84,153.84,0,0,0-18.1,14.63,333.94,333.94,0,0,0-32,34.75c-9.93,12.31-19.29,25.12-28.21,38.24-4.45,6.58-8.71,13.21-12.81,20.06S612.1,401.2,608,408l-6.09,10.26-6,10.3c-4,6.88-8,13.73-11.86,20.68-7.73,13.86-15.44,27.8-21.89,42.17-1.62,3.59-3,7.22-4.51,10.95s-3,7.42-4.72,11.12a45.94,45.94,0,0,1-3,5.63,10.68,10.68,0,0,1-1.24,1.58,5.15,5.15,0,0,1-1.31,1,3.76,3.76,0,0,1-1.61.45,3.62,3.62,0,0,1-2.32-.72,4.08,4.08,0,0,1-1.05-1.24,4.82,4.82,0,0,1-.37-.86,7.75,7.75,0,0,1-.29-1.22,14.9,14.9,0,0,1-.16-1.88,54.15,54.15,0,0,1,.3-6.36c.2-2,.45-4,.73-6,2.31-16,5.68-31.51,9.25-47.08s8.18-31,13.32-46.13S575.84,380.5,582,365.76s12.68-29.32,19.76-43.62a696.56,696.56,0,0,1,48-82.67Z" transform="translate(-126.76 -239.47)"/><path fill="#d72323" d="M785.33,379.1a12.44,12.44,0,0,0-2.5-4.45,8.11,8.11,0,0,0-1.9-1.57,7.16,7.16,0,0,0-2.26-.83,8.69,8.69,0,0,0-4.76.74,27.65,27.65,0,0,0-4.56,2.35,25.51,25.51,0,0,0-7.11,7.16,25.9,25.9,0,0,0-2.39,4.42c-.31.78-.65,1.63-.91,2.4a7.2,7.2,0,0,0-.46,2.06c0,.25.06.37.07.36s0,0,.15.05a4.32,4.32,0,0,0,1.72,0,20.58,20.58,0,0,0,4.65-1.32,38.14,38.14,0,0,0,4.57-2.16,26.65,26.65,0,0,0,4.06-2.8c2.61-2.21,5.37-4.69,8.19-6.93,1.41-1.13,2.82-2.24,4.28-3.34.73-.55,1.47-1.11,2.29-1.65a14.8,14.8,0,0,1,2.86-1.58,6.81,6.81,0,0,1,2.12-.5,6,6,0,0,1,2.54.36,7.27,7.27,0,0,1,3.43,2.81,16.47,16.47,0,0,1,2.3,6.14c.09.5.18.91.25,1.44s.15,1,.19,1.52a28.44,28.44,0,0,1,.1,3.06,28.93,28.93,0,0,1-.85,6,28,28,0,0,1-.91,2.91l-1,2.57c-.67,1.69-1.37,3.35-2.08,5-1.41,3.33-2.92,6.59-4.45,9.85-6.17,13-12.78,25.68-19.69,38.26-3.44,6.23-7.09,12.85-12.31,18.72a45.13,45.13,0,0,1-9,7.92,37.39,37.39,0,0,1-5.48,3,18.51,18.51,0,0,1-3.52,1.18,9.58,9.58,0,0,1-2.89.21,7.39,7.39,0,0,1-2.27-.56,6.83,6.83,0,0,1-2.44-1.76,7.52,7.52,0,0,1-1.81-4.23,11.72,11.72,0,0,1,.06-2.65,20.11,20.11,0,0,1,.87-3.59,48.44,48.44,0,0,1,2.34-5.59c1.68-3.46,3.51-6.66,5.41-9.82s3.89-6.22,6-9.29,4.45-6,6.82-8.87,4.78-5.53,7.17-8.2l3.62-4c1.2-1.3,2.48-2.65,3.71-3.95,5-5.24,10.08-10.33,15.25-15.34q15.51-15,32-29l-.44.41c1-.89.37-.34.63-.56l.16-.13.3-.25.61-.48,1.23-.92c.84-.61,1.71-1.21,2.7-1.81.5-.3,1-.6,1.63-.9a16.39,16.39,0,0,1,2.19-.89l.75-.21c.27-.07.61-.13.92-.19a10.2,10.2,0,0,1,1.19-.1,8.08,8.08,0,0,1,1.61.12,7.28,7.28,0,0,1,1,.22,10.23,10.23,0,0,1,1.09.42,8.18,8.18,0,0,1,1.13.65,7.15,7.15,0,0,1,1.06.89,7.74,7.74,0,0,1,1.57,2.27,8.56,8.56,0,0,1,.39,1c.08.28.16.63.2.85a9.65,9.65,0,0,1,.14,2.07c0,.47,0,.81-.06,1.1l-.14,1.42c-.08.79-.13,1.48-.14,2.18s0,1.35,0,2.15.08,1.69.14,2.14c0,.21.07.32,0,0a4.07,4.07,0,0,0-.46-1,4.55,4.55,0,0,0-.6-.78,5.63,5.63,0,0,0-.93-.81,5.47,5.47,0,0,0-2.17-.86,4.77,4.77,0,0,0-1.41,0,2.65,2.65,0,0,0-.65.16,9.32,9.32,0,0,0,1.14-.73c.54-.39,1.15-.88,1.79-1.4l1-.81.84-.72,1.93-1.74c.75-.67,1.61-1.39,2.46-2s1.69-1.23,2.61-1.83c.46-.3,1-.61,1.53-.93a15.23,15.23,0,0,1,2.23-1A9.66,9.66,0,0,1,848,372a9.12,9.12,0,0,1,1.68-.05,9,9,0,0,1,1.41.22,9,9,0,0,1,2.44.94,9.57,9.57,0,0,1,1.94,1.43,12.17,12.17,0,0,1,1.87,2.3c.38.59.61,1,.82,1.35.42.69.73,1.16,1.06,1.61a13.45,13.45,0,0,0,2.42,2.46,4.51,4.51,0,0,0,1.41.82,3.48,3.48,0,0,0-.35,0,7.43,7.43,0,0,0,1-.49c1.1-.63,2.59-1.62,4.07-2.59,3.06-2,6.11-3.92,9.28-5.81,1.59-.94,3.19-1.87,4.94-2.79.88-.46,1.77-.92,2.88-1.4a16.24,16.24,0,0,1,2.19-.79,9.71,9.71,0,0,1,1-.22,7.94,7.94,0,0,1,.79-.1,8.33,8.33,0,0,1,1.24,0,7.21,7.21,0,0,1,2.34.54,7.32,7.32,0,0,1,4.46,7.91,8,8,0,0,1-.6,2,8.76,8.76,0,0,1-.79,1.38l-.24.34-.19.25-.52.65c-.27.34-.47.58-.65.83a10.22,10.22,0,0,0-.84,1.32c-.11.21-.21.42-.3.64l-.13.32-.09.27a14.9,14.9,0,0,0-.36,1.6,7.54,7.54,0,0,0,0,2.61c0,.22.1.27,0,.2a.83.83,0,0,0-.25-.28,5.32,5.32,0,0,0,1.08.11c.32,0,.44,0,.59,0a2.7,2.7,0,0,0,.35-.07,3.22,3.22,0,0,0,.82-.34,27.79,27.79,0,0,0,3.32-2.36l4.25-3.3c3-2.26,5.9-4.39,9.34-6.51.87-.53,1.79-1.06,2.85-1.59a17.3,17.3,0,0,1,4.12-1.53,10.88,10.88,0,0,1,3.66-.22,9.5,9.5,0,0,1,2.12.47,11.24,11.24,0,0,1,1.75.76,12.21,12.21,0,0,1,4.49,4.31,16.94,16.94,0,0,1,1.85,4.09,24.79,24.79,0,0,1,.83,3.54,22.46,22.46,0,0,1-.08,7.76,28,28,0,0,1-2.25,6.76,45.55,45.55,0,0,1-3.1,5.47c-2.19,3.32-4.47,6.23-6.72,9.07-4.51,5.64-8.94,11-13.14,16.54q-3.15,4.14-6.14,8.37c-1,1.41-2,2.84-3,4.26l-2.93,4.39a71,71,0,0,1-7.2,9.29A32.12,32.12,0,0,1,878,466.63a22.43,22.43,0,0,1-3.67,1.15,17.81,17.81,0,0,1-2,.33l-.49.06-.43,0c-.3,0-.64.05-1,.06a13.58,13.58,0,0,1-5.22-.77,10,10,0,0,1-3.41-2.11,9.57,9.57,0,0,1-2.41-3.71,10.8,10.8,0,0,1-.48-1.83,13,13,0,0,1-.14-1.57,14.29,14.29,0,0,1,.18-2.58,20.37,20.37,0,0,1,1-3.81,38.63,38.63,0,0,1,2.77-5.76c1-1.73,2.06-3.38,3.09-4.9l1.73-2.44c.6-.79,1.23-1.56,1.84-2.33a77.88,77.88,0,0,1,8.09-8.33,136,136,0,0,1,17.94-13.24C901.69,411,908,407.42,914.2,404c12.5-6.86,25-13.34,36.55-20.87,1.44-.92,2.9-1.93,4.25-2.85a23.48,23.48,0,0,0,3.27-2.77,18.2,18.2,0,0,0,1.29-1.49,6.25,6.25,0,0,0,.44-.63c.1-.16.17-.32.12-.16a2.6,2.6,0,0,0-.12.75,3.4,3.4,0,0,0,0,.44,4.09,4.09,0,0,0,.09.64,4.77,4.77,0,0,0,.28.83,4.42,4.42,0,0,0,.64,1,4.33,4.33,0,0,0,1.43,1.19,3.53,3.53,0,0,0,.53.23c.19.05.18,0,.15,0a7.81,7.81,0,0,0-1.54-.06,19.24,19.24,0,0,0-4.1.6,10.92,10.92,0,0,0-3.2,1.3,3,3,0,0,0-.49.41.58.58,0,0,0,0-.12c0-.1,0,0,0,0a4.12,4.12,0,0,0,.81,2.05,14.62,14.62,0,0,0,2.62,2.92,17.1,17.1,0,0,0,1.63,1.24c.28.19.56.36.83.51l.4.23.61.31a12.75,12.75,0,0,0,1.68.77,1.87,1.87,0,0,0,.42.11l.21,0h.36a6.17,6.17,0,0,0,3-.93,34.74,34.74,0,0,0,3.86-2.66l4.25-3.23c2.91-2.16,5.79-4.3,9.06-6.32a30.06,30.06,0,0,1,2.69-1.5,14.06,14.06,0,0,1,1.78-.73l.59-.18c.26-.06.53-.11.79-.15a5.72,5.72,0,0,1,2,.07,5.45,5.45,0,0,1,.92.3,4.82,4.82,0,0,1,2.66,2.9,6.79,6.79,0,0,1,.32,1.49,14.41,14.41,0,0,1,.09,1.75c0,1,0,2-.08,2.9-.1,1.87-.28,3.76-.51,5.57-.11.89-.24,1.81-.29,2.45l0,.33s0,0-.06-.23a3.18,3.18,0,0,0-.25-.58,2.92,2.92,0,0,0-.66-.78,2.85,2.85,0,0,0-1.68-.67h-.24l-.16,0-.11,0,.14,0c.19-.08.48-.21.78-.37.61-.32,1.29-.75,2-1.19,1.36-.91,2.74-1.92,4-3s2.57-2.15,3.81-3.31,2.44-2.38,3.89-3.72a14.53,14.53,0,0,1,2.76-2.06,7.76,7.76,0,0,1,2.16-.8,6.34,6.34,0,0,1,1.23-.13,4,4,0,0,1,.6,0l.29,0a5.73,5.73,0,0,1,.7.13,5.39,5.39,0,0,1,1.34.61,6.82,6.82,0,0,1,.77.52c.45.32.84.63,1.2.94.74.62,1.41,1.22,2.08,1.82l4,3.62,3.85,3.64c.14.13.28.26.37.33l.15.13a2,2,0,0,0,.42.16,3.45,3.45,0,0,0,1.5-.08,13.27,13.27,0,0,0,4-1.94,49.26,49.26,0,0,0,7.59-6.69c1.19-1.25,2.34-2.54,3.51-3.88s2.21-2.69,3.31-4.07l6.59-8.34q6.59-8.36,13.26-16.65c8.9-11.06,18-22,27.57-32.49,4.77-5.26,9.65-10.44,14.77-15.39,2.56-2.46,5.18-4.88,7.92-7.16a55.42,55.42,0,0,1,8.74-6.19l.39.69a55.35,55.35,0,0,0-8.5,6.23c-2.68,2.3-5.24,4.75-7.75,7.24-5,5-9.79,10.23-14.46,15.55-9.34,10.66-18.27,21.68-27,32.81q-6.57,8.36-13.05,16.79l-6.49,8.42c-2.17,2.81-4.4,5.59-6.79,8.23a52.19,52.19,0,0,1-7.85,7.29,16.47,16.47,0,0,1-4.83,2.52,6.73,6.73,0,0,1-2.83.22,4.83,4.83,0,0,1-1.41-.45,5.72,5.72,0,0,1-1.15-.85c-2.64-2.4-5.27-4.73-8-7-.67-.58-1.35-1.15-2-1.69-.34-.27-.69-.54-1-.78a4.22,4.22,0,0,0-1-.57l-.08,0h-.44a2.69,2.69,0,0,0-.57.07,3.81,3.81,0,0,0-1.1.43,10.41,10.41,0,0,0-2,1.58c-1.26,1.21-2.47,2.52-3.74,3.77s-2.58,2.46-4,3.61-2.77,2.25-4.23,3.29a26.7,26.7,0,0,1-2.27,1.47,5.78,5.78,0,0,1-2.74,1,1.44,1.44,0,0,1-.92-.34,1.55,1.55,0,0,1-.49-.81,5.14,5.14,0,0,1-.09-1.49c.06-.91.17-1.79.26-2.67.19-1.75.33-3.5.39-5.26,0-.88,0-1.76,0-2.63a10.4,10.4,0,0,0-.09-1.27,2.67,2.67,0,0,0-.11-.55c-.07-.16,0-.11-.14-.17a1.53,1.53,0,0,0-.93.12,10.28,10.28,0,0,0-1.15.5c-.76.39-1.51.84-2.25,1.31-3,1.89-5.77,4.05-8.56,6.22a104.26,104.26,0,0,1-8.55,6.43,11.47,11.47,0,0,1-5.23,1.73,7.7,7.7,0,0,1-2.82-.27,16.11,16.11,0,0,1-2.54-1.06,20.81,20.81,0,0,1-4.6-2.89,20.14,20.14,0,0,1-3.73-4,9.5,9.5,0,0,1-1.88-5.25,5.45,5.45,0,0,1,.78-2.82,7.67,7.67,0,0,1,2-2.07,16.14,16.14,0,0,1,5-2.26,25.53,25.53,0,0,1,5.36-.88,14.38,14.38,0,0,1,2.77.1,5.57,5.57,0,0,1,.74.17,1.81,1.81,0,0,1,.84.51,1.53,1.53,0,0,1,.28,1,3.15,3.15,0,0,1-.16.8,14.15,14.15,0,0,1-3.12,4.57,28.28,28.28,0,0,1-4.07,3.58c-1.46,1-2.91,2.06-4.39,3-11.81,7.93-24.34,14.66-36.66,21.64-6.17,3.49-12.3,7-18.24,10.88a128.59,128.59,0,0,0-16.91,12.68,71.44,71.44,0,0,0-7.27,7.6,64.29,64.29,0,0,0-5.89,8.71,31.88,31.88,0,0,0-2.23,4.69c-.57,1.58-1,3.36-.56,4.72s2.15,1.75,3.79,1.66a13.92,13.92,0,0,0,4.92-1.1,24.67,24.67,0,0,0,8.22-6.14,64.29,64.29,0,0,0,6.39-8.33c3.87-5.94,8-11.79,12.24-17.45s8.78-11.17,13.18-16.71c2.19-2.78,4.35-5.57,6.27-8.5a26.71,26.71,0,0,0,4.17-9.38,14.11,14.11,0,0,0,0-5,12.72,12.72,0,0,0-1.57-4.72,4.34,4.34,0,0,0-1.59-1.57,2.58,2.58,0,0,0-2-.24,17.77,17.77,0,0,0-4.55,2.16c-3,1.84-5.83,3.93-8.63,6.07l-4.18,3.27a33.9,33.9,0,0,1-4.49,3.09,11.23,11.23,0,0,1-5.47,1.36,9.85,9.85,0,0,1-5.51-1.45,7.58,7.58,0,0,1-3.15-4.84,15.12,15.12,0,0,1,0-5.57,19.56,19.56,0,0,1,.63-2.7,16.77,16.77,0,0,1,1.09-2.58,18.15,18.15,0,0,1,1.5-2.33c.28-.37.56-.72.84-1.07a6.78,6.78,0,0,0,.68-.9.18.18,0,1,1,0,0,.63.63,0,0,0,.07.34c.2.28.35.24.32.25a1.41,1.41,0,0,0-.39.07,9,9,0,0,0-1.15.42c-.78.33-1.56.73-2.34,1.13-1.55.81-3.08,1.69-4.6,2.58q-4.56,2.7-9,5.6c-1.49,1-3,1.95-4.55,2.85a13.28,13.28,0,0,1-2.57,1.14,6.62,6.62,0,0,1-2.94.24,11.1,11.1,0,0,1-5.11-2.4,21.59,21.59,0,0,1-3.83-3.93,23.05,23.05,0,0,1-1.5-2.29,10.87,10.87,0,0,0-1.39-2,1.72,1.72,0,0,0-.81-.45.8.8,0,0,0-.4,0,2.11,2.11,0,0,0-.49.13A11.18,11.18,0,0,0,846.3,381a33.24,33.24,0,0,0-4.15,3.14c-1.28,1.17-2.66,2.4-4,3.49a25,25,0,0,1-4.52,3.1,5.81,5.81,0,0,1-1.46.46,2.45,2.45,0,0,1-1.77-.35,2.62,2.62,0,0,1-1-1.46,7,7,0,0,1-.28-1.44c-.1-.92-.13-1.81-.16-2.7s0-1.81,0-2.71.11-1.81.21-2.7a13.9,13.9,0,0,0,.16-2.45.42.42,0,0,0-.09-.22.35.35,0,0,0-.22-.09,2.2,2.2,0,0,0-1,.14,11.22,11.22,0,0,0-2.25,1.07c-.74.44-1.46.92-2.17,1.42l-1,.78-1,.77,0,0q-16.4,13.68-31.88,28.41-7.74,7.36-15.19,15c-2.49,2.55-4.89,5.16-7.3,7.79s-4.82,5.24-7.13,7.93a132.34,132.34,0,0,0-12.52,17.2c-1.87,3-3.68,6.07-5.26,9.23a42.75,42.75,0,0,0-2.1,4.83,14.14,14.14,0,0,0-.64,2.48,2.78,2.78,0,0,0,.28,2.09c.32.42,1.16.43,2,.26a14.09,14.09,0,0,0,2.43-.8,32.51,32.51,0,0,0,4.63-2.45,39.75,39.75,0,0,0,8-6.83c4.77-5.22,8.39-11.38,11.93-17.54,7.1-12.35,13.92-24.86,20.27-37.61,1.58-3.19,3.13-6.39,4.61-9.62.74-1.62,1.49-3.24,2.18-4.87a34.46,34.46,0,0,0,1.89-4.93,22.87,22.87,0,0,0,.5-10.37,13.15,13.15,0,0,0-1.63-4.84,3.8,3.8,0,0,0-1.76-1.55,3,3,0,0,0-2.27.1,22.36,22.36,0,0,0-4.45,2.69c-1.45,1-2.87,2.1-4.29,3.18-2.84,2.14-5.53,4.44-8.33,6.68a34,34,0,0,1-9.5,5.12,22.7,22.7,0,0,1-5.28,1.32,6,6,0,0,1-2.85-.31,2.37,2.37,0,0,1-1.19-1.05,2.87,2.87,0,0,1-.31-1.52,9.19,9.19,0,0,1,.66-2.72c.32-.85.67-1.67,1-2.5a27.44,27.44,0,0,1,2.71-4.7,27,27,0,0,1,7.87-7.37,30,30,0,0,1,4.9-2.31,10,10,0,0,1,5.47-.6,8.38,8.38,0,0,1,2.59,1.06,9.46,9.46,0,0,1,2.08,1.86,13.3,13.3,0,0,1,2.51,4.87Z" transform="translate(-126.76 -239.47)"/></svg>