<svg width="16" height="16" viewBox="0 0 16 16" fill="none" xmlns="http://www.w3.org/2000/svg">
<path d="M0 15.2727C0 15.6744 0.325284 16 0.727273 16C1.12926 16 1.45455 15.6744 1.45455 15.2727C1.45455 12.7063 2.932 10.4343 5.23495 9.35982C6.03196 9.87775 6.98011 10.1818 7.99929 10.1818C9.02233 10.1818 9.97412 9.87571 10.773 9.35414C11.4605 9.67867 12.0976 10.1153 12.6278 10.6452C13.8643 11.8821 14.5455 13.5256 14.5455 15.2727C14.5455 15.6744 14.8707 16 15.2727 16C15.6747 16 16 15.6744 16 15.2727C16 13.1371 15.1676 11.1286 13.6563 9.61683C13.1505 9.11084 12.5628 8.67698 11.9322 8.31929C12.6552 7.44007 13.0902 6.31543 13.0902 5.09091C13.0902 2.28374 10.8061 0 7.99929 0C5.19247 0 2.90838 2.28374 2.90838 5.09091C2.90838 6.31246 3.34158 7.43435 4.06143 8.31263C1.56485 9.71826 0 12.3446 0 15.2727V15.2727ZM7.99929 1.45455C10.0043 1.45455 11.6357 3.08594 11.6357 5.09091C11.6357 7.09588 10.0043 8.72727 7.99929 8.72727C5.99432 8.72727 4.36293 7.09588 4.36293 5.09091C4.36293 3.08594 5.99432 1.45455 7.99929 1.45455V1.45455Z" fill="#A5A6AD"/>
</svg>
