<svg width="30" height="30" viewBox="0 0 30 30" fill="none" xmlns="http://www.w3.org/2000/svg">
<g clip-path="url(#clip0)">
<path d="M28.0501 11.9114L22.9229 6.27687C21.9083 5.26233 20.2556 5.26098 19.2315 6.28505C18.907 6.60958 18.6861 6.99822 18.5716 7.4128C17.5516 6.63144 16.0802 6.70917 15.1406 7.64873C14.8174 7.97326 14.5965 8.3619 14.4792 8.77508C13.4593 7.99646 11.9879 8.07278 11.0497 9.01235C10.732 9.3301 10.5138 9.70915 10.3952 10.1128L7.97877 7.69642C6.96423 6.68187 5.3115 6.68053 4.28743 7.7046C3.27154 8.71915 3.27154 10.3719 4.28743 11.3878L13.5711 20.6714L8.06468 21.5359C6.57693 21.7486 5.45468 23.0414 5.45468 24.5455C5.45468 25.6732 6.37239 26.5909 7.50014 26.5909H20.3579C22.3611 26.5909 24.2442 25.8109 25.661 24.3941L27.806 22.2491C29.2215 20.835 30.0001 18.9532 30.0001 16.9527C30.0001 15.0845 29.3074 13.2941 28.0501 11.9114ZM26.8419 21.285L24.6969 23.43C23.5379 24.5891 21.9969 25.2273 20.3578 25.2273H7.50007C7.12371 25.2273 6.81823 24.9218 6.81823 24.5454C6.81823 23.7163 7.4373 23.0031 8.26776 22.8845L15.1064 21.8099C15.3601 21.7704 15.5687 21.5918 15.6492 21.3477C15.7282 21.105 15.6642 20.8363 15.4828 20.655L5.25148 10.4237C4.76741 9.93958 4.76741 9.15138 5.25832 8.65912C5.50102 8.41776 5.81877 8.29638 6.13652 8.29638C6.45427 8.29638 6.77195 8.41776 7.01472 8.66047L13.837 15.4828C14.1029 15.7487 14.5352 15.7487 14.8011 15.4828C14.9334 15.3491 15.0002 15.1746 15.0002 15C15.0002 14.8255 14.9335 14.651 14.7998 14.5173L12.0139 11.7314C11.5298 11.2473 11.5298 10.4605 12.0221 9.96822C12.5048 9.48549 13.2943 9.48549 13.7771 9.96822L16.5643 12.7555C16.8302 13.0214 17.2625 13.0214 17.5284 12.7555C17.6607 12.6218 17.7275 12.4473 17.7275 12.2727C17.7275 12.0982 17.6607 11.9237 17.5271 11.79L16.1048 10.3677C15.6207 9.88365 15.6207 9.09679 16.113 8.60454C16.5957 8.12181 17.3853 8.12181 17.868 8.60454L19.297 10.0336C19.2998 10.035 19.2984 10.0349 19.2984 10.0349L19.2997 10.0363C19.3011 10.0376 19.3011 10.0376 19.3011 10.0376C19.3024 10.039 19.3024 10.039 19.3024 10.039H19.3038C19.3051 10.039 19.3051 10.0403 19.3051 10.0403C19.5724 10.294 19.9951 10.2885 20.2555 10.0267C20.5214 9.7608 20.5214 9.3285 20.2555 9.06259L20.1969 9.00398C19.9624 8.76945 19.8328 8.45714 19.8328 8.12577C19.8328 7.79441 19.961 7.4835 20.2038 7.24079C20.6892 6.75807 21.4747 6.75941 21.937 7.21759L27.0424 12.829C28.0692 13.9595 28.6365 15.4241 28.6365 16.9527C28.6365 18.5891 27.9996 20.1273 26.8419 21.285Z" fill="#E87623"/>
<path d="M11.7218 7.02683C10.7291 4.83001 8.53639 3.40906 6.13637 3.40906C2.75318 3.40906 0 6.16224 0 9.54542C0 11.9454 1.42089 14.1382 3.61771 15.1323C3.70905 15.1732 3.80455 15.1923 3.89864 15.1923C4.15771 15.1923 4.40591 15.0423 4.52046 14.7914C4.67457 14.4477 4.5218 14.0441 4.17957 13.8886C2.46957 13.1154 1.36368 11.4109 1.36368 9.54542C1.36368 6.91363 3.50457 4.77267 6.13643 4.77267C8.00189 4.77267 9.70646 5.87856 10.4796 7.58856C10.6337 7.9322 11.0387 8.08631 11.381 7.92945C11.7246 7.77406 11.8773 7.37047 11.7218 7.02683Z" fill="#E87623"/>
</g>
<defs>
<clipPath id="clip0">
<rect width="30" height="30" fill="white"/>
</clipPath>
</defs>
</svg>
