<svg width="40" height="41" viewBox="0 0 40 41" fill="none" xmlns="http://www.w3.org/2000/svg">
<g opacity="0.3" clip-path="url(#clip0)">
<path d="M12.727 0.385601C12.2843 0.260525 11.824 0.517942 11.6987 0.960589L0.865581 39.2932C0.740505 39.7359 0.997922 40.1962 1.44057 40.3215C1.51432 40.3426 1.59057 40.3536 1.66721 40.354C2.04032 40.3538 2.36774 40.1057 2.46883 39.7466L13.302 1.41394C13.4271 0.971214 13.1696 0.510911 12.727 0.385601Z" fill="black"/>
<path d="M39.1344 39.2941L28.3013 0.961455C28.1761 0.518495 27.7155 0.260843 27.2726 0.386075C26.8296 0.511229 26.5719 0.971845 26.6972 1.41481L37.5303 39.7473C37.6318 40.1064 37.9597 40.3543 38.3328 40.354C38.4094 40.3537 38.4857 40.3431 38.5594 40.3223C39.0021 40.1971 39.2594 39.7368 39.1344 39.2941Z" fill="black"/>
<path d="M20.0001 32.021C19.5399 32.021 19.1667 32.3941 19.1667 32.8543V39.5209C19.1667 39.9811 19.5399 40.3542 20.0001 40.3542C20.4603 40.3542 20.8334 39.9811 20.8334 39.5209V32.8543C20.8333 32.3941 20.4603 32.021 20.0001 32.021Z" fill="black"/>
<path d="M20.0001 18.6879C19.5399 18.6879 19.1667 19.061 19.1667 19.5213V26.1878C19.1667 26.648 19.5399 27.0211 20.0001 27.0211C20.4603 27.0211 20.8334 26.648 20.8334 26.1878V19.5213C20.8333 19.061 20.4603 18.6879 20.0001 18.6879Z" fill="black"/>
<path d="M20.0001 7.02148C19.5399 7.02148 19.1667 7.3946 19.1667 7.85483V12.8547C19.1667 13.315 19.5399 13.6881 20.0001 13.6881C20.4603 13.6881 20.8334 13.315 20.8334 12.8547V7.85483C20.8333 7.3946 20.4603 7.02148 20.0001 7.02148Z" fill="black"/>
<path d="M20.0001 0.35498C19.5399 0.35498 19.1667 0.728098 19.1667 1.18832V2.85493C19.1667 3.31516 19.5399 3.68827 20.0001 3.68827C20.4603 3.68827 20.8334 3.31516 20.8334 2.85493V1.18825C20.8333 0.72802 20.4603 0.35498 20.0001 0.35498Z" fill="black"/>
</g>
<defs>
<clipPath id="clip0">
<rect width="40" height="40" fill="white" transform="translate(0 0.354004)"/>
</clipPath>
</defs>
</svg>
