<svg width="70" height="59" viewBox="0 0 70 59" fill="none" xmlns="http://www.w3.org/2000/svg">
<path d="M35.0249 9.94777C34.4627 9.94777 33.9438 9.58861 33.7465 9.06224C33.5449 8.52439 33.707 7.89617 34.1515 7.52921C34.5749 7.17949 35.1848 7.11673 35.6692 7.37582C36.1796 7.64871 36.469 8.23113 36.3741 8.80316C36.2663 9.45462 35.6855 9.94777 35.0249 9.94777Z" fill="#4FB3AC"/>
<path d="M64.3482 48.2689C63.607 48.2689 62.8847 48.4123 62.2148 48.6857C61.8166 48.0191 61.2285 47.4782 60.5258 47.1386V34.3802H62.3137C63.0688 34.3802 63.6809 33.7681 63.6809 33.013C63.6809 32.2579 63.0688 31.6458 62.3137 31.6458H60.5258V9.94772H61.1025C61.8576 9.94772 62.4697 9.33563 62.4697 8.58053V1.60596C62.4697 0.850859 61.8576 0.23877 61.1025 0.23877H8.89779C8.1427 0.23877 7.53061 0.850859 7.53061 1.60596V8.58053C7.53061 9.33563 8.1427 9.94772 8.89779 9.94772H9.47447V31.6458H7.68646C6.93137 31.6458 6.31928 32.2579 6.31928 33.013C6.31928 33.7681 6.93137 34.3802 7.68646 34.3802H9.47434V46.8971C8.68314 46.5929 7.83658 46.4332 6.97375 46.4332C3.1284 46.4333 0 49.5659 0 53.4166C0 55.3188 0.7525 57.0978 2.11887 58.4259C2.37398 58.6739 2.71592 58.8126 3.0718 58.8126H66.8021C67.0831 58.8126 67.3572 58.7261 67.5872 58.5648C69.0979 57.5052 70 55.7719 70 53.9281C70 50.8076 67.4646 48.2689 64.3482 48.2689ZM55.9524 47.9521C55.1065 47.509 54.1689 47.2553 53.2034 47.2148V43.0598H57.7913V46.8765C57.0883 47.0618 56.4529 47.4364 55.9524 47.9521ZM57.7913 31.6458H53.2034V18.6273H57.7913V31.6458ZM10.265 2.97314H59.7352V7.21334H41.1805C40.4254 7.21334 39.8133 7.82543 39.8133 8.58053C39.8133 9.33563 40.4254 9.94772 41.1805 9.94772H57.7911V15.8929H51.8361C51.081 15.8929 50.4689 16.505 50.4689 17.2601V31.6458H32.8171V17.2601C32.8171 16.505 32.2051 15.8929 31.45 15.8929H24.1277C23.3726 15.8929 22.7605 16.505 22.7605 17.2601V31.6458H12.2086V27.1874H19.0494C19.8045 27.1874 20.4166 26.5753 20.4166 25.8202V17.2603C20.4166 16.5052 19.8045 15.8931 19.0494 15.8931H12.2087V9.94785H28.8195C29.5746 9.94785 30.1867 9.33576 30.1867 8.58066C30.1867 7.82557 29.5746 7.21348 28.8195 7.21348H10.265V2.97314ZM30.0829 18.6273V31.6458H25.495V18.6273H30.0829ZM12.2087 24.453V18.6274H17.6824V24.453H12.2087ZM12.2087 43.0598H17.6824V47.8317C17.4571 47.8982 17.236 47.9778 17.0203 48.0702C16.2996 46.7931 14.9296 45.9289 13.3614 45.9289C12.9646 45.9289 12.5774 45.9849 12.2087 46.0901V43.0598ZM21.5863 56.0783H3.67158C3.064 55.3258 2.73438 54.398 2.73438 53.4166C2.73438 51.0737 4.63613 49.1675 6.97375 49.1675C8.00775 49.1675 9.00375 49.5448 9.77785 50.2298C10.1198 50.5325 10.5905 50.6444 11.0322 50.528C11.4738 50.4117 11.8284 50.0825 11.9768 49.6504C12.1799 49.0601 12.7363 48.6633 13.3614 48.6633C14.1684 48.6633 14.825 49.3198 14.825 50.1269C14.825 50.1447 14.8247 50.1624 14.824 50.1801C14.8042 50.7349 15.1219 51.2465 15.6279 51.4748C16.134 51.7031 16.7278 51.6028 17.1307 51.2211C17.744 50.64 18.5467 50.3199 19.391 50.3199C21.2063 50.3199 22.6833 51.8005 22.6833 53.6203C22.6833 54.5625 22.2793 55.4554 21.5863 56.0783ZM30.0829 56.0783H25.495V43.0598H30.0829V56.0783ZM48.125 49.328V41.6927C48.125 40.9376 47.5129 40.3255 46.7578 40.3255H38.5498C37.7947 40.3255 37.1826 40.9376 37.1826 41.6927V50.2527C37.1826 51.0078 37.7947 51.6199 38.5498 51.6199H46.7578H46.7601C46.5314 52.2851 46.4071 52.9988 46.4071 53.7408C46.4071 54.5537 46.5542 55.3427 46.8357 56.0783H32.8173V41.6926C32.8173 40.9375 32.2052 40.3254 31.4501 40.3254H24.1279C23.3728 40.3254 22.7607 40.9375 22.7607 41.6926V48.6194C22.0679 48.1499 21.2729 47.8209 20.4168 47.6732V41.6926C20.4168 40.9375 19.8047 40.3254 19.0496 40.3254H12.2087V34.3802H57.7911V40.3254H51.8361C51.081 40.3254 50.4689 40.9375 50.4689 41.6926V47.6917C49.5705 48.0596 48.7715 48.6227 48.125 49.328ZM45.3906 43.0598V48.8854H39.917V43.0598H45.3906ZM66.3243 56.0783H49.9464C49.4242 55.4131 49.1415 54.5999 49.1415 53.7408C49.1415 51.6469 50.8409 49.9436 52.9298 49.9436C53.8539 49.9436 54.7437 50.2807 55.4354 50.8928C55.7774 51.1954 56.2479 51.3075 56.6897 51.191C57.1315 51.0746 57.4859 50.7454 57.6343 50.3135C57.8058 49.8149 58.2757 49.4799 58.8036 49.4799C59.485 49.4799 60.0395 50.0343 60.0395 50.7159C60.0395 50.7305 60.0392 50.7451 60.0387 50.7596C60.0184 51.3147 60.3359 51.8267 60.8419 52.0555C61.348 52.2843 61.9421 52.184 62.3453 51.802C62.8887 51.287 63.6001 51.0034 64.348 51.0034C65.9568 51.0034 67.2655 52.3155 67.2655 53.9282C67.2656 54.7489 66.9196 55.5277 66.3243 56.0783Z" fill="#4FB3AC"/>
<path d="M46.7579 27.1874H38.5498C37.7947 27.1874 37.1826 26.5753 37.1826 25.8202V17.2603C37.1826 16.5052 37.7947 15.8931 38.5498 15.8931H46.7579C47.513 15.8931 48.125 16.5052 48.125 17.2603V25.8202C48.125 26.5752 47.513 27.1874 46.7579 27.1874ZM39.9171 24.453H45.3907V18.6274H39.917V24.453H39.9171Z" fill="#4FB3AC"/>
</svg>
