<svg width="40" height="41" viewBox="0 0 40 41" fill="none" xmlns="http://www.w3.org/2000/svg">
<g opacity="0.3" clip-path="url(#clip0)">
<path d="M23.6787 23.6979H16.3255C15.7102 23.6979 15.2114 24.1967 15.2114 24.812V39.2398C15.2114 39.8551 15.7102 40.3539 16.3255 40.3539H23.6787C24.294 40.3539 24.7928 39.8551 24.7928 39.2398V24.812C24.7928 24.1967 24.294 23.6979 23.6787 23.6979ZM22.5646 38.1257H17.4397V25.9261H22.5646V38.1257Z" fill="black"/>
<path d="M38.2733 14.9524H30.8644C30.249 14.9524 29.7502 15.4512 29.7502 16.0665V39.2402C29.7502 39.8555 30.249 40.3543 30.8644 40.3543H38.2733C38.8886 40.3543 39.3874 39.8555 39.3874 39.2402V16.0665C39.3874 15.4513 38.8886 14.9524 38.2733 14.9524ZM37.1592 38.1261H31.9785V17.1806H37.1592V38.1261Z" fill="black"/>
<path d="M9.13924 29.1016H1.73033C1.115 29.1016 0.616211 29.6004 0.616211 30.2157V39.2401C0.616211 39.8554 1.115 40.3542 1.73033 40.3542H9.13924C9.75457 40.3542 10.2534 39.8554 10.2534 39.2401V30.2157C10.2534 29.6005 9.75457 29.1016 9.13924 29.1016ZM8.02512 38.1259H2.84445V31.3298H8.02512V38.1259Z" fill="black"/>
<path d="M39.4991 1.47143C39.3297 1.23792 39.0631 1.0944 38.7749 1.0815L28.6364 0.357309C28.0211 0.311141 27.4849 0.772612 27.4387 1.38784C27.3925 2.00317 27.8539 2.53938 28.4692 2.58555L35.6447 3.07282L22.453 13.3926L12.3703 5.48233C11.9398 5.14134 11.3251 5.16501 10.9219 5.53798L0.560675 15.4535C0.120209 15.8714 0.0954717 16.5651 0.505017 17.0133C0.703765 17.2713 1.01532 17.4167 1.34063 17.4033C1.63449 17.3991 1.91481 17.2789 2.12049 17.069L11.7576 7.82178L21.729 15.6763C22.1359 16.0021 22.7146 16.0021 23.1216 15.6763L37.3825 4.579L36.8252 11.4985C36.8224 12.1035 37.2814 12.6107 37.8837 12.6683H37.9393C38.5136 12.6712 38.996 12.237 39.0534 11.6656L39.7776 2.25128C39.8185 1.96137 39.7144 1.66986 39.4991 1.47143Z" fill="black"/>
</g>
<defs>
<clipPath id="clip0">
<rect width="40" height="40" fill="white" transform="translate(0 0.354004)"/>
</clipPath>
</defs>
</svg>
