<svg width="40" height="40" viewBox="0 0 40 40" fill="none" xmlns="http://www.w3.org/2000/svg">
<path d="M34.1406 10.0781H33.0469V5.85938C33.0469 2.62852 30.4184 0 27.1875 0H12.8125C9.58164 0 6.95312 2.62852 6.95312 5.85938V10.0781H5.85938C2.62852 10.0781 0 12.7066 0 15.9375V25.3125C0 28.5434 2.62852 31.1719 5.85938 31.1719H6.95312V36.4844C6.95312 38.4229 8.53023 40 10.4688 40H29.5312C31.4698 40 33.0469 38.4229 33.0469 36.4844V31.1719H34.1406C37.3715 31.1719 40 28.5434 40 25.3125V15.9375C40 12.7066 37.3715 10.0781 34.1406 10.0781ZM9.29688 5.85938C9.29688 3.92086 10.874 2.34375 12.8125 2.34375H27.1875C29.126 2.34375 30.7031 3.92086 30.7031 5.85938V10.0781H9.29688V5.85938ZM30.7031 36.4844C30.7031 37.1305 30.1774 37.6562 29.5312 37.6562H10.4688C9.82258 37.6562 9.29688 37.1305 9.29688 36.4844V24.9219H30.7031V36.4844ZM37.6562 25.3125C37.6562 27.251 36.0791 28.8281 34.1406 28.8281H33.0469V24.9219H33.75C34.3972 24.9219 34.9219 24.3972 34.9219 23.75C34.9219 23.1028 34.3972 22.5781 33.75 22.5781H6.25C5.60281 22.5781 5.07812 23.1028 5.07812 23.75C5.07812 24.3972 5.60281 24.9219 6.25 24.9219H6.95312V28.8281H5.85938C3.92086 28.8281 2.34375 27.251 2.34375 25.3125V15.9375C2.34375 13.999 3.92086 12.4219 5.85938 12.4219H34.1406C36.0791 12.4219 37.6562 13.999 37.6562 15.9375V25.3125Z" fill="#E87623"/>
<path d="M23.125 27.5781H16.875C16.2278 27.5781 15.7031 28.1028 15.7031 28.75C15.7031 29.3972 16.2278 29.9219 16.875 29.9219H23.125C23.7722 29.9219 24.2969 29.3972 24.2969 28.75C24.2969 28.1028 23.7722 27.5781 23.125 27.5781Z" fill="#E87623"/>
<path d="M23.125 32.5781H16.875C16.2278 32.5781 15.7031 33.1028 15.7031 33.75C15.7031 34.3972 16.2278 34.9219 16.875 34.9219H23.125C23.7722 34.9219 24.2969 34.3972 24.2969 33.75C24.2969 33.1028 23.7722 32.5781 23.125 32.5781Z" fill="#E87623"/>
<path d="M10 15.0781H6.25C5.60281 15.0781 5.07812 15.6028 5.07812 16.25C5.07812 16.8972 5.60281 17.4219 6.25 17.4219H10C10.6472 17.4219 11.1719 16.8972 11.1719 16.25C11.1719 15.6028 10.6472 15.0781 10 15.0781Z" fill="#E87623"/>
</svg>
