<svg width="10" height="6" viewBox="0 0 10 6" fill="none" xmlns="http://www.w3.org/2000/svg">
<path d="M0.114575 2.72349C0.114692 2.72338 0.11479 2.72324 0.114926 2.72312L2.15602 0.691874C2.30893 0.539706 2.55625 0.540272 2.70846 0.693202C2.86065 0.846112 2.86006 1.09344 2.70715 1.24562L1.33676 2.60937H9.60938C9.82512 2.60937 10 2.78426 10 3C10 3.21574 9.82512 3.39062 9.60938 3.39062H1.33678L2.70713 4.75437C2.86004 4.90656 2.86063 5.15388 2.70844 5.30679C2.55623 5.45974 2.30889 5.46027 2.156 5.30812L0.114907 3.27687C0.11479 3.27675 0.114692 3.27662 0.114555 3.2765C-0.0384331 3.12381 -0.0379448 2.87568 0.114575 2.72349Z" fill="black"/>
</svg>
