<svg width="31" height="30" viewBox="0 0 31 30" fill="none" xmlns="http://www.w3.org/2000/svg">
<rect x="0.5" width="30" height="30" rx="15" fill="#4FB3AC"/>
<path d="M18.8226 24.23C18.6639 24.23 18.5619 24.2187 18.5166 24.196C18.4712 24.1847 18.4146 24.145 18.3466 24.077L16.4086 22.105C16.2726 22.1277 16.1309 22.1447 15.9836 22.156C15.8476 22.1673 15.7002 22.173 15.5416 22.173C14.6122 22.173 13.7906 22.0087 13.0766 21.68C12.3739 21.3627 11.7789 20.915 11.2916 20.337C10.8156 19.7477 10.4529 19.045 10.2036 18.229C9.96557 17.4017 9.84657 16.4837 9.84657 15.475C9.84657 14.557 9.94857 13.707 10.1526 12.925C10.3679 12.143 10.7136 11.446 11.1896 10.834C11.6996 10.1653 12.3286 9.65533 13.0766 9.304C13.8246 8.95267 14.6462 8.777 15.5416 8.777C16.4936 8.777 17.3209 8.95833 18.0236 9.321C18.7376 9.67233 19.3552 10.1767 19.8766 10.834C20.3186 11.4007 20.6472 12.0467 20.8626 12.772C21.0892 13.4973 21.2139 14.2453 21.2366 15.016C21.2592 15.7753 21.1912 16.529 21.0326 17.277C20.8852 18.0137 20.6529 18.688 20.3356 19.3C20.2222 19.5267 20.0862 19.7477 19.9276 19.963C19.7689 20.1783 19.5989 20.3823 19.4176 20.575C19.2362 20.7563 19.0492 20.9207 18.8566 21.068C18.6639 21.2267 18.4826 21.3457 18.3126 21.425L20.7096 23.822C20.8569 23.9807 20.9079 24.0883 20.8626 24.145C20.8172 24.2017 20.7152 24.23 20.5566 24.23H18.8226ZM18.3296 12.126C18.0009 11.6273 17.6042 11.2477 17.1396 10.987C16.6749 10.7263 16.1422 10.596 15.5416 10.596C14.8729 10.596 14.3006 10.7433 13.8246 11.038C13.3599 11.3213 12.9802 11.701 12.6856 12.177C12.3909 12.6417 12.1699 13.163 12.0226 13.741C11.8866 14.319 11.8186 14.897 11.8186 15.475C11.8186 16.0757 11.8866 16.665 12.0226 17.243C12.1699 17.821 12.3966 18.3423 12.7026 18.807C13.0086 19.2603 13.3996 19.6287 13.8756 19.912C14.3516 20.1953 14.9182 20.337 15.5756 20.337C16.1536 20.337 16.6692 20.2123 17.1226 19.963C17.5759 19.7137 17.9556 19.3737 18.2616 18.943C18.5789 18.501 18.8226 17.9853 18.9926 17.396C19.1626 16.7953 19.2476 16.155 19.2476 15.475C19.2476 14.863 19.1682 14.268 19.0096 13.69C18.8622 13.112 18.6356 12.5907 18.3296 12.126Z" fill="white"/>
</svg>
