<svg width="10" height="5" viewBox="0 0 10 5" fill="none" xmlns="http://www.w3.org/2000/svg">
<path d="M9.88542 2.14537C9.88531 2.14525 9.88521 2.14511 9.88507 2.145L7.84398 0.113749C7.69107 -0.0384192 7.44375 -0.0378529 7.29154 0.115077C7.13935 0.267987 7.13994 0.515311 7.29285 0.667498L8.66324 2.03125H0.390625C0.174883 2.03125 0 2.20613 0 2.42187C0 2.63761 0.174883 2.8125 0.390625 2.8125H8.66322L7.29287 4.17625C7.13996 4.32843 7.13937 4.57576 7.29156 4.72867C7.44377 4.88162 7.69111 4.88214 7.844 4.73L9.88509 2.69875C9.88521 2.69863 9.88531 2.69849 9.88544 2.69838C10.0384 2.54568 10.0379 2.29756 9.88542 2.14537Z" fill="white"/>
</svg>
