<svg xmlns="http://www.w3.org/2000/svg" xmlns:xlink="http://www.w3.org/1999/xlink" width="50" height="50" viewBox="0 0 50 50">
  <defs>
    <clipPath id="clip-path">
      <rect id="Rectangle_27" data-name="Rectangle 27" width="50" height="50" transform="translate(0.391 0.391)" fill="#a9d046" stroke="#707070" stroke-width="1" opacity="0.8"/>
    </clipPath>
  </defs>
  <g id="Mask_Group_4" data-name="Mask Group 4" transform="translate(-0.391 -0.391)" clip-path="url(#clip-path)">
    <g id="time_4_" data-name="time (4)" transform="translate(0.019 0)">
      <g id="LINE_170_" transform="translate(23.412 22.438)">
        <g id="Group_1046" data-name="Group 1046">
          <path id="Path_198" data-name="Path 198" d="M54.99,48.563H48.148a1.955,1.955,0,0,1,0-3.91H54.99a1.955,1.955,0,1,1,0,3.91Z" transform="translate(-46.193 -44.653)" fill="#a9d046"/>
        </g>
      </g>
      <g id="LINE_171_" transform="translate(23.412 15.596)">
        <g id="Group_1047" data-name="Group 1047">
          <path id="Path_199" data-name="Path 199" d="M48.148,44.626a1.956,1.956,0,0,1-1.955-1.955V35.83a1.955,1.955,0,0,1,3.91,0v6.842A1.956,1.956,0,0,1,48.148,44.626Z" transform="translate(-46.193 -33.875)" fill="#a9d046"/>
        </g>
      </g>
      <g id="LINE_172_" transform="translate(33.409 40.363)">
        <g id="Group_1048" data-name="Group 1048">
          <path id="Path_200" data-name="Path 200" d="M68.237,83.311a1.953,1.953,0,0,1-1.628-.871L62.27,75.932a1.955,1.955,0,1,1,3.253-2.168l4.339,6.509a1.955,1.955,0,0,1-1.624,3.039Z" transform="translate(-61.941 -72.892)" fill="#a9d046"/>
        </g>
      </g>
      <g id="LINE_173_" transform="translate(9.076 40.365)">
        <g id="Group_1049" data-name="Group 1049">
          <path id="Path_201" data-name="Path 201" d="M25.562,83.312a1.955,1.955,0,0,1-1.624-3.039l4.339-6.509a1.955,1.955,0,1,1,3.253,2.168l-4.339,6.509a1.95,1.95,0,0,1-1.628.871Z" transform="translate(-23.61 -72.894)" fill="#a9d046"/>
        </g>
      </g>
      <g id="ARC_111_" transform="translate(32.254 0.008)">
        <g id="Group_1050" data-name="Group 1050">
          <path id="Path_202" data-name="Path 202" d="M72.292,28.03a1.955,1.955,0,0,1-.855-3.713,5.847,5.847,0,1,0-7.661-8.171,1.955,1.955,0,0,1-3.4-1.932,9.758,9.758,0,1,1,12.77,13.62A1.979,1.979,0,0,1,72.292,28.03Z" transform="translate(-60.122 -9.318)" fill="#a9d046"/>
        </g>
      </g>
      <g id="ARC_112_" transform="translate(0 0)">
        <g id="Group_1051" data-name="Group 1051">
          <path id="Path_203" data-name="Path 203" d="M15.62,28.026a1.949,1.949,0,0,1-.853-.2A9.742,9.742,0,0,1,20.313,9.4a9.674,9.674,0,0,1,7.223,4.813,1.955,1.955,0,1,1-3.4,1.932,5.848,5.848,0,1,0-7.662,8.172,1.955,1.955,0,0,1-.855,3.713Z" transform="translate(-9.311 -9.306)" fill="#a9d046"/>
        </g>
      </g>
      <g id="CIRCLE_15_" transform="translate(10.707 9.743)">
        <g id="Group_1052" data-name="Group 1052">
          <path id="Path_204" data-name="Path 204" d="M40.864,53.95h0a14.614,14.614,0,1,1,6.686-1.609A14.779,14.779,0,0,1,40.864,53.95Zm-.038-25.384a10.72,10.72,0,1,0,5.683,1.6A10.758,10.758,0,0,0,40.826,28.565Z" transform="translate(-26.178 -24.655)" fill="#a9d046"/>
        </g>
      </g>
      <g id="CIRCLE_16_" transform="translate(2.918 1.931)">
        <g id="Group_1053" data-name="Group 1053">
          <path id="Path_205" data-name="Path 205" d="M36.472,57.267A22.458,22.458,0,0,1,17.954,21.895a22.626,22.626,0,0,1,18.518-9.547A22.1,22.1,0,0,1,43.246,13.4a22.488,22.488,0,0,1,1.073,42.433A22.064,22.064,0,0,1,36.472,57.267Zm0-41.01A18.553,18.553,0,0,0,21.7,46.217a18.824,18.824,0,0,0,14.77,7.14h0a18.167,18.167,0,0,0,6.462-1.175,18.579,18.579,0,0,0-.886-35.056,18.2,18.2,0,0,0-5.576-.869Z" transform="translate(-13.908 -12.347)" fill="#a9d046"/>
        </g>
      </g>
      <g id="LINE_174_" transform="translate(33.048 46.873)">
        <g id="Group_1054" data-name="Group 1054">
          <path id="Path_206" data-name="Path 206" d="M72.726,87.057h-9.4a1.955,1.955,0,0,1,0-3.91h9.4a1.955,1.955,0,0,1,0,3.91Z" transform="translate(-61.373 -83.147)" fill="#a9d046"/>
        </g>
      </g>
      <g id="LINE_175_" transform="translate(4.378 46.873)">
        <g id="Group_1055" data-name="Group 1055">
          <path id="Path_207" data-name="Path 207" d="M27.56,87.057h-9.4a1.955,1.955,0,1,1,0-3.91h9.4a1.955,1.955,0,0,1,0,3.91Z" transform="translate(-16.208 -83.147)" fill="#a9d046"/>
        </g>
      </g>
    </g>
  </g>
</svg>
