<svg xmlns="http://www.w3.org/2000/svg" xmlns:xlink="http://www.w3.org/1999/xlink" width="40" height="40" viewBox="0 0 40 40">
  <defs>
    <clipPath id="clip-path">
      <rect id="Rectangle_103" data-name="Rectangle 103" width="40" height="40" transform="translate(943 842)" fill="#fff" stroke="#707070" stroke-width="1"/>
    </clipPath>
  </defs>
  <g id="Mask_Group_14" data-name="Mask Group 14" transform="translate(-943 -842)" clip-path="url(#clip-path)">
    <g id="mac-os-logo" transform="translate(943 842)">
      <g id="Group_1804" data-name="Group 1804">
        <path id="Path_480" data-name="Path 480" d="M30.918,21.252a9.046,9.046,0,0,1,4.318-7.616,9.336,9.336,0,0,0-7.315-3.959c-3.11-.319-6.075,1.832-7.657,1.832s-4.017-1.788-6.6-1.742a9.8,9.8,0,0,0-8.274,5.014c-3.527,6.121-.9,15.186,2.533,20.157C9.6,37.366,11.61,40.093,14.239,40c2.533-.1,3.489-1.64,6.553-1.64s3.924,1.64,6.6,1.591c2.727-.052,4.452-2.478,6.118-4.912a22.259,22.259,0,0,0,2.774-5.689A8.851,8.851,0,0,1,30.918,21.252Z" fill="#fff"/>
        <path id="Path_481" data-name="Path 481" d="M25.881,6.388A8.813,8.813,0,0,0,27.961,0,8.954,8.954,0,0,0,22.07,3.029a8.384,8.384,0,0,0-2.121,6.188A7.416,7.416,0,0,0,25.881,6.388Z" fill="#fff"/>
      </g>
    </g>
  </g>
</svg>
