<svg xmlns="http://www.w3.org/2000/svg" xmlns:xlink="http://www.w3.org/1999/xlink" width="40" height="40" viewBox="0 0 40 40">
  <defs>
    <clipPath id="clip-path">
      <rect id="Rectangle_106" data-name="Rectangle 106" width="40" height="40" transform="translate(1408 842)" fill="#fff" stroke="#707070" stroke-width="1"/>
    </clipPath>
  </defs>
  <g id="Mask_Group_16" data-name="Mask Group 16" transform="translate(-1408 -842)" clip-path="url(#clip-path)">
    <g id="telegram_1_" data-name="telegram (1)" transform="translate(1408 842)">
      <g id="Group_1807" data-name="Group 1807">
        <g id="Group_1806" data-name="Group 1806">
          <path id="Path_483" data-name="Path 483" d="M39.217,3.277a2.417,2.417,0,0,0-2.387-.513L1.659,14.358a2.415,2.415,0,0,0-.212,4.505l7.063,3.09L29.3,10.413a1.175,1.175,0,0,1,1.419,1.839L17.759,25.807,15.1,35.413l6.381-4.778,7.546,6.175a2.4,2.4,0,0,0,1.524.548,2.429,2.429,0,0,0,.78-.129,2.4,2.4,0,0,0,1.575-1.734L39.936,5.61A2.417,2.417,0,0,0,39.217,3.277Z" fill="#fff"/>
        </g>
      </g>
      <g id="Group_1809" data-name="Group 1809">
        <g id="Group_1808" data-name="Group 1808">
          <path id="Path_484" data-name="Path 484" d="M10.35,23.619l2.442,11.328L15.574,24.9a1.174,1.174,0,0,1,.283-.5l7.815-8.171Z" fill="#fff"/>
        </g>
      </g>
    </g>
  </g>
</svg>
