<svg width="249" height="157" viewBox="0 0 249 157" fill="none" xmlns="http://www.w3.org/2000/svg">
<g clip-path="url(#clip0)">
<path opacity="0.7" d="M47.0592 63.4898C47.0592 62.7894 47.2656 62.1046 47.6524 61.5222C48.0392 60.9398 48.589 60.4858 49.2322 60.2178C49.8754 59.9497 50.5832 59.8796 51.266 60.0162C51.9489 60.1529 52.5761 60.4902 53.0684 60.9855C53.5607 61.4808 53.8959 62.1119 54.0318 62.7989C54.1676 63.4859 54.0978 64.198 53.8314 64.8451C53.565 65.4923 53.1138 66.0454 52.535 66.4345C51.9561 66.8237 51.2755 67.0314 50.5793 67.0314C50.1168 67.032 49.6588 66.9408 49.2315 66.763C48.8041 66.5852 48.4158 66.3244 48.0888 65.9954C47.7618 65.6664 47.5026 65.2757 47.3259 64.8458C47.1492 64.4158 47.0586 63.9551 47.0592 63.4898ZM18.0951 67.0314C18.7913 67.0314 19.4719 66.8237 20.0508 66.4345C20.6297 66.0454 21.0809 65.4923 21.3473 64.8451C21.6137 64.198 21.6834 63.4859 21.5476 62.7989C21.4118 62.1119 21.0765 61.4808 20.5842 60.9855C20.0919 60.4902 19.4647 60.1529 18.7819 60.0162C18.099 59.8796 17.3913 59.9497 16.7481 60.2178C16.1048 60.4858 15.555 60.9398 15.1682 61.5222C14.7814 62.1046 14.575 62.7894 14.575 63.4898C14.5756 63.9543 14.6671 64.4141 14.8444 64.843C15.0216 65.2719 15.281 65.6614 15.6079 65.9894C15.9348 66.3175 16.3227 66.5775 16.7495 66.7547C17.1762 66.9319 17.6335 67.0228 18.0951 67.0222L18.0951 67.0314ZM-14.389 67.0314C-13.6928 67.0314 -13.0122 66.8237 -12.4334 66.4345C-11.8545 66.0454 -11.4033 65.4923 -11.1368 64.8451C-10.8704 64.198 -10.8008 63.4859 -10.9366 62.7989C-11.0724 62.1119 -11.4077 61.4808 -11.8999 60.9855C-12.3922 60.4902 -13.0194 60.1529 -13.7023 60.0162C-14.3851 59.8796 -15.0929 59.9497 -15.7361 60.2178C-16.3793 60.4858 -16.9291 60.9398 -17.3159 61.5222C-17.7026 62.1046 -17.9092 62.7894 -17.9092 63.4898C-17.9085 63.9547 -17.8169 64.4149 -17.6393 64.8441C-17.4618 65.2733 -17.2019 65.6631 -16.8746 65.9911C-16.5472 66.3192 -16.1588 66.5791 -15.7315 66.756C-15.3042 66.9329 -14.8465 67.0234 -14.3844 67.0222L-14.389 67.0314ZM-46.8732 67.0314C-46.1769 67.0314 -45.4964 66.8237 -44.9175 66.4345C-44.3386 66.0454 -43.8874 65.4923 -43.621 64.8451C-43.3546 64.198 -43.2848 63.4859 -43.4207 62.7989C-43.5565 62.1119 -43.8918 61.4808 -44.384 60.9855C-44.8763 60.4902 -45.5036 60.1529 -46.1864 60.0162C-46.8693 59.8796 -47.577 59.9497 -48.2202 60.2178C-48.8635 60.4858 -49.4132 60.9398 -49.8 61.5222C-50.1868 62.1046 -50.3933 62.7894 -50.3933 63.4898C-50.3926 63.9543 -50.3011 64.4141 -50.1239 64.843C-49.9467 65.2719 -49.6872 65.6614 -49.3603 65.9894C-49.0335 66.3175 -48.6456 66.5775 -48.2188 66.7547C-47.7921 66.9319 -47.3348 67.0228 -46.8732 67.0222L-46.8732 67.0314ZM50.5793 97.036C51.2755 97.036 51.9561 96.8282 52.535 96.4391C53.1138 96.0499 53.565 95.4968 53.8314 94.8497C54.0978 94.2025 54.1676 93.4905 54.0317 92.8035C53.8959 92.1165 53.5607 91.4854 53.0684 90.9901C52.5761 90.4948 51.9489 90.1574 51.266 90.0208C50.5832 89.8841 49.8754 89.9543 49.2322 90.2224C48.589 90.4904 48.0392 90.9444 47.6524 91.5268C47.2656 92.1092 47.0592 92.7939 47.0592 93.4944C47.0592 94.4337 47.43 95.3345 48.0902 95.9986C48.7503 96.6628 49.6457 97.036 50.5793 97.036ZM18.0951 97.036C18.7913 97.036 19.4719 96.8282 20.0508 96.4391C20.6297 96.0499 21.0809 95.4968 21.3473 94.8497C21.6137 94.2025 21.6834 93.4905 21.5476 92.8035C21.4118 92.1165 21.0765 91.4854 20.5842 90.9901C20.0919 90.4948 19.4647 90.1574 18.7819 90.0208C18.099 89.8841 17.3913 89.9543 16.7481 90.2224C16.1048 90.4904 15.555 90.9444 15.1682 91.5268C14.7814 92.1092 14.575 92.7939 14.575 93.4944C14.5744 93.9597 14.6651 94.4205 14.8417 94.8505C15.0184 95.2804 15.2777 95.671 15.6047 96C15.9317 96.329 16.32 96.5899 16.7473 96.7677C17.1747 96.9455 17.6327 97.0366 18.0951 97.036ZM-14.389 97.036C-13.6928 97.036 -13.0122 96.8282 -12.4334 96.4391C-11.8545 96.0499 -11.4033 95.4968 -11.1368 94.8497C-10.8704 94.2025 -10.8008 93.4905 -10.9366 92.8035C-11.0724 92.1165 -11.4077 91.4854 -11.8999 90.9901C-12.3922 90.4948 -13.0194 90.1574 -13.7023 90.0208C-14.3851 89.8841 -15.0929 89.9543 -15.7361 90.2224C-16.3793 90.4904 -16.9291 90.9444 -17.3159 91.5268C-17.7026 92.1092 -17.9092 92.7939 -17.9092 93.4944C-17.9098 93.9601 -17.8189 94.4212 -17.642 94.8515C-17.465 95.2817 -17.2053 95.6726 -16.8778 96.0017C-16.5503 96.3307 -16.1615 96.5914 -15.7336 96.7689C-15.3058 96.9464 -14.8473 97.0372 -14.3844 97.036L-14.389 97.036ZM-46.8732 97.036C-46.1769 97.036 -45.4964 96.8282 -44.9175 96.4391C-44.3386 96.0499 -43.8874 95.4968 -43.621 94.8497C-43.3546 94.2025 -43.2848 93.4905 -43.4207 92.8035C-43.5565 92.1165 -43.8918 91.4854 -44.384 90.9901C-44.8763 90.4948 -45.5036 90.1574 -46.1864 90.0208C-46.8693 89.8841 -47.577 89.9543 -48.2202 90.2224C-48.8635 90.4904 -49.4132 90.9444 -49.8 91.5268C-50.1868 92.1092 -50.3933 92.7939 -50.3933 93.4944C-50.3938 93.9597 -50.3032 94.4205 -50.1265 94.8505C-49.9498 95.2804 -49.6906 95.671 -49.3636 96C-49.0366 96.329 -48.6483 96.5899 -48.2209 96.7677C-47.7936 96.9455 -47.3356 97.0366 -46.8732 97.036ZM50.5793 127.05C51.2755 127.05 51.9561 126.842 52.535 126.453C53.1138 126.064 53.565 125.511 53.8314 124.863C54.0978 124.216 54.1676 123.504 54.0317 122.817C53.8959 122.13 53.5607 121.499 53.0684 121.004C52.5761 120.509 51.9489 120.171 51.266 120.035C50.5832 119.898 49.8754 119.968 49.2322 120.236C48.589 120.504 48.0392 120.958 47.6524 121.541C47.2656 122.123 47.0592 122.808 47.0592 123.508C47.0688 124.441 47.4439 125.332 48.1031 125.989C48.7622 126.645 49.652 127.013 50.5793 127.013L50.5793 127.05ZM18.0951 127.05C18.7913 127.05 19.4719 126.842 20.0508 126.453C20.6297 126.064 21.0809 125.511 21.3473 124.863C21.6137 124.216 21.6834 123.504 21.5476 122.817C21.4118 122.13 21.0765 121.499 20.5842 121.004C20.0919 120.509 19.4647 120.171 18.7819 120.035C18.099 119.898 17.3913 119.968 16.7481 120.236C16.1048 120.504 15.555 120.958 15.1682 121.541C14.7814 122.123 14.575 122.808 14.575 123.508C14.5847 124.441 14.9598 125.332 15.619 125.989C16.2781 126.645 17.1679 127.013 18.0951 127.013L18.0951 127.05ZM-14.389 127.05C-13.6928 127.05 -13.0122 126.842 -12.4334 126.453C-11.8545 126.064 -11.4033 125.511 -11.1368 124.863C-10.8704 124.216 -10.8008 123.504 -10.9366 122.817C-11.0724 122.13 -11.4077 121.499 -11.8999 121.004C-12.3922 120.509 -13.0194 120.171 -13.7023 120.035C-14.3851 119.898 -15.0929 119.968 -15.7361 120.236C-16.3793 120.504 -16.9291 120.958 -17.3159 121.541C-17.7026 122.123 -17.9092 122.808 -17.9092 123.508C-17.8995 124.442 -17.5237 125.334 -16.8636 125.99C-16.2035 126.647 -15.3125 127.014 -14.3844 127.013L-14.389 127.05ZM-46.8732 127.05C-46.1769 127.05 -45.4964 126.842 -44.9175 126.453C-44.3386 126.064 -43.8874 125.511 -43.621 124.863C-43.3546 124.216 -43.2848 123.504 -43.4207 122.817C-43.5565 122.13 -43.8918 121.499 -44.384 121.004C-44.8763 120.509 -45.5036 120.171 -46.1864 120.035C-46.8693 119.898 -47.577 119.968 -48.2203 120.236C-48.8635 120.504 -49.4132 120.958 -49.8 121.541C-50.1868 122.123 -50.3933 122.808 -50.3933 123.508C-50.3836 124.441 -50.0085 125.332 -49.3494 125.989C-48.6903 126.645 -47.8005 127.013 -46.8732 127.013L-46.8732 127.05ZM50.5793 157.036C51.2755 157.036 51.9561 156.828 52.535 156.439C53.1138 156.05 53.565 155.497 53.8314 154.85C54.0978 154.202 54.1676 153.49 54.0317 152.803C53.8959 152.116 53.5607 151.485 53.0684 150.99C52.5761 150.495 51.9489 150.157 51.266 150.021C50.5832 149.884 49.8754 149.954 49.2322 150.222C48.589 150.49 48.0392 150.944 47.6524 151.527C47.2656 152.109 47.0592 152.794 47.0592 153.494C47.0676 154.428 47.4424 155.32 48.1018 155.976C48.7611 156.633 49.6517 157 50.5793 156.999L50.5793 157.036ZM18.0951 157.036C18.7913 157.036 19.4719 156.828 20.0508 156.439C20.6297 156.05 21.0809 155.497 21.3473 154.85C21.6137 154.202 21.6834 153.49 21.5476 152.803C21.4118 152.116 21.0765 151.485 20.5842 150.99C20.0919 150.495 19.4647 150.157 18.7819 150.021C18.099 149.884 17.3913 149.954 16.7481 150.222C16.1048 150.49 15.555 150.944 15.1682 151.527C14.7814 152.109 14.575 152.794 14.575 153.494C14.5835 154.428 14.9582 155.32 15.6176 155.976C16.277 156.633 17.1675 157 18.0951 156.999L18.0951 157.036ZM-14.389 157.036C-13.6928 157.036 -13.0122 156.828 -12.4334 156.439C-11.8545 156.05 -11.4033 155.497 -11.1368 154.85C-10.8704 154.202 -10.8008 153.49 -10.9366 152.803C-11.0724 152.116 -11.4077 151.485 -11.8999 150.99C-12.3922 150.495 -13.0194 150.157 -13.7023 150.021C-14.3851 149.884 -15.0929 149.954 -15.7361 150.222C-16.3793 150.49 -16.9291 150.944 -17.3159 151.527C-17.7026 152.109 -17.9092 152.794 -17.9092 153.494C-17.9007 154.428 -17.5253 155.321 -16.8649 155.978C-16.2046 156.634 -15.3128 157.002 -14.3844 156.999L-14.389 157.036ZM-46.8732 157.036C-46.1769 157.036 -45.4964 156.828 -44.9175 156.439C-44.3386 156.05 -43.8874 155.497 -43.621 154.85C-43.3546 154.202 -43.2848 153.49 -43.4207 152.803C-43.5565 152.116 -43.8918 151.485 -44.384 150.99C-44.8763 150.495 -45.5036 150.157 -46.1864 150.021C-46.8693 149.884 -47.577 149.954 -48.2203 150.222C-48.8635 150.49 -49.4132 150.944 -49.8 151.527C-50.1868 152.109 -50.3933 152.794 -50.3933 153.494C-50.3848 154.428 -50.01 155.32 -49.3507 155.976C-48.6913 156.633 -47.8008 157 -46.8732 156.999L-46.8732 157.036ZM148.032 67.0222C148.728 67.0222 149.408 66.8144 149.987 66.4253C150.566 66.0361 151.017 65.483 151.284 64.8359C151.55 64.1887 151.62 63.4767 151.484 62.7897C151.348 62.1027 151.013 61.4716 150.521 60.9763C150.028 60.4809 149.401 60.1436 148.718 60.007C148.036 59.8703 147.328 59.9405 146.685 60.2085C146.041 60.4766 145.492 60.9306 145.105 61.513C144.718 62.0954 144.512 62.7801 144.512 63.4806C144.512 64.4199 144.882 65.3207 145.543 65.9848C146.203 66.649 147.098 67.0222 148.032 67.0222ZM115.548 67.0222C116.244 67.0222 116.924 66.8144 117.503 66.4253C118.082 66.0361 118.533 65.483 118.8 64.8359C119.066 64.1887 119.136 63.4767 119 62.7897C118.864 62.1027 118.529 61.4716 118.037 60.9763C117.544 60.4809 116.917 60.1436 116.234 60.007C115.551 59.8703 114.844 59.9405 114.2 60.2085C113.557 60.4766 113.007 60.9306 112.621 61.513C112.234 62.0954 112.027 62.7801 112.027 63.4806C112.027 64.4199 112.398 65.3206 113.058 65.9848C113.719 66.649 114.614 67.0222 115.548 67.0222ZM83.0634 67.0222C83.7596 67.0222 84.4402 66.8144 85.0191 66.4253C85.5979 66.0361 86.0491 65.483 86.3155 64.8359C86.582 64.1887 86.6517 63.4767 86.5159 62.7897C86.3801 62.1027 86.0448 61.4716 85.5525 60.9763C85.0602 60.4809 84.433 60.1436 83.7501 60.007C83.0673 59.8703 82.3595 59.9405 81.7163 60.2085C81.0731 60.4766 80.5233 60.9306 80.1365 61.513C79.7498 62.0954 79.5433 62.7801 79.5433 63.4806C79.5427 63.9459 79.6334 64.4067 79.81 64.8367C79.9867 65.2666 80.246 65.6572 80.573 65.9862C80.9 66.3152 81.2883 66.5761 81.7156 66.7539C82.143 66.9317 82.6009 67.0228 83.0634 67.0222ZM148.032 97.036C148.728 97.036 149.408 96.8283 149.987 96.4391C150.566 96.0499 151.017 95.4968 151.284 94.8497C151.55 94.2025 151.62 93.4905 151.484 92.8035C151.348 92.1165 151.013 91.4854 150.521 90.9901C150.028 90.4948 149.401 90.1575 148.718 90.0208C148.036 89.8841 147.328 89.9543 146.685 90.2224C146.041 90.4904 145.492 90.9444 145.105 91.5268C144.718 92.1092 144.512 92.7939 144.512 93.4944C144.512 94.4337 144.882 95.3345 145.543 95.9986C146.203 96.6628 147.098 97.036 148.032 97.036ZM115.548 97.036C116.244 97.036 116.924 96.8282 117.503 96.4391C118.082 96.0499 118.533 95.4968 118.8 94.8497C119.066 94.2025 119.136 93.4905 119 92.8035C118.864 92.1165 118.529 91.4854 118.037 90.9901C117.544 90.4948 116.917 90.1574 116.234 90.0208C115.551 89.8841 114.844 89.9543 114.2 90.2224C113.557 90.4904 113.007 90.9444 112.621 91.5268C112.234 92.1092 112.027 92.7939 112.027 93.4944C112.027 94.4337 112.398 95.3345 113.058 95.9986C113.719 96.6628 114.614 97.036 115.548 97.036ZM83.0634 97.036C83.7596 97.036 84.4402 96.8282 85.0191 96.4391C85.5979 96.0499 86.0491 95.4968 86.3155 94.8497C86.582 94.2025 86.6517 93.4905 86.5159 92.8035C86.3801 92.1165 86.0448 91.4854 85.5525 90.9901C85.0602 90.4948 84.4329 90.1574 83.7501 90.0208C83.0673 89.8841 82.3595 89.9543 81.7163 90.2224C81.0731 90.4904 80.5233 90.9444 80.1365 91.5268C79.7498 92.1092 79.5433 92.7939 79.5433 93.4944C79.5427 93.9597 79.6334 94.4205 79.81 94.8505C79.9867 95.2804 80.246 95.671 80.573 96C80.9 96.329 81.2883 96.5899 81.7156 96.7677C82.143 96.9455 82.6009 97.0366 83.0634 97.036ZM148.032 127.05C148.728 127.05 149.408 126.842 149.987 126.453C150.566 126.064 151.017 125.511 151.284 124.863C151.55 124.216 151.62 123.504 151.484 122.817C151.348 122.13 151.013 121.499 150.521 121.004C150.028 120.509 149.401 120.171 148.718 120.035C148.036 119.898 147.328 119.968 146.685 120.236C146.041 120.504 145.492 120.958 145.105 121.541C144.718 122.123 144.512 122.808 144.512 123.508C144.522 124.441 144.898 125.331 145.557 125.987C146.216 126.643 147.105 127.012 148.032 127.013L148.032 127.05ZM50.5793 7.11462C51.2755 7.11462 51.9561 6.90687 52.535 6.51771C53.1138 6.12855 53.565 5.57544 53.8314 4.9283C54.0978 4.28115 54.1676 3.5691 54.0318 2.88209C53.8959 2.19508 53.5607 1.56399 53.0684 1.06868C52.5761 0.573378 51.9489 0.236067 51.266 0.0994122C50.5832 -0.0372424 49.8754 0.0329197 49.2322 0.300977C48.589 0.569035 48.0392 1.02298 47.6524 1.6054C47.2656 2.18782 47.0592 2.87256 47.0592 3.57303C47.0688 4.50591 47.444 5.39726 48.1031 6.05347C48.7622 6.70969 49.652 7.0777 50.5793 7.07765L50.5793 7.11462ZM18.0951 7.11462C18.7914 7.11462 19.4719 6.90686 20.0508 6.5177C20.6297 6.12855 21.0809 5.57544 21.3473 4.92829C21.6137 4.28115 21.6834 3.5691 21.5476 2.88209C21.4118 2.19508 21.0765 1.56399 20.5842 1.06868C20.0919 0.573376 19.4647 0.236065 18.7819 0.0994108C18.099 -0.0372439 17.3913 0.0329182 16.7481 0.300976C16.1048 0.569033 15.555 1.02298 15.1682 1.6054C14.7814 2.18782 14.575 2.87256 14.575 3.57303C14.5835 4.50629 14.9583 5.39835 15.6176 6.05483C16.277 6.7113 17.1675 7.0789 18.0951 7.07765L18.0951 7.11462ZM-14.389 7.11462C-13.6928 7.11462 -13.0122 6.90686 -12.4333 6.5177C-11.8545 6.12854 -11.4033 5.57544 -11.1368 4.92829C-10.8704 4.28114 -10.8008 3.5691 -10.9366 2.88209C-11.0724 2.19508 -11.4077 1.56399 -11.8999 1.06868C-12.3922 0.573375 -13.0194 0.236064 -13.7023 0.0994093C-14.3851 -0.0372453 -15.0929 0.0329168 -15.7361 0.300974C-16.3793 0.569032 -16.9291 1.02298 -17.3159 1.6054C-17.7026 2.18782 -17.9091 2.87256 -17.9091 3.57303C-17.9007 4.50709 -17.5253 5.3998 -16.8649 6.0564C-16.2046 6.71301 -15.3128 7.08012 -14.3844 7.07764L-14.389 7.11462ZM-46.8732 7.11462C-46.1769 7.11462 -45.4964 6.90686 -44.9175 6.5177C-44.3386 6.12854 -43.8874 5.57544 -43.621 4.92829C-43.3546 4.28114 -43.2848 3.5691 -43.4207 2.88209C-43.5565 2.19508 -43.8918 1.56399 -44.384 1.06868C-44.8763 0.573373 -45.5036 0.236063 -46.1864 0.0994079C-46.8693 -0.0372467 -47.577 0.0329154 -48.2202 0.300973C-48.8635 0.569031 -49.4132 1.02298 -49.8 1.6054C-50.1868 2.18781 -50.3932 2.87256 -50.3932 3.57302C-50.3848 4.50629 -50.01 5.39835 -49.3506 6.05482C-48.6913 6.7113 -47.8008 7.0789 -46.8732 7.07764L-46.8732 7.11462ZM50.5793 37.1284C51.2755 37.1284 51.9561 36.9207 52.535 36.5315C53.1138 36.1424 53.565 35.5893 53.8314 34.9421C54.0978 34.295 54.1676 33.5829 54.0318 32.8959C53.8959 32.2089 53.5607 31.5778 53.0684 31.0825C52.5761 30.5872 51.9489 30.2499 51.266 30.1132C50.5832 29.9766 49.8754 30.0467 49.2322 30.3148C48.589 30.5828 48.0392 31.0368 47.6524 31.6192C47.2656 32.2016 47.0592 32.8864 47.0592 33.5868C47.0748 34.5157 47.4526 35.4011 48.1111 36.0524C48.7695 36.7037 49.6559 37.0685 50.5793 37.0684L50.5793 37.1284ZM18.0951 37.1284C18.7913 37.1284 19.4719 36.9207 20.0508 36.5315C20.6297 36.1424 21.0809 35.5893 21.3473 34.9421C21.6137 34.295 21.6834 33.5829 21.5476 32.8959C21.4118 32.2089 21.0765 31.5778 20.5842 31.0825C20.0919 30.5872 19.4647 30.2499 18.7819 30.1132C18.099 29.9766 17.3913 30.0467 16.7481 30.3148C16.1048 30.5828 15.555 31.0368 15.1682 31.6192C14.7814 32.2016 14.575 32.8864 14.575 33.5868C14.5895 34.5161 14.9669 35.4022 15.6256 36.0538C16.2843 36.7053 17.1714 37.0697 18.0951 37.0683L18.0951 37.1284ZM-14.389 37.1284C-13.6928 37.1284 -13.0122 36.9207 -12.4334 36.5315C-11.8545 36.1424 -11.4033 35.5893 -11.1368 34.9421C-10.8704 34.295 -10.8008 33.5829 -10.9366 32.8959C-11.0724 32.2089 -11.4077 31.5778 -11.8999 31.0825C-12.3922 30.5872 -13.0194 30.2499 -13.7023 30.1132C-14.3851 29.9766 -15.0929 30.0467 -15.7361 30.3148C-16.3793 30.5828 -16.9291 31.0368 -17.3159 31.6192C-17.7026 32.2016 -17.9092 32.8864 -17.9092 33.5868C-17.8947 34.5169 -17.5166 35.4037 -16.8569 36.0553C-16.1972 36.707 -15.3089 37.0709 -14.3844 37.0683L-14.389 37.1284ZM-46.8732 37.1284C-46.1769 37.1284 -45.4964 36.9207 -44.9175 36.5315C-44.3386 36.1424 -43.8874 35.5893 -43.621 34.9421C-43.3546 34.295 -43.2848 33.5829 -43.4207 32.8959C-43.5565 32.2089 -43.8918 31.5778 -44.384 31.0825C-44.8763 30.5872 -45.5036 30.2499 -46.1864 30.1132C-46.8693 29.9766 -47.577 30.0467 -48.2202 30.3148C-48.8635 30.5828 -49.4132 31.0368 -49.8 31.6192C-50.1868 32.2016 -50.3933 32.8864 -50.3933 33.5868C-50.3788 34.5161 -50.0014 35.4022 -49.3427 36.0538C-48.684 36.7053 -47.7969 37.0697 -46.8732 37.0683L-46.8732 37.1284ZM148.032 7.11463C148.728 7.11463 149.408 6.90687 149.987 6.51771C150.566 6.12855 151.017 5.57545 151.284 4.9283C151.55 4.28115 151.62 3.56911 151.484 2.8821C151.348 2.19509 151.013 1.56399 150.521 1.06869C150.028 0.573382 149.401 0.236071 148.718 0.0994164C148.036 -0.0372382 147.328 0.0329239 146.685 0.300981C146.041 0.569039 145.492 1.02299 145.105 1.60541C144.718 2.18782 144.512 2.87256 144.512 3.57303C144.52 4.50629 144.895 5.39836 145.554 6.05483C146.214 6.71131 147.104 7.07891 148.032 7.07765L148.032 7.11463ZM115.548 7.11463C116.244 7.11463 116.924 6.90687 117.503 6.51771C118.082 6.12855 118.533 5.57545 118.8 4.9283C119.066 4.28115 119.136 3.56911 119 2.8821C118.864 2.19509 118.529 1.56399 118.037 1.06869C117.544 0.57338 116.917 0.23607 116.234 0.099415C115.551 -0.0372396 114.844 0.0329225 114.2 0.30098C113.557 0.569038 113.007 1.02299 112.621 1.6054C112.234 2.18782 112.027 2.87256 112.027 3.57303C112.037 4.50591 112.412 5.39726 113.071 6.05348C113.73 6.70969 114.62 7.0777 115.548 7.07765L115.548 7.11463ZM83.0634 7.11462C83.7596 7.11462 84.4402 6.90687 85.0191 6.51771C85.5979 6.12855 86.0491 5.57544 86.3156 4.9283C86.582 4.28115 86.6517 3.5691 86.5159 2.88209C86.3801 2.19509 86.0448 1.56399 85.5525 1.06868C85.0602 0.573379 84.433 0.236068 83.7501 0.0994136C83.0673 -0.037241 82.3595 0.0329211 81.7163 0.300979C81.0731 0.569036 80.5233 1.02298 80.1366 1.6054C79.7498 2.18782 79.5433 2.87256 79.5433 3.57303C79.5518 4.50629 79.9265 5.39835 80.5859 6.05483C81.2453 6.7113 82.1358 7.07891 83.0634 7.07765L83.0634 7.11462ZM148.032 37.1284C148.728 37.1284 149.408 36.9207 149.987 36.5315C150.566 36.1424 151.017 35.5893 151.284 34.9421C151.55 34.295 151.62 33.5829 151.484 32.8959C151.348 32.2089 151.013 31.5778 150.521 31.0825C150.028 30.5872 149.401 30.2499 148.718 30.1132C148.036 29.9766 147.328 30.0467 146.685 30.3148C146.041 30.5829 145.492 31.0368 145.105 31.6192C144.718 32.2016 144.512 32.8864 144.512 33.5868C144.526 34.5161 144.903 35.4023 145.562 36.0538C146.221 36.7053 147.108 37.0697 148.032 37.0684L148.032 37.1284ZM115.548 37.1284C116.244 37.1284 116.924 36.9207 117.503 36.5315C118.082 36.1424 118.533 35.5893 118.8 34.9421C119.066 34.295 119.136 33.5829 119 32.8959C118.864 32.2089 118.529 31.5778 118.037 31.0825C117.544 30.5872 116.917 30.2499 116.234 30.1132C115.551 29.9766 114.844 30.0467 114.2 30.3148C113.557 30.5829 113.007 31.0368 112.621 31.6192C112.234 32.2016 112.027 32.8864 112.027 33.5868C112.043 34.5157 112.421 35.4012 113.079 36.0524C113.738 36.7037 114.624 37.0685 115.548 37.0684L115.548 37.1284ZM83.0634 37.1284C83.7596 37.1284 84.4402 36.9207 85.0191 36.5315C85.5979 36.1424 86.0491 35.5893 86.3156 34.9421C86.582 34.295 86.6517 33.5829 86.5159 32.8959C86.3801 32.2089 86.0448 31.5778 85.5525 31.0825C85.0602 30.5872 84.433 30.2499 83.7501 30.1132C83.0673 29.9766 82.3595 30.0467 81.7163 30.3148C81.0731 30.5828 80.5233 31.0368 80.1365 31.6192C79.7498 32.2016 79.5433 32.8864 79.5433 33.5868C79.5578 34.5161 79.9351 35.4022 80.5939 36.0538C81.2526 36.7053 82.1397 37.0697 83.0634 37.0684L83.0634 37.1284ZM115.548 127.073C116.244 127.073 116.924 126.865 117.503 126.476C118.082 126.087 118.533 125.534 118.8 124.887C119.066 124.239 119.136 123.527 119 122.84C118.864 122.153 118.529 121.522 118.037 121.027C117.544 120.532 116.917 120.194 116.234 120.058C115.551 119.921 114.844 119.991 114.2 120.259C113.557 120.527 113.007 120.981 112.621 121.564C112.234 122.146 112.027 122.831 112.027 123.531C112.044 124.46 112.422 125.345 113.081 125.996C113.739 126.647 114.625 127.012 115.548 127.013L115.548 127.073ZM83.0634 127.073C83.7596 127.073 84.4402 126.865 85.0191 126.476C85.5979 126.087 86.0491 125.534 86.3155 124.887C86.582 124.239 86.6517 123.527 86.5159 122.84C86.3801 122.153 86.0448 121.522 85.5525 121.027C85.0602 120.532 84.4329 120.194 83.7501 120.058C83.0673 119.921 82.3595 119.991 81.7163 120.259C81.0731 120.527 80.5233 120.981 80.1365 121.564C79.7498 122.146 79.5433 122.831 79.5433 123.531C79.5601 124.46 79.9382 125.345 80.5964 125.996C81.2546 126.647 82.1404 127.012 83.0634 127.013L83.0634 127.073ZM148.032 157.059C148.728 157.059 149.408 156.851 149.987 156.462C150.566 156.073 151.017 155.52 151.284 154.873C151.55 154.226 151.62 153.513 151.484 152.826C151.348 152.139 151.013 151.508 150.521 151.013C150.028 150.518 149.401 150.18 148.718 150.044C148.036 149.907 147.328 149.977 146.685 150.245C146.041 150.513 145.492 150.967 145.105 151.55C144.718 152.132 144.512 152.817 144.512 153.517C144.527 154.446 144.905 155.332 145.563 155.983C146.222 156.634 147.108 156.999 148.032 156.999L148.032 157.059ZM115.548 157.059C116.244 157.059 116.924 156.851 117.503 156.462C118.082 156.073 118.533 155.52 118.8 154.873C119.066 154.226 119.136 153.513 119 152.826C118.864 152.139 118.529 151.508 118.037 151.013C117.544 150.518 116.917 150.18 116.234 150.044C115.551 149.907 114.844 149.977 114.2 150.245C113.557 150.513 113.007 150.967 112.621 151.55C112.234 152.132 112.027 152.817 112.027 153.517C112.043 154.446 112.421 155.332 113.079 155.983C113.738 156.634 114.624 156.999 115.548 156.999L115.548 157.059ZM83.0634 157.059C83.7596 157.059 84.4402 156.851 85.0191 156.462C85.5979 156.073 86.0491 155.52 86.3155 154.873C86.582 154.226 86.6517 153.513 86.5159 152.826C86.3801 152.139 86.0448 151.508 85.5525 151.013C85.0602 150.518 84.4329 150.18 83.7501 150.044C83.0673 149.907 82.3595 149.977 81.7163 150.245C81.0731 150.513 80.5233 150.967 80.1365 151.55C79.7497 152.132 79.5433 152.817 79.5433 153.517C79.559 154.446 79.9367 155.332 80.5951 155.983C81.2536 156.634 82.14 156.999 83.0634 156.999L83.0634 157.059ZM245.484 67.0222C246.18 67.0222 246.861 66.8144 247.44 66.4253C248.019 66.0361 248.47 65.483 248.736 64.8359C249.003 64.1887 249.072 63.4767 248.937 62.7897C248.801 62.1027 248.465 61.4716 247.973 60.9763C247.481 60.481 246.854 60.1436 246.171 60.007C245.488 59.8703 244.78 59.9405 244.137 60.2086C243.494 60.4766 242.944 60.9306 242.557 61.513C242.17 62.0954 241.964 62.7801 241.964 63.4806C241.963 63.9459 242.054 64.4067 242.231 64.8367C242.407 65.2666 242.667 65.6572 242.994 65.9862C243.321 66.3152 243.709 66.5761 244.136 66.7539C244.564 66.9317 245.022 67.0228 245.484 67.0222ZM213 67.0222C213.696 67.0222 214.377 66.8144 214.956 66.4253C215.534 66.0361 215.986 65.483 216.252 64.8359C216.519 64.1887 216.588 63.4767 216.452 62.7897C216.317 62.1027 215.981 61.4716 215.489 60.9763C214.997 60.481 214.37 60.1436 213.687 60.007C213.004 59.8703 212.296 59.9405 211.653 60.2086C211.01 60.4766 210.46 60.9306 210.073 61.513C209.686 62.0954 209.48 62.7801 209.48 63.4806C209.479 63.9459 209.57 64.4067 209.747 64.8367C209.923 65.2666 210.183 65.6572 210.51 65.9862C210.836 66.3152 211.225 66.5761 211.652 66.7539C212.079 66.9317 212.538 67.0228 213 67.0222ZM180.516 67.0222C181.212 67.0222 181.893 66.8144 182.472 66.4253C183.05 66.0361 183.502 65.483 183.768 64.8359C184.034 64.1887 184.104 63.4767 183.968 62.7897C183.832 62.1027 183.497 61.4716 183.005 60.9763C182.513 60.481 181.885 60.1436 181.203 60.007C180.52 59.8703 179.812 59.9405 179.169 60.2086C178.526 60.4766 177.976 60.9306 177.589 61.513C177.202 62.0954 176.996 62.7801 176.996 63.4806C176.995 63.9459 177.086 64.4067 177.262 64.8367C177.439 65.2666 177.698 65.6572 178.025 65.9862C178.352 66.3152 178.741 66.5761 179.168 66.7539C179.595 66.9317 180.053 67.0228 180.516 67.0222ZM245.484 97.036C246.18 97.036 246.861 96.8283 247.44 96.4391C248.019 96.0499 248.47 95.4968 248.736 94.8497C249.003 94.2025 249.072 93.4905 248.937 92.8035C248.801 92.1165 248.465 91.4854 247.973 90.9901C247.481 90.4948 246.854 90.1575 246.171 90.0208C245.488 89.8841 244.78 89.9543 244.137 90.2224C243.494 90.4904 242.944 90.9444 242.557 91.5268C242.17 92.1092 241.964 92.794 241.964 93.4944C241.963 93.9597 242.054 94.4205 242.231 94.8505C242.407 95.2804 242.667 95.671 242.994 96C243.321 96.329 243.709 96.5899 244.136 96.7677C244.564 96.9455 245.022 97.0366 245.484 97.036ZM213 97.036C213.696 97.036 214.377 96.8283 214.956 96.4391C215.534 96.0499 215.986 95.4968 216.252 94.8497C216.519 94.2025 216.588 93.4905 216.452 92.8035C216.317 92.1165 215.981 91.4854 215.489 90.9901C214.997 90.4948 214.37 90.1575 213.687 90.0208C213.004 89.8841 212.296 89.9543 211.653 90.2224C211.01 90.4904 210.46 90.9444 210.073 91.5268C209.686 92.1092 209.48 92.794 209.48 93.4944C209.479 93.9597 209.57 94.4205 209.747 94.8505C209.923 95.2804 210.183 95.671 210.51 96C210.836 96.329 211.225 96.5899 211.652 96.7677C212.079 96.9455 212.538 97.0366 213 97.036ZM180.516 97.036C181.212 97.036 181.893 96.8283 182.471 96.4391C183.05 96.0499 183.502 95.4968 183.768 94.8497C184.034 94.2025 184.104 93.4905 183.968 92.8035C183.832 92.1165 183.497 91.4854 183.005 90.9901C182.513 90.4948 181.885 90.1575 181.203 90.0208C180.52 89.8841 179.812 89.9543 179.169 90.2224C178.526 90.4904 177.976 90.9444 177.589 91.5268C177.202 92.1092 176.996 92.7939 176.996 93.4944C176.995 93.9597 177.086 94.4205 177.262 94.8505C177.439 95.2804 177.698 95.671 178.025 96C178.352 96.329 178.741 96.5899 179.168 96.7677C179.595 96.9455 180.053 97.0366 180.516 97.036ZM245.484 127.05C246.18 127.05 246.861 126.842 247.44 126.453C248.019 126.064 248.47 125.511 248.736 124.864C249.003 124.216 249.072 123.504 248.937 122.817C248.801 122.13 248.465 121.499 247.973 121.004C247.481 120.509 246.854 120.171 246.171 120.035C245.488 119.898 244.78 119.968 244.137 120.236C243.494 120.504 242.944 120.958 242.557 121.541C242.17 122.123 241.964 122.808 241.964 123.508C241.974 124.441 242.349 125.332 243.008 125.989C243.667 126.645 244.557 127.013 245.484 127.013L245.484 127.05ZM245.484 7.11463C246.18 7.11463 246.861 6.90687 247.44 6.51771C248.019 6.12856 248.47 5.57545 248.736 4.9283C249.003 4.28116 249.072 3.56911 248.937 2.8821C248.801 2.19509 248.465 1.564 247.973 1.06869C247.481 0.573386 246.854 0.236075 246.171 0.0994207C245.488 -0.0372339 244.78 0.0329282 244.137 0.300986C243.494 0.569043 242.944 1.02299 242.557 1.60541C242.17 2.18783 241.964 2.87257 241.964 3.57304C241.972 4.5055 242.347 5.3968 243.005 6.05315C243.663 6.70949 244.553 7.07769 245.479 7.07766L245.484 7.11463ZM213 7.11463C213.696 7.11554 214.377 6.90857 214.957 6.51997C215.536 6.13136 215.988 5.57864 216.255 4.93157C216.523 4.2845 216.593 3.57223 216.458 2.88492C216.322 2.19761 215.987 1.56604 215.495 1.07027C215.003 0.574501 214.376 0.236787 213.693 0.0997575C213.01 -0.0372718 212.302 0.0326121 211.659 0.300533C211.015 0.568455 210.465 1.02233 210.078 1.60484C209.691 2.18736 209.484 2.87237 209.484 3.57304C209.493 4.5047 209.866 5.39535 210.524 6.05157C211.181 6.70778 212.069 7.07648 212.995 7.07765L213 7.11463ZM180.516 7.11463C181.212 7.11554 181.893 6.90857 182.473 6.51997C183.052 6.13136 183.504 5.57864 183.771 4.93157C184.038 4.2845 184.109 3.57223 183.973 2.88492C183.838 2.1976 183.503 1.56604 183.011 1.07027C182.519 0.5745 181.892 0.236785 181.209 0.0997561C180.526 -0.0372732 179.818 0.0326106 179.174 0.300532C178.531 0.568453 177.981 1.02233 177.594 1.60484C177.207 2.18736 177 2.87237 177 3.57303C177.009 4.5047 177.382 5.39535 178.04 6.05156C178.697 6.70778 179.585 7.07647 180.511 7.07765L180.516 7.11463ZM245.489 37.1284C246.185 37.1284 246.865 36.9207 247.444 36.5315C248.023 36.1424 248.474 35.5893 248.741 34.9421C249.007 34.295 249.077 33.5829 248.941 32.8959C248.805 32.2089 248.47 31.5778 247.978 31.0825C247.485 30.5872 246.858 30.2499 246.175 30.1132C245.493 29.9766 244.785 30.0467 244.142 30.3148C243.498 30.5829 242.949 31.0368 242.562 31.6192C242.175 32.2016 241.969 32.8864 241.969 33.5868C241.983 34.5153 242.36 35.4007 243.017 36.0521C243.675 36.7035 244.561 37.0685 245.484 37.0684L245.489 37.1284ZM213.005 37.1284C213.701 37.1284 214.381 36.9207 214.96 36.5315C215.539 36.1424 215.99 35.5893 216.257 34.9421C216.523 34.295 216.593 33.5829 216.457 32.8959C216.321 32.2089 215.986 31.5778 215.494 31.0825C215.001 30.5872 214.374 30.2499 213.691 30.1132C213.008 29.9766 212.301 30.0467 211.657 30.3148C211.014 30.5829 210.464 31.0368 210.078 31.6192C209.691 32.2016 209.484 32.8864 209.484 33.5868C209.499 34.5153 209.876 35.4007 210.533 36.0521C211.191 36.7035 212.077 37.0685 213 37.0684L213.005 37.1284ZM180.516 37.1284C181.212 37.1294 181.893 36.9224 182.473 36.5338C183.052 36.1452 183.504 35.5925 183.771 34.9454C184.038 34.2983 184.109 33.586 183.973 32.8987C183.838 32.2114 183.503 31.5798 183.011 31.0841C182.519 30.5883 181.892 30.2506 181.209 30.1136C180.526 29.9765 179.818 30.0464 179.174 30.3143C178.531 30.5823 177.981 31.0361 177.594 31.6187C177.207 32.2012 177 32.8862 177 33.5868C177.015 34.5145 177.391 35.3992 178.048 36.0505C178.704 36.7017 179.589 37.0673 180.511 37.0684L180.516 37.1284ZM213.005 127.073C213.701 127.073 214.381 126.865 214.96 126.476C215.539 126.087 215.99 125.534 216.257 124.887C216.523 124.239 216.593 123.527 216.457 122.84C216.321 122.153 215.986 121.522 215.494 121.027C215.001 120.532 214.374 120.194 213.691 120.058C213.008 119.921 212.301 119.991 211.657 120.259C211.014 120.527 210.464 120.981 210.078 121.564C209.691 122.146 209.484 122.831 209.484 123.531C209.5 124.459 209.877 125.344 210.535 125.995C211.192 126.646 212.077 127.012 213 127.013L213.005 127.073ZM180.52 127.073C181.217 127.073 181.897 126.865 182.476 126.476C183.055 126.087 183.506 125.534 183.773 124.887C184.039 124.239 184.109 123.527 183.973 122.84C183.837 122.153 183.502 121.522 183.009 121.027C182.517 120.532 181.89 120.194 181.207 120.058C180.524 119.921 179.817 119.991 179.173 120.259C178.53 120.527 177.98 120.981 177.594 121.564C177.207 122.146 177 122.831 177 123.531C177.016 124.459 177.393 125.344 178.051 125.995C178.708 126.646 179.593 127.012 180.516 127.013L180.52 127.073ZM245.489 157.059C246.185 157.059 246.865 156.851 247.444 156.462C248.023 156.073 248.474 155.52 248.741 154.873C249.007 154.226 249.077 153.514 248.941 152.826C248.805 152.139 248.47 151.508 247.978 151.013C247.485 150.518 246.858 150.18 246.175 150.044C245.493 149.907 244.785 149.977 244.142 150.245C243.498 150.513 242.949 150.967 242.562 151.55C242.175 152.132 241.969 152.817 241.969 153.517C241.983 154.446 242.36 155.331 243.017 155.983C243.675 156.634 244.561 156.999 245.484 156.999L245.489 157.059ZM213.005 157.059C213.701 157.059 214.381 156.851 214.96 156.462C215.539 156.073 215.99 155.52 216.257 154.873C216.523 154.226 216.593 153.514 216.457 152.826C216.321 152.139 215.986 151.508 215.494 151.013C215.001 150.518 214.374 150.18 213.691 150.044C213.008 149.907 212.301 149.977 211.657 150.245C211.014 150.513 210.464 150.967 210.078 151.55C209.691 152.132 209.484 152.817 209.484 153.517C209.499 154.446 209.876 155.331 210.533 155.983C211.191 156.634 212.077 156.999 213 156.999L213.005 157.059ZM180.52 157.059C181.217 157.059 181.897 156.851 182.476 156.462C183.055 156.073 183.506 155.52 183.773 154.873C184.039 154.226 184.109 153.514 183.973 152.826C183.837 152.139 183.502 151.508 183.009 151.013C182.517 150.518 181.89 150.18 181.207 150.044C180.524 149.907 179.817 149.977 179.173 150.245C178.53 150.513 177.98 150.967 177.594 151.55C177.207 152.132 177 152.817 177 153.517C177.015 154.446 177.391 155.331 178.049 155.983C178.707 156.634 179.593 156.999 180.516 156.999L180.52 157.059Z" fill="#FFB765"/>
</g>
<defs>
<clipPath id="clip0">
<rect width="157" height="249" fill="white" transform="translate(249) rotate(90)"/>
</clipPath>
</defs>
</svg>
