<svg width="32" height="32" viewBox="0 0 32 32" fill="none" xmlns="http://www.w3.org/2000/svg">
<path d="M20.0069 21.9883C18.8926 21.5261 17.8116 20.9154 16.7805 20.189C15.7494 19.4627 13.9003 17.6712 12.7209 16.2611C11.6582 14.891 10.7768 13.4054 10.1598 11.8867C9.91255 11.2246 10.6005 10.1846 11.124 9.39327C11.2661 9.17847 11.396 8.98199 11.4919 8.81636L11.5206 8.76598C11.946 8.01977 12.4181 7.19149 12.1904 6.14219C11.9908 5.16826 9.31326 1.88333 8.38193 0.975432C7.76659 0.381171 7.13462 0.0675336 6.51928 0.00150626C4.04129 -0.0810309 1.23068 3.25343 0.881435 3.86419C0.299355 4.67305 0 5.61396 0 6.67042C0 7.74339 0.299356 8.94841 0.914696 10.2525C2.2119 13.3393 4.97262 17.1525 8.24888 20.7015C8.88332 21.4329 11.1127 23.6225 12.2736 24.6625C15.5166 27.5678 18.876 29.9613 21.6866 31.1003C24.3143 32.2888 26.4929 32.3053 28.1227 31.1168C28.8878 30.6546 32.0975 27.9639 31.9977 25.5704C31.9478 24.9266 31.6152 24.2993 31.0165 23.7051C30.1018 22.7807 26.7923 20.1725 25.8277 19.9745C24.754 19.7484 23.919 20.2173 23.1671 20.6396L23.1169 20.6678C22.9639 20.7569 22.7823 20.8757 22.5828 21.0063C21.7845 21.5287 20.6988 22.2392 20.0069 21.9883Z" fill="#FE983D"/>
<path d="M29.3333 17.3333C30.0697 17.3333 30.6667 16.7364 30.6667 16C30.6667 11.697 29.2265 8.00756 26.6095 5.39052C23.9924 2.77348 20.303 1.33333 16 1.33333C15.2636 1.33333 14.6667 1.93029 14.6667 2.66667C14.6667 3.40305 15.2636 4 16 4C19.697 4 22.6742 5.22651 24.7239 7.27614C26.7735 9.32577 28 12.303 28 16C28 16.7364 28.597 17.3333 29.3333 17.3333Z" fill="#FE983D"/>
<path d="M24 17.3333C24.7364 17.3333 25.3333 16.7364 25.3333 16C25.3333 10.597 21.403 6.66667 16 6.66667C15.2636 6.66667 14.6667 7.26362 14.6667 8C14.6667 8.73638 15.2636 9.33333 16 9.33333C19.9303 9.33333 22.6667 12.0697 22.6667 16C22.6667 16.7364 23.2636 17.3333 24 17.3333Z" fill="#FE983D"/>
</svg>
