<svg width="32" height="32" viewBox="0 0 32 32" fill="none" xmlns="http://www.w3.org/2000/svg">
<path fill-rule="evenodd" clip-rule="evenodd" d="M32 14.2222C32 2.37042 29.176 0 16 0C2.824 0 0 2.51023 0 14.2222C0 21.7743 1.33366 26.6667 7.33366 26.6667C10.5401 26.6667 11.494 28.1898 12.3822 29.6082C13.156 30.8438 13.88 31.9999 16.0003 32C18.1208 32.0001 18.8448 30.8439 19.6186 29.6082C20.5068 28.1898 21.4606 26.6667 24.667 26.6667C30.667 26.6667 32 21.926 32 14.2222ZM23.363 12.1963C23.991 12.5808 24.1883 13.4016 23.8038 14.0296L23.8024 14.0319L23.8008 14.0346L23.7966 14.0412L23.7851 14.0596C23.7801 14.0675 23.7742 14.0768 23.7674 14.0872C23.7619 14.0959 23.7557 14.1053 23.749 14.1156C23.7192 14.1611 23.6778 14.2226 23.6254 14.2969C23.5208 14.4449 23.3701 14.6462 23.1769 14.8736C22.7967 15.3212 22.2207 15.9067 21.4726 16.378C20.7199 16.8521 19.742 17.2411 18.597 17.1966C17.4357 17.1514 16.2609 16.6663 15.122 15.6699C14.9348 15.5061 14.7569 15.3715 14.5883 15.2613C14.0676 14.9212 13.6362 14.8141 13.2995 14.801C12.8374 14.7831 12.3867 14.9356 11.9489 15.2114C11.5065 15.4902 11.1301 15.8629 10.8555 16.1861C10.7214 16.3441 10.619 16.4813 10.5525 16.5755C10.5194 16.6223 10.4957 16.6578 10.4817 16.679L10.4677 16.7007C10.0821 17.3252 9.26369 17.5207 8.63717 17.1372C8.00915 16.7527 7.81239 15.9308 8.1969 15.3028C8.1969 15.3028 8.19624 15.3038 9.33338 16L8.1969 15.3028L8.19762 15.3016L8.19927 15.2989L8.2034 15.2922L8.21494 15.2738C8.22409 15.2594 8.23614 15.2406 8.25105 15.2178C8.28085 15.1723 8.3222 15.1108 8.37466 15.0366C8.47928 14.8885 8.62989 14.6872 8.82311 14.4598C9.20333 14.0121 9.77933 13.4265 10.5274 12.9552C11.2801 12.481 12.2579 12.0919 13.403 12.1363C14.5643 12.1815 15.7391 12.6665 16.878 13.663C17.1458 13.8973 17.3946 14.0718 17.6241 14.2006C18.0507 14.4398 18.4108 14.5207 18.7007 14.5319C19.1628 14.5499 19.6135 14.3974 20.0513 14.1216C20.4937 13.843 20.8701 13.4703 21.1446 13.1471C21.2207 13.0575 21.2867 12.9744 21.3416 12.9022C21.3834 12.8472 21.4189 12.7985 21.4476 12.7578C21.4807 12.711 21.5045 12.6755 21.5184 12.6543L21.5304 12.6358L21.5316 12.6339L21.5325 12.6323C21.9183 12.0081 22.7366 11.8127 23.363 12.1963Z" fill="#FE983D"/>
</svg>
