<svg width="24" height="25" viewBox="0 0 24 25" fill="none" xmlns="http://www.w3.org/2000/svg">
<g clip-path="url(#clip0)">
<circle cx="12" cy="12.5" r="12" fill="white"/>
<path fill-rule="evenodd" clip-rule="evenodd" d="M15.1163 8.492L13.9868 8.49275C13.101 8.49275 12.9293 8.9135 12.9293 9.53075V10.8928H15.042L14.7667 13.0265H12.9293V18.5H10.7265V13.0265H8.8845V10.8928H10.7265V9.32C10.7265 7.49375 11.8417 6.5 13.47 6.5C14.25 6.5 14.9205 6.55775 15.1163 6.584V8.492ZM12 0.5C5.373 0.5 0 5.87225 0 12.5C0 19.127 5.373 24.5 12 24.5C18.6277 24.5 24 19.127 24 12.5C24 5.87225 18.6277 0.5 12 0.5Z" fill="#3B5998"/>
</g>
<defs>
<clipPath id="clip0">
<rect width="24" height="24" fill="white" transform="translate(0 0.5)"/>
</clipPath>
</defs>
</svg>
