<svg width="83" height="69" viewBox="0 0 83 69" fill="none" xmlns="http://www.w3.org/2000/svg">
<path d="M0 0H64V64.4L0 69V0Z" fill="url(#paint0_linear)" fill-opacity="0.7"/>
<path d="M51 22C51 19.8783 51.8429 17.8434 53.3431 16.3431C54.8434 14.8429 56.8783 14 59 14H75C75.5304 14 76.0391 14.2107 76.4142 14.5858C76.7893 14.9609 77 15.4696 77 16V48C77 48.5304 76.7893 49.0391 76.4142 49.4142C76.0391 49.7893 75.5304 50 75 50H59C56.8783 50 54.8434 50.8429 53.3431 52.3431C51.8429 53.8434 51 55.8783 51 58" stroke="#FFA339" stroke-width="2.7" stroke-linecap="round" stroke-linejoin="round"/>
<path d="M25 48C25 48.5304 25.2107 49.0391 25.5858 49.4142C25.9609 49.7893 26.4696 50 27 50H43C45.1217 50 47.1566 50.8429 48.6569 52.3431C50.1571 53.8434 51 55.8783 51 58V22C51 19.8783 50.1571 17.8434 48.6569 16.3431C47.1566 14.8429 45.1217 14 43 14H27C26.4696 14 25.9609 14.2107 25.5858 14.5858C25.2107 14.9609 25 15.4696 25 16V48Z" stroke="#FFA339" stroke-width="2.7" stroke-linecap="round" stroke-linejoin="round"/>
<defs>
<linearGradient id="paint0_linear" x1="6.22222" y1="6.58056" x2="67.7355" y2="52.7371" gradientUnits="userSpaceOnUse">
<stop stop-color="#FFE7E7"/>
<stop offset="1" stop-color="#FFE0BD"/>
</linearGradient>
</defs>
</svg>
