<svg width="24" height="24" viewBox="0 0 24 24" fill="none" xmlns="http://www.w3.org/2000/svg">
<path d="M12 16.9219C15.7498 16.9219 19.7344 15.6901 19.7344 13.4062V9.94666L12.7408 12.5693C12.4991 12.6584 12.2512 12.7031 12 12.7031C11.7488 12.7031 11.5009 12.6584 11.2639 12.5706L4.21875 9.94647V13.4062C4.21875 15.6901 8.25018 16.9219 12 16.9219Z" fill="white"/>
<path d="M23.5499 5.71397L12.2531 1.49522C12.0844 1.43901 11.9156 1.43901 11.7469 1.49522L0.562317 5.67186H12C12.3884 5.67186 12.7031 5.98662 12.7031 6.37498C12.7031 6.76335 12.3884 7.07811 12 7.07811H0V21.8437C0 22.2325 0.314575 22.5469 0.703125 22.5469C1.05945 22.5469 1.35333 22.2819 1.40002 21.9384L1.44269 22.0662C1.56482 22.4326 1.96124 22.634 2.33185 22.5104C2.69989 22.3883 2.89911 21.99 2.77606 21.6213L1.40625 17.5116V7.40147L11.7469 11.2547C11.8312 11.2829 11.9156 11.2969 12 11.2969C12.0844 11.2969 12.1688 11.2829 12.2531 11.2547L23.5499 7.036C23.8173 6.93748 24 6.67033 24 6.37498C24 6.07964 23.8173 5.81248 23.5499 5.71397Z" fill="white"/>
</svg>
