<svg width="24" height="24" viewBox="0 0 24 24" fill="none" xmlns="http://www.w3.org/2000/svg">
<path d="M4.94999 9.56978C4.455 8.3248 3.67501 7.09479 2.63251 5.90977C2.30251 5.53477 2.25751 4.9948 2.5275 4.5748C2.73752 4.2448 3.08249 4.0648 3.45749 4.0648C3.5625 4.0648 3.66751 4.07227 3.77252 4.1098C5.97748 4.7548 11.13 7.04228 11.2725 14.3773C11.325 17.2048 9.25502 19.6348 6.5625 19.9123C5.07001 20.0623 3.58502 19.5748 2.4825 18.5848C1.38002 17.5873 0.75 16.1623 0.75 14.6773C0.75 12.2023 2.50502 10.0348 4.94999 9.56978Z" fill="black"/>
<path d="M18.5326 19.9123C17.0475 20.0623 15.5626 19.5748 14.4601 18.5848C13.3576 17.5873 12.7275 16.1623 12.7275 14.6773C12.7275 12.2023 14.4826 10.0348 16.9276 9.56978C16.4325 8.32481 15.6526 7.09479 14.61 5.90978C14.28 5.53478 14.235 4.99481 14.5051 4.57481C14.7151 4.24481 15.0601 4.06481 15.4351 4.06481C15.54 4.06481 15.6451 4.07227 15.7501 4.10981C17.9551 4.7548 23.1076 7.04229 23.2501 14.3773V14.4823C23.2501 17.2648 21.2026 19.6348 18.5326 19.9123Z" fill="black"/>
</svg>
