<svg width="160" height="306" viewBox="0 0 160 306" fill="none" xmlns="http://www.w3.org/2000/svg">
<g clip-path="url(#clip0)">
<path opacity="0.7" d="M64.7023 206.204C63.9885 206.204 63.2906 205.994 62.6971 205.599C62.1035 205.204 61.6409 204.642 61.3677 203.985C61.0946 203.329 61.0231 202.606 61.1623 201.909C61.3016 201.211 61.6453 200.571 62.1501 200.068C62.6549 199.566 63.298 199.223 63.9982 199.085C64.6983 198.946 65.424 199.017 66.0835 199.289C66.743 199.561 67.3067 200.022 67.7033 200.613C68.0999 201.204 68.3116 201.899 68.3116 202.61C68.3122 203.082 68.2192 203.55 68.038 203.986C67.8569 204.423 67.5911 204.819 67.2558 205.153C66.9205 205.487 66.5224 205.752 66.0842 205.932C65.646 206.112 65.1765 206.205 64.7023 206.204ZM68.3116 235.78C68.3116 235.069 68.0999 234.374 67.7033 233.783C67.3067 233.192 66.743 232.731 66.0835 232.459C65.424 232.187 64.6983 232.116 63.9982 232.255C63.298 232.393 62.6549 232.736 62.1501 233.238C61.6453 233.741 61.3016 234.381 61.1623 235.079C61.0231 235.776 61.0946 236.499 61.3677 237.155C61.6409 237.812 62.1035 238.374 62.6971 238.769C63.2906 239.164 63.9885 239.374 64.7023 239.374C65.1757 239.374 65.6442 239.28 66.0813 239.099C66.5184 238.918 66.9154 238.653 67.2497 238.32C67.584 237.986 67.849 237.59 68.0295 237.154C68.2101 236.718 68.3028 236.251 68.3022 235.78H68.3116ZM68.3116 268.95C68.3116 268.239 68.0999 267.544 67.7033 266.953C67.3067 266.362 66.743 265.901 66.0835 265.629C65.424 265.357 64.6983 265.286 63.9982 265.425C63.298 265.563 62.6549 265.906 62.1501 266.408C61.6453 266.911 61.3016 267.551 61.1623 268.249C61.0231 268.946 61.0946 269.669 61.3677 270.326C61.6409 270.982 62.1035 271.544 62.6971 271.939C63.2906 272.334 63.9885 272.544 64.7023 272.544C65.1761 272.544 65.6451 272.45 66.0825 272.269C66.5199 272.088 66.9171 271.822 67.2514 271.488C67.5858 271.154 67.8506 270.757 68.0309 270.321C68.2112 269.884 68.3034 269.417 68.3022 268.945L68.3116 268.95ZM68.3116 302.12C68.3116 301.409 68.0999 300.714 67.7033 300.123C67.3067 299.532 66.743 299.071 66.0835 298.799C65.424 298.527 64.6983 298.456 63.9982 298.595C63.298 298.733 62.6549 299.076 62.1501 299.578C61.6453 300.081 61.3016 300.721 61.1623 301.419C61.0231 302.116 61.0946 302.839 61.3677 303.496C61.6409 304.152 62.1035 304.714 62.6971 305.109C63.2906 305.504 63.9885 305.714 64.7023 305.714C65.1757 305.714 65.6442 305.62 66.0813 305.439C66.5184 305.258 66.9154 304.993 67.2497 304.66C67.584 304.326 67.849 303.93 68.0295 303.494C68.2101 303.058 68.3028 302.591 68.3022 302.12H68.3116ZM98.8895 202.61C98.8895 201.899 98.6778 201.204 98.2812 200.613C97.8846 200.022 97.3209 199.561 96.6614 199.289C96.0019 199.017 95.2762 198.946 94.5761 199.085C93.876 199.223 93.2328 199.566 92.728 200.068C92.2233 200.571 91.8795 201.211 91.7402 201.909C91.601 202.606 91.6725 203.329 91.9457 203.985C92.2188 204.642 92.6815 205.204 93.275 205.599C93.8686 205.994 94.5664 206.204 95.2802 206.204C96.2375 206.204 97.1554 205.826 97.8323 205.152C98.5092 204.477 98.8895 203.563 98.8895 202.61ZM98.8895 235.78C98.8895 235.069 98.6778 234.374 98.2812 233.783C97.8846 233.192 97.3209 232.731 96.6614 232.459C96.0019 232.187 95.2762 232.116 94.5761 232.255C93.876 232.393 93.2328 232.736 92.728 233.238C92.2233 233.741 91.8795 234.381 91.7402 235.079C91.601 235.776 91.6725 236.499 91.9457 237.155C92.2188 237.812 92.6815 238.374 93.275 238.769C93.8686 239.164 94.5664 239.374 95.2802 239.374C95.7544 239.375 96.224 239.282 96.6622 239.102C97.1004 238.922 97.4984 238.657 97.8337 238.323C98.169 237.989 98.4349 237.593 98.6161 237.156C98.7972 236.72 98.8901 236.252 98.8895 235.78ZM98.8895 268.95C98.8895 268.239 98.6778 267.544 98.2812 266.953C97.8846 266.362 97.3209 265.901 96.6614 265.629C96.0019 265.357 95.2762 265.286 94.5761 265.425C93.876 265.563 93.2328 265.906 92.728 266.408C92.2233 266.911 91.8795 267.551 91.7402 268.249C91.601 268.946 91.6725 269.669 91.9457 270.326C92.2188 270.982 92.6815 271.544 93.275 271.939C93.8686 272.334 94.5664 272.544 95.2802 272.544C95.7548 272.545 96.2247 272.452 96.6632 272.272C97.1017 272.091 97.5001 271.826 97.8354 271.491C98.1708 271.157 98.4364 270.76 98.6173 270.323C98.7982 269.886 98.8907 269.418 98.8895 268.945V268.95ZM98.8895 302.12C98.8895 301.409 98.6778 300.714 98.2812 300.123C97.8846 299.532 97.3209 299.071 96.6614 298.799C96.0019 298.527 95.2762 298.456 94.5761 298.595C93.876 298.733 93.2328 299.076 92.728 299.578C92.2233 300.081 91.8795 300.721 91.7402 301.419C91.601 302.116 91.6725 302.839 91.9457 303.496C92.2188 304.152 92.6815 304.714 93.275 305.109C93.8686 305.504 94.5664 305.714 95.2802 305.714C95.7544 305.715 96.224 305.622 96.6622 305.442C97.1004 305.262 97.4984 304.997 97.8337 304.663C98.169 304.329 98.4349 303.933 98.6161 303.496C98.7972 303.06 98.8901 302.592 98.8895 302.12ZM129.477 202.61C129.477 201.899 129.265 201.204 128.868 200.613C128.472 200.022 127.908 199.561 127.249 199.289C126.589 199.017 125.864 198.946 125.163 199.085C124.463 199.223 123.82 199.566 123.315 200.068C122.811 200.571 122.467 201.211 122.328 201.909C122.188 202.606 122.26 203.329 122.533 203.985C122.806 204.642 123.269 205.204 123.862 205.599C124.456 205.994 125.154 206.204 125.868 206.204C126.818 206.194 127.727 205.811 128.395 205.138C129.064 204.465 129.439 203.557 129.439 202.61H129.477ZM129.477 235.78C129.477 235.069 129.265 234.374 128.868 233.783C128.472 233.192 127.908 232.731 127.249 232.459C126.589 232.187 125.864 232.116 125.163 232.255C124.463 232.393 123.82 232.736 123.315 233.238C122.811 233.741 122.467 234.381 122.328 235.079C122.188 235.776 122.26 236.499 122.533 237.155C122.806 237.812 123.269 238.374 123.862 238.769C124.456 239.164 125.154 239.374 125.868 239.374C126.818 239.365 127.727 238.981 128.395 238.308C129.064 237.635 129.439 236.727 129.439 235.78H129.477ZM129.477 268.95C129.477 268.239 129.265 267.544 128.868 266.953C128.472 266.362 127.908 265.901 127.249 265.629C126.589 265.357 125.864 265.286 125.163 265.425C124.463 265.563 123.82 265.906 123.315 266.408C122.811 266.911 122.467 267.551 122.328 268.249C122.188 268.946 122.26 269.669 122.533 270.326C122.806 270.982 123.269 271.544 123.862 271.939C124.456 272.334 125.154 272.544 125.868 272.544C126.819 272.535 127.728 272.151 128.397 271.477C129.066 270.803 129.44 269.893 129.439 268.945L129.477 268.95ZM129.477 302.12C129.477 301.409 129.265 300.714 128.868 300.123C128.472 299.532 127.908 299.071 127.249 298.799C126.589 298.527 125.864 298.456 125.163 298.595C124.463 298.733 123.82 299.076 123.315 299.578C122.811 300.081 122.467 300.721 122.328 301.419C122.188 302.116 122.26 302.839 122.533 303.496C122.806 304.152 123.269 304.714 123.862 305.109C124.456 305.504 125.154 305.714 125.868 305.714C126.818 305.704 127.727 305.321 128.395 304.648C129.064 303.975 129.439 303.067 129.439 302.12H129.477ZM160.036 202.61C160.036 201.899 159.824 201.204 159.428 200.613C159.031 200.022 158.467 199.561 157.808 199.289C157.148 199.017 156.423 198.946 155.722 199.085C155.022 199.223 154.379 199.566 153.874 200.068C153.37 200.571 153.026 201.211 152.887 201.909C152.747 202.606 152.819 203.329 153.092 203.985C153.365 204.642 153.828 205.204 154.421 205.599C155.015 205.994 155.713 206.204 156.427 206.204C157.378 206.196 158.287 205.813 158.956 205.14C159.625 204.466 160 203.557 159.998 202.61H160.036ZM160.036 235.78C160.036 235.069 159.824 234.374 159.428 233.783C159.031 233.192 158.467 232.731 157.808 232.459C157.148 232.187 156.423 232.116 155.722 232.255C155.022 232.393 154.379 232.736 153.874 233.238C153.37 233.741 153.026 234.381 152.887 235.079C152.747 235.776 152.819 236.499 153.092 237.155C153.365 237.812 153.828 238.374 154.421 238.769C155.015 239.164 155.713 239.374 156.427 239.374C157.378 239.366 158.287 238.983 158.956 238.31C159.625 237.636 160 236.727 159.998 235.78H160.036ZM160.036 268.95C160.036 268.239 159.824 267.544 159.428 266.953C159.031 266.362 158.467 265.901 157.808 265.629C157.148 265.357 156.423 265.286 155.722 265.425C155.022 265.563 154.379 265.906 153.874 266.408C153.37 266.911 153.026 267.551 152.887 268.249C152.747 268.946 152.819 269.669 153.092 270.326C153.365 270.982 153.828 271.544 154.421 271.939C155.015 272.334 155.713 272.544 156.427 272.544C157.379 272.536 158.288 272.152 158.957 271.478C159.627 270.804 160.001 269.893 159.998 268.945L160.036 268.95ZM160.036 302.12C160.036 301.409 159.824 300.714 159.428 300.123C159.031 299.532 158.467 299.071 157.808 298.799C157.148 298.527 156.423 298.456 155.722 298.595C155.022 298.733 154.379 299.076 153.874 299.578C153.37 300.081 153.026 300.721 152.887 301.419C152.747 302.116 152.819 302.839 153.092 303.496C153.365 304.152 153.828 304.714 154.421 305.109C155.015 305.504 155.713 305.714 156.427 305.714C157.378 305.706 158.287 305.323 158.956 304.65C159.625 303.977 160 303.067 159.998 302.12H160.036ZM68.3022 103.1C68.3022 102.389 68.0904 101.694 67.6938 101.103C67.2972 100.512 66.7336 100.051 66.0741 99.779C65.4145 99.507 64.6889 99.4358 63.9888 99.5745C63.2886 99.7132 62.6455 100.056 62.1407 100.558C61.6359 101.061 61.2922 101.701 61.1529 102.399C61.0136 103.096 61.0851 103.819 61.3583 104.475C61.6315 105.132 62.0941 105.694 62.6877 106.089C63.2812 106.484 63.979 106.694 64.6929 106.694C65.6501 106.694 66.5681 106.316 67.245 105.642C67.9219 104.967 68.3022 104.053 68.3022 103.1ZM68.3022 136.27C68.3022 135.559 68.0904 134.864 67.6938 134.273C67.2972 133.682 66.7336 133.221 66.0741 132.949C65.4145 132.677 64.6889 132.606 63.9888 132.745C63.2886 132.883 62.6455 133.226 62.1407 133.728C61.6359 134.231 61.2922 134.871 61.1529 135.569C61.0136 136.266 61.0851 136.989 61.3583 137.645C61.6315 138.302 62.0941 138.864 62.6877 139.259C63.2812 139.654 63.979 139.864 64.6929 139.864C65.6501 139.864 66.5681 139.486 67.245 138.812C67.9219 138.137 68.3022 137.223 68.3022 136.27ZM68.3022 169.44C68.3022 168.729 68.0904 168.034 67.6938 167.443C67.2972 166.852 66.7336 166.391 66.0741 166.119C65.4145 165.847 64.6889 165.776 63.9888 165.915C63.2886 166.053 62.6455 166.396 62.1407 166.898C61.6359 167.401 61.2922 168.041 61.1529 168.739C61.0136 169.436 61.0851 170.159 61.3583 170.815C61.6315 171.472 62.0941 172.034 62.6877 172.429C63.2812 172.824 63.979 173.034 64.6929 173.034C65.1671 173.035 65.6367 172.942 66.0749 172.762C66.513 172.582 66.9111 172.317 67.2464 171.983C67.5816 171.649 67.8476 171.253 68.0287 170.816C68.2099 170.38 68.3028 169.912 68.3022 169.44ZM98.8895 103.1C98.8895 102.389 98.6778 101.694 98.2812 101.103C97.8846 100.512 97.3209 100.051 96.6614 99.779C96.0019 99.507 95.2762 99.4358 94.5761 99.5745C93.876 99.7132 93.2328 100.056 92.728 100.558C92.2233 101.061 91.8795 101.701 91.7402 102.399C91.601 103.096 91.6725 103.819 91.9457 104.475C92.2188 105.132 92.6815 105.694 93.275 106.089C93.8686 106.484 94.5664 106.694 95.2802 106.694C96.2375 106.694 97.1554 106.316 97.8323 105.642C98.5092 104.967 98.8895 104.053 98.8895 103.1ZM98.8895 136.27C98.8895 135.559 98.6778 134.864 98.2812 134.273C97.8846 133.682 97.3209 133.221 96.6614 132.949C96.0019 132.677 95.2762 132.606 94.5761 132.745C93.876 132.883 93.2328 133.226 92.728 133.728C92.2233 134.231 91.8795 134.871 91.7402 135.569C91.601 136.266 91.6725 136.989 91.9457 137.645C92.2188 138.302 92.6815 138.864 93.275 139.259C93.8686 139.654 94.5664 139.864 95.2802 139.864C96.2375 139.864 97.1554 139.486 97.8323 138.812C98.5092 138.137 98.8895 137.223 98.8895 136.27ZM98.8895 169.44C98.8895 168.729 98.6778 168.034 98.2812 167.443C97.8846 166.852 97.3209 166.391 96.6614 166.119C96.0019 165.847 95.2762 165.776 94.5761 165.915C93.876 166.053 93.2328 166.396 92.728 166.898C92.2233 167.401 91.8795 168.041 91.7402 168.739C91.601 169.436 91.6725 170.159 91.9457 170.815C92.2188 171.472 92.6815 172.034 93.275 172.429C93.8686 172.824 94.5664 173.034 95.2802 173.034C95.7544 173.035 96.224 172.942 96.6622 172.762C97.1004 172.582 97.4984 172.317 97.8337 171.983C98.169 171.649 98.4349 171.253 98.6161 170.816C98.7972 170.38 98.8901 169.912 98.8895 169.44ZM129.477 103.1C129.477 102.389 129.265 101.694 128.868 101.103C128.472 100.512 127.908 100.051 127.249 99.779C126.589 99.507 125.864 99.4358 125.163 99.5745C124.463 99.7132 123.82 100.056 123.315 100.558C122.811 101.061 122.467 101.701 122.328 102.399C122.188 103.096 122.26 103.819 122.533 104.475C122.806 105.132 123.269 105.694 123.862 106.089C124.456 106.484 125.154 106.694 125.868 106.694C126.818 106.683 127.726 106.3 128.394 105.627C129.063 104.954 129.438 104.046 129.439 103.1H129.477ZM7.24986 202.61C7.24986 201.899 7.03813 201.204 6.64154 200.613C6.24494 200.022 5.68127 199.561 5.02175 199.289C4.36224 199.017 3.63659 198.946 2.93645 199.085C2.23632 199.223 1.59316 199.566 1.08839 200.068C0.583621 200.571 0.239865 201.211 0.100599 201.909C-0.0386668 202.606 0.032836 203.329 0.306016 203.985C0.579196 204.642 1.04182 205.204 1.63537 205.599C2.22891 205.994 2.92674 206.204 3.64059 206.204C4.5913 206.194 5.49968 205.811 6.16843 205.138C6.83719 204.465 7.21223 203.557 7.21218 202.61H7.24986ZM7.24986 235.78C7.24986 235.069 7.03813 234.374 6.64154 233.783C6.24494 233.192 5.68127 232.731 5.02175 232.459C4.36224 232.187 3.63659 232.116 2.93645 232.255C2.23632 232.393 1.59316 232.736 1.08839 233.238C0.583621 233.741 0.239865 234.381 0.100599 235.079C-0.0386668 235.776 0.032836 236.499 0.306016 237.155C0.579196 237.812 1.04182 238.374 1.63537 238.769C2.22891 239.164 2.92674 239.374 3.64059 239.374C4.59169 239.366 5.50079 238.983 6.16981 238.31C6.83883 237.636 7.21346 236.727 7.21218 235.78H7.24986ZM7.24986 268.95C7.24986 268.239 7.03813 267.544 6.64154 266.953C6.24494 266.362 5.68127 265.901 5.02175 265.629C4.36224 265.357 3.63659 265.286 2.93645 265.425C2.23632 265.563 1.59316 265.906 1.08839 266.408C0.583621 266.911 0.239865 267.551 0.100599 268.249C-0.0386668 268.946 0.032836 269.669 0.306016 270.326C0.579196 270.982 1.04182 271.544 1.63537 271.939C2.22891 272.334 2.92674 272.544 3.64059 272.544C4.5925 272.536 5.50227 272.152 6.17142 271.478C6.84057 270.804 7.2147 269.893 7.21218 268.945L7.24986 268.95ZM7.24986 302.12C7.24986 301.409 7.03813 300.714 6.64154 300.123C6.24494 299.532 5.68127 299.071 5.02175 298.799C4.36224 298.527 3.63659 298.456 2.93645 298.595C2.23632 298.733 1.59316 299.076 1.08839 299.578C0.583621 300.081 0.239865 300.721 0.100599 301.419C-0.0386668 302.116 0.032836 302.839 0.306016 303.496C0.579196 304.152 1.04182 304.714 1.63537 305.109C2.22891 305.504 2.92674 305.714 3.64059 305.714C4.59169 305.706 5.50079 305.323 6.16981 304.65C6.83883 303.977 7.21346 303.067 7.21218 302.12H7.24986ZM37.8372 202.61C37.8372 201.899 37.6255 201.204 37.2289 200.613C36.8323 200.022 36.2686 199.561 35.6091 199.289C34.9496 199.017 34.2239 198.946 33.5238 199.085C32.8236 199.223 32.1805 199.566 31.6757 200.068C31.171 200.571 30.8272 201.211 30.6879 201.909C30.5487 202.606 30.6202 203.329 30.8933 203.985C31.1665 204.642 31.6291 205.204 32.2227 205.599C32.8162 205.994 33.5141 206.204 34.2279 206.204C35.1745 206.188 36.0769 205.803 36.7406 205.13C37.4043 204.458 37.7761 203.553 37.776 202.61H37.8372ZM37.8372 235.78C37.8372 235.069 37.6255 234.374 37.2289 233.783C36.8323 233.192 36.2686 232.731 35.6091 232.459C34.9496 232.187 34.2239 232.116 33.5238 232.255C32.8236 232.393 32.1805 232.736 31.6757 233.238C31.171 233.741 30.8272 234.381 30.6879 235.079C30.5487 235.776 30.6202 236.499 30.8933 237.155C31.1665 237.812 31.6291 238.374 32.2227 238.769C32.8162 239.164 33.5141 239.374 34.2279 239.374C35.1749 239.36 36.078 238.974 36.742 238.302C37.4059 237.629 37.7773 236.723 37.776 235.78H37.8372ZM37.8372 268.95C37.8372 268.239 37.6255 267.544 37.2289 266.953C36.8323 266.362 36.2686 265.901 35.6091 265.629C34.9496 265.357 34.2239 265.286 33.5238 265.425C32.8236 265.563 32.1805 265.906 31.6757 266.408C31.171 266.911 30.8272 267.551 30.6879 268.249C30.5487 268.946 30.6202 269.669 30.8933 270.326C31.1665 270.982 31.6291 271.544 32.2227 271.939C32.8162 272.334 33.5141 272.544 34.2279 272.544C35.1757 272.53 36.0795 272.144 36.7436 271.47C37.4077 270.796 37.7785 269.889 37.776 268.945L37.8372 268.95ZM37.8372 302.12C37.8372 301.409 37.6255 300.714 37.2289 300.123C36.8323 299.532 36.2686 299.071 35.6091 298.799C34.9496 298.527 34.2239 298.456 33.5238 298.595C32.8236 298.733 32.1805 299.076 31.6757 299.578C31.171 300.081 30.8272 300.721 30.6879 301.419C30.5487 302.116 30.6202 302.839 30.8933 303.496C31.1665 304.152 31.6291 304.714 32.2227 305.109C32.8162 305.504 33.5141 305.714 34.2279 305.714C35.1749 305.7 36.078 305.314 36.742 304.642C37.4059 303.969 37.7773 303.063 37.776 302.12H37.8372ZM7.24986 103.1C7.24986 102.389 7.03813 101.694 6.64154 101.103C6.24494 100.512 5.68127 100.051 5.02175 99.779C4.36224 99.507 3.63659 99.4358 2.93645 99.5745C2.23632 99.7132 1.59316 100.056 1.08839 100.558C0.583621 101.061 0.239865 101.701 0.100599 102.399C-0.0386668 103.096 0.032836 103.819 0.306016 104.475C0.579196 105.132 1.04182 105.694 1.63537 106.089C2.22891 106.484 2.92674 106.694 3.64059 106.694C4.59169 106.686 5.50079 106.303 6.16981 105.63C6.83883 104.956 7.21346 104.047 7.21218 103.1H7.24986ZM7.24986 136.27C7.24986 135.559 7.03813 134.864 6.64154 134.273C6.24494 133.682 5.68127 133.221 5.02175 132.949C4.36224 132.677 3.63659 132.606 2.93645 132.745C2.23632 132.883 1.59316 133.226 1.08839 133.728C0.583621 134.231 0.239865 134.871 0.100599 135.569C-0.0386668 136.266 0.032836 136.989 0.306016 137.645C0.579196 138.302 1.04182 138.864 1.63537 139.259C2.22891 139.654 2.92674 139.864 3.64059 139.864C4.5913 139.854 5.49968 139.471 6.16843 138.798C6.83719 138.125 7.21223 137.217 7.21218 136.27H7.24986ZM7.24986 169.44C7.24986 168.729 7.03813 168.034 6.64154 167.443C6.24494 166.852 5.68127 166.391 5.02175 166.119C4.36224 165.847 3.63659 165.776 2.93645 165.915C2.23632 166.053 1.59316 166.396 1.08839 166.898C0.583621 167.401 0.239865 168.041 0.100599 168.739C-0.0386668 169.436 0.032836 170.159 0.306016 170.815C0.579196 171.472 1.04182 172.034 1.63537 172.429C2.22891 172.824 2.92674 173.034 3.64059 173.034C4.59169 173.026 5.50079 172.643 6.16981 171.97C6.83883 171.296 7.21346 170.387 7.21218 169.44H7.24986ZM37.8372 103.1C37.8372 102.389 37.6255 101.694 37.2289 101.103C36.8323 100.512 36.2686 100.051 35.6091 99.779C34.9496 99.507 34.2239 99.4358 33.5238 99.5745C32.8236 99.7132 32.1805 100.056 31.6757 100.558C31.171 101.061 30.8272 101.701 30.6879 102.399C30.5487 103.096 30.6202 103.819 30.8933 104.475C31.1665 105.132 31.6291 105.694 32.2227 106.089C32.8162 106.484 33.5141 106.694 34.2279 106.694C35.1749 106.68 36.078 106.294 36.742 105.622C37.4059 104.949 37.7773 104.043 37.776 103.1H37.8372ZM37.8372 136.27C37.8372 135.559 37.6255 134.864 37.2289 134.273C36.8323 133.682 36.2686 133.221 35.6091 132.949C34.9496 132.677 34.2239 132.606 33.5238 132.745C32.8236 132.883 32.1805 133.226 31.6757 133.728C31.171 134.231 30.8272 134.871 30.6879 135.569C30.5487 136.266 30.6202 136.989 30.8933 137.645C31.1665 138.302 31.6291 138.864 32.2227 139.259C32.8162 139.654 33.5141 139.864 34.2279 139.864C35.1745 139.848 36.0769 139.463 36.7406 138.79C37.4043 138.118 37.7761 137.213 37.776 136.27H37.8372ZM37.8372 169.44C37.8372 168.729 37.6255 168.034 37.2289 167.443C36.8323 166.852 36.2686 166.391 35.6091 166.119C34.9496 165.847 34.2239 165.776 33.5238 165.915C32.8236 166.053 32.1805 166.396 31.6757 166.898C31.171 167.401 30.8272 168.041 30.6879 168.739C30.5487 169.436 30.6202 170.159 30.8933 170.815C31.1665 171.472 31.6291 172.034 32.2227 172.429C32.8162 172.824 33.5141 173.034 34.2279 173.034C35.1749 173.02 36.078 172.634 36.742 171.962C37.4059 171.289 37.7773 170.383 37.776 169.44H37.8372ZM129.5 136.27C129.5 135.559 129.289 134.864 128.892 134.273C128.495 133.682 127.932 133.221 127.272 132.949C126.613 132.677 125.887 132.606 125.187 132.745C124.487 132.883 123.844 133.226 123.339 133.728C122.834 134.231 122.49 134.871 122.351 135.569C122.212 136.266 122.283 136.989 122.557 137.645C122.83 138.302 123.292 138.864 123.886 139.259C124.479 139.654 125.177 139.864 125.891 139.864C126.837 139.847 127.739 139.461 128.402 138.789C129.066 138.117 129.438 137.212 129.439 136.27H129.5ZM129.5 169.44C129.5 168.729 129.289 168.034 128.892 167.443C128.495 166.852 127.932 166.391 127.272 166.119C126.613 165.847 125.887 165.776 125.187 165.915C124.487 166.053 123.844 166.396 123.339 166.898C122.834 167.401 122.49 168.041 122.351 168.739C122.212 169.436 122.283 170.159 122.557 170.815C122.83 171.472 123.292 172.034 123.886 172.429C124.479 172.824 125.177 173.034 125.891 173.034C126.837 173.017 127.739 172.631 128.402 171.959C129.066 171.287 129.438 170.382 129.439 169.44H129.5ZM160.059 103.1C160.059 102.389 159.848 101.694 159.451 101.103C159.055 100.512 158.491 100.051 157.831 99.779C157.172 99.507 156.446 99.4358 155.746 99.5745C155.046 99.7132 154.403 100.056 153.898 100.558C153.393 101.061 153.049 101.701 152.91 102.399C152.771 103.096 152.842 103.819 153.116 104.475C153.389 105.132 153.851 105.694 154.445 106.089C155.038 106.484 155.736 106.694 156.45 106.694C157.397 106.678 158.299 106.293 158.963 105.62C159.627 104.948 159.998 104.043 159.998 103.1H160.059ZM160.059 136.27C160.059 135.559 159.848 134.864 159.451 134.273C159.055 133.682 158.491 133.221 157.831 132.949C157.172 132.677 156.446 132.606 155.746 132.745C155.046 132.883 154.403 133.226 153.898 133.728C153.393 134.231 153.049 134.871 152.91 135.569C152.771 136.266 152.842 136.989 153.116 137.645C153.389 138.302 153.851 138.864 154.445 139.259C155.038 139.654 155.736 139.864 156.45 139.864C157.397 139.848 158.299 139.463 158.963 138.79C159.627 138.118 159.998 137.213 159.998 136.27H160.059ZM160.059 169.44C160.059 168.729 159.848 168.034 159.451 167.443C159.055 166.852 158.491 166.391 157.831 166.119C157.172 165.847 156.446 165.776 155.746 165.915C155.046 166.053 154.403 166.396 153.898 166.898C153.393 167.401 153.049 168.041 152.91 168.739C152.771 169.436 152.842 170.159 153.116 170.815C153.389 171.472 153.851 172.034 154.445 172.429C155.038 172.824 155.736 173.034 156.45 173.034C157.397 173.018 158.299 172.633 158.963 171.96C159.627 171.288 159.998 170.383 159.998 169.44H160.059ZM68.3022 3.58986C68.3022 2.87895 68.0904 2.184 67.6938 1.5929C67.2972 1.00179 66.7336 0.541078 66.0741 0.269024C65.4145 -0.00303064 64.6889 -0.0742102 63.9888 0.0644818C63.2886 0.203174 62.6455 0.545514 62.1407 1.0482C61.6359 1.55089 61.2922 2.19137 61.1529 2.88862C61.0136 3.58587 61.0851 4.30859 61.3583 4.96539C61.6315 5.62219 62.0941 6.18356 62.6877 6.57853C63.2812 6.97349 63.979 7.18428 64.6929 7.18428C65.1671 7.1849 65.6367 7.09234 66.0749 6.91192C66.513 6.73151 66.9111 6.46678 67.2464 6.13289C67.5816 5.79899 67.8476 5.40248 68.0287 4.9661C68.2099 4.52973 68.3028 4.06206 68.3022 3.58986ZM68.3022 36.7599C68.3022 36.0489 68.0904 35.354 67.6938 34.7629C67.2972 34.1718 66.7336 33.7111 66.0741 33.4391C65.4145 33.167 64.6889 33.0958 63.9888 33.2345C63.2886 33.3732 62.6455 33.7155 62.1407 34.2182C61.6359 34.7209 61.2922 35.3614 61.1529 36.0586C61.0136 36.7559 61.0851 37.4786 61.3583 38.1354C61.6315 38.7922 62.0941 39.3536 62.6877 39.7485C63.2812 40.1435 63.979 40.3543 64.6929 40.3543C65.1671 40.3549 65.6367 40.2624 66.0749 40.082C66.513 39.9015 66.9111 39.6368 67.2464 39.3029C67.5816 38.969 67.8476 38.5725 68.0287 38.1361C68.2099 37.6998 68.3028 37.2321 68.3022 36.7599ZM68.3022 69.9299C68.3022 69.2189 68.0904 68.524 67.6938 67.9329C67.2972 67.3418 66.7336 66.8811 66.0741 66.6091C65.4145 66.337 64.6889 66.2658 63.9888 66.4045C63.2886 66.5432 62.6455 66.8855 62.1407 67.3882C61.6359 67.8909 61.2922 68.5314 61.1529 69.2286C61.0136 69.9259 61.0851 70.6486 61.3583 71.3054C61.6315 71.9622 62.0941 72.5236 62.6877 72.9185C63.2812 73.3135 63.979 73.5243 64.6929 73.5243C65.1671 73.5249 65.6367 73.4324 66.0749 73.2519C66.513 73.0715 66.9111 72.8068 67.2464 72.4729C67.5816 72.139 67.8476 71.7425 68.0287 71.3061C68.2099 70.8698 68.3028 70.4021 68.3022 69.9299ZM98.8895 3.58986C98.8895 2.87895 98.6778 2.184 98.2812 1.5929C97.8846 1.00179 97.3209 0.541078 96.6614 0.269024C96.0019 -0.00303064 95.2762 -0.0742102 94.5761 0.0644818C93.876 0.203174 93.2328 0.545514 92.728 1.0482C92.2233 1.55089 91.8795 2.19137 91.7402 2.88862C91.601 3.58587 91.6725 4.30859 91.9457 4.96539C92.2188 5.62219 92.6815 6.18356 93.275 6.57853C93.8686 6.97349 94.5664 7.18428 95.2802 7.18428C95.7544 7.1849 96.224 7.09234 96.6622 6.91192C97.1004 6.73151 97.4984 6.46678 97.8337 6.13289C98.169 5.79899 98.4349 5.40248 98.6161 4.9661C98.7972 4.52973 98.8901 4.06206 98.8895 3.58986ZM98.8895 36.7599C98.8895 36.0489 98.6778 35.354 98.2812 34.7629C97.8846 34.1718 97.3209 33.7111 96.6614 33.4391C96.0019 33.167 95.2762 33.0958 94.5761 33.2345C93.876 33.3732 93.2328 33.7155 92.728 34.2182C92.2233 34.7209 91.8795 35.3614 91.7402 36.0586C91.601 36.7559 91.6725 37.4786 91.9457 38.1354C92.2188 38.7922 92.6815 39.3536 93.275 39.7485C93.8686 40.1435 94.5664 40.3543 95.2802 40.3543C95.7544 40.3549 96.224 40.2624 96.6622 40.082C97.1004 39.9015 97.4984 39.6368 97.8337 39.3029C98.169 38.969 98.4349 38.5725 98.6161 38.1361C98.7972 37.6998 98.8901 37.2321 98.8895 36.7599ZM98.8895 69.9299C98.8895 69.2189 98.6778 68.524 98.2812 67.9329C97.8846 67.3418 97.3209 66.8811 96.6614 66.6091C96.0019 66.337 95.2762 66.2658 94.5761 66.4045C93.876 66.5432 93.2328 66.8855 92.728 67.3882C92.2233 67.8909 91.8795 68.5314 91.7402 69.2286C91.601 69.9259 91.6725 70.6486 91.9457 71.3054C92.2188 71.9622 92.6815 72.5236 93.275 72.9185C93.8686 73.3135 94.5664 73.5243 95.2802 73.5243C95.7544 73.5249 96.224 73.4324 96.6622 73.2519C97.1004 73.0715 97.4984 72.8068 97.8337 72.4729C98.169 72.139 98.4349 71.7425 98.6161 71.3061C98.7972 70.8698 98.8901 70.4021 98.8895 69.9299ZM129.477 3.58986C129.477 2.87895 129.265 2.184 128.868 1.5929C128.472 1.00179 127.908 0.541078 127.249 0.269024C126.589 -0.00303064 125.864 -0.0742102 125.163 0.0644818C124.463 0.203174 123.82 0.545514 123.315 1.0482C122.811 1.55089 122.467 2.19137 122.328 2.88862C122.188 3.58587 122.26 4.30859 122.533 4.96539C122.806 5.62219 123.269 6.18356 123.862 6.57853C124.456 6.97349 125.154 7.18428 125.868 7.18428C126.818 7.17441 127.727 6.79135 128.395 6.11833C129.064 5.44531 129.439 4.5367 129.439 3.58986H129.477ZM7.24986 3.58986C7.24986 2.87895 7.03813 2.184 6.64154 1.5929C6.24494 1.00179 5.68127 0.541078 5.02175 0.269024C4.36224 -0.00303064 3.63659 -0.0742102 2.93645 0.0644818C2.23632 0.203174 1.59316 0.545514 1.08839 1.0482C0.583621 1.55089 0.239865 2.19137 0.100599 2.88862C-0.0386668 3.58587 0.032836 4.30859 0.306016 4.96539C0.579196 5.62219 1.04182 6.18356 1.63537 6.57853C2.22891 6.97349 2.92674 7.18428 3.64059 7.18428C4.59087 7.17564 5.4992 6.7936 6.16809 6.12133C6.83698 5.44906 7.21222 4.54095 7.21218 3.59455L7.24986 3.58986ZM7.24986 36.7599C7.25079 36.0487 7.03986 35.3534 6.64383 34.7616C6.2478 34.1699 5.68452 33.7085 5.02509 33.4357C4.36565 33.1629 3.63977 33.0911 2.93932 33.2292C2.23888 33.3674 1.59524 33.7094 1.09 34.2119C0.584759 34.7144 0.240591 35.3548 0.100944 36.0522C-0.0387039 36.7496 0.0325153 37.4725 0.305556 38.1296C0.578597 38.7867 1.04114 39.3484 1.63479 39.7435C2.22844 40.1387 2.92654 40.3496 3.64059 40.3496C4.59006 40.341 5.49773 39.9596 6.16648 39.2883C6.83523 38.6171 7.21098 37.7101 7.21218 36.7645L7.24986 36.7599ZM7.24986 69.9299C7.25079 69.2187 7.03986 68.5234 6.64383 67.9316C6.2478 67.3399 5.68452 66.8785 5.02509 66.6057C4.36565 66.3329 3.63977 66.2611 2.93932 66.3992C2.23888 66.5374 1.59524 66.8794 1.09 67.3819C0.584759 67.8844 0.240591 68.5248 0.100944 69.2222C-0.0387039 69.9196 0.0325153 70.6425 0.305556 71.2996C0.578597 71.9567 1.04114 72.5183 1.63479 72.9135C2.22844 73.3087 2.92654 73.5196 3.64059 73.5196C4.59006 73.511 5.49773 73.1296 6.16648 72.4583C6.83523 71.7871 7.21098 70.8801 7.21218 69.9345L7.24986 69.9299ZM37.8372 3.58517C37.8372 2.87426 37.6255 2.17931 37.2289 1.5882C36.8323 0.997103 36.2686 0.536387 35.6091 0.264333C34.9496 -0.00772157 34.2239 -0.0789011 33.5238 0.0597909C32.8236 0.198483 32.1805 0.540823 31.6757 1.04351C31.171 1.5462 30.8272 2.18668 30.6879 2.88393C30.5487 3.58118 30.6202 4.3039 30.8933 4.9607C31.1665 5.61749 31.6291 6.17887 32.2227 6.57383C32.8162 6.9688 33.5141 7.17959 34.2279 7.17959C35.1741 7.16483 36.0764 6.78013 36.7403 6.10852C37.4041 5.4369 37.7761 4.53226 37.776 3.58986L37.8372 3.58517ZM37.8372 36.7552C37.8372 36.0443 37.6255 35.3493 37.2289 34.7582C36.8323 34.1671 36.2686 33.7064 35.6091 33.4344C34.9496 33.1623 34.2239 33.0911 33.5238 33.2298C32.8236 33.3685 32.1805 33.7108 31.6757 34.2135C31.171 34.7162 30.8272 35.3567 30.6879 36.0539C30.5487 36.7512 30.6202 37.4739 30.8933 38.1307C31.1665 38.7875 31.6291 39.3489 32.2227 39.7438C32.8162 40.1388 33.5141 40.3496 34.2279 40.3496C35.1741 40.3349 36.0764 39.9501 36.7403 39.2785C37.4041 38.6069 37.7761 37.7023 37.776 36.7599L37.8372 36.7552ZM37.8372 69.9299C37.8381 69.2187 37.6272 68.5234 37.2312 67.9316C36.8351 67.3399 36.2718 66.8785 35.6124 66.6057C34.953 66.3329 34.2271 66.2611 33.5267 66.3992C32.8262 66.5374 32.1826 66.8794 31.6773 67.3819C31.1721 67.8844 30.8279 68.5248 30.6883 69.2222C30.5486 69.9196 30.6198 70.6425 30.8929 71.2996C31.1659 71.9567 31.6285 72.5183 32.2221 72.9135C32.8158 73.3087 33.5139 73.5196 34.2279 73.5196C35.1733 73.5049 36.0749 73.1208 36.7386 72.4502C37.4023 71.7796 37.7748 70.8761 37.776 69.9345L37.8372 69.9299ZM129.5 36.7552C129.5 36.0443 129.289 35.3493 128.892 34.7582C128.495 34.1671 127.932 33.7064 127.272 33.4344C126.613 33.1623 125.887 33.0911 125.187 33.2298C124.487 33.3685 123.844 33.7108 123.339 34.2135C122.834 34.7162 122.49 35.3567 122.351 36.0539C122.212 36.7512 122.283 37.4739 122.557 38.1307C122.83 38.7875 123.292 39.3489 123.886 39.7438C124.479 40.1388 125.177 40.3496 125.891 40.3496C126.837 40.3337 127.738 39.9486 128.402 39.2772C129.066 38.6058 129.438 37.7019 129.439 36.7599L129.5 36.7552ZM129.5 69.9252C129.5 69.2142 129.289 68.5193 128.892 67.9282C128.495 67.3371 127.932 66.8764 127.272 66.6044C126.613 66.3323 125.887 66.2611 125.187 66.3998C124.487 66.5385 123.844 66.8808 123.339 67.3835C122.834 67.8862 122.49 68.5267 122.351 69.2239C122.212 69.9212 122.283 70.6439 122.557 71.3007C122.83 71.9575 123.292 72.5189 123.886 72.9139C124.479 73.3088 125.177 73.5196 125.891 73.5196C126.837 73.5037 127.738 73.1186 128.402 72.4472C129.066 71.7759 129.438 70.8719 129.439 69.9299L129.5 69.9252ZM160.059 3.58517C160.059 2.87426 159.848 2.17931 159.451 1.5882C159.055 0.997103 158.491 0.536387 157.831 0.264333C157.172 -0.00772157 156.446 -0.0789011 155.746 0.0597909C155.046 0.198483 154.403 0.540823 153.898 1.04351C153.393 1.5462 153.049 2.18668 152.91 2.88393C152.771 3.58118 152.842 4.3039 153.116 4.9607C153.389 5.61749 153.851 6.17887 154.445 6.57383C155.038 6.9688 155.736 7.17959 156.45 7.17959C157.396 7.16483 158.299 6.78013 158.963 6.10852C159.626 5.4369 159.998 4.53226 159.998 3.58986L160.059 3.58517ZM160.059 36.7552C160.059 36.0443 159.848 35.3493 159.451 34.7582C159.055 34.1671 158.491 33.7064 157.831 33.4344C157.172 33.1623 156.446 33.0911 155.746 33.2298C155.046 33.3685 154.403 33.7108 153.898 34.2135C153.393 34.7162 153.049 35.3567 152.91 36.0539C152.771 36.7512 152.842 37.4739 153.116 38.1307C153.389 38.7875 153.851 39.3489 154.445 39.7438C155.038 40.1388 155.736 40.3496 156.45 40.3496C157.396 40.3349 158.299 39.9501 158.963 39.2785C159.626 38.6069 159.998 37.7023 159.998 36.7599L160.059 36.7552ZM160.059 69.9252C160.059 69.2142 159.848 68.5193 159.451 67.9282C159.055 67.3371 158.491 66.8764 157.831 66.6044C157.172 66.3323 156.446 66.2611 155.746 66.3998C155.046 66.5385 154.403 66.8808 153.898 67.3835C153.393 67.8862 153.049 68.5267 152.91 69.2239C152.771 69.9212 152.842 70.6439 153.116 71.3007C153.389 71.9575 153.851 72.5189 154.445 72.9139C155.038 73.3088 155.736 73.5196 156.45 73.5196C157.396 73.5049 158.299 73.1202 158.963 72.4485C159.626 71.7769 159.998 70.8723 159.998 69.9299L160.059 69.9252Z" fill="#58DBDB"/>
</g>
<defs>
<clipPath id="clip0">
<rect width="160" height="305.714" fill="white"/>
</clipPath>
</defs>
</svg>
