<svg width="16" height="16" viewBox="0 0 16 16" fill="none" xmlns="http://www.w3.org/2000/svg">
<path d="M2.12947 8.7968C1.57038 7.8543 1.37458 6.74012 1.57884 5.66347C1.7831 4.58682 2.37338 3.62178 3.23882 2.94954C4.10426 2.27731 5.18534 1.94413 6.27905 2.01257C7.37277 2.08101 8.40388 2.54637 9.17876 3.32125C9.95365 4.09613 10.419 5.12724 10.4875 6.22095C10.5559 7.31466 10.2227 8.39574 9.55049 9.26119C8.87826 10.1266 7.91322 10.7169 6.83657 10.9212C5.75993 11.1254 4.64574 10.9297 3.70324 10.3706L3.70325 10.3705L2.14904 10.8146C2.08474 10.833 2.01669 10.8338 1.95195 10.817C1.88722 10.8002 1.82814 10.7665 1.78085 10.7192C1.73357 10.6719 1.69978 10.6128 1.68301 10.5481C1.66623 10.4833 1.66707 10.4153 1.68545 10.351L2.12951 8.79677L2.12947 8.7968Z" stroke="#FFA339" stroke-linecap="round" stroke-linejoin="round"/>
<path d="M5.75391 10.9933C5.97512 11.6213 6.33286 12.1924 6.80135 12.6655C7.26984 13.1386 7.83743 13.5019 8.46323 13.7293C9.08903 13.9567 9.75747 14.0424 10.4204 13.9804C11.0833 13.9183 11.7242 13.7101 12.297 13.3705L12.297 13.3705L13.8512 13.8145C13.9155 13.8329 13.9835 13.8338 14.0483 13.817C14.113 13.8002 14.1721 13.7664 14.2194 13.7191C14.2667 13.6718 14.3004 13.6128 14.3172 13.548C14.334 13.4833 14.3332 13.4153 14.3148 13.3509L13.8707 11.7967L13.8708 11.7968C14.2653 11.1314 14.4817 10.3755 14.4991 9.60209C14.5165 8.8287 14.3342 8.06388 13.9699 7.38143C13.6057 6.69897 13.0716 6.12192 12.4194 5.70594C11.7672 5.28996 11.0188 5.0491 10.2463 5.00659" stroke="#FFA339" stroke-linecap="round" stroke-linejoin="round"/>
</svg>
