<svg width="16" height="16" viewBox="0 0 16 16" fill="none" xmlns="http://www.w3.org/2000/svg">
<path d="M14.091 8.5H12.091C11.8258 8.5 11.5714 8.60536 11.3839 8.7929C11.1963 8.98043 11.091 9.23479 11.091 9.5V12C11.091 12.2652 11.1963 12.5196 11.3839 12.7071C11.5714 12.8946 11.8258 13 12.091 13H13.091C13.3562 13 13.6106 12.8946 13.7981 12.7071C13.9856 12.5196 14.091 12.2652 14.091 12V8.5ZM14.091 8.5C14.091 7.70824 13.9343 6.92431 13.6299 6.1934C13.3255 5.46248 12.8795 4.79904 12.3175 4.24131C11.7555 3.68358 11.0887 3.24259 10.3555 2.94376C9.62233 2.64493 8.83723 2.49417 8.04549 2.50017C7.25376 2.49417 6.46866 2.64493 5.73546 2.94376C5.00226 3.24259 4.33545 3.68358 3.77347 4.24131C3.2115 4.79904 2.76546 5.46248 2.46109 6.1934C2.15671 6.92431 2 7.70824 2 8.5V12C2 12.2652 2.10536 12.5196 2.29289 12.7071C2.48043 12.8946 2.73478 13 3 13H4C4.26522 13 4.51957 12.8946 4.70711 12.7071C4.89464 12.5196 5 12.2652 5 12V9.5C5 9.23479 4.89464 8.98043 4.70711 8.7929C4.51957 8.60536 4.26522 8.5 4 8.5H2" stroke="#FFA339" stroke-linecap="round" stroke-linejoin="round"/>
</svg>
