<svg width="16" height="16" viewBox="0 0 16 16" fill="none" xmlns="http://www.w3.org/2000/svg">
<path d="M13.8931 2.89269C13.5526 2.57206 13.1483 2.31772 12.7033 2.14419C12.2584 1.97066 11.7814 1.88135 11.2998 1.88135C10.8181 1.88135 10.3412 1.97066 9.89618 2.14419C9.45121 2.31772 9.04692 2.57206 8.70642 2.89269L7.99975 3.55779L7.29309 2.89269C6.60529 2.24535 5.67244 1.88168 4.69975 1.88168C3.72706 1.88168 2.79422 2.24535 2.10642 2.89269C1.41863 3.54003 1.03223 4.418 1.03223 5.33347C1.03223 6.24894 1.41863 7.12692 2.10642 7.77426L2.81309 8.43936L7.99975 13.3209L13.1864 8.43936L13.8931 7.77426C14.2337 7.45378 14.504 7.07328 14.6884 6.65448C14.8727 6.23568 14.9676 5.7868 14.9676 5.33347C14.9676 4.88015 14.8727 4.43126 14.6884 4.01247C14.504 3.59367 14.2337 3.21316 13.8931 2.89269V2.89269Z" stroke="black" stroke-linecap="round" stroke-linejoin="round"/>
</svg>
