<svg width="16" height="17" viewBox="0 0 16 17" fill="none" xmlns="http://www.w3.org/2000/svg">
<path d="M13.5 0.765625H2.5C1.11929 0.765625 0 1.88491 0 3.26562V14.2656C0 15.6463 1.11929 16.7656 2.5 16.7656H13.5C14.8807 16.7656 16 15.6463 16 14.2656V3.26562C16 1.88491 14.8807 0.765625 13.5 0.765625Z" fill="#2867B2"/>
<path d="M5.8 12.7656H4.1V7.41563H5.8V12.7656ZM4.95 6.66563C4.4 6.66563 4 6.26562 4 5.71562C4 5.16562 4.45 4.76562 4.95 4.76562C5.5 4.76562 5.9 5.16562 5.9 5.71562C5.9 6.26562 5.5 6.66563 4.95 6.66563ZM12 12.7656H10.3V9.86563C10.3 9.01563 9.95 8.76562 9.45 8.76562C8.95 8.76562 8.45 9.16562 8.45 9.91562V12.7656H6.75V7.41563H8.35V8.16563C8.5 7.81563 9.1 7.26562 9.95 7.26562C10.9 7.26562 11.9 7.81562 11.9 9.46562V12.7656H12Z" fill="white"/>
</svg>
