<svg width="16" height="17" viewBox="0 0 16 17" fill="none" xmlns="http://www.w3.org/2000/svg">
<path d="M13.5 0.765625H2.5C1.11929 0.765625 0 1.88491 0 3.26562V14.2656C0 15.6463 1.11929 16.7656 2.5 16.7656H13.5C14.8807 16.7656 16 15.6463 16 14.2656V3.26562C16 1.88491 14.8807 0.765625 13.5 0.765625Z" fill="#1DA1F2"/>
<path d="M12 6.26562C11.7 6.41562 11.4 6.46562 11.05 6.51562C11.4 6.31563 11.65 6.01562 11.75 5.61562C11.45 5.81562 11.1 5.91563 10.7 6.01562C10.4 5.71562 9.95 5.51562 9.5 5.51562C8.45 5.51562 7.65 6.51562 7.9 7.51562C6.55 7.46563 5.35 6.81563 4.5 5.81563C4.05 6.56563 4.3 7.51562 5 8.01562C4.75 8.01562 4.5 7.91563 4.25 7.81563C4.25 8.56563 4.8 9.26562 5.55 9.46562C5.3 9.51562 5.05 9.56563 4.8 9.51562C5 10.1656 5.6 10.6656 6.35 10.6656C5.75 11.1156 4.85 11.3656 4 11.2656C4.75 11.7156 5.6 12.0156 6.5 12.0156C9.55 12.0156 11.25 9.46562 11.15 7.11562C11.5 6.91562 11.8 6.61563 12 6.26562Z" fill="white"/>
</svg>
