<svg width="24" height="25" viewBox="0 0 24 25" fill="none" xmlns="http://www.w3.org/2000/svg">
<path d="M12 23.0469C17.8249 23.0469 22.5469 18.3249 22.5469 12.5C22.5469 6.67512 17.8249 1.95312 12 1.95312C6.17512 1.95312 1.45312 6.67512 1.45312 12.5C1.45312 18.3249 6.17512 23.0469 12 23.0469Z" fill="url(#paint0_linear)"/>
<path d="M14.2403 6.64062H9.76377C7.76689 6.64062 6.14502 8.2625 6.14502 10.2594V14.7359C6.14502 16.7328 7.76689 18.3547 9.76377 18.3547H14.2403C16.2372 18.3547 17.8591 16.7328 17.8591 14.7359V10.2594C17.8591 8.2625 16.2372 6.64062 14.2403 6.64062ZM16.5513 14.7406C16.5513 16.0156 15.5153 17.0562 14.2356 17.0562H9.75908C8.48408 17.0562 7.44346 16.0203 7.44346 14.7406V10.2641C7.44346 8.98906 8.47939 7.94844 9.75908 7.94844H14.2356C15.5106 7.94844 16.5513 8.98438 16.5513 10.2641V14.7406Z" fill="white"/>
<path d="M11.9997 9.50488C10.3497 9.50488 9.00439 10.8502 9.00439 12.5002C9.00439 14.1502 10.3497 15.4955 11.9997 15.4955C13.6497 15.4955 14.995 14.1502 14.995 12.5002C14.995 10.8502 13.6497 9.50488 11.9997 9.50488ZM11.9997 14.3189C10.9966 14.3189 10.181 13.5033 10.181 12.5002C10.181 11.4971 10.9966 10.6814 11.9997 10.6814C13.0028 10.6814 13.8185 11.4971 13.8185 12.5002C13.8185 13.5033 13.0028 14.3189 11.9997 14.3189Z" fill="white"/>
<path d="M15.2232 9.83339C15.4992 9.78865 15.6866 9.52867 15.6419 9.25271C15.5971 8.97675 15.3372 8.7893 15.0612 8.83404C14.7852 8.87877 14.5978 9.13875 14.6425 9.41471C14.6873 9.69068 14.9472 9.87812 15.2232 9.83339Z" fill="white"/>
<defs>
<linearGradient id="paint0_linear" x1="3.96933" y1="20.5307" x2="18.9576" y2="5.54239" gradientUnits="userSpaceOnUse">
<stop stop-color="#FEE411"/>
<stop offset="0.0518459" stop-color="#FEDB16"/>
<stop offset="0.1381" stop-color="#FEC125"/>
<stop offset="0.2481" stop-color="#FE983D"/>
<stop offset="0.3762" stop-color="#FE5F5E"/>
<stop offset="0.5" stop-color="#FE2181"/>
<stop offset="1" stop-color="#9000DC"/>
</linearGradient>
</defs>
</svg>
