<svg width="16" height="17" viewBox="0 0 16 17" fill="none" xmlns="http://www.w3.org/2000/svg">
<path d="M8 9C9.10457 9 10 8.10457 10 7C10 5.89543 9.10457 5 8 5C6.89543 5 6 5.89543 6 7C6 8.10457 6.89543 9 8 9Z" stroke="#FF004C" stroke-width="1.5" stroke-linecap="round" stroke-linejoin="round"/>
<path d="M13 7C13 11.5 8 15 8 15C8 15 3 11.5 3 7C3 5.67392 3.52678 4.40215 4.46447 3.46447C5.40215 2.52678 6.67392 2 8 2C9.32608 2 10.5979 2.52678 11.5355 3.46447C12.4732 4.40215 13 5.67392 13 7V7Z" stroke="#FF004C" stroke-width="1.5" stroke-linecap="round" stroke-linejoin="round"/>
</svg>
