<svg width="306" height="160" viewBox="0 0 306 160" fill="none" xmlns="http://www.w3.org/2000/svg">
<g clip-path="url(#clip0)">
<path opacity="0.7" d="M99.511 64.7033C99.511 63.9894 99.7218 63.2916 100.117 62.6981C100.512 62.1045 101.073 61.6419 101.73 61.3687C102.387 61.0955 103.109 61.024 103.807 61.1633C104.504 61.3026 105.144 61.6463 105.647 62.1511C106.15 62.6559 106.492 63.299 106.631 63.9991C106.769 64.6993 106.698 65.4249 106.426 66.0844C106.154 66.744 105.693 67.3076 105.102 67.7042C104.511 68.1008 103.816 68.3126 103.105 68.3126C102.633 68.3132 102.166 68.2202 101.729 68.039C101.293 67.8578 100.896 67.592 100.562 67.2568C100.228 66.9215 99.9638 66.5233 99.7833 66.0851C99.6029 65.647 99.5104 65.1774 99.511 64.7033ZM69.9354 68.3126C70.6463 68.3126 71.3413 68.1008 71.9324 67.7042C72.5235 67.3076 72.9842 66.744 73.2562 66.0844C73.5283 65.4249 73.5995 64.6993 73.4608 63.9991C73.3221 63.299 72.9797 62.6559 72.477 62.1511C71.9743 61.6463 71.3339 61.3026 70.6366 61.1633C69.9394 61.024 69.2167 61.0955 68.5599 61.3687C67.9031 61.6419 67.3417 62.1045 66.9467 62.6981C66.5518 63.2916 66.341 63.9894 66.341 64.7033C66.3416 65.1766 66.435 65.6452 66.616 66.0823C66.797 66.5194 67.0619 66.9164 67.3957 67.2507C67.7294 67.5849 68.1255 67.8499 68.5613 68.0305C68.9971 68.2111 69.464 68.3038 69.9354 68.3031L69.9354 68.3126ZM36.7654 68.3125C37.4763 68.3125 38.1712 68.1008 38.7623 67.7042C39.3534 67.3076 39.8141 66.744 40.0862 66.0844C40.3582 65.4249 40.4294 64.6993 40.2907 63.9991C40.152 63.299 39.8097 62.6559 39.307 62.1511C38.8043 61.6463 38.1638 61.3026 37.4666 61.1633C36.7693 61.024 36.0466 61.0955 35.3898 61.3687C34.733 61.6419 34.1717 62.1045 33.7767 62.6981C33.3818 63.2916 33.1709 63.9894 33.1709 64.7033C33.1715 65.177 33.2652 65.646 33.4464 66.0834C33.6277 66.5208 33.8931 66.918 34.2274 67.2524C34.5616 67.5867 34.9582 67.8516 35.3945 68.0319C35.8308 68.2122 36.2982 68.3044 36.77 68.3031L36.7654 68.3125ZM3.59533 68.3125C4.30624 68.3125 5.00122 68.1008 5.59231 67.7042C6.18341 67.3076 6.64413 66.744 6.91617 66.0844C7.18823 65.4249 7.25943 64.6993 7.12076 63.9991C6.98205 63.299 6.63971 62.6559 6.13702 62.1511C5.63434 61.6463 4.99383 61.3026 4.29657 61.1633C3.59933 61.024 2.87661 61.0955 2.21982 61.3687C1.56302 61.6419 1.00168 62.1045 0.606717 62.6981C0.211759 63.2916 0.000943249 63.9894 0.000943218 64.7033C0.00155355 65.1766 0.0950289 65.6452 0.275998 66.0823C0.456967 66.5194 0.72189 66.9164 1.05566 67.2507C1.38943 67.5849 1.78549 67.8499 2.22125 68.0305C2.65701 68.2111 3.12393 68.3038 3.59533 68.3031L3.59533 68.3125ZM103.105 98.8905C103.816 98.8905 104.511 98.6787 105.102 98.2821C105.693 97.8855 106.154 97.3219 106.426 96.6624C106.698 96.0028 106.769 95.2772 106.631 94.5771C106.492 93.8769 106.15 93.2338 105.647 92.729C105.144 92.2242 104.504 91.8805 103.807 91.7412C103.109 91.6019 102.387 91.6734 101.73 91.9466C101.073 92.2198 100.512 92.6824 100.117 93.276C99.7218 93.8695 99.511 94.5673 99.511 95.2812C99.511 96.2384 99.8897 97.1564 100.564 97.8333C101.238 98.5102 102.152 98.8905 103.105 98.8905ZM69.9354 98.8905C70.6463 98.8905 71.3413 98.6787 71.9324 98.2821C72.5235 97.8855 72.9842 97.3219 73.2562 96.6624C73.5283 96.0028 73.5995 95.2772 73.4608 94.5771C73.3221 93.8769 72.9797 93.2338 72.477 92.729C71.9743 92.2242 71.3339 91.8805 70.6366 91.7412C69.9394 91.6019 69.2167 91.6734 68.5599 91.9466C67.9031 92.2198 67.3417 92.6824 66.9467 93.276C66.5518 93.8695 66.341 94.5673 66.341 95.2812C66.3403 95.7554 66.4329 96.225 66.6133 96.6632C66.7937 97.1013 67.0585 97.4994 67.3923 97.8347C67.7263 98.1699 68.1228 98.4359 68.5591 98.617C68.9955 98.7982 69.4632 98.8911 69.9354 98.8905ZM36.7654 98.8905C37.4763 98.8905 38.1712 98.6787 38.7623 98.2821C39.3534 97.8855 39.8141 97.3219 40.0862 96.6624C40.3582 96.0028 40.4294 95.2772 40.2907 94.5771C40.152 93.8769 39.8097 93.2338 39.307 92.729C38.8043 92.2242 38.1638 91.8805 37.4666 91.7412C36.7693 91.6019 36.0466 91.6734 35.3898 91.9466C34.733 92.2198 34.1717 92.6824 33.7767 93.276C33.3818 93.8695 33.1709 94.5673 33.1709 95.2812C33.1703 95.7557 33.263 96.2257 33.4437 96.6642C33.6244 97.1027 33.8896 97.501 34.224 97.8364C34.5584 98.1717 34.9554 98.4374 35.3924 98.6183C35.8293 98.7992 36.2975 98.8917 36.77 98.8905L36.7654 98.8905ZM3.59533 98.8905C4.30624 98.8905 5.00122 98.6787 5.59231 98.2821C6.18341 97.8855 6.64413 97.3219 6.91616 96.6624C7.18823 96.0028 7.25943 95.2772 7.12075 94.5771C6.98205 93.8769 6.63971 93.2338 6.13702 92.729C5.63433 92.2242 4.99383 91.8805 4.29657 91.7412C3.59933 91.6019 2.87661 91.6734 2.21981 91.9466C1.56301 92.2198 1.00167 92.6824 0.606716 93.276C0.211757 93.8695 0.000941913 94.5673 0.000941881 95.2812C0.000331509 95.7554 0.0928913 96.225 0.273311 96.6632C0.453731 97.1013 0.718441 97.4994 1.05233 97.8347C1.38623 98.1699 1.78274 98.4359 2.21911 98.617C2.65551 98.7982 3.12313 98.8911 3.59533 98.8905ZM103.105 129.478C103.816 129.478 104.511 129.266 105.102 128.869C105.693 128.473 106.154 127.909 106.426 127.25C106.698 126.59 106.769 125.865 106.631 125.164C106.492 124.464 106.15 123.821 105.647 123.316C105.144 122.812 104.504 122.468 103.807 122.329C103.109 122.189 102.387 122.261 101.73 122.534C101.073 122.807 100.512 123.27 100.117 123.863C99.7218 124.457 99.511 125.155 99.511 125.869C99.5209 126.819 99.9039 127.728 100.577 128.396C101.25 129.065 102.159 129.44 103.105 129.44L103.105 129.478ZM69.9354 129.478C70.6463 129.478 71.3413 129.266 71.9324 128.869C72.5235 128.473 72.9842 127.909 73.2562 127.25C73.5283 126.59 73.5995 125.865 73.4607 125.164C73.3221 124.464 72.9797 123.821 72.477 123.316C71.9743 122.812 71.3339 122.468 70.6366 122.329C69.9394 122.189 69.2167 122.261 68.5599 122.534C67.9031 122.807 67.3417 123.27 66.9467 123.863C66.5518 124.457 66.341 125.155 66.341 125.869C66.3508 126.819 66.7339 127.728 67.4069 128.396C68.08 129.065 68.9886 129.44 69.9354 129.44L69.9354 129.478ZM36.7654 129.478C37.4763 129.478 38.1712 129.266 38.7623 128.869C39.3534 128.473 39.8141 127.909 40.0862 127.25C40.3582 126.59 40.4294 125.865 40.2907 125.164C40.152 124.464 39.8097 123.821 39.307 123.316C38.8043 122.812 38.1638 122.468 37.4666 122.329C36.7693 122.189 36.0466 122.261 35.3898 122.534C34.733 122.807 34.1717 123.27 33.7767 123.863C33.3818 124.457 33.1709 125.155 33.1709 125.869C33.1808 126.82 33.5645 127.729 34.2386 128.398C34.9126 129.067 35.8224 129.441 36.77 129.44L36.7654 129.478ZM3.59533 129.478C4.30624 129.478 5.00122 129.266 5.59231 128.869C6.18341 128.473 6.64413 127.909 6.91616 127.25C7.18823 126.59 7.25942 125.865 7.12075 125.164C6.98205 124.464 6.6397 123.821 6.13702 123.316C5.63433 122.812 4.99383 122.468 4.29656 122.329C3.59933 122.189 2.87661 122.261 2.21981 122.534C1.56301 122.807 1.00167 123.27 0.606715 123.863C0.211756 124.457 0.000940576 125.155 0.000940544 125.869C0.0108282 126.819 0.393854 127.728 1.06686 128.396C1.73989 129.065 2.64849 129.44 3.59533 129.44L3.59533 129.478ZM103.105 160.037C103.816 160.037 104.511 159.825 105.102 159.429C105.693 159.032 106.154 158.468 106.426 157.809C106.698 157.149 106.769 156.424 106.631 155.723C106.492 155.023 106.15 154.38 105.647 153.875C105.144 153.371 104.504 153.027 103.807 152.888C103.109 152.748 102.387 152.82 101.73 153.093C101.073 153.366 100.512 153.829 100.117 154.422C99.7218 155.016 99.511 155.714 99.511 156.428C99.5196 157.379 99.9023 158.288 100.576 158.957C101.249 159.626 102.158 160.001 103.105 159.999L103.105 160.037ZM69.9354 160.037C70.6463 160.037 71.3413 159.825 71.9324 159.429C72.5235 159.032 72.9842 158.468 73.2562 157.809C73.5283 157.149 73.5994 156.424 73.4607 155.723C73.3221 155.023 72.9797 154.38 72.477 153.875C71.9743 153.371 71.3339 153.027 70.6366 152.888C69.9394 152.748 69.2167 152.82 68.5599 153.093C67.9031 153.366 67.3417 153.829 66.9467 154.422C66.5518 155.016 66.341 155.714 66.341 156.428C66.3496 157.379 66.7323 158.288 67.4056 158.957C68.0789 159.626 68.9882 160.001 69.9354 159.999L69.9354 160.037ZM36.7654 160.037C37.4763 160.037 38.1712 159.825 38.7623 159.429C39.3534 159.032 39.8141 158.468 40.0862 157.809C40.3582 157.149 40.4294 156.424 40.2907 155.723C40.152 155.023 39.8097 154.38 39.307 153.875C38.8043 153.371 38.1638 153.027 37.4666 152.888C36.7693 152.748 36.0466 152.82 35.3898 153.093C34.733 153.366 34.1717 153.829 33.7767 154.422C33.3818 155.016 33.1709 155.714 33.1709 156.428C33.1796 157.38 33.5629 158.289 34.2372 158.958C34.9115 159.628 35.822 160.002 36.77 159.999L36.7654 160.037ZM3.59533 160.037C4.30624 160.037 5.00121 159.825 5.59231 159.429C6.1834 159.032 6.64413 158.468 6.91616 157.809C7.18823 157.149 7.25942 156.424 7.12075 155.723C6.98205 155.023 6.6397 154.38 6.13702 153.875C5.63433 153.371 4.99383 153.027 4.29656 152.888C3.59933 152.748 2.87661 152.82 2.21981 153.093C1.56301 153.366 1.00167 153.829 0.606713 154.422C0.211755 155.016 0.00093924 155.714 0.000939209 156.428C0.00960616 157.379 0.392266 158.288 1.06554 158.957C1.73882 159.626 2.64813 160.001 3.59533 159.999L3.59533 160.037ZM202.615 68.3031C203.326 68.3031 204.021 68.0914 204.612 67.6948C205.204 67.2982 205.664 66.7345 205.936 66.075C206.208 65.4155 206.279 64.6899 206.141 63.9897C206.002 63.2896 205.66 62.6464 205.157 62.1417C204.654 61.6369 204.014 61.2931 203.317 61.1539C202.619 61.0146 201.897 61.0861 201.24 61.3593C200.583 61.6325 200.022 62.0951 199.627 62.6886C199.232 63.2822 199.021 63.98 199.021 64.6939C199.021 65.6511 199.4 66.5691 200.074 67.246C200.748 67.9228 201.662 68.3031 202.615 68.3031ZM169.445 68.3031C170.156 68.3031 170.851 68.0914 171.442 67.6948C172.033 67.2982 172.494 66.7345 172.766 66.075C173.038 65.4155 173.109 64.6899 172.971 63.9897C172.832 63.2896 172.49 62.6464 171.987 62.1417C171.484 61.6369 170.844 61.2931 170.147 61.1539C169.449 61.0146 168.727 61.0861 168.07 61.3593C167.413 61.6325 166.852 62.0951 166.457 62.6886C166.062 63.2822 165.851 63.98 165.851 64.6939C165.851 65.6511 166.23 66.5691 166.904 67.246C167.578 67.9228 168.492 68.3031 169.445 68.3031ZM136.275 68.3031C136.986 68.3031 137.681 68.0914 138.272 67.6948C138.863 67.2982 139.324 66.7345 139.596 66.075C139.868 65.4155 139.939 64.6899 139.801 63.9897C139.662 63.2896 139.32 62.6464 138.817 62.1417C138.314 61.6369 137.674 61.2931 136.977 61.1539C136.279 61.0146 135.557 61.0861 134.9 61.3593C134.243 61.6325 133.682 62.0951 133.287 62.6886C132.892 63.2822 132.681 63.98 132.681 64.6939C132.68 65.168 132.773 65.6376 132.953 66.0758C133.134 66.514 133.399 66.912 133.732 67.2473C134.066 67.5826 134.463 67.8485 134.899 68.0297C135.336 68.2109 135.803 68.3038 136.275 68.3031ZM202.615 98.8905C203.326 98.8905 204.021 98.6787 204.612 98.2821C205.204 97.8855 205.664 97.3219 205.936 96.6624C206.208 96.0028 206.279 95.2772 206.141 94.5771C206.002 93.8769 205.66 93.2338 205.157 92.729C204.654 92.2242 204.014 91.8805 203.317 91.7412C202.619 91.6019 201.897 91.6734 201.24 91.9466C200.583 92.2198 200.022 92.6824 199.627 93.276C199.232 93.8695 199.021 94.5673 199.021 95.2812C199.021 96.2384 199.4 97.1564 200.074 97.8333C200.748 98.5102 201.662 98.8905 202.615 98.8905ZM169.445 98.8905C170.156 98.8905 170.851 98.6787 171.442 98.2821C172.033 97.8855 172.494 97.3219 172.766 96.6624C173.038 96.0028 173.109 95.2772 172.971 94.5771C172.832 93.8769 172.49 93.2338 171.987 92.729C171.484 92.2242 170.844 91.8805 170.147 91.7412C169.449 91.6019 168.727 91.6734 168.07 91.9466C167.413 92.2198 166.852 92.6824 166.457 93.276C166.062 93.8695 165.851 94.5673 165.851 95.2812C165.851 96.2384 166.23 97.1564 166.904 97.8333C167.578 98.5102 168.492 98.8905 169.445 98.8905ZM136.275 98.8905C136.986 98.8905 137.681 98.6787 138.272 98.2821C138.863 97.8855 139.324 97.3219 139.596 96.6624C139.868 96.0028 139.939 95.2772 139.801 94.5771C139.662 93.8769 139.32 93.2338 138.817 92.729C138.314 92.2242 137.674 91.8805 136.977 91.7412C136.279 91.6019 135.557 91.6734 134.9 91.9466C134.243 92.2198 133.682 92.6824 133.287 93.276C132.892 93.8695 132.681 94.5673 132.681 95.2812C132.68 95.7554 132.773 96.225 132.953 96.6632C133.134 97.1013 133.399 97.4994 133.732 97.8347C134.066 98.1699 134.463 98.4359 134.899 98.617C135.336 98.7982 135.803 98.8911 136.275 98.8905ZM202.615 129.478C203.326 129.478 204.021 129.266 204.612 128.869C205.204 128.473 205.664 127.909 205.936 127.25C206.208 126.59 206.279 125.865 206.141 125.164C206.002 124.464 205.66 123.821 205.157 123.316C204.654 122.812 204.014 122.468 203.317 122.329C202.619 122.189 201.897 122.261 201.24 122.534C200.583 122.807 200.022 123.27 199.627 123.863C199.232 124.457 199.021 125.155 199.021 125.869C199.032 126.819 199.416 127.727 200.088 128.395C200.761 129.063 201.669 129.439 202.615 129.44L202.615 129.478ZM103.105 7.25083C103.816 7.25083 104.511 7.0391 105.102 6.6425C105.693 6.24591 106.154 5.68224 106.426 5.02272C106.698 4.36321 106.769 3.63756 106.631 2.93742C106.492 2.23728 106.15 1.59413 105.647 1.08936C105.144 0.584589 104.504 0.240833 103.807 0.101567C103.109 -0.0376991 102.387 0.0338037 101.73 0.306983C101.073 0.580163 100.512 1.04279 100.117 1.63633C99.7218 2.22988 99.511 2.92771 99.511 3.64156C99.5209 4.59227 99.9039 5.50065 100.577 6.1694C101.25 6.83816 102.159 7.2132 103.105 7.21314L103.105 7.25083ZM69.9354 7.25083C70.6463 7.25083 71.3413 7.0391 71.9324 6.6425C72.5235 6.24591 72.9842 5.68223 73.2562 5.02272C73.5283 4.36321 73.5995 3.63756 73.4608 2.93742C73.3221 2.23728 72.9797 1.59413 72.477 1.08936C71.9743 0.584587 71.3339 0.240831 70.6366 0.101565C69.9394 -0.0377005 69.2167 0.0338023 68.5599 0.306982C67.9031 0.580162 67.3417 1.04278 66.9467 1.63633C66.5518 2.22988 66.341 2.9277 66.341 3.64156C66.3496 4.59265 66.7323 5.50176 67.4056 6.17078C68.0789 6.8398 68.9882 7.21442 69.9354 7.21314L69.9354 7.25083ZM36.7654 7.25082C37.4763 7.25082 38.1712 7.0391 38.7623 6.6425C39.3534 6.24591 39.8141 5.68223 40.0862 5.02272C40.3582 4.3632 40.4294 3.63755 40.2907 2.93742C40.152 2.23728 39.8097 1.59413 39.307 1.08936C38.8043 0.584586 38.1638 0.24083 37.4666 0.101564C36.7693 -0.037702 36.0466 0.0338008 35.3898 0.306981C34.733 0.58016 34.1717 1.04278 33.7767 1.63633C33.3818 2.22988 33.1709 2.9277 33.1709 3.64156C33.1796 4.59347 33.5629 5.50323 34.2372 6.17239C34.9115 6.84154 35.822 7.21567 36.77 7.21314L36.7654 7.25082ZM3.59534 7.25082C4.30624 7.25082 5.00122 7.0391 5.59232 6.6425C6.18341 6.2459 6.64413 5.68223 6.91617 5.02272C7.18823 4.3632 7.25943 3.63755 7.12076 2.93742C6.98206 2.23728 6.63971 1.59413 6.13702 1.08936C5.63434 0.584585 4.99384 0.240828 4.29657 0.101562C3.59933 -0.0377034 2.87662 0.0337994 2.21982 0.306979C1.56302 0.580159 1.00168 1.04278 0.60672 1.63633C0.211761 2.22988 0.000945918 2.9277 0.000945887 3.64155C0.00961284 4.59265 0.392273 5.50176 1.06555 6.17078C1.73883 6.8398 2.64813 7.21442 3.59534 7.21314L3.59534 7.25082ZM103.105 37.8382C103.816 37.8382 104.511 37.6264 105.102 37.2298C105.693 36.8332 106.154 36.2696 106.426 35.6101C106.698 34.9505 106.769 34.2249 106.631 33.5247C106.492 32.8246 106.15 32.1815 105.647 31.6767C105.144 31.1719 104.504 30.8282 103.807 30.6889C103.109 30.5496 102.387 30.6211 101.73 30.8943C101.073 31.1675 100.512 31.6301 100.117 32.2237C99.7218 32.8172 99.511 33.515 99.511 34.2289C99.527 35.1755 99.9127 36.0779 100.585 36.7416C101.257 37.4053 102.163 37.7771 103.105 37.7769L103.105 37.8382ZM69.9354 37.8382C70.6463 37.8382 71.3413 37.6264 71.9324 37.2298C72.5235 36.8332 72.9842 36.2696 73.2562 35.6101C73.5283 34.9505 73.5995 34.2249 73.4608 33.5247C73.3221 32.8246 72.9797 32.1815 72.477 31.6767C71.9743 31.1719 71.3339 30.8282 70.6366 30.6889C69.9394 30.5496 69.2167 30.6211 68.5599 30.8943C67.9031 31.1675 67.3417 31.6301 66.9467 32.2237C66.5518 32.8172 66.341 33.515 66.341 34.2289C66.3557 35.1759 66.7411 36.079 67.4138 36.7429C68.0864 37.4069 68.9922 37.7783 69.9354 37.7769L69.9354 37.8382ZM36.7654 37.8382C37.4763 37.8382 38.1712 37.6264 38.7623 37.2298C39.3534 36.8332 39.8141 36.2696 40.0862 35.6101C40.3582 34.9505 40.4294 34.2249 40.2907 33.5247C40.152 32.8246 39.8097 32.1815 39.307 31.6767C38.8043 31.1719 38.1638 30.8282 37.4666 30.6889C36.7693 30.5496 36.0466 30.6211 35.3898 30.8943C34.733 31.1675 34.1717 31.6301 33.7767 32.2237C33.3818 32.8172 33.1709 33.515 33.1709 34.2289C33.1857 35.1767 33.5717 36.0805 34.2454 36.7446C34.919 37.4086 35.826 37.7795 36.77 37.7769L36.7654 37.8382ZM3.59534 37.8382C4.30624 37.8382 5.00122 37.6264 5.59231 37.2298C6.18341 36.8332 6.64413 36.2696 6.91617 35.61C7.18823 34.9505 7.25943 34.2249 7.12076 33.5247C6.98205 32.8246 6.63971 32.1815 6.13702 31.6767C5.63434 31.1719 4.99383 30.8282 4.29657 30.6889C3.59933 30.5496 2.87662 30.6211 2.21982 30.8943C1.56302 31.1675 1.00168 31.6301 0.606719 32.2237C0.21176 32.8172 0.000944581 33.515 0.00094455 34.2289C0.015715 35.1759 0.40106 36.079 1.07367 36.7429C1.74631 37.4069 2.65213 37.7783 3.59534 37.7769L3.59534 37.8382ZM202.615 7.25083C203.326 7.25083 204.021 7.0391 204.612 6.64251C205.204 6.24591 205.664 5.68224 205.936 5.02273C206.208 4.36321 206.279 3.63756 206.141 2.93743C206.002 2.23729 205.66 1.59413 205.157 1.08936C204.654 0.584593 204.014 0.240837 203.317 0.101571C202.619 -0.0376947 201.897 0.033808 201.24 0.306988C200.583 0.580168 200.022 1.04279 199.627 1.63634C199.232 2.22988 199.021 2.92771 199.021 3.64156C199.03 4.59266 199.412 5.50177 200.086 6.17079C200.759 6.8398 201.668 7.21443 202.615 7.21315L202.615 7.25083ZM169.445 7.25083C170.156 7.25083 170.851 7.0391 171.442 6.64251C172.033 6.24591 172.494 5.68224 172.766 5.02273C173.038 4.36321 173.109 3.63756 172.971 2.93742C172.832 2.23729 172.49 1.59413 171.987 1.08936C171.484 0.584592 170.844 0.240836 170.147 0.10157C169.449 -0.0376962 168.727 0.0338066 168.07 0.306986C167.413 0.580166 166.852 1.04279 166.457 1.63634C166.062 2.22988 165.851 2.92771 165.851 3.64156C165.861 4.59227 166.244 5.50065 166.917 6.16941C167.59 6.83816 168.499 7.2132 169.445 7.21315L169.445 7.25083ZM136.275 7.25083C136.986 7.25083 137.681 7.0391 138.272 6.64251C138.863 6.24591 139.324 5.68224 139.596 5.02272C139.868 4.36321 139.939 3.63756 139.801 2.93742C139.662 2.23729 139.32 1.59413 138.817 1.08936C138.314 0.58459 137.674 0.240834 136.977 0.101568C136.279 -0.0376976 135.557 0.0338051 134.9 0.306985C134.243 0.580165 133.682 1.04279 133.287 1.63633C132.892 2.22988 132.681 2.92771 132.681 3.64156C132.69 4.59266 133.072 5.50176 133.746 6.17078C134.419 6.8398 135.328 7.21443 136.275 7.21315L136.275 7.25083ZM202.615 37.8382C203.326 37.8382 204.021 37.6264 204.612 37.2298C205.204 36.8332 205.664 36.2696 205.936 35.6101C206.208 34.9505 206.279 34.2249 206.141 33.5248C206.002 32.8246 205.66 32.1815 205.157 31.6767C204.654 31.1719 204.014 30.8282 203.317 30.6889C202.619 30.5496 201.897 30.6211 201.24 30.8943C200.583 31.1675 200.022 31.6301 199.627 32.2237C199.232 32.8172 199.021 33.515 199.021 34.2289C199.036 35.1759 199.421 36.079 200.094 36.7429C200.766 37.4069 201.672 37.7783 202.615 37.7769L202.615 37.8382ZM169.445 37.8382C170.156 37.8382 170.851 37.6264 171.442 37.2298C172.033 36.8332 172.494 36.2696 172.766 35.6101C173.038 34.9505 173.109 34.2249 172.971 33.5248C172.832 32.8246 172.49 32.1815 171.987 31.6767C171.484 31.1719 170.844 30.8282 170.147 30.6889C169.449 30.5496 168.727 30.6211 168.07 30.8943C167.413 31.1675 166.852 31.6301 166.457 32.2237C166.062 32.8172 165.851 33.515 165.851 34.2289C165.867 35.1755 166.253 36.0779 166.925 36.7416C167.597 37.4053 168.503 37.7771 169.445 37.7769L169.445 37.8382ZM136.275 37.8382C136.986 37.8382 137.681 37.6264 138.272 37.2298C138.863 36.8332 139.324 36.2696 139.596 35.6101C139.868 34.9505 139.939 34.2249 139.801 33.5248C139.662 32.8246 139.32 32.1815 138.817 31.6767C138.314 31.1719 137.674 30.8282 136.977 30.6889C136.279 30.5496 135.557 30.6211 134.9 30.8943C134.243 31.1675 133.682 31.6301 133.287 32.2237C132.892 32.8172 132.681 33.515 132.681 34.2289C132.696 35.1759 133.081 36.079 133.754 36.7429C134.426 37.4069 135.332 37.7783 136.275 37.7769L136.275 37.8382ZM169.445 129.501C170.156 129.501 170.851 129.29 171.442 128.893C172.033 128.496 172.494 127.933 172.766 127.273C173.038 126.614 173.109 125.888 172.971 125.188C172.832 124.488 172.49 123.845 171.987 123.34C171.484 122.835 170.844 122.491 170.147 122.352C169.449 122.213 168.727 122.284 168.07 122.558C167.413 122.831 166.852 123.293 166.457 123.887C166.062 124.48 165.851 125.178 165.851 125.892C165.868 126.838 166.254 127.74 166.926 128.403C167.599 129.067 168.503 129.439 169.445 129.44L169.445 129.501ZM136.275 129.501C136.986 129.501 137.681 129.29 138.272 128.893C138.863 128.496 139.324 127.933 139.596 127.273C139.868 126.614 139.939 125.888 139.801 125.188C139.662 124.488 139.32 123.845 138.817 123.34C138.314 122.835 137.674 122.491 136.977 122.352C136.279 122.213 135.557 122.284 134.9 122.558C134.243 122.831 133.682 123.293 133.287 123.887C132.892 124.48 132.681 125.178 132.681 125.892C132.698 126.838 133.084 127.74 133.756 128.403C134.428 129.067 135.333 129.439 136.275 129.44L136.275 129.501ZM202.615 160.06C203.326 160.06 204.021 159.849 204.612 159.452C205.204 159.056 205.664 158.492 205.936 157.832C206.208 157.173 206.279 156.447 206.141 155.747C206.002 155.047 205.66 154.404 205.157 153.899C204.654 153.394 204.014 153.05 203.317 152.911C202.619 152.772 201.897 152.843 201.24 153.117C200.583 153.39 200.022 153.852 199.627 154.446C199.232 155.039 199.021 155.737 199.021 156.451C199.037 157.398 199.423 158.3 200.095 158.964C200.767 159.628 201.673 159.999 202.615 159.999L202.615 160.06ZM169.445 160.06C170.156 160.06 170.851 159.849 171.442 159.452C172.033 159.056 172.494 158.492 172.766 157.832C173.038 157.173 173.109 156.447 172.971 155.747C172.832 155.047 172.49 154.404 171.987 153.899C171.484 153.394 170.844 153.05 170.147 152.911C169.449 152.772 168.727 152.843 168.07 153.117C167.413 153.39 166.852 153.852 166.457 154.446C166.062 155.039 165.851 155.737 165.851 156.451C165.867 157.398 166.253 158.3 166.925 158.964C167.597 159.628 168.503 159.999 169.445 159.999L169.445 160.06ZM136.275 160.06C136.986 160.06 137.681 159.849 138.272 159.452C138.863 159.056 139.324 158.492 139.596 157.832C139.868 157.173 139.939 156.447 139.801 155.747C139.662 155.047 139.32 154.404 138.817 153.899C138.314 153.394 137.674 153.05 136.977 152.911C136.279 152.772 135.557 152.843 134.9 153.117C134.243 153.39 133.682 153.852 133.287 154.446C132.892 155.039 132.681 155.737 132.681 156.451C132.697 157.398 133.083 158.3 133.755 158.964C134.427 159.628 135.333 159.999 136.275 159.999L136.275 160.06ZM302.125 68.3031C302.836 68.3031 303.531 68.0914 304.122 67.6948C304.714 67.2982 305.174 66.7346 305.446 66.075C305.718 65.4155 305.79 64.6899 305.651 63.9897C305.512 63.2896 305.17 62.6464 304.667 62.1417C304.164 61.6369 303.524 61.2931 302.827 61.1539C302.129 61.0146 301.407 61.0861 300.75 61.3593C300.093 61.6325 299.532 62.0951 299.137 62.6886C298.742 63.2822 298.531 63.98 298.531 64.6939C298.53 65.168 298.623 65.6377 298.803 66.0758C298.984 66.514 299.249 66.9121 299.582 67.2473C299.916 67.5826 300.313 67.8485 300.749 68.0297C301.186 68.2109 301.653 68.3038 302.125 68.3031ZM268.955 68.3031C269.666 68.3031 270.361 68.0914 270.952 67.6948C271.544 67.2982 272.004 66.7345 272.276 66.075C272.548 65.4155 272.62 64.6899 272.481 63.9897C272.342 63.2896 272 62.6464 271.497 62.1417C270.994 61.6369 270.354 61.2931 269.657 61.1539C268.959 61.0146 268.237 61.0861 267.58 61.3593C266.923 61.6325 266.362 62.0951 265.967 62.6886C265.572 63.2822 265.361 63.98 265.361 64.6939C265.36 65.168 265.453 65.6377 265.633 66.0758C265.814 66.514 266.079 66.9121 266.412 67.2473C266.746 67.5826 267.143 67.8485 267.579 68.0297C268.016 68.2109 268.483 68.3038 268.955 68.3031ZM235.785 68.3031C236.496 68.3031 237.191 68.0914 237.782 67.6948C238.374 67.2982 238.834 66.7345 239.106 66.075C239.378 65.4155 239.45 64.6899 239.311 63.9897C239.172 63.2896 238.83 62.6464 238.327 62.1417C237.824 61.6369 237.184 61.2931 236.487 61.1539C235.789 61.0146 235.067 61.0861 234.41 61.3593C233.753 61.6325 233.192 62.0951 232.797 62.6886C232.402 63.2822 232.191 63.98 232.191 64.6939C232.19 65.168 232.283 65.6377 232.463 66.0758C232.644 66.514 232.909 66.9121 233.242 67.2473C233.576 67.5826 233.973 67.8485 234.409 68.0297C234.846 68.2109 235.313 68.3038 235.785 68.3031ZM302.125 98.8905C302.836 98.8905 303.531 98.6787 304.122 98.2822C304.714 97.8856 305.174 97.3219 305.446 96.6624C305.718 96.0029 305.79 95.2772 305.651 94.5771C305.512 93.8769 305.17 93.2338 304.667 92.729C304.164 92.2242 303.524 91.8805 302.827 91.7412C302.129 91.6019 301.407 91.6734 300.75 91.9466C300.093 92.2198 299.532 92.6824 299.137 93.276C298.742 93.8695 298.531 94.5674 298.531 95.2812C298.53 95.7554 298.623 96.225 298.803 96.6632C298.984 97.1014 299.249 97.4994 299.582 97.8347C299.916 98.1699 300.313 98.4359 300.749 98.617C301.186 98.7982 301.653 98.8911 302.125 98.8905ZM268.955 98.8905C269.666 98.8905 270.361 98.6787 270.952 98.2821C271.544 97.8855 272.004 97.3219 272.276 96.6624C272.548 96.0029 272.62 95.2772 272.481 94.5771C272.342 93.8769 272 93.2338 271.497 92.729C270.994 92.2242 270.354 91.8805 269.657 91.7412C268.959 91.6019 268.237 91.6734 267.58 91.9466C266.923 92.2198 266.362 92.6824 265.967 93.276C265.572 93.8695 265.361 94.5674 265.361 95.2812C265.36 95.7554 265.453 96.225 265.633 96.6632C265.814 97.1014 266.079 97.4994 266.412 97.8347C266.746 98.1699 267.143 98.4359 267.579 98.617C268.016 98.7982 268.483 98.8911 268.955 98.8905ZM235.785 98.8905C236.496 98.8905 237.191 98.6787 237.782 98.2821C238.374 97.8855 238.834 97.3219 239.106 96.6624C239.378 96.0029 239.45 95.2772 239.311 94.5771C239.172 93.8769 238.83 93.2338 238.327 92.729C237.824 92.2242 237.184 91.8805 236.487 91.7412C235.789 91.6019 235.067 91.6734 234.41 91.9466C233.753 92.2198 233.192 92.6824 232.797 93.276C232.402 93.8695 232.191 94.5673 232.191 95.2812C232.19 95.7554 232.283 96.225 232.463 96.6632C232.644 97.1014 232.909 97.4994 233.242 97.8347C233.576 98.1699 233.973 98.4359 234.409 98.617C234.846 98.7982 235.313 98.8911 235.785 98.8905ZM302.125 129.478C302.836 129.478 303.531 129.266 304.122 128.869C304.714 128.473 305.174 127.909 305.446 127.25C305.718 126.59 305.79 125.865 305.651 125.164C305.512 124.464 305.17 123.821 304.667 123.316C304.164 122.812 303.524 122.468 302.827 122.329C302.129 122.189 301.407 122.261 300.75 122.534C300.093 122.807 299.532 123.27 299.137 123.863C298.742 124.457 298.531 125.155 298.531 125.869C298.541 126.819 298.924 127.728 299.597 128.396C300.27 129.065 301.179 129.44 302.125 129.44L302.125 129.478ZM302.125 7.25084C302.836 7.25084 303.531 7.03911 304.122 6.64251C304.714 6.24592 305.174 5.68224 305.446 5.02273C305.718 4.36322 305.79 3.63757 305.651 2.93743C305.512 2.23729 305.17 1.59414 304.667 1.08937C304.164 0.584598 303.524 0.240841 302.827 0.101575C302.129 -0.0376904 301.407 0.0338124 300.75 0.306992C300.093 0.580172 299.532 1.04279 299.137 1.63634C298.742 2.22989 298.531 2.92771 298.531 3.64157C298.54 4.59185 298.922 5.50018 299.594 6.16907C300.266 6.83795 301.174 7.21319 302.121 7.21315L302.125 7.25084ZM268.955 7.25083C269.667 7.25177 270.362 7.04084 270.954 6.64481C271.545 6.24878 272.007 5.68549 272.28 5.02606C272.552 4.36663 272.624 3.64075 272.486 2.9403C272.348 2.23985 272.006 1.59622 271.503 1.09097C271.001 0.585734 270.36 0.241566 269.663 0.101919C268.966 -0.037729 268.243 0.0334902 267.586 0.306531C266.929 0.579572 266.367 1.04212 265.972 1.63577C265.577 2.22941 265.366 2.92751 265.366 3.64157C265.374 4.59103 265.756 5.4987 266.427 6.16746C267.098 6.83621 268.005 7.21195 268.951 7.21315L268.955 7.25083ZM235.785 7.25083C236.497 7.25176 237.192 7.04084 237.784 6.64481C238.375 6.24878 238.837 5.68549 239.11 5.02606C239.382 4.36663 239.454 3.64074 239.316 2.9403C239.178 2.23985 238.836 1.59621 238.333 1.09097C237.831 0.585732 237.19 0.241565 236.493 0.101917C235.796 -0.0377304 235.073 0.0334888 234.416 0.30653C233.759 0.579571 233.197 1.04212 232.802 1.63576C232.407 2.22941 232.196 2.92751 232.196 3.64156C232.204 4.59103 232.586 5.4987 233.257 6.16745C233.928 6.83621 234.835 7.21195 235.781 7.21315L235.785 7.25083ZM302.13 37.8382C302.841 37.8382 303.536 37.6264 304.127 37.2298C304.718 36.8332 305.179 36.2696 305.451 35.6101C305.723 34.9505 305.794 34.2249 305.656 33.5248C305.517 32.8246 305.175 32.1815 304.672 31.6767C304.169 31.1719 303.529 30.8282 302.831 30.6889C302.134 30.5496 301.411 30.6211 300.755 30.8943C300.098 31.1675 299.536 31.6301 299.141 32.2237C298.747 32.8172 298.536 33.515 298.536 34.2289C298.551 35.1751 298.935 36.0774 299.607 36.7412C300.278 37.4051 301.183 37.777 302.125 37.7769L302.13 37.8382ZM268.96 37.8382C269.671 37.8382 270.366 37.6264 270.957 37.2298C271.548 36.8332 272.009 36.2696 272.281 35.6101C272.553 34.9505 272.624 34.2249 272.486 33.5248C272.347 32.8246 272.004 32.1815 271.502 31.6767C270.999 31.1719 270.359 30.8282 269.661 30.6889C268.964 30.5496 268.241 30.6211 267.585 30.8943C266.928 31.1675 266.366 31.6301 265.971 32.2237C265.577 32.8172 265.366 33.515 265.366 34.2289C265.38 35.1751 265.765 36.0774 266.437 36.7412C267.108 37.4051 268.013 37.777 268.955 37.7769L268.96 37.8382ZM235.785 37.8382C236.497 37.8391 237.192 37.6282 237.784 37.2321C238.375 36.8361 238.837 36.2728 239.11 35.6134C239.382 34.954 239.454 34.2281 239.316 33.5276C239.178 32.8272 238.836 32.1835 238.333 31.6783C237.831 31.1731 237.19 30.8289 236.493 30.6892C235.796 30.5496 235.073 30.6208 234.416 30.8939C233.759 31.1669 233.197 31.6294 232.802 32.2231C232.407 32.8167 232.196 33.5148 232.196 34.2289C232.21 35.1743 232.595 36.0759 233.265 36.7396C233.936 37.4033 234.839 37.7758 235.781 37.7769L235.785 37.8382ZM268.96 129.501C269.671 129.501 270.366 129.29 270.957 128.893C271.548 128.496 272.009 127.933 272.281 127.273C272.553 126.614 272.624 125.888 272.486 125.188C272.347 124.488 272.004 123.845 271.502 123.34C270.999 122.835 270.359 122.491 269.661 122.352C268.964 122.213 268.241 122.284 267.585 122.558C266.928 122.831 266.366 123.293 265.971 123.887C265.577 124.48 265.366 125.178 265.366 125.892C265.382 126.838 265.767 127.739 266.438 128.403C267.109 129.067 268.013 129.439 268.955 129.44L268.96 129.501ZM235.79 129.501C236.501 129.501 237.196 129.29 237.787 128.893C238.378 128.496 238.839 127.933 239.111 127.273C239.383 126.614 239.454 125.888 239.316 125.188C239.177 124.488 238.834 123.845 238.332 123.34C237.829 122.835 237.189 122.491 236.491 122.352C235.794 122.213 235.071 122.284 234.415 122.558C233.758 122.831 233.196 123.293 232.801 123.887C232.407 124.48 232.196 125.178 232.196 125.892C232.212 126.838 232.597 127.739 233.268 128.403C233.939 129.067 234.843 129.439 235.785 129.44L235.79 129.501ZM302.13 160.06C302.841 160.06 303.536 159.849 304.127 159.452C304.718 159.056 305.179 158.492 305.451 157.832C305.723 157.173 305.794 156.447 305.656 155.747C305.517 155.047 305.175 154.404 304.672 153.899C304.169 153.394 303.529 153.05 302.831 152.911C302.134 152.772 301.411 152.843 300.755 153.117C300.098 153.39 299.536 153.852 299.141 154.446C298.747 155.039 298.536 155.737 298.536 156.451C298.55 157.397 298.935 158.3 299.607 158.963C300.278 159.627 301.183 159.999 302.125 159.999L302.13 160.06ZM268.96 160.06C269.671 160.06 270.366 159.849 270.957 159.452C271.548 159.056 272.009 158.492 272.281 157.832C272.553 157.173 272.624 156.447 272.486 155.747C272.347 155.047 272.004 154.404 271.502 153.899C270.999 153.394 270.359 153.05 269.661 152.911C268.964 152.772 268.241 152.843 267.585 153.117C266.928 153.39 266.366 153.852 265.971 154.446C265.577 155.039 265.366 155.737 265.366 156.451C265.38 157.397 265.765 158.3 266.437 158.963C267.108 159.627 268.013 159.999 268.955 159.999L268.96 160.06ZM235.79 160.06C236.501 160.06 237.196 159.849 237.787 159.452C238.378 159.056 238.839 158.492 239.111 157.832C239.383 157.173 239.454 156.447 239.316 155.747C239.177 155.047 238.834 154.404 238.332 153.899C237.829 153.394 237.189 153.05 236.491 152.911C235.794 152.772 235.071 152.843 234.415 153.117C233.758 153.39 233.196 153.852 232.801 154.446C232.407 155.039 232.196 155.737 232.196 156.451C232.21 157.397 232.595 158.3 233.267 158.963C233.938 159.627 234.843 159.999 235.785 159.999L235.79 160.06Z" fill="#58DBDB"/>
</g>
<defs>
<clipPath id="clip0">
<rect width="160" height="305.714" fill="white" transform="translate(305.715) rotate(90)"/>
</clipPath>
</defs>
</svg>
