<svg width="16" height="16" viewBox="0 0 16 16" fill="none" xmlns="http://www.w3.org/2000/svg">
<path d="M9.3 8L7.2 6.8V9.2L9.3 8Z" fill="white"/>
<path fill-rule="evenodd" clip-rule="evenodd" d="M0 8C0 3.58172 3.58172 0 8 0C12.4183 0 16 3.58172 16 8C16 12.4183 12.4183 16 8 16C3.58172 16 0 12.4183 0 8ZM11.1 5.35C11.45 5.45 11.7 5.7 11.8 6.05C12 6.7 12 8 12 8C12 8 12 9.3 11.85 9.95C11.75 10.3 11.5 10.55 11.15 10.65C10.5 10.8 8 10.8 8 10.8C8 10.8 5.45 10.8 4.85 10.65C4.5 10.55 4.25 10.3 4.15 9.95C4 9.3 4 8 4 8C4 8 4 6.7 4.1 6.05C4.2 5.7 4.45 5.45 4.8 5.35C5.45 5.2 7.95 5.2 7.95 5.2C7.95 5.2 10.5 5.2 11.1 5.35Z" fill="white"/>
</svg>
