<svg width="16" height="16" viewBox="0 0 16 16" fill="none" xmlns="http://www.w3.org/2000/svg">
<path d="M8 9.4C7.25 9.4 6.6 8.8 6.6 8C6.6 7.25 7.2 6.6 8 6.6C8.75 6.6 9.4 7.2 9.4 8C9.4 8.75 8.75 9.4 8 9.4Z" fill="white"/>
<path fill-rule="evenodd" clip-rule="evenodd" d="M9.7 4.6H6.3C5.9 4.65 5.7 4.7 5.55 4.75C5.35 4.8 5.2 4.9 5.05 5.05C4.93131 5.16869 4.87523 5.28739 4.80744 5.43085C4.78958 5.46866 4.77085 5.50829 4.75 5.55C4.74227 5.5732 4.73333 5.59761 4.72376 5.62376C4.67145 5.76666 4.6 5.96188 4.6 6.3V9.7C4.65 10.1 4.7 10.3 4.75 10.45C4.8 10.65 4.9 10.8 5.05 10.95C5.16869 11.0687 5.28739 11.1248 5.43085 11.1926C5.46869 11.2104 5.50826 11.2291 5.55 11.25C5.5732 11.2577 5.59761 11.2667 5.62376 11.2762C5.76667 11.3285 5.96188 11.4 6.3 11.4H9.7C10.1 11.35 10.3 11.3 10.45 11.25C10.65 11.2 10.8 11.1 10.95 10.95C11.0687 10.8313 11.1248 10.7126 11.1926 10.5691C11.2104 10.5313 11.2291 10.4917 11.25 10.45C11.2577 10.4268 11.2667 10.4024 11.2762 10.3762C11.3285 10.2333 11.4 10.0381 11.4 9.7V6.3C11.35 5.9 11.3 5.7 11.25 5.55C11.2 5.35 11.1 5.2 10.95 5.05C10.8313 4.93131 10.7126 4.87523 10.5691 4.80744C10.5314 4.78959 10.4917 4.77083 10.45 4.75C10.4268 4.74226 10.4024 4.73333 10.3762 4.72376C10.2333 4.67145 10.0381 4.6 9.7 4.6ZM8 5.85C6.8 5.85 5.85 6.8 5.85 8C5.85 9.2 6.8 10.15 8 10.15C9.2 10.15 10.15 9.2 10.15 8C10.15 6.8 9.2 5.85 8 5.85ZM10.7 5.8C10.7 6.07614 10.4761 6.3 10.2 6.3C9.92386 6.3 9.7 6.07614 9.7 5.8C9.7 5.52386 9.92386 5.3 10.2 5.3C10.4761 5.3 10.7 5.52386 10.7 5.8Z" fill="white"/>
<path fill-rule="evenodd" clip-rule="evenodd" d="M0 8C0 3.58172 3.58172 0 8 0C12.4183 0 16 3.58172 16 8C16 12.4183 12.4183 16 8 16C3.58172 16 0 12.4183 0 8ZM6.3 3.85H9.7C10.15 3.9 10.45 3.95 10.7 4.05C11 4.2 11.2 4.3 11.45 4.55C11.7 4.8 11.85 5.05 11.95 5.3C12.05 5.55 12.15 5.85 12.15 6.3V9.7C12.1 10.15 12.05 10.45 11.95 10.7C11.8 11 11.7 11.2 11.45 11.45C11.2 11.7 10.95 11.85 10.7 11.95C10.45 12.05 10.15 12.15 9.7 12.15H6.3C5.85 12.1 5.55 12.05 5.3 11.95C5 11.8 4.8 11.7 4.55 11.45C4.3 11.2 4.15 10.95 4.05 10.7C3.95 10.45 3.85 10.15 3.85 9.7V6.3C3.9 5.85 3.95 5.55 4.05 5.3C4.2 5 4.3 4.8 4.55 4.55C4.8 4.3 5.05 4.15 5.3 4.05C5.55 3.95 5.85 3.85 6.3 3.85Z" fill="white"/>
</svg>
