<svg width="16" height="16" viewBox="0 0 16 16" fill="none" xmlns="http://www.w3.org/2000/svg">
<path d="M12 1H4C3.60218 1 3.22064 1.15804 2.93934 1.43934C2.65804 1.72064 2.5 2.10218 2.5 2.5V13.5C2.5 13.8978 2.65804 14.2794 2.93934 14.5607C3.22064 14.842 3.60218 15 4 15H10C10.1324 14.9982 10.2592 14.9464 10.355 14.855L13.355 11.855C13.4013 11.8083 13.438 11.7529 13.4629 11.692C13.4878 11.631 13.5004 11.5658 13.5 11.5V2.5C13.5 2.10218 13.342 1.72064 13.0607 1.43934C12.7794 1.15804 12.3978 1 12 1ZM3.5 13.5V2.5C3.5 2.36739 3.55268 2.24021 3.64645 2.14645C3.74021 2.05268 3.86739 2 4 2H12C12.1326 2 12.2598 2.05268 12.3536 2.14645C12.4473 2.24021 12.5 2.36739 12.5 2.5V11H11C10.6022 11 10.2206 11.158 9.93934 11.4393C9.65804 11.7206 9.5 12.1022 9.5 12.5V14H4C3.86739 14 3.74021 13.9473 3.64645 13.8536C3.55268 13.7598 3.5 13.6326 3.5 13.5ZM11.795 12L10.5 13.295V12.5C10.5 12.3674 10.5527 12.2402 10.6464 12.1464C10.7402 12.0527 10.8674 12 11 12H11.795Z" fill="#FFA339"/>
<path d="M8.37471 8.30499L7.21471 5.30499C7.17786 5.21173 7.1138 5.13171 7.03088 5.07531C6.94796 5.01892 6.84999 4.98877 6.74971 4.98877C6.64943 4.98877 6.55147 5.01892 6.46855 5.07531C6.38562 5.13171 6.32157 5.21173 6.28471 5.30499L4.53471 9.80499C4.50519 9.86712 4.48881 9.93467 4.48659 10.0034C4.48437 10.0722 4.49635 10.1406 4.5218 10.2045C4.54725 10.2684 4.58561 10.3264 4.63448 10.3748C4.68335 10.4232 4.74168 10.461 4.80583 10.4859C4.86998 10.5107 4.93856 10.522 5.00728 10.5191C5.07601 10.5162 5.1434 10.4992 5.20524 10.4691C5.26708 10.439 5.32205 10.3964 5.36669 10.3441C5.41134 10.2918 5.44471 10.2308 5.46471 10.165L5.92471 8.99999H7.57471L8.03471 10.18C8.07097 10.274 8.13477 10.3548 8.21774 10.4119C8.30071 10.469 8.39899 10.4997 8.49971 10.5C8.56145 10.5005 8.62267 10.4886 8.67971 10.465C8.8028 10.417 8.90188 10.3221 8.95528 10.2013C9.00868 10.0804 9.01207 9.94334 8.96471 9.81999L8.37471 8.30499ZM6.31471 7.99999L6.74971 6.87999L7.18471 7.99999H6.31471Z" fill="#FFA339"/>
<path d="M9 6H9.5V6.5C9.5 6.63261 9.55268 6.75979 9.64645 6.85355C9.74021 6.94732 9.86739 7 10 7C10.1326 7 10.2598 6.94732 10.3536 6.85355C10.4473 6.75979 10.5 6.63261 10.5 6.5V6H11C11.1326 6 11.2598 5.94732 11.3536 5.85355C11.4473 5.75979 11.5 5.63261 11.5 5.5C11.5 5.36739 11.4473 5.24021 11.3536 5.14645C11.2598 5.05268 11.1326 5 11 5H10.5V4.5C10.5 4.36739 10.4473 4.24021 10.3536 4.14645C10.2598 4.05268 10.1326 4 10 4C9.86739 4 9.74021 4.05268 9.64645 4.14645C9.55268 4.24021 9.5 4.36739 9.5 4.5V5H9C8.86739 5 8.74021 5.05268 8.64645 5.14645C8.55268 5.24021 8.5 5.36739 8.5 5.5C8.5 5.63261 8.55268 5.75979 8.64645 5.85355C8.74021 5.94732 8.86739 6 9 6Z" fill="#FFA339"/>
</svg>
