<svg width="16" height="16" viewBox="0 0 16 16" fill="none" xmlns="http://www.w3.org/2000/svg">
<path d="M7.64654 4.4647L8.88398 3.22726C9.1393 2.9717 9.44246 2.76896 9.77616 2.6306C10.1099 2.49224 10.4675 2.42098 10.8288 2.4209C11.19 2.42081 11.5477 2.4919 11.8815 2.63011C12.2153 2.76831 12.5185 2.97092 12.774 3.22635C13.0294 3.48179 13.232 3.78505 13.3702 4.11881C13.5084 4.45258 13.5795 4.8103 13.5794 5.17154C13.5793 5.53278 13.5081 5.89047 13.3697 6.22416C13.2314 6.55786 13.0286 6.86103 12.7731 7.11635L11.0053 8.88411C10.7499 9.13948 10.4468 9.34204 10.1131 9.48024C9.77949 9.61844 9.42189 9.68957 9.06075 9.68957C8.69962 9.68957 8.34202 9.61844 8.00837 9.48024C7.67473 9.34204 7.37157 9.13948 7.11621 8.88411" stroke="black" stroke-linecap="round" stroke-linejoin="round"/>
<path d="M8.3533 11.5354L7.11586 12.7729C6.86054 13.0284 6.55737 13.2312 6.22368 13.3695C5.88998 13.5079 5.53229 13.5791 5.17105 13.5792C4.80981 13.5793 4.45209 13.5082 4.11833 13.37C3.78457 13.2318 3.4813 13.0292 3.22587 12.7738C2.97043 12.5183 2.76782 12.2151 2.62962 11.8813C2.49142 11.5475 2.42033 11.1898 2.42041 10.8286C2.42049 10.4673 2.49175 10.1096 2.63011 9.77595C2.76847 9.44226 2.97122 9.13909 3.22677 8.88377L4.99454 7.116C5.2499 6.86064 5.55306 6.65808 5.8867 6.51988C6.22035 6.38168 6.57795 6.31055 6.93908 6.31055C7.30022 6.31055 7.65782 6.38168 7.99146 6.51988C8.32511 6.65808 8.62827 6.86064 8.88363 7.116" stroke="black" stroke-linecap="round" stroke-linejoin="round"/>
</svg>
