<svg xmlns="http://www.w3.org/2000/svg" xmlns:xlink="http://www.w3.org/1999/xlink" width="16" height="16" viewBox="0 0 16 16">
  <defs>
    <clipPath id="clip-path">
      <rect id="Rectangle_47" data-name="Rectangle 47" width="16" height="16" transform="translate(141 303)" fill="#fff" stroke="#707070" stroke-width="1"/>
    </clipPath>
  </defs>
  <g id="Mask_Group_22" data-name="Mask Group 22" transform="translate(-141 -303)" clip-path="url(#clip-path)">
    <path id="filter" d="M14.957,0H.692A.67.67,0,0,0,.1.364a.679.679,0,0,0,.053.707L5.374,8.433l.005.007a1.493,1.493,0,0,1,.293.886v6A.667.667,0,0,0,6.34,16a.687.687,0,0,0,.263-.053l2.937-1.12a.636.636,0,0,0,.438-.628V9.326a1.493,1.493,0,0,1,.293-.886l.005-.007L15.5,1.071a.679.679,0,0,0,.053-.707.67.67,0,0,0-.6-.364ZM9.616,7.959a2.312,2.312,0,0,0-.451,1.367V14.1l-2.68,1.022v-5.8a2.311,2.311,0,0,0-.451-1.367L.96.812H14.69Zm0,0" transform="translate(141.175 303)"/>
  </g>
</svg>
