<svg xmlns="http://www.w3.org/2000/svg" xmlns:xlink="http://www.w3.org/1999/xlink" width="40" height="40" viewBox="0 0 40 40">
  <defs>
    <clipPath id="clip-path">
      <rect id="Rectangle_40" data-name="Rectangle 40" width="40" height="40" rx="20" transform="translate(855 641)" fill="#676767"/>
    </clipPath>
  </defs>
  <g id="Mask_Group_11" data-name="Mask Group 11" transform="translate(-855 -641)" clip-path="url(#clip-path)">
    <g id="twitter_5_" data-name="twitter (5)" transform="translate(855 641)">
      <g id="Group_13" data-name="Group 13">
        <path id="Path_28" data-name="Path 28" d="M20,0A20,20,0,1,0,40,20,20.023,20.023,0,0,0,20,0Zm8.922,15.423c.009.2.014.4.014.6A13.094,13.094,0,0,1,8.781,27.049,9.3,9.3,0,0,0,15.6,25.143a4.608,4.608,0,0,1-4.3-3.2,4.621,4.621,0,0,0,2.078-.077,4.6,4.6,0,0,1-3.692-4.514c0-.019,0-.039,0-.058a4.584,4.584,0,0,0,2.084.575,4.61,4.61,0,0,1-1.424-6.146,13.071,13.071,0,0,0,9.488,4.811,4.606,4.606,0,0,1,7.844-4.2A9.188,9.188,0,0,0,30.6,11.22a4.624,4.624,0,0,1-2.027,2.547,9.152,9.152,0,0,0,2.644-.724,9.26,9.26,0,0,1-2.294,2.38Z" fill="#676767"/>
      </g>
    </g>
  </g>
</svg>
