<svg xmlns="http://www.w3.org/2000/svg" width="654.875" height="228.71" viewBox="0 0 654.875 228.71">
  <path id="Path_242" data-name="Path 242" d="M7.605,0V-107.25H41.34q15.34,0,24.18,6.695T74.36-80.34q0,16.38-13.26,23.4Q72.15-55.12,78-48.36t5.85,17.745A30.145,30.145,0,0,1,79.528-14.2a27.994,27.994,0,0,1-12.22,10.53A43.8,43.8,0,0,1,48.685,0Zm25.09-65.585h2.6q7.215,0,11.018-2.925t3.8-8.45q0-5.525-3.673-8.255t-11.148-2.73h-2.6Zm0,46.215h7.15q8.905,0,13.26-2.99T57.46-31.4q0-6.175-4.485-9.392T39.845-44h-7.15ZM146.055,2.08a52,52,0,0,1-21.06-4.29A53.771,53.771,0,0,1,107.77-14.137a56.07,56.07,0,0,1-11.6-17.745A56.011,56.011,0,0,1,91.975-53.56a56.011,56.011,0,0,1,4.192-21.678,56.07,56.07,0,0,1,11.6-17.745,53.771,53.771,0,0,1,17.225-11.927,52,52,0,0,1,21.06-4.29,52,52,0,0,1,21.06,4.29A53.771,53.771,0,0,1,184.34-92.982a56.07,56.07,0,0,1,11.6,17.745,56.011,56.011,0,0,1,4.193,21.678,56.011,56.011,0,0,1-4.193,21.678,56.07,56.07,0,0,1-11.6,17.745A53.772,53.772,0,0,1,167.115-2.21,52,52,0,0,1,146.055,2.08Zm0-24.18a26.013,26.013,0,0,0,10.952-2.275,24.827,24.827,0,0,0,8.58-6.468,30.093,30.093,0,0,0,5.59-9.945A39.008,39.008,0,0,0,173.16-53.56a39.008,39.008,0,0,0-1.983-12.772,30.093,30.093,0,0,0-5.59-9.945,24.827,24.827,0,0,0-8.58-6.468,26.013,26.013,0,0,0-10.952-2.275A26.013,26.013,0,0,0,135.1-82.745a24.827,24.827,0,0,0-8.58,6.468,30.093,30.093,0,0,0-5.59,9.945A39.008,39.008,0,0,0,118.95-53.56a39.008,39.008,0,0,0,1.982,12.773,30.093,30.093,0,0,0,5.59,9.945,24.827,24.827,0,0,0,8.58,6.468A26.013,26.013,0,0,0,146.055-22.1ZM264.875,2.08a52,52,0,0,1-21.06-4.29A53.772,53.772,0,0,1,226.59-14.137a56.07,56.07,0,0,1-11.6-17.745,56.011,56.011,0,0,1-4.193-21.678,56.011,56.011,0,0,1,4.193-21.678,56.07,56.07,0,0,1,11.6-17.745,53.771,53.771,0,0,1,17.225-11.927,52,52,0,0,1,21.06-4.29,52,52,0,0,1,21.06,4.29A53.771,53.771,0,0,1,303.16-92.982a56.07,56.07,0,0,1,11.6,17.745,56.011,56.011,0,0,1,4.193,21.678,56.011,56.011,0,0,1-4.193,21.678,56.07,56.07,0,0,1-11.6,17.745A53.772,53.772,0,0,1,285.935-2.21,52,52,0,0,1,264.875,2.08Zm0-24.18a26.013,26.013,0,0,0,10.952-2.275,24.827,24.827,0,0,0,8.58-6.468A30.093,30.093,0,0,0,290-40.787,39.009,39.009,0,0,0,291.98-53.56,39.009,39.009,0,0,0,290-66.332a30.093,30.093,0,0,0-5.59-9.945,24.827,24.827,0,0,0-8.58-6.468,26.013,26.013,0,0,0-10.952-2.275,26.013,26.013,0,0,0-10.952,2.275,24.827,24.827,0,0,0-8.58,6.468,30.093,30.093,0,0,0-5.59,9.945A39.008,39.008,0,0,0,237.77-53.56a39.008,39.008,0,0,0,1.983,12.773,30.093,30.093,0,0,0,5.59,9.945,24.827,24.827,0,0,0,8.58,6.468A26.013,26.013,0,0,0,264.875-22.1ZM337.935,0V-107.25H362.96v43.16l36.2-43.16h30.55L386.1-56.225,436.475,0H401.96l-39-44.135V0ZM13.65,116V8.75H53.3a44.6,44.6,0,0,1,19.37,3.933A29.544,29.544,0,0,1,85.475,24.025q4.55,7.41,4.55,17.94a37.191,37.191,0,0,1-2.633,14.268A30.714,30.714,0,0,1,79.82,67.217,33.759,33.759,0,0,1,67.795,74.27L102.635,116H70.85L41.08,77.325h-2.4V116ZM38.675,56.525H45.24a27.921,27.921,0,0,0,10.075-1.592,12.855,12.855,0,0,0,6.207-4.713,13.13,13.13,0,0,0,2.112-7.54q0-6.825-4.745-10.4T45.24,28.7H38.675ZM114.335,116V8.75h61.62V30.72H139.36V51.26h35.035V73.23H139.36v20.8h36.595V116Zm180.83,3.51q-5.07-1.95-10.075-4.452t-9.945-5.623A53.688,53.688,0,0,1,224.9,113.79,53.647,53.647,0,0,1,207.708,101.9,56.127,56.127,0,0,1,191.945,62.5,56.125,56.125,0,0,1,207.74,23.018,53.772,53.772,0,0,1,224.965,11.09a53.838,53.838,0,0,1,42.12,0A53.771,53.771,0,0,1,284.31,23.018a57,57,0,0,1,13.617,54.99A50.181,50.181,0,0,1,291.46,91.95q3.77,1.56,7.442,2.86t7.313,2.34ZM246.025,93.9a19.841,19.841,0,0,0,3.9-.39,15.883,15.883,0,0,0,3.51-1.105q-3.77-3.51-7.15-7.215a92.1,92.1,0,0,1-6.24-7.605L250.64,64.26A106.257,106.257,0,0,0,268.45,79.6a29.934,29.934,0,0,0,3.477-8.06,34.509,34.509,0,0,0,1.2-9.1,39.009,39.009,0,0,0-1.982-12.772,30.417,30.417,0,0,0-5.558-9.945,24.51,24.51,0,0,0-8.547-6.468,27.658,27.658,0,0,0-21.97,0,24.827,24.827,0,0,0-8.58,6.468A30.035,30.035,0,0,0,220.9,49.7a39.3,39.3,0,0,0-1.982,12.8A39.3,39.3,0,0,0,220.9,75.31a29.979,29.979,0,0,0,5.558,9.945,24.333,24.333,0,0,0,8.548,6.4A26.5,26.5,0,0,0,246.025,93.9ZM363.87,118.08q-20.8,0-31.493-10.107T321.685,78.04V8.75h25.09V70.695q0,12.48,3.867,17.615T363.8,93.445q9.36,0,13.227-5.135T380.9,70.695V8.75h25.09V78.04q0,19.825-10.66,29.933T363.87,118.08ZM431.34,116V8.75h61.62V30.72h-36.6V51.26H491.4V73.23H456.365v20.8h36.6V116Zm114.6,2.08a65.311,65.311,0,0,1-24.927-4.81,65.887,65.887,0,0,1-9.1-4.55,44.507,44.507,0,0,1-6.337-4.55l12.545-21.06q2.535,1.885,5.753,3.965a60.207,60.207,0,0,0,6.923,3.835,47.161,47.161,0,0,0,7.735,2.86,30.6,30.6,0,0,0,8.125,1.1,18.2,18.2,0,0,0,6.7-1.1,8.846,8.846,0,0,0,5.915-8.84,9.81,9.81,0,0,0-1.4-5.3A14.544,14.544,0,0,0,553.6,75.44a56.7,56.7,0,0,0-7.247-4.062q-4.387-2.112-10.367-4.842a56.849,56.849,0,0,1-8.255-4.745,34.5,34.5,0,0,1-6.695-6.045,25.611,25.611,0,0,1-4.42-7.475,25,25,0,0,1-1.56-8.97,29.486,29.486,0,0,1,2.568-12.09,32.987,32.987,0,0,1,7.345-10.4A35.349,35.349,0,0,1,536.413,9.5,39.066,39.066,0,0,1,551.2,6.8a52.64,52.64,0,0,1,11.667,1.365,70.141,70.141,0,0,1,11.473,3.64,46.917,46.917,0,0,1,9.425,5.135l-10.14,19.955a43.657,43.657,0,0,0-6.792-3.8,41.517,41.517,0,0,0-7.508-2.568,32.586,32.586,0,0,0-7.54-.91,16.793,16.793,0,0,0-6.533,1.138,9.485,9.485,0,0,0-4.16,3.185,8.006,8.006,0,0,0-1.463,4.777,6.834,6.834,0,0,0,.845,3.478,7.914,7.914,0,0,0,2.567,2.6,31.064,31.064,0,0,0,4.323,2.308q2.6,1.17,6.11,2.6,7.93,3.445,14.17,6.727a49.732,49.732,0,0,1,10.5,7.182,26.067,26.067,0,0,1,6.435,8.938,29.727,29.727,0,0,1,2.177,11.863q0,10.595-5.037,18.135a31.928,31.928,0,0,1-14.2,11.537Q558.35,118.08,545.935,118.08Zm66.3-2.08V30.785H587.08V8.75h75.4V30.785H637.325V116Z" transform="translate(-7.605 109.2)" fill="#7a7a7a"/>
</svg>
