<svg xmlns="http://www.w3.org/2000/svg" xmlns:xlink="http://www.w3.org/1999/xlink" width="20" height="20" viewBox="0 0 20 20">
  <defs>
    <clipPath id="clip-path">
      <rect id="Rectangle_304" data-name="Rectangle 304" width="20" height="20" transform="translate(645 685)" fill="#e7194a" stroke="#707070" stroke-width="1"/>
    </clipPath>
  </defs>
  <g id="Mask_Group_88" data-name="Mask Group 88" transform="translate(-645 -685)" clip-path="url(#clip-path)">
    <g id="price-tag" transform="translate(643.492 682.359)">
      <path id="Path_180" data-name="Path 180" d="M20.752,2.641H12.074a.755.755,0,0,0-.532.223l-9.81,9.81a.755.755,0,0,0,0,1.068L10.41,22.42a.755.755,0,0,0,1.068,0l9.81-9.81a.755.755,0,0,0,.219-.536V3.4a.755.755,0,0,0-.755-.755ZM20,11.761l-9.055,9.055-7.61-7.61L12.387,4.15H20Z" fill="#e7194a"/>
      <circle id="Ellipse_148" data-name="Ellipse 148" cx="1.321" cy="1.321" r="1.321" transform="translate(15.847 5.66)" fill="#e7194a"/>
    </g>
  </g>
</svg>
