<svg xmlns="http://www.w3.org/2000/svg" xmlns:xlink="http://www.w3.org/1999/xlink" width="20" height="20" viewBox="0 0 20 20">
  <defs>
    <clipPath id="clip-path">
      <rect id="Rectangle_302" data-name="Rectangle 302" width="20" height="20" transform="translate(645 622)" fill="#e7194a" stroke="#707070" stroke-width="1"/>
    </clipPath>
  </defs>
  <g id="Mask_Group_87" data-name="Mask Group 87" transform="translate(-645 -622)" clip-path="url(#clip-path)">
    <g id="reading" transform="translate(644.998 622)">
      <path id="Path_178" data-name="Path 178" d="M14.065,4.063A4.063,4.063,0,1,0,10,8.126a4.063,4.063,0,0,0,4.063-4.063ZM10,6.876a2.813,2.813,0,1,1,2.813-2.813A2.813,2.813,0,0,1,10,6.876Z" fill="#e7194a"/>
      <path id="Path_179" data-name="Path 179" d="M15.568,8.126H4.435A1.908,1.908,0,0,0,2.5,10v6.251a1.908,1.908,0,0,0,1.935,1.875h.6l.191,1.337a.629.629,0,0,0,.865.486,4.775,4.775,0,0,1,3.665,0,.65.65,0,0,0,.5,0,4.777,4.777,0,0,1,3.665,0,.629.629,0,0,0,.865-.486l.832-5.824a.625.625,0,0,0-.412-.678A8.087,8.087,0,0,0,10,12.9a8.089,8.089,0,0,0-5.2.065.625.625,0,0,0-.412.678l.462,3.236H4.435a.658.658,0,0,1-.685-.625V10a.658.658,0,0,1,.685-.625H15.568a.658.658,0,0,1,.685.625v6.251a.625.625,0,0,0,1.25,0V10A1.908,1.908,0,0,0,15.568,8.126ZM10.627,14.01a6.875,6.875,0,0,1,3.672-.018l-.649,4.544a5.836,5.836,0,0,0-3.023-.033Zm-1.25,0V18.5a5.831,5.831,0,0,0-3.023.033L5.7,13.992a6.868,6.868,0,0,1,3.672.018Z" fill="#e7194a"/>
      <circle id="Ellipse_147" data-name="Ellipse 147" cx="0.625" cy="0.625" r="0.625" transform="translate(9.376 10.314)" fill="#e7194a"/>
    </g>
  </g>
</svg>
