<svg width="160" height="176" viewBox="0 0 160 176" fill="none" xmlns="http://www.w3.org/2000/svg">
<g clip-path="url(#clip0)">
<path opacity="0.7" d="M64.7033 206.204C63.9894 206.204 63.2916 205.994 62.6981 205.599C62.1045 205.204 61.6419 204.642 61.3687 203.986C61.0955 203.329 61.024 202.606 61.1633 201.909C61.3026 201.212 61.6463 200.571 62.1511 200.068C62.6559 199.566 63.299 199.223 63.9992 199.085C64.6993 198.946 65.4249 199.017 66.0845 199.289C66.744 199.561 67.3076 200.022 67.7042 200.613C68.1008 201.204 68.3126 201.899 68.3126 202.61C68.3132 203.082 68.2202 203.55 68.039 203.986C67.8579 204.423 67.592 204.819 67.2568 205.153C66.9215 205.487 66.5233 205.752 66.0851 205.932C65.647 206.113 65.1775 206.205 64.7033 206.204ZM68.3126 235.78C68.3126 235.069 68.1008 234.374 67.7042 233.783C67.3076 233.192 66.744 232.731 66.0845 232.459C65.4249 232.187 64.6993 232.116 63.9992 232.255C63.299 232.393 62.6559 232.736 62.1511 233.238C61.6463 233.741 61.3026 234.382 61.1633 235.079C61.024 235.776 61.0955 236.499 61.3687 237.156C61.6419 237.812 62.1045 238.374 62.6981 238.769C63.2916 239.164 63.9894 239.374 64.7033 239.374C65.1767 239.374 65.6452 239.28 66.0823 239.099C66.5194 238.918 66.9164 238.654 67.2507 238.32C67.585 237.986 67.8499 237.59 68.0305 237.154C68.2111 236.718 68.3038 236.251 68.3031 235.78H68.3126ZM68.3126 268.95C68.3126 268.239 68.1008 267.544 67.7042 266.953C67.3076 266.362 66.744 265.901 66.0845 265.629C65.4249 265.357 64.6993 265.286 63.9992 265.425C63.299 265.563 62.6559 265.906 62.1511 266.408C61.6463 266.911 61.3026 267.552 61.1633 268.249C61.024 268.946 61.0955 269.669 61.3687 270.326C61.6419 270.982 62.1045 271.544 62.6981 271.939C63.2916 272.334 63.9894 272.545 64.7033 272.545C65.1771 272.544 65.646 272.45 66.0834 272.269C66.5208 272.088 66.9181 271.822 67.2524 271.488C67.5867 271.154 67.8516 270.757 68.0319 270.321C68.2122 269.885 68.3044 269.417 68.3031 268.945L68.3126 268.95ZM68.3126 302.12C68.3126 301.409 68.1008 300.714 67.7042 300.123C67.3076 299.532 66.744 299.071 66.0845 298.799C65.4249 298.527 64.6993 298.456 63.9992 298.595C63.299 298.733 62.6559 299.076 62.1511 299.578C61.6463 300.081 61.3026 300.722 61.1633 301.419C61.024 302.116 61.0955 302.839 61.3687 303.496C61.6419 304.152 62.1045 304.714 62.6981 305.109C63.2916 305.504 63.9894 305.715 64.7033 305.715C65.1767 305.714 65.6452 305.62 66.0823 305.439C66.5194 305.258 66.9164 304.994 67.2507 304.66C67.585 304.326 67.8499 303.93 68.0305 303.494C68.2111 303.058 68.3038 302.592 68.3031 302.12H68.3126ZM98.8905 202.61C98.8905 201.899 98.6787 201.204 98.2822 200.613C97.8856 200.022 97.3219 199.561 96.6624 199.289C96.0029 199.017 95.2772 198.946 94.5771 199.085C93.8769 199.223 93.2338 199.566 92.729 200.068C92.2242 200.571 91.8805 201.212 91.7412 201.909C91.6019 202.606 91.6734 203.329 91.9466 203.986C92.2198 204.642 92.6824 205.204 93.276 205.599C93.8695 205.994 94.5674 206.204 95.2812 206.204C96.2384 206.204 97.1564 205.826 97.8333 205.152C98.5102 204.478 98.8905 203.563 98.8905 202.61ZM98.8905 235.78C98.8905 235.069 98.6787 234.374 98.2822 233.783C97.8856 233.192 97.3219 232.731 96.6624 232.459C96.0029 232.187 95.2772 232.116 94.5771 232.255C93.8769 232.393 93.2338 232.736 92.729 233.238C92.2242 233.741 91.8805 234.382 91.7412 235.079C91.6019 235.776 91.6734 236.499 91.9466 237.156C92.2198 237.812 92.6824 238.374 93.276 238.769C93.8695 239.164 94.5674 239.374 95.2812 239.374C95.7554 239.375 96.225 239.283 96.6632 239.102C97.1014 238.922 97.4994 238.657 97.8347 238.323C98.1699 237.989 98.4359 237.593 98.617 237.156C98.7982 236.72 98.8911 236.252 98.8905 235.78ZM98.8905 268.95C98.8905 268.239 98.6787 267.544 98.2822 266.953C97.8856 266.362 97.3219 265.901 96.6624 265.629C96.0029 265.357 95.2772 265.286 94.5771 265.425C93.8769 265.563 93.2338 265.906 92.729 266.408C92.2242 266.911 91.8805 267.552 91.7412 268.249C91.6019 268.946 91.6734 269.669 91.9466 270.326C92.2198 270.982 92.6824 271.544 93.276 271.939C93.8695 272.334 94.5674 272.545 95.2812 272.545C95.7558 272.545 96.2257 272.452 96.6642 272.272C97.1027 272.091 97.5011 271.826 97.8364 271.491C98.1717 271.157 98.4374 270.76 98.6183 270.323C98.7992 269.886 98.8917 269.418 98.8905 268.945V268.95ZM98.8905 302.12C98.8905 301.409 98.6787 300.714 98.2822 300.123C97.8856 299.532 97.3219 299.071 96.6624 298.799C96.0029 298.527 95.2772 298.456 94.5771 298.595C93.8769 298.733 93.2338 299.076 92.729 299.578C92.2242 300.081 91.8805 300.722 91.7412 301.419C91.6019 302.116 91.6734 302.839 91.9466 303.496C92.2198 304.152 92.6824 304.714 93.276 305.109C93.8695 305.504 94.5674 305.715 95.2812 305.715C95.7554 305.715 96.225 305.623 96.6632 305.442C97.1014 305.262 97.4994 304.997 97.8347 304.663C98.1699 304.329 98.4359 303.933 98.617 303.496C98.7982 303.06 98.8911 302.592 98.8905 302.12ZM129.478 202.61C129.478 201.899 129.266 201.204 128.869 200.613C128.473 200.022 127.909 199.561 127.25 199.289C126.59 199.017 125.865 198.946 125.164 199.085C124.464 199.223 123.821 199.566 123.316 200.068C122.812 200.571 122.468 201.212 122.329 201.909C122.189 202.606 122.261 203.329 122.534 203.986C122.807 204.642 123.27 205.204 123.863 205.599C124.457 205.994 125.155 206.204 125.869 206.204C126.819 206.195 127.728 205.812 128.396 205.139C129.065 204.466 129.44 203.557 129.44 202.61H129.478ZM129.478 235.78C129.478 235.069 129.266 234.374 128.869 233.783C128.473 233.192 127.909 232.731 127.25 232.459C126.59 232.187 125.865 232.116 125.164 232.255C124.464 232.393 123.821 232.736 123.316 233.238C122.812 233.741 122.468 234.382 122.329 235.079C122.189 235.776 122.261 236.499 122.534 237.156C122.807 237.812 123.27 238.374 123.863 238.769C124.457 239.164 125.155 239.374 125.869 239.374C126.819 239.365 127.728 238.982 128.396 238.309C129.065 237.635 129.44 236.727 129.44 235.78H129.478ZM129.478 268.95C129.478 268.239 129.266 267.544 128.869 266.953C128.473 266.362 127.909 265.901 127.25 265.629C126.59 265.357 125.865 265.286 125.164 265.425C124.464 265.563 123.821 265.906 123.316 266.408C122.812 266.911 122.468 267.552 122.329 268.249C122.189 268.946 122.261 269.669 122.534 270.326C122.807 270.982 123.27 271.544 123.863 271.939C124.457 272.334 125.155 272.545 125.869 272.545C126.82 272.535 127.729 272.151 128.398 271.477C129.067 270.803 129.441 269.893 129.44 268.945L129.478 268.95ZM129.478 302.12C129.478 301.409 129.266 300.714 128.869 300.123C128.473 299.532 127.909 299.071 127.25 298.799C126.59 298.527 125.865 298.456 125.164 298.595C124.464 298.733 123.821 299.076 123.316 299.578C122.812 300.081 122.468 300.722 122.329 301.419C122.189 302.116 122.261 302.839 122.534 303.496C122.807 304.152 123.27 304.714 123.863 305.109C124.457 305.504 125.155 305.715 125.869 305.715C126.819 305.705 127.728 305.322 128.396 304.649C129.065 303.976 129.44 303.067 129.44 302.12H129.478ZM160.037 202.61C160.037 201.899 159.825 201.204 159.429 200.613C159.032 200.022 158.468 199.561 157.809 199.289C157.149 199.017 156.424 198.946 155.723 199.085C155.023 199.223 154.38 199.566 153.875 200.068C153.371 200.571 153.027 201.212 152.888 201.909C152.748 202.606 152.82 203.329 153.093 203.986C153.366 204.642 153.829 205.204 154.422 205.599C155.016 205.994 155.714 206.204 156.428 206.204C157.379 206.196 158.288 205.813 158.957 205.14C159.626 204.467 160.001 203.557 159.999 202.61H160.037ZM160.037 235.78C160.037 235.069 159.825 234.374 159.429 233.783C159.032 233.192 158.468 232.731 157.809 232.459C157.149 232.187 156.424 232.116 155.723 232.255C155.023 232.393 154.38 232.736 153.875 233.238C153.371 233.741 153.027 234.382 152.888 235.079C152.748 235.776 152.82 236.499 153.093 237.156C153.366 237.812 153.829 238.374 154.422 238.769C155.016 239.164 155.714 239.374 156.428 239.374C157.379 239.366 158.288 238.983 158.957 238.31C159.626 237.637 160.001 236.727 159.999 235.78H160.037ZM160.037 268.95C160.037 268.239 159.825 267.544 159.429 266.953C159.032 266.362 158.468 265.901 157.809 265.629C157.149 265.357 156.424 265.286 155.723 265.425C155.023 265.563 154.38 265.906 153.875 266.408C153.371 266.911 153.027 267.552 152.888 268.249C152.748 268.946 152.82 269.669 153.093 270.326C153.366 270.982 153.829 271.544 154.422 271.939C155.016 272.334 155.714 272.545 156.428 272.545C157.38 272.536 158.289 272.153 158.958 271.478C159.628 270.804 160.002 269.893 159.999 268.945L160.037 268.95ZM160.037 302.12C160.037 301.409 159.825 300.714 159.429 300.123C159.032 299.532 158.468 299.071 157.809 298.799C157.149 298.527 156.424 298.456 155.723 298.595C155.023 298.733 154.38 299.076 153.875 299.578C153.371 300.081 153.027 300.722 152.888 301.419C152.748 302.116 152.82 302.839 153.093 303.496C153.366 304.152 153.829 304.714 154.422 305.109C155.016 305.504 155.714 305.715 156.428 305.715C157.379 305.706 158.288 305.323 158.957 304.65C159.626 303.977 160.001 303.067 159.999 302.12H160.037ZM68.3031 103.1C68.3031 102.389 68.0914 101.694 67.6948 101.103C67.2982 100.512 66.7346 100.051 66.075 99.7792C65.4155 99.5071 64.6899 99.436 63.9897 99.5747C63.2896 99.7133 62.6464 100.056 62.1417 100.558C61.6369 101.061 61.2931 101.702 61.1539 102.399C61.0146 103.096 61.0861 103.819 61.3593 104.476C61.6325 105.132 62.0951 105.694 62.6886 106.089C63.2822 106.484 63.98 106.694 64.6939 106.694C65.6511 106.694 66.5691 106.316 67.246 105.642C67.9228 104.968 68.3031 104.053 68.3031 103.1ZM68.3031 136.27C68.3031 135.559 68.0914 134.864 67.6948 134.273C67.2982 133.682 66.7346 133.221 66.075 132.949C65.4155 132.677 64.6899 132.606 63.9897 132.745C63.2896 132.883 62.6464 133.226 62.1417 133.728C61.6369 134.231 61.2931 134.872 61.1539 135.569C61.0146 136.266 61.0861 136.989 61.3593 137.646C61.6325 138.302 62.0951 138.864 62.6886 139.259C63.2822 139.654 63.98 139.864 64.6939 139.864C65.6511 139.864 66.5691 139.486 67.246 138.812C67.9228 138.138 68.3031 137.223 68.3031 136.27ZM68.3031 169.44C68.3031 168.729 68.0914 168.034 67.6948 167.443C67.2982 166.852 66.7346 166.391 66.075 166.119C65.4155 165.847 64.6899 165.776 63.9897 165.915C63.2896 166.053 62.6464 166.396 62.1417 166.898C61.6369 167.401 61.2931 168.042 61.1539 168.739C61.0146 169.436 61.0861 170.159 61.3593 170.816C61.6325 171.472 62.0951 172.034 62.6886 172.429C63.2822 172.824 63.98 173.034 64.6939 173.034C65.168 173.035 65.6377 172.943 66.0758 172.762C66.514 172.582 66.9121 172.317 67.2473 171.983C67.5826 171.649 67.8485 171.253 68.0297 170.816C68.2109 170.38 68.3038 169.912 68.3031 169.44ZM98.8905 103.1C98.8905 102.389 98.6787 101.694 98.2822 101.103C97.8856 100.512 97.3219 100.051 96.6624 99.7792C96.0029 99.5071 95.2772 99.436 94.5771 99.5747C93.8769 99.7133 93.2338 100.056 92.729 100.558C92.2242 101.061 91.8805 101.702 91.7412 102.399C91.6019 103.096 91.6734 103.819 91.9466 104.476C92.2198 105.132 92.6824 105.694 93.276 106.089C93.8695 106.484 94.5674 106.694 95.2812 106.694C96.2384 106.694 97.1564 106.316 97.8333 105.642C98.5102 104.968 98.8905 104.053 98.8905 103.1ZM98.8905 136.27C98.8905 135.559 98.6787 134.864 98.2822 134.273C97.8856 133.682 97.3219 133.221 96.6624 132.949C96.0029 132.677 95.2772 132.606 94.5771 132.745C93.8769 132.883 93.2338 133.226 92.729 133.728C92.2242 134.231 91.8805 134.872 91.7412 135.569C91.6019 136.266 91.6734 136.989 91.9466 137.646C92.2198 138.302 92.6824 138.864 93.276 139.259C93.8695 139.654 94.5674 139.864 95.2812 139.864C96.2384 139.864 97.1564 139.486 97.8333 138.812C98.5102 138.138 98.8905 137.223 98.8905 136.27ZM98.8905 169.44C98.8905 168.729 98.6787 168.034 98.2822 167.443C97.8856 166.852 97.3219 166.391 96.6624 166.119C96.0029 165.847 95.2772 165.776 94.5771 165.915C93.8769 166.053 93.2338 166.396 92.729 166.898C92.2242 167.401 91.8805 168.042 91.7412 168.739C91.6019 169.436 91.6734 170.159 91.9466 170.816C92.2198 171.472 92.6824 172.034 93.276 172.429C93.8695 172.824 94.5674 173.034 95.2812 173.034C95.7554 173.035 96.225 172.943 96.6632 172.762C97.1014 172.582 97.4994 172.317 97.8347 171.983C98.1699 171.649 98.4359 171.253 98.617 170.816C98.7982 170.38 98.8911 169.912 98.8905 169.44ZM129.478 103.1C129.478 102.389 129.266 101.694 128.869 101.103C128.473 100.512 127.909 100.051 127.25 99.7792C126.59 99.5071 125.865 99.436 125.164 99.5747C124.464 99.7133 123.821 100.056 123.316 100.558C122.812 101.061 122.468 101.702 122.329 102.399C122.189 103.096 122.261 103.819 122.534 104.476C122.807 105.132 123.27 105.694 123.863 106.089C124.457 106.484 125.155 106.694 125.869 106.694C126.819 106.683 127.727 106.3 128.395 105.627C129.063 104.954 129.439 104.046 129.44 103.1H129.478ZM7.25084 202.61C7.25084 201.899 7.03911 201.204 6.64251 200.613C6.24592 200.022 5.68224 199.561 5.02273 199.289C4.36322 199.017 3.63757 198.946 2.93743 199.085C2.23729 199.223 1.59414 199.566 1.08937 200.068C0.584598 200.571 0.240841 201.212 0.101576 201.909C-0.0376902 202.606 0.0338126 203.329 0.306992 203.986C0.580172 204.642 1.04279 205.204 1.63634 205.599C2.22989 205.994 2.92771 206.204 3.64157 206.204C4.59228 206.195 5.50066 205.812 6.16941 205.139C6.83817 204.466 7.2132 203.557 7.21315 202.61H7.25084ZM7.25084 235.78C7.25084 235.069 7.03911 234.374 6.64251 233.783C6.24592 233.192 5.68224 232.731 5.02273 232.459C4.36322 232.187 3.63757 232.116 2.93743 232.255C2.23729 232.393 1.59414 232.736 1.08937 233.238C0.584598 233.741 0.240841 234.382 0.101576 235.079C-0.0376902 235.776 0.0338126 236.499 0.306992 237.156C0.580172 237.812 1.04279 238.374 1.63634 238.769C2.22989 239.164 2.92771 239.374 3.64157 239.374C4.59266 239.366 5.50177 238.983 6.17079 238.31C6.83981 237.637 7.21443 236.727 7.21315 235.78H7.25084ZM7.25084 268.95C7.25084 268.239 7.03911 267.544 6.64251 266.953C6.24592 266.362 5.68224 265.901 5.02273 265.629C4.36322 265.357 3.63757 265.286 2.93743 265.425C2.23729 265.563 1.59414 265.906 1.08937 266.408C0.584598 266.911 0.240841 267.552 0.101576 268.249C-0.0376902 268.946 0.0338126 269.669 0.306992 270.326C0.580172 270.982 1.04279 271.544 1.63634 271.939C2.22989 272.334 2.92771 272.545 3.64157 272.545C4.59348 272.536 5.50325 272.153 6.1724 271.478C6.84155 270.804 7.21568 269.893 7.21315 268.945L7.25084 268.95ZM7.25084 302.12C7.25084 301.409 7.03911 300.714 6.64251 300.123C6.24592 299.532 5.68224 299.071 5.02273 298.799C4.36322 298.527 3.63757 298.456 2.93743 298.595C2.23729 298.733 1.59414 299.076 1.08937 299.578C0.584598 300.081 0.240841 300.722 0.101576 301.419C-0.0376902 302.116 0.0338126 302.839 0.306992 303.496C0.580172 304.152 1.04279 304.714 1.63634 305.109C2.22989 305.504 2.92771 305.715 3.64157 305.715C4.59266 305.706 5.50177 305.323 6.17079 304.65C6.83981 303.977 7.21443 303.067 7.21315 302.12H7.25084ZM37.8382 202.61C37.8382 201.899 37.6264 201.204 37.2298 200.613C36.8332 200.022 36.2696 199.561 35.6101 199.289C34.9505 199.017 34.2249 198.946 33.5248 199.085C32.8246 199.223 32.1815 199.566 31.6767 200.068C31.1719 200.571 30.8282 201.212 30.6889 201.909C30.5496 202.606 30.6211 203.329 30.8943 203.986C31.1675 204.642 31.6301 205.204 32.2237 205.599C32.8172 205.994 33.515 206.204 34.2289 206.204C35.1755 206.188 36.0779 205.803 36.7416 205.13C37.4053 204.458 37.7771 203.553 37.7769 202.61H37.8382ZM37.8382 235.78C37.8382 235.069 37.6264 234.374 37.2298 233.783C36.8332 233.192 36.2696 232.731 35.6101 232.459C34.9505 232.187 34.2249 232.116 33.5248 232.255C32.8246 232.393 32.1815 232.736 31.6767 233.238C31.1719 233.741 30.8282 234.382 30.6889 235.079C30.5496 235.776 30.6211 236.499 30.8943 237.156C31.1675 237.812 31.6301 238.374 32.2237 238.769C32.8172 239.164 33.515 239.374 34.2289 239.374C35.1759 239.36 36.079 238.974 36.743 238.302C37.4069 237.629 37.7783 236.723 37.7769 235.78H37.8382ZM37.8382 268.95C37.8382 268.239 37.6264 267.544 37.2298 266.953C36.8332 266.362 36.2696 265.901 35.6101 265.629C34.9505 265.357 34.2249 265.286 33.5248 265.425C32.8246 265.563 32.1815 265.906 31.6767 266.408C31.1719 266.911 30.8282 267.552 30.6889 268.249C30.5496 268.946 30.6211 269.669 30.8943 270.326C31.1675 270.982 31.6301 271.544 32.2237 271.939C32.8172 272.334 33.515 272.545 34.2289 272.545C35.1767 272.53 36.0805 272.144 36.7446 271.47C37.4087 270.796 37.7795 269.889 37.7769 268.945L37.8382 268.95ZM37.8382 302.12C37.8382 301.409 37.6264 300.714 37.2298 300.123C36.8332 299.532 36.2696 299.071 35.6101 298.799C34.9505 298.527 34.2249 298.456 33.5248 298.595C32.8246 298.733 32.1815 299.076 31.6767 299.578C31.1719 300.081 30.8282 300.722 30.6889 301.419C30.5496 302.116 30.6211 302.839 30.8943 303.496C31.1675 304.152 31.6301 304.714 32.2237 305.109C32.8172 305.504 33.515 305.715 34.2289 305.715C35.1759 305.7 36.079 305.314 36.743 304.642C37.4069 303.969 37.7783 303.063 37.7769 302.12H37.8382ZM7.25084 103.1C7.25084 102.389 7.03911 101.694 6.64251 101.103C6.24592 100.512 5.68224 100.051 5.02273 99.7792C4.36322 99.5071 3.63757 99.436 2.93743 99.5747C2.23729 99.7133 1.59414 100.056 1.08937 100.558C0.584598 101.061 0.240841 101.702 0.101576 102.399C-0.0376902 103.096 0.0338126 103.819 0.306992 104.476C0.580172 105.132 1.04279 105.694 1.63634 106.089C2.22989 106.484 2.92771 106.694 3.64157 106.694C4.59266 106.686 5.50177 106.303 6.17079 105.63C6.83981 104.957 7.21443 104.047 7.21315 103.1H7.25084ZM7.25084 136.27C7.25084 135.559 7.03911 134.864 6.64251 134.273C6.24592 133.682 5.68224 133.221 5.02273 132.949C4.36322 132.677 3.63757 132.606 2.93743 132.745C2.23729 132.883 1.59414 133.226 1.08937 133.728C0.584598 134.231 0.240841 134.872 0.101576 135.569C-0.0376902 136.266 0.0338126 136.989 0.306992 137.646C0.580172 138.302 1.04279 138.864 1.63634 139.259C2.22989 139.654 2.92771 139.864 3.64157 139.864C4.59228 139.855 5.50066 139.472 6.16941 138.798C6.83817 138.125 7.2132 137.217 7.21315 136.27H7.25084ZM7.25084 169.44C7.25084 168.729 7.03911 168.034 6.64251 167.443C6.24592 166.852 5.68224 166.391 5.02273 166.119C4.36322 165.847 3.63757 165.776 2.93743 165.915C2.23729 166.053 1.59414 166.396 1.08937 166.898C0.584598 167.401 0.240841 168.042 0.101576 168.739C-0.0376902 169.436 0.0338126 170.159 0.306992 170.816C0.580172 171.472 1.04279 172.034 1.63634 172.429C2.22989 172.824 2.92771 173.034 3.64157 173.034C4.59266 173.026 5.50177 172.643 6.17079 171.97C6.83981 171.297 7.21443 170.387 7.21315 169.44H7.25084ZM37.8382 103.1C37.8382 102.389 37.6264 101.694 37.2298 101.103C36.8332 100.512 36.2696 100.051 35.6101 99.7792C34.9505 99.5071 34.2249 99.436 33.5248 99.5747C32.8246 99.7133 32.1815 100.056 31.6767 100.558C31.1719 101.061 30.8282 101.702 30.6889 102.399C30.5496 103.096 30.6211 103.819 30.8943 104.476C31.1675 105.132 31.6301 105.694 32.2237 106.089C32.8172 106.484 33.515 106.694 34.2289 106.694C35.1759 106.68 36.079 106.294 36.743 105.622C37.4069 104.949 37.7783 104.043 37.7769 103.1H37.8382ZM37.8382 136.27C37.8382 135.559 37.6264 134.864 37.2298 134.273C36.8332 133.682 36.2696 133.221 35.6101 132.949C34.9505 132.677 34.2249 132.606 33.5248 132.745C32.8246 132.883 32.1815 133.226 31.6767 133.728C31.1719 134.231 30.8282 134.872 30.6889 135.569C30.5496 136.266 30.6211 136.989 30.8943 137.646C31.1675 138.302 31.6301 138.864 32.2237 139.259C32.8172 139.654 33.515 139.864 34.2289 139.864C35.1755 139.848 36.0779 139.463 36.7416 138.79C37.4053 138.118 37.7771 137.213 37.7769 136.27H37.8382ZM37.8382 169.44C37.8382 168.729 37.6264 168.034 37.2298 167.443C36.8332 166.852 36.2696 166.391 35.6101 166.119C34.9505 165.847 34.2249 165.776 33.5248 165.915C32.8246 166.053 32.1815 166.396 31.6767 166.898C31.1719 167.401 30.8282 168.042 30.6889 168.739C30.5496 169.436 30.6211 170.159 30.8943 170.816C31.1675 171.472 31.6301 172.034 32.2237 172.429C32.8172 172.824 33.515 173.034 34.2289 173.034C35.1759 173.02 36.079 172.634 36.743 171.962C37.4069 171.289 37.7783 170.383 37.7769 169.44H37.8382ZM129.501 136.27C129.501 135.559 129.29 134.864 128.893 134.273C128.496 133.682 127.933 133.221 127.273 132.949C126.614 132.677 125.888 132.606 125.188 132.745C124.488 132.883 123.845 133.226 123.34 133.728C122.835 134.231 122.491 134.872 122.352 135.569C122.213 136.266 122.284 136.989 122.558 137.646C122.831 138.302 123.293 138.864 123.887 139.259C124.48 139.654 125.178 139.864 125.892 139.864C126.838 139.847 127.74 139.461 128.403 138.789C129.067 138.117 129.439 137.212 129.44 136.27H129.501ZM129.501 169.44C129.501 168.729 129.29 168.034 128.893 167.443C128.496 166.852 127.933 166.391 127.273 166.119C126.614 165.847 125.888 165.776 125.188 165.915C124.488 166.053 123.845 166.396 123.34 166.898C122.835 167.401 122.491 168.042 122.352 168.739C122.213 169.436 122.284 170.159 122.558 170.816C122.831 171.472 123.293 172.034 123.887 172.429C124.48 172.824 125.178 173.034 125.892 173.034C126.838 173.017 127.74 172.631 128.403 171.959C129.067 171.287 129.439 170.383 129.44 169.44H129.501ZM160.06 103.1C160.06 102.389 159.849 101.694 159.452 101.103C159.056 100.512 158.492 100.051 157.832 99.7792C157.173 99.5071 156.447 99.436 155.747 99.5747C155.047 99.7133 154.404 100.056 153.899 100.558C153.394 101.061 153.05 101.702 152.911 102.399C152.772 103.096 152.843 103.819 153.117 104.476C153.39 105.132 153.852 105.694 154.446 106.089C155.039 106.484 155.737 106.694 156.451 106.694C157.398 106.678 158.3 106.293 158.964 105.62C159.628 104.948 159.999 104.043 159.999 103.1H160.06ZM160.06 136.27C160.06 135.559 159.849 134.864 159.452 134.273C159.056 133.682 158.492 133.221 157.832 132.949C157.173 132.677 156.447 132.606 155.747 132.745C155.047 132.883 154.404 133.226 153.899 133.728C153.394 134.231 153.05 134.872 152.911 135.569C152.772 136.266 152.843 136.989 153.117 137.646C153.39 138.302 153.852 138.864 154.446 139.259C155.039 139.654 155.737 139.864 156.451 139.864C157.398 139.848 158.3 139.463 158.964 138.79C159.628 138.118 159.999 137.213 159.999 136.27H160.06ZM160.06 169.44C160.06 168.729 159.849 168.034 159.452 167.443C159.056 166.852 158.492 166.391 157.832 166.119C157.173 165.847 156.447 165.776 155.747 165.915C155.047 166.053 154.404 166.396 153.899 166.898C153.394 167.401 153.05 168.042 152.911 168.739C152.772 169.436 152.843 170.159 153.117 170.816C153.39 171.472 153.852 172.034 154.446 172.429C155.039 172.824 155.737 173.034 156.451 173.034C157.398 173.018 158.3 172.633 158.964 171.96C159.628 171.288 159.999 170.383 159.999 169.44H160.06ZM68.3031 3.58998C68.3031 2.87907 68.0914 2.18412 67.6948 1.59302C67.2982 1.00192 66.7346 0.5412 66.075 0.269146C65.4155 -0.00290857 64.6899 -0.0740881 63.9897 0.0646039C63.2896 0.203296 62.6464 0.545636 62.1417 1.04833C61.6369 1.55102 61.2931 2.19149 61.1539 2.88874C61.0146 3.586 61.0861 4.30871 61.3593 4.96551C61.6325 5.62231 62.0951 6.18369 62.6886 6.57865C63.2822 6.97361 63.98 7.18441 64.6939 7.18441C65.168 7.18502 65.6377 7.09247 66.0758 6.91205C66.514 6.73163 66.9121 6.46691 67.2473 6.13301C67.5826 5.79911 67.8485 5.4026 68.0297 4.96623C68.2109 4.52985 68.3038 4.06218 68.3031 3.58998ZM68.3031 36.76C68.3031 36.0491 68.0914 35.3541 67.6948 34.763C67.2982 34.1719 66.7346 33.7112 66.075 33.4392C65.4155 33.1671 64.6899 33.0959 63.9897 33.2346C63.2896 33.3733 62.6464 33.7156 62.1417 34.2183C61.6369 34.721 61.2931 35.3615 61.1539 36.0587C61.0146 36.756 61.0861 37.4787 61.3593 38.1355C61.6325 38.7923 62.0951 39.3537 62.6886 39.7486C63.2822 40.1436 63.98 40.3544 64.6939 40.3544C65.168 40.355 65.6377 40.2625 66.0758 40.0821C66.514 39.9017 66.9121 39.6369 67.2473 39.303C67.5826 38.9691 67.8485 38.5726 68.0297 38.1363C68.2109 37.6999 68.3038 37.2322 68.3031 36.76ZM68.3031 69.93C68.3031 69.2191 68.0914 68.5241 67.6948 67.933C67.2982 67.3419 66.7346 66.8813 66.075 66.6092C65.4155 66.3371 64.6899 66.2659 63.9897 66.4046C63.2896 66.5433 62.6464 66.8857 62.1417 67.3884C61.6369 67.891 61.2931 68.5315 61.1539 69.2287C61.0146 69.926 61.0861 70.6487 61.3593 71.3055C61.6325 71.9623 62.0951 72.5237 62.6886 72.9187C63.2822 73.3136 63.98 73.5244 64.6939 73.5244C65.168 73.525 65.6377 73.4325 66.0758 73.2521C66.514 73.0717 66.9121 72.8069 67.2473 72.473C67.5826 72.1391 67.8485 71.7426 68.0297 71.3063C68.2109 70.8699 68.3038 70.4022 68.3031 69.93ZM98.8905 3.58998C98.8905 2.87907 98.6787 2.18412 98.2822 1.59302C97.8856 1.00192 97.3219 0.5412 96.6624 0.269146C96.0029 -0.00290857 95.2772 -0.0740881 94.5771 0.0646039C93.8769 0.203296 93.2338 0.545636 92.729 1.04833C92.2242 1.55102 91.8805 2.19149 91.7412 2.88874C91.6019 3.586 91.6734 4.30871 91.9466 4.96551C92.2198 5.62231 92.6824 6.18369 93.276 6.57865C93.8695 6.97361 94.5674 7.18441 95.2812 7.18441C95.7554 7.18502 96.225 7.09247 96.6632 6.91205C97.1014 6.73163 97.4994 6.46691 97.8347 6.13301C98.1699 5.79911 98.4359 5.4026 98.617 4.96623C98.7982 4.52985 98.8911 4.06218 98.8905 3.58998ZM98.8905 36.76C98.8905 36.0491 98.6787 35.3541 98.2822 34.763C97.8856 34.1719 97.3219 33.7112 96.6624 33.4392C96.0029 33.1671 95.2772 33.0959 94.5771 33.2346C93.8769 33.3733 93.2338 33.7156 92.729 34.2183C92.2242 34.721 91.8805 35.3615 91.7412 36.0587C91.6019 36.756 91.6734 37.4787 91.9466 38.1355C92.2198 38.7923 92.6824 39.3537 93.276 39.7486C93.8695 40.1436 94.5674 40.3544 95.2812 40.3544C95.7554 40.355 96.225 40.2625 96.6632 40.0821C97.1014 39.9017 97.4994 39.6369 97.8347 39.303C98.1699 38.9691 98.4359 38.5726 98.617 38.1363C98.7982 37.6999 98.8911 37.2322 98.8905 36.76ZM98.8905 69.93C98.8905 69.2191 98.6787 68.5241 98.2822 67.933C97.8856 67.3419 97.3219 66.8813 96.6624 66.6092C96.0029 66.3371 95.2772 66.2659 94.5771 66.4046C93.8769 66.5433 93.2338 66.8857 92.729 67.3884C92.2242 67.891 91.8805 68.5315 91.7412 69.2287C91.6019 69.926 91.6734 70.6487 91.9466 71.3055C92.2198 71.9623 92.6824 72.5237 93.276 72.9187C93.8695 73.3136 94.5674 73.5244 95.2812 73.5244C95.7554 73.525 96.225 73.4325 96.6632 73.2521C97.1014 73.0717 97.4994 72.8069 97.8347 72.473C98.1699 72.1391 98.4359 71.7426 98.617 71.3063C98.7982 70.8699 98.8911 70.4022 98.8905 69.93ZM129.478 3.58998C129.478 2.87907 129.266 2.18412 128.869 1.59302C128.473 1.00192 127.909 0.5412 127.25 0.269146C126.59 -0.00290857 125.865 -0.0740881 125.164 0.0646039C124.464 0.203296 123.821 0.545636 123.316 1.04833C122.812 1.55102 122.468 2.19149 122.329 2.88874C122.189 3.586 122.261 4.30871 122.534 4.96551C122.807 5.62231 123.27 6.18369 123.863 6.57865C124.457 6.97361 125.155 7.18441 125.869 7.18441C126.819 7.17453 127.728 6.79147 128.396 6.11845C129.065 5.44543 129.44 4.53682 129.44 3.58998H129.478ZM7.25084 3.58998C7.25084 2.87907 7.03911 2.18412 6.64251 1.59302C6.24592 1.00192 5.68224 0.5412 5.02273 0.269146C4.36322 -0.00290857 3.63757 -0.0740881 2.93743 0.0646039C2.23729 0.203296 1.59414 0.545636 1.08937 1.04833C0.584598 1.55102 0.240841 2.19149 0.101576 2.88874C-0.0376902 3.586 0.0338126 4.30871 0.306992 4.96551C0.580172 5.62231 1.04279 6.18369 1.63634 6.57865C2.22989 6.97361 2.92771 7.18441 3.64157 7.18441C4.59185 7.17576 5.50018 6.79373 6.16907 6.12145C6.83795 5.44918 7.21319 4.54108 7.21315 3.59467L7.25084 3.58998ZM7.25084 36.76C7.25177 36.0489 7.04084 35.3535 6.64481 34.7618C6.24878 34.17 5.68549 33.7086 5.02606 33.4358C4.36663 33.1631 3.64075 33.0912 2.9403 33.2294C2.23986 33.3675 1.59622 33.7095 1.09098 34.212C0.585735 34.7145 0.241568 35.355 0.10192 36.0523C-0.0377274 36.7497 0.0334919 37.4727 0.306533 38.1297C0.579574 38.7868 1.04212 39.3485 1.63577 39.7436C2.22942 40.1388 2.92751 40.3497 3.64157 40.3497C4.59103 40.3411 5.49871 39.9597 6.16746 39.2884C6.83621 38.6172 7.21195 37.7103 7.21315 36.7647L7.25084 36.76ZM7.25084 69.93C7.25177 69.2189 7.04084 68.5235 6.64481 67.9318C6.24878 67.34 5.68549 66.8786 5.02606 66.6058C4.36663 66.3331 3.64075 66.2612 2.9403 66.3994C2.23986 66.5375 1.59622 66.8795 1.09098 67.382C0.585735 67.8845 0.241568 68.525 0.10192 69.2223C-0.0377274 69.9197 0.0334919 70.6427 0.306533 71.2997C0.579574 71.9568 1.04212 72.5185 1.63577 72.9136C2.22942 73.3088 2.92751 73.5197 3.64157 73.5197C4.59103 73.5111 5.49871 73.1297 6.16746 72.4584C6.83621 71.7872 7.21195 70.8803 7.21315 69.9347L7.25084 69.93ZM37.8382 3.58529C37.8382 2.87438 37.6264 2.17943 37.2298 1.58833C36.8332 0.997225 36.2696 0.536509 35.6101 0.264455C34.9505 -0.0075995 34.2249 -0.0787791 33.5248 0.0599129C32.8246 0.198605 32.1815 0.540945 31.6767 1.04364C31.1719 1.54633 30.8282 2.1868 30.6889 2.88405C30.5496 3.58131 30.6211 4.30402 30.8943 4.96082C31.1675 5.61762 31.6301 6.17899 32.2237 6.57396C32.8172 6.96892 33.515 7.17972 34.2289 7.17972C35.1751 7.16495 36.0774 6.78025 36.7412 6.10864C37.4051 5.43702 37.777 4.53238 37.7769 3.58998L37.8382 3.58529ZM37.8382 36.7553C37.8382 36.0444 37.6264 35.3494 37.2298 34.7583C36.8332 34.1672 36.2696 33.7065 35.6101 33.4345C34.9505 33.1624 34.2249 33.0912 33.5248 33.2299C32.8246 33.3686 32.1815 33.711 31.6767 34.2137C31.1719 34.7164 30.8282 35.3568 30.6889 36.0541C30.5496 36.7513 30.6211 37.474 30.8943 38.1308C31.1675 38.7876 31.6301 39.349 32.2237 39.744C32.8172 40.1389 33.515 40.3497 34.2289 40.3497C35.1751 40.335 36.0774 39.9503 36.7412 39.2786C37.4051 38.607 37.777 37.7024 37.7769 36.76L37.8382 36.7553ZM37.8382 69.93C37.8391 69.2189 37.6282 68.5235 37.2321 67.9318C36.8361 67.34 36.2728 66.8786 35.6134 66.6058C34.954 66.3331 34.2281 66.2612 33.5276 66.3994C32.8272 66.5375 32.1835 66.8795 31.6783 67.382C31.1731 67.8845 30.8289 68.525 30.6893 69.2223C30.5496 69.9197 30.6208 70.6427 30.8939 71.2997C31.1669 71.9568 31.6294 72.5185 32.2231 72.9136C32.8167 73.3088 33.5148 73.5197 34.2289 73.5197C35.1743 73.505 36.0759 73.1209 36.7396 72.4503C37.4033 71.7797 37.7758 70.8763 37.7769 69.9347L37.8382 69.93ZM129.501 36.7553C129.501 36.0444 129.29 35.3494 128.893 34.7583C128.496 34.1672 127.933 33.7065 127.273 33.4345C126.614 33.1624 125.888 33.0912 125.188 33.2299C124.488 33.3686 123.845 33.711 123.34 34.2137C122.835 34.7164 122.491 35.3568 122.352 36.0541C122.213 36.7513 122.284 37.474 122.558 38.1308C122.831 38.7876 123.293 39.349 123.887 39.744C124.48 40.1389 125.178 40.3497 125.892 40.3497C126.838 40.3338 127.739 39.9487 128.403 39.2773C129.067 38.606 129.439 37.702 129.44 36.76L129.501 36.7553ZM129.501 69.9253C129.501 69.2144 129.29 68.5194 128.893 67.9283C128.496 67.3372 127.933 66.8766 127.273 66.6045C126.614 66.3325 125.888 66.2612 125.188 66.3999C124.488 66.5386 123.845 66.881 123.34 67.3837C122.835 67.8864 122.491 68.5268 122.352 69.2241C122.213 69.9213 122.284 70.644 122.558 71.3008C122.831 71.9576 123.293 72.519 123.887 72.914C124.48 73.3089 125.178 73.5197 125.892 73.5197C126.838 73.5038 127.739 73.1187 128.403 72.4473C129.067 71.776 129.439 70.872 129.44 69.93L129.501 69.9253ZM160.06 3.58529C160.06 2.87438 159.849 2.17943 159.452 1.58833C159.056 0.997225 158.492 0.536509 157.832 0.264455C157.173 -0.0075995 156.447 -0.0787791 155.747 0.0599129C155.047 0.198605 154.404 0.540945 153.899 1.04364C153.394 1.54633 153.05 2.1868 152.911 2.88405C152.772 3.58131 152.843 4.30402 153.117 4.96082C153.39 5.61762 153.852 6.17899 154.446 6.57396C155.039 6.96892 155.737 7.17972 156.451 7.17972C157.397 7.16495 158.3 6.78025 158.963 6.10864C159.627 5.43702 159.999 4.53238 159.999 3.58998L160.06 3.58529ZM160.06 36.7553C160.06 36.0444 159.849 35.3494 159.452 34.7583C159.056 34.1672 158.492 33.7065 157.832 33.4345C157.173 33.1624 156.447 33.0912 155.747 33.2299C155.047 33.3686 154.404 33.711 153.899 34.2137C153.394 34.7164 153.05 35.3568 152.911 36.0541C152.772 36.7513 152.843 37.474 153.117 38.1308C153.39 38.7876 153.852 39.349 154.446 39.744C155.039 40.1389 155.737 40.3497 156.451 40.3497C157.397 40.335 158.3 39.9503 158.963 39.2786C159.627 38.607 159.999 37.7024 159.999 36.76L160.06 36.7553ZM160.06 69.9253C160.06 69.2144 159.849 68.5194 159.452 67.9283C159.056 67.3372 158.492 66.8766 157.832 66.6045C157.173 66.3325 156.447 66.2612 155.747 66.3999C155.047 66.5386 154.404 66.881 153.899 67.3837C153.394 67.8864 153.05 68.5268 152.911 69.2241C152.772 69.9213 152.843 70.644 153.117 71.3008C153.39 71.9576 153.852 72.519 154.446 72.914C155.039 73.3089 155.737 73.5197 156.451 73.5197C157.397 73.505 158.3 73.1203 158.963 72.4487C159.627 71.777 159.999 70.8724 159.999 69.93L160.06 69.9253Z" fill="#FF004C"/>
</g>
<defs>
<clipPath id="clip0">
<rect width="160" height="176" fill="white"/>
</clipPath>
</defs>
</svg>
