<svg width="35" height="32" viewBox="0 0 35 32" fill="none" xmlns="http://www.w3.org/2000/svg">
<path fill-rule="evenodd" clip-rule="evenodd" d="M0 16C0 29.176 3.08073 32 17.4545 32C31.8284 32 34.9091 29.176 34.9091 16C34.9091 12.3788 34.6764 9.53947 34.0405 7.32583C32.4123 8.95816 30.3577 10.9211 28.1262 12.6695C24.9611 15.1492 21.128 17.4545 17.4545 17.4545C13.7811 17.4545 9.94795 15.1492 6.78294 12.6695C4.55135 10.9211 2.49677 8.95816 0.868589 7.32583C0.232701 9.53947 0 12.3788 0 16ZM11.6364 21.8182C10.833 21.8182 10.1818 22.4694 10.1818 23.2727C10.1818 24.076 10.833 24.7273 11.6364 24.7273H23.2727C24.076 24.7273 24.7273 24.076 24.7273 23.2727C24.7273 22.4694 24.076 21.8182 23.2727 21.8182H11.6364Z" fill="#FE983D"/>
<path d="M26.332 10.3795C28.8078 8.43975 31.0685 6.207 32.7729 4.46997C30.4627 0.978326 25.9148 0 17.4545 0C8.99433 0 4.4464 0.978326 2.13623 4.46998C3.8406 6.207 6.10124 8.43975 8.57706 10.3795C11.6957 12.8229 14.8443 14.5455 17.4545 14.5455C20.0648 14.5455 23.2134 12.8229 26.332 10.3795Z" fill="#FE983D"/>
</svg>
