<svg width="306" height="160" viewBox="0 0 306 160" fill="none" xmlns="http://www.w3.org/2000/svg">
<g clip-path="url(#clip0)">
<path opacity="0.7" d="M99.511 64.7032C99.511 63.9893 99.7218 63.2915 100.117 62.698C100.512 62.1044 101.073 61.6418 101.73 61.3686C102.387 61.0954 103.109 61.0239 103.807 61.1632C104.504 61.3025 105.144 61.6462 105.647 62.151C106.15 62.6558 106.492 63.2989 106.631 63.9991C106.769 64.6992 106.698 65.4248 106.426 66.0844C106.154 66.7439 105.693 67.3075 105.102 67.7041C104.511 68.1007 103.816 68.3125 103.105 68.3125C102.633 68.3131 102.166 68.2201 101.729 68.0389C101.293 67.8578 100.896 67.5919 100.562 67.2567C100.228 66.9214 99.9638 66.5232 99.7833 66.085C99.6029 65.6469 99.5104 65.1773 99.511 64.7032ZM69.9354 68.3125C70.6463 68.3125 71.3413 68.1007 71.9324 67.7041C72.5235 67.3075 72.9842 66.7439 73.2562 66.0844C73.5283 65.4248 73.5995 64.6992 73.4608 63.9991C73.3221 63.2989 72.9797 62.6558 72.477 62.151C71.9743 61.6462 71.3339 61.3025 70.6366 61.1632C69.9394 61.0239 69.2167 61.0954 68.5599 61.3686C67.9031 61.6418 67.3417 62.1044 66.9467 62.698C66.5518 63.2915 66.341 63.9893 66.341 64.7032C66.3416 65.1766 66.435 65.6451 66.616 66.0822C66.797 66.5193 67.0619 66.9163 67.3957 67.2506C67.7294 67.5848 68.1255 67.8498 68.5613 68.0304C68.9971 68.211 69.464 68.3037 69.9354 68.303L69.9354 68.3125ZM36.7654 68.3125C37.4763 68.3125 38.1712 68.1007 38.7623 67.7041C39.3534 67.3075 39.8141 66.7439 40.0862 66.0844C40.3582 65.4248 40.4294 64.6992 40.2907 63.999C40.152 63.2989 39.8097 62.6558 39.307 62.151C38.8043 61.6462 38.1638 61.3025 37.4666 61.1632C36.7693 61.0239 36.0466 61.0954 35.3898 61.3686C34.733 61.6418 34.1717 62.1044 33.7767 62.698C33.3818 63.2915 33.1709 63.9893 33.1709 64.7032C33.1715 65.1769 33.2652 65.6459 33.4464 66.0833C33.6277 66.5207 33.8931 66.9179 34.2274 67.2523C34.5616 67.5866 34.9582 67.8515 35.3945 68.0318C35.8308 68.2121 36.2982 68.3043 36.77 68.303L36.7654 68.3125ZM3.59533 68.3125C4.30624 68.3125 5.00122 68.1007 5.59231 67.7041C6.18341 67.3075 6.64413 66.7439 6.91617 66.0843C7.18823 65.4248 7.25943 64.6992 7.12076 63.999C6.98205 63.2989 6.63971 62.6558 6.13702 62.151C5.63434 61.6462 4.99383 61.3025 4.29657 61.1632C3.59933 61.0239 2.87661 61.0954 2.21982 61.3686C1.56302 61.6418 1.00168 62.1044 0.606717 62.698C0.211759 63.2915 0.000943249 63.9893 0.000943218 64.7032C0.00155355 65.1765 0.0950289 65.6451 0.275998 66.0822C0.456967 66.5193 0.72189 66.9163 1.05566 67.2506C1.38943 67.5848 1.78549 67.8498 2.22125 68.0304C2.65701 68.211 3.12393 68.3037 3.59533 68.303L3.59533 68.3125ZM103.105 98.8904C103.816 98.8904 104.511 98.6786 105.102 98.282C105.693 97.8854 106.154 97.3218 106.426 96.6623C106.698 96.0027 106.769 95.2771 106.631 94.577C106.492 93.8768 106.15 93.2337 105.647 92.7289C105.144 92.2241 104.504 91.8804 103.807 91.7411C103.109 91.6018 102.387 91.6733 101.73 91.9465C101.073 92.2197 100.512 92.6823 100.117 93.2759C99.7218 93.8694 99.511 94.5672 99.511 95.2811C99.511 96.2383 99.8897 97.1563 100.564 97.8332C101.238 98.5101 102.152 98.8904 103.105 98.8904ZM69.9354 98.8904C70.6463 98.8904 71.3413 98.6786 71.9324 98.282C72.5235 97.8854 72.9842 97.3218 73.2562 96.6623C73.5283 96.0027 73.5995 95.2771 73.4608 94.577C73.3221 93.8768 72.9797 93.2337 72.477 92.7289C71.9743 92.2241 71.3339 91.8804 70.6366 91.7411C69.9394 91.6018 69.2167 91.6733 68.5599 91.9465C67.9031 92.2197 67.3417 92.6823 66.9467 93.2759C66.5518 93.8694 66.341 94.5672 66.341 95.2811C66.3403 95.7553 66.4329 96.2249 66.6133 96.6631C66.7937 97.1013 67.0585 97.4993 67.3923 97.8346C67.7263 98.1698 68.1228 98.4358 68.5591 98.6169C68.9955 98.7981 69.4632 98.891 69.9354 98.8904ZM36.7654 98.8904C37.4763 98.8904 38.1712 98.6786 38.7623 98.282C39.3534 97.8854 39.8141 97.3218 40.0862 96.6623C40.3582 96.0027 40.4294 95.2771 40.2907 94.577C40.152 93.8768 39.8097 93.2337 39.307 92.7289C38.8043 92.2241 38.1638 91.8804 37.4666 91.7411C36.7693 91.6018 36.0466 91.6733 35.3898 91.9465C34.733 92.2197 34.1717 92.6823 33.7767 93.2759C33.3818 93.8694 33.1709 94.5672 33.1709 95.2811C33.1703 95.7557 33.263 96.2256 33.4437 96.6641C33.6244 97.1026 33.8896 97.5009 34.224 97.8363C34.5584 98.1716 34.9554 98.4373 35.3924 98.6182C35.8293 98.7991 36.2975 98.8916 36.77 98.8904L36.7654 98.8904ZM3.59533 98.8904C4.30624 98.8904 5.00122 98.6786 5.59231 98.282C6.18341 97.8854 6.64413 97.3218 6.91616 96.6623C7.18823 96.0027 7.25943 95.2771 7.12075 94.577C6.98205 93.8768 6.63971 93.2337 6.13702 92.7289C5.63433 92.2241 4.99383 91.8804 4.29657 91.7411C3.59933 91.6018 2.87661 91.6733 2.21981 91.9465C1.56301 92.2197 1.00167 92.6823 0.606716 93.2759C0.211757 93.8694 0.000941913 94.5672 0.000941881 95.2811C0.000331509 95.7553 0.0928913 96.2249 0.273311 96.6631C0.453731 97.1012 0.718441 97.4993 1.05233 97.8346C1.38623 98.1698 1.78274 98.4358 2.21911 98.6169C2.65551 98.7981 3.12313 98.891 3.59533 98.8904ZM103.105 129.478C103.816 129.478 104.511 129.266 105.102 128.869C105.693 128.473 106.154 127.909 106.426 127.25C106.698 126.59 106.769 125.864 106.631 125.164C106.492 124.464 106.15 123.821 105.647 123.316C105.144 122.811 104.504 122.468 103.807 122.328C103.109 122.189 102.387 122.261 101.73 122.534C101.073 122.807 100.512 123.27 100.117 123.863C99.7218 124.457 99.511 125.155 99.511 125.868C99.5209 126.819 99.9039 127.728 100.577 128.396C101.25 129.065 102.159 129.44 103.105 129.44L103.105 129.478ZM69.9354 129.478C70.6463 129.478 71.3413 129.266 71.9324 128.869C72.5235 128.473 72.9842 127.909 73.2562 127.25C73.5283 126.59 73.5995 125.864 73.4607 125.164C73.3221 124.464 72.9797 123.821 72.477 123.316C71.9743 122.811 71.3339 122.468 70.6366 122.328C69.9394 122.189 69.2167 122.261 68.5599 122.534C67.9031 122.807 67.3417 123.27 66.9467 123.863C66.5518 124.457 66.341 125.155 66.341 125.868C66.3508 126.819 66.7339 127.728 67.4069 128.396C68.08 129.065 68.9886 129.44 69.9354 129.44L69.9354 129.478ZM36.7654 129.478C37.4763 129.478 38.1712 129.266 38.7623 128.869C39.3534 128.473 39.8141 127.909 40.0862 127.25C40.3582 126.59 40.4294 125.864 40.2907 125.164C40.152 124.464 39.8097 123.821 39.307 123.316C38.8043 122.811 38.1638 122.468 37.4666 122.328C36.7693 122.189 36.0466 122.261 35.3898 122.534C34.733 122.807 34.1717 123.27 33.7767 123.863C33.3818 124.457 33.1709 125.155 33.1709 125.868C33.1808 126.82 33.5645 127.729 34.2386 128.398C34.9126 129.067 35.8224 129.441 36.77 129.44L36.7654 129.478ZM3.59533 129.478C4.30624 129.478 5.00122 129.266 5.59231 128.869C6.18341 128.473 6.64413 127.909 6.91616 127.25C7.18823 126.59 7.25942 125.864 7.12075 125.164C6.98205 124.464 6.6397 123.821 6.13702 123.316C5.63433 122.811 4.99383 122.468 4.29656 122.328C3.59933 122.189 2.87661 122.261 2.21981 122.534C1.56301 122.807 1.00167 123.27 0.606715 123.863C0.211756 124.457 0.000940576 125.155 0.000940544 125.868C0.0108282 126.819 0.393854 127.728 1.06686 128.396C1.73989 129.065 2.64849 129.44 3.59533 129.44L3.59533 129.478ZM103.105 160.037C103.816 160.037 104.511 159.825 105.102 159.429C105.693 159.032 106.154 158.468 106.426 157.809C106.698 157.149 106.769 156.423 106.631 155.723C106.492 155.023 106.15 154.38 105.647 153.875C105.144 153.371 104.504 153.027 103.807 152.888C103.109 152.748 102.387 152.82 101.73 153.093C101.073 153.366 100.512 153.829 100.117 154.422C99.7218 155.016 99.511 155.714 99.511 156.427C99.5196 157.379 99.9023 158.288 100.576 158.957C101.249 159.626 102.158 160 103.105 159.999L103.105 160.037ZM69.9354 160.037C70.6463 160.037 71.3413 159.825 71.9324 159.429C72.5235 159.032 72.9842 158.468 73.2562 157.809C73.5283 157.149 73.5994 156.423 73.4607 155.723C73.3221 155.023 72.9797 154.38 72.477 153.875C71.9743 153.371 71.3339 153.027 70.6366 152.888C69.9394 152.748 69.2167 152.82 68.5599 153.093C67.9031 153.366 67.3417 153.829 66.9467 154.422C66.5518 155.016 66.341 155.714 66.341 156.427C66.3496 157.379 66.7323 158.288 67.4056 158.957C68.0789 159.626 68.9882 160 69.9354 159.999L69.9354 160.037ZM36.7654 160.037C37.4763 160.037 38.1712 159.825 38.7623 159.429C39.3534 159.032 39.8141 158.468 40.0862 157.809C40.3582 157.149 40.4294 156.423 40.2907 155.723C40.152 155.023 39.8097 154.38 39.307 153.875C38.8043 153.371 38.1638 153.027 37.4666 152.888C36.7693 152.748 36.0466 152.82 35.3898 153.093C34.733 153.366 34.1717 153.829 33.7767 154.422C33.3818 155.016 33.1709 155.714 33.1709 156.427C33.1796 157.379 33.5629 158.289 34.2372 158.958C34.9115 159.627 35.822 160.002 36.77 159.999L36.7654 160.037ZM3.59533 160.037C4.30624 160.037 5.00121 159.825 5.59231 159.429C6.1834 159.032 6.64413 158.468 6.91616 157.809C7.18823 157.149 7.25942 156.423 7.12075 155.723C6.98205 155.023 6.6397 154.38 6.13702 153.875C5.63433 153.371 4.99383 153.027 4.29656 152.888C3.59933 152.748 2.87661 152.82 2.21981 153.093C1.56301 153.366 1.00167 153.829 0.606713 154.422C0.211755 155.016 0.00093924 155.714 0.000939209 156.427C0.00960616 157.379 0.392266 158.288 1.06554 158.957C1.73882 159.626 2.64813 160 3.59533 159.999L3.59533 160.037ZM202.615 68.303C203.326 68.303 204.021 68.0913 204.612 67.6947C205.204 67.2981 205.664 66.7345 205.936 66.0749C206.208 65.4154 206.279 64.6898 206.141 63.9896C206.002 63.2895 205.66 62.6463 205.157 62.1416C204.654 61.6368 204.014 61.293 203.317 61.1538C202.619 61.0145 201.897 61.086 201.24 61.3592C200.583 61.6324 200.022 62.095 199.627 62.6885C199.232 63.2821 199.021 63.9799 199.021 64.6938C199.021 65.651 199.4 66.569 200.074 67.2459C200.748 67.9227 201.662 68.303 202.615 68.303ZM169.445 68.303C170.156 68.303 170.851 68.0913 171.442 67.6947C172.033 67.2981 172.494 66.7344 172.766 66.0749C173.038 65.4154 173.109 64.6898 172.971 63.9896C172.832 63.2895 172.49 62.6463 171.987 62.1416C171.484 61.6368 170.844 61.293 170.147 61.1538C169.449 61.0145 168.727 61.086 168.07 61.3592C167.413 61.6324 166.852 62.095 166.457 62.6885C166.062 63.2821 165.851 63.9799 165.851 64.6938C165.851 65.651 166.23 66.569 166.904 67.2459C167.578 67.9227 168.492 68.303 169.445 68.303ZM136.275 68.303C136.986 68.303 137.681 68.0913 138.272 67.6947C138.863 67.2981 139.324 66.7344 139.596 66.0749C139.868 65.4154 139.939 64.6898 139.801 63.9896C139.662 63.2895 139.32 62.6463 138.817 62.1416C138.314 61.6368 137.674 61.293 136.977 61.1538C136.279 61.0145 135.557 61.086 134.9 61.3592C134.243 61.6324 133.682 62.095 133.287 62.6885C132.892 63.2821 132.681 63.9799 132.681 64.6938C132.68 65.1679 132.773 65.6376 132.953 66.0757C133.134 66.5139 133.399 66.912 133.732 67.2472C134.066 67.5825 134.463 67.8484 134.899 68.0296C135.336 68.2108 135.803 68.3037 136.275 68.303ZM202.615 98.8904C203.326 98.8904 204.021 98.6786 204.612 98.2821C205.204 97.8855 205.664 97.3218 205.936 96.6623C206.208 96.0028 206.279 95.2771 206.141 94.577C206.002 93.8768 205.66 93.2337 205.157 92.7289C204.654 92.2241 204.014 91.8804 203.317 91.7411C202.619 91.6018 201.897 91.6733 201.24 91.9465C200.583 92.2197 200.022 92.6823 199.627 93.2759C199.232 93.8694 199.021 94.5673 199.021 95.2811C199.021 96.2383 199.4 97.1563 200.074 97.8332C200.748 98.5101 201.662 98.8904 202.615 98.8904ZM169.445 98.8904C170.156 98.8904 170.851 98.6786 171.442 98.282C172.033 97.8855 172.494 97.3218 172.766 96.6623C173.038 96.0028 173.109 95.2771 172.971 94.577C172.832 93.8768 172.49 93.2337 171.987 92.7289C171.484 92.2241 170.844 91.8804 170.147 91.7411C169.449 91.6018 168.727 91.6733 168.07 91.9465C167.413 92.2197 166.852 92.6823 166.457 93.2759C166.062 93.8694 165.851 94.5673 165.851 95.2811C165.851 96.2383 166.23 97.1563 166.904 97.8332C167.578 98.5101 168.492 98.8904 169.445 98.8904ZM136.275 98.8904C136.986 98.8904 137.681 98.6786 138.272 98.282C138.863 97.8854 139.324 97.3218 139.596 96.6623C139.868 96.0028 139.939 95.2771 139.801 94.577C139.662 93.8768 139.32 93.2337 138.817 92.7289C138.314 92.2241 137.674 91.8804 136.977 91.7411C136.279 91.6018 135.557 91.6733 134.9 91.9465C134.243 92.2197 133.682 92.6823 133.287 93.2759C132.892 93.8694 132.681 94.5672 132.681 95.2811C132.68 95.7553 132.773 96.2249 132.953 96.6631C133.134 97.1013 133.399 97.4993 133.732 97.8346C134.066 98.1698 134.463 98.4358 134.899 98.6169C135.336 98.7981 135.803 98.891 136.275 98.8904ZM202.615 129.478C203.326 129.478 204.021 129.266 204.612 128.869C205.204 128.473 205.664 127.909 205.936 127.25C206.208 126.59 206.279 125.864 206.141 125.164C206.002 124.464 205.66 123.821 205.157 123.316C204.654 122.811 204.014 122.468 203.317 122.328C202.619 122.189 201.897 122.261 201.24 122.534C200.583 122.807 200.022 123.27 199.627 123.863C199.232 124.457 199.021 125.155 199.021 125.868C199.032 126.819 199.416 127.726 200.088 128.395C200.761 129.063 201.669 129.439 202.615 129.44L202.615 129.478ZM103.105 7.25073C103.816 7.25073 104.511 7.039 105.102 6.64241C105.693 6.24581 106.154 5.68214 106.426 5.02263C106.698 4.36311 106.769 3.63746 106.631 2.93733C106.492 2.23719 106.15 1.59403 105.647 1.08926C105.144 0.584494 104.504 0.240737 103.807 0.101471C103.109 -0.0377944 102.387 0.0337083 101.73 0.306888C101.073 0.580068 100.512 1.04269 100.117 1.63624C99.7218 2.22978 99.511 2.92761 99.511 3.64146C99.5209 4.59217 99.9039 5.50055 100.577 6.16931C101.25 6.83806 102.159 7.2131 103.105 7.21305L103.105 7.25073ZM69.9354 7.25073C70.6463 7.25073 71.3413 7.039 71.9324 6.64241C72.5235 6.24581 72.9842 5.68214 73.2562 5.02263C73.5283 4.36311 73.5995 3.63746 73.4608 2.93732C73.3221 2.23719 72.9797 1.59403 72.477 1.08926C71.9743 0.584492 71.3339 0.240736 70.6366 0.10147C69.9394 -0.0377959 69.2167 0.0337069 68.5599 0.306887C67.9031 0.580066 67.3417 1.04269 66.9467 1.63624C66.5518 2.22978 66.341 2.92761 66.341 3.64146C66.3496 4.59256 66.7323 5.50167 67.4056 6.17068C68.0789 6.8397 68.9882 7.21433 69.9354 7.21305L69.9354 7.25073ZM36.7654 7.25073C37.4763 7.25073 38.1712 7.039 38.7623 6.64241C39.3534 6.24581 39.8141 5.68214 40.0862 5.02262C40.3582 4.36311 40.4294 3.63746 40.2907 2.93732C40.152 2.23719 39.8097 1.59403 39.307 1.08926C38.8043 0.584491 38.1638 0.240734 37.4666 0.101469C36.7693 -0.0377973 36.0466 0.0337054 35.3898 0.306885C34.733 0.580065 34.1717 1.04269 33.7767 1.63623C33.3818 2.22978 33.1709 2.92761 33.1709 3.64146C33.1796 4.59337 33.5629 5.50314 34.2372 6.17229C34.9115 6.84144 35.822 7.21557 36.77 7.21305L36.7654 7.25073ZM3.59534 7.25073C4.30624 7.25073 5.00122 7.039 5.59232 6.6424C6.18341 6.24581 6.64413 5.68214 6.91617 5.02262C7.18823 4.36311 7.25943 3.63746 7.12076 2.93732C6.98206 2.23718 6.63971 1.59403 6.13702 1.08926C5.63434 0.584489 4.99384 0.240733 4.29657 0.101467C3.59933 -0.0377988 2.87662 0.033704 2.21982 0.306884C1.56302 0.580063 1.00168 1.04269 0.60672 1.63623C0.211761 2.22978 0.000945918 2.92761 0.000945887 3.64146C0.00961284 4.59255 0.392273 5.50166 1.06555 6.17068C1.73883 6.8397 2.64813 7.21433 3.59534 7.21304L3.59534 7.25073ZM103.105 37.8381C103.816 37.8381 104.511 37.6263 105.102 37.2297C105.693 36.8331 106.154 36.2695 106.426 35.61C106.698 34.9504 106.769 34.2248 106.631 33.5247C106.492 32.8245 106.15 32.1814 105.647 31.6766C105.144 31.1718 104.504 30.8281 103.807 30.6888C103.109 30.5495 102.387 30.621 101.73 30.8942C101.073 31.1674 100.512 31.63 100.117 32.2236C99.7218 32.8171 99.511 33.5149 99.511 34.2288C99.527 35.1754 99.9127 36.0778 100.585 36.7415C101.257 37.4052 102.163 37.777 103.105 37.7768L103.105 37.8381ZM69.9354 37.8381C70.6463 37.8381 71.3413 37.6263 71.9324 37.2297C72.5235 36.8331 72.9842 36.2695 73.2562 35.61C73.5283 34.9504 73.5995 34.2248 73.4608 33.5247C73.3221 32.8245 72.9797 32.1814 72.477 31.6766C71.9743 31.1718 71.3339 30.8281 70.6366 30.6888C69.9394 30.5495 69.2167 30.621 68.5599 30.8942C67.9031 31.1674 67.3417 31.63 66.9467 32.2236C66.5518 32.8171 66.341 33.5149 66.341 34.2288C66.3557 35.1758 66.7411 36.0789 67.4138 36.7428C68.0864 37.4068 68.9922 37.7782 69.9354 37.7768L69.9354 37.8381ZM36.7654 37.8381C37.4763 37.8381 38.1712 37.6263 38.7623 37.2297C39.3534 36.8331 39.8141 36.2695 40.0862 35.61C40.3582 34.9504 40.4294 34.2248 40.2907 33.5247C40.152 32.8245 39.8097 32.1814 39.307 31.6766C38.8043 31.1718 38.1638 30.8281 37.4666 30.6888C36.7693 30.5495 36.0466 30.621 35.3898 30.8942C34.733 31.1674 34.1717 31.63 33.7767 32.2236C33.3818 32.8171 33.1709 33.5149 33.1709 34.2288C33.1857 35.1766 33.5717 36.0804 34.2454 36.7445C34.919 37.4085 35.826 37.7794 36.77 37.7768L36.7654 37.8381ZM3.59534 37.8381C4.30624 37.8381 5.00122 37.6263 5.59231 37.2297C6.18341 36.8331 6.64413 36.2695 6.91617 35.61C7.18823 34.9504 7.25943 34.2248 7.12076 33.5246C6.98205 32.8245 6.63971 32.1814 6.13702 31.6766C5.63434 31.1718 4.99383 30.8281 4.29657 30.6888C3.59933 30.5495 2.87662 30.621 2.21982 30.8942C1.56302 31.1674 1.00168 31.63 0.606719 32.2236C0.21176 32.8171 0.000944581 33.5149 0.00094455 34.2288C0.015715 35.1758 0.40106 36.0789 1.07367 36.7428C1.74631 37.4068 2.65213 37.7782 3.59534 37.7768L3.59534 37.8381ZM202.615 7.25074C203.326 7.25074 204.021 7.03901 204.612 6.64241C205.204 6.24582 205.664 5.68215 205.936 5.02263C206.208 4.36312 206.279 3.63747 206.141 2.93733C206.002 2.23719 205.66 1.59404 205.157 1.08927C204.654 0.584498 204.014 0.240742 203.317 0.101476C202.619 -0.0377901 201.897 0.0337127 201.24 0.306892C200.583 0.580072 200.022 1.04269 199.627 1.63624C199.232 2.22979 199.021 2.92761 199.021 3.64147C199.03 4.59256 199.412 5.50167 200.086 6.17069C200.759 6.83971 201.668 7.21433 202.615 7.21305L202.615 7.25074ZM169.445 7.25073C170.156 7.25073 170.851 7.03901 171.442 6.64241C172.033 6.24582 172.494 5.68214 172.766 5.02263C173.038 4.36312 173.109 3.63746 172.971 2.93733C172.832 2.23719 172.49 1.59404 171.987 1.08927C171.484 0.584496 170.844 0.24074 170.147 0.101474C169.449 -0.0377915 168.727 0.0337112 168.07 0.306891C167.413 0.580071 166.852 1.04269 166.457 1.63624C166.062 2.22979 165.851 2.92761 165.851 3.64147C165.861 4.59217 166.244 5.50055 166.917 6.16931C167.59 6.83806 168.499 7.2131 169.445 7.21305L169.445 7.25073ZM136.275 7.25073C136.986 7.25073 137.681 7.03901 138.272 6.64241C138.863 6.24581 139.324 5.68214 139.596 5.02263C139.868 4.36311 139.939 3.63746 139.801 2.93733C139.662 2.23719 139.32 1.59404 138.817 1.08927C138.314 0.584495 137.674 0.240739 136.977 0.101473C136.279 -0.037793 135.557 0.0337098 134.9 0.30689C134.243 0.580069 133.682 1.04269 133.287 1.63624C132.892 2.22979 132.681 2.92761 132.681 3.64146C132.69 4.59256 133.072 5.50167 133.746 6.17069C134.419 6.83971 135.328 7.21433 136.275 7.21305L136.275 7.25073ZM202.615 37.8381C203.326 37.8381 204.021 37.6263 204.612 37.2297C205.204 36.8331 205.664 36.2695 205.936 35.61C206.208 34.9504 206.279 34.2248 206.141 33.5247C206.002 32.8245 205.66 32.1814 205.157 31.6766C204.654 31.1718 204.014 30.8281 203.317 30.6888C202.619 30.5495 201.897 30.621 201.24 30.8942C200.583 31.1674 200.022 31.63 199.627 32.2236C199.232 32.8171 199.021 33.5149 199.021 34.2288C199.036 35.1758 199.421 36.0789 200.094 36.7429C200.766 37.4068 201.672 37.7782 202.615 37.7768L202.615 37.8381ZM169.445 37.8381C170.156 37.8381 170.851 37.6263 171.442 37.2297C172.033 36.8331 172.494 36.2695 172.766 35.61C173.038 34.9504 173.109 34.2248 172.971 33.5247C172.832 32.8245 172.49 32.1814 171.987 31.6766C171.484 31.1718 170.844 30.8281 170.147 30.6888C169.449 30.5495 168.727 30.621 168.07 30.8942C167.413 31.1674 166.852 31.63 166.457 32.2236C166.062 32.8171 165.851 33.5149 165.851 34.2288C165.867 35.1754 166.253 36.0778 166.925 36.7415C167.597 37.4052 168.503 37.777 169.445 37.7768L169.445 37.8381ZM136.275 37.8381C136.986 37.8381 137.681 37.6263 138.272 37.2297C138.863 36.8331 139.324 36.2695 139.596 35.61C139.868 34.9504 139.939 34.2248 139.801 33.5247C139.662 32.8245 139.32 32.1814 138.817 31.6766C138.314 31.1718 137.674 30.8281 136.977 30.6888C136.279 30.5495 135.557 30.621 134.9 30.8942C134.243 31.1674 133.682 31.63 133.287 32.2236C132.892 32.8171 132.681 33.5149 132.681 34.2288C132.696 35.1758 133.081 36.0789 133.754 36.7429C134.426 37.4068 135.332 37.7782 136.275 37.7768L136.275 37.8381ZM169.445 129.501C170.156 129.501 170.851 129.29 171.442 128.893C172.033 128.496 172.494 127.933 172.766 127.273C173.038 126.614 173.109 125.888 172.971 125.188C172.832 124.488 172.49 123.845 171.987 123.34C171.484 122.835 170.844 122.491 170.147 122.352C169.449 122.213 168.727 122.284 168.07 122.557C167.413 122.831 166.852 123.293 166.457 123.887C166.062 124.48 165.851 125.178 165.851 125.892C165.868 126.838 166.254 127.74 166.926 128.403C167.599 129.067 168.503 129.439 169.445 129.44L169.445 129.501ZM136.275 129.501C136.986 129.501 137.681 129.29 138.272 128.893C138.863 128.496 139.324 127.933 139.596 127.273C139.868 126.614 139.939 125.888 139.801 125.188C139.662 124.488 139.32 123.845 138.817 123.34C138.314 122.835 137.674 122.491 136.977 122.352C136.279 122.213 135.557 122.284 134.9 122.557C134.243 122.831 133.682 123.293 133.287 123.887C132.892 124.48 132.681 125.178 132.681 125.892C132.698 126.838 133.084 127.74 133.756 128.403C134.428 129.067 135.333 129.439 136.275 129.44L136.275 129.501ZM202.615 160.06C203.326 160.06 204.021 159.849 204.612 159.452C205.204 159.055 205.664 158.492 205.936 157.832C206.208 157.173 206.279 156.447 206.141 155.747C206.002 155.047 205.66 154.404 205.157 153.899C204.654 153.394 204.014 153.05 203.317 152.911C202.619 152.772 201.897 152.843 201.24 153.116C200.583 153.39 200.022 153.852 199.627 154.446C199.232 155.039 199.021 155.737 199.021 156.451C199.037 157.398 199.423 158.3 200.095 158.964C200.767 159.627 201.673 159.999 202.615 159.999L202.615 160.06ZM169.445 160.06C170.156 160.06 170.851 159.849 171.442 159.452C172.033 159.055 172.494 158.492 172.766 157.832C173.038 157.173 173.109 156.447 172.971 155.747C172.832 155.047 172.49 154.404 171.987 153.899C171.484 153.394 170.844 153.05 170.147 152.911C169.449 152.772 168.727 152.843 168.07 153.116C167.413 153.39 166.852 153.852 166.457 154.446C166.062 155.039 165.851 155.737 165.851 156.451C165.867 157.398 166.253 158.3 166.925 158.964C167.597 159.627 168.503 159.999 169.445 159.999L169.445 160.06ZM136.275 160.06C136.986 160.06 137.681 159.849 138.272 159.452C138.863 159.055 139.324 158.492 139.596 157.832C139.868 157.173 139.939 156.447 139.801 155.747C139.662 155.047 139.32 154.404 138.817 153.899C138.314 153.394 137.674 153.05 136.977 152.911C136.279 152.772 135.557 152.843 134.9 153.116C134.243 153.39 133.682 153.852 133.287 154.446C132.892 155.039 132.681 155.737 132.681 156.451C132.697 157.398 133.083 158.3 133.755 158.964C134.427 159.627 135.333 159.999 136.275 159.999L136.275 160.06ZM302.125 68.303C302.836 68.303 303.531 68.0913 304.122 67.6947C304.714 67.2981 305.174 66.7345 305.446 66.0749C305.718 65.4154 305.79 64.6898 305.651 63.9896C305.512 63.2895 305.17 62.6464 304.667 62.1416C304.164 61.6368 303.524 61.2931 302.827 61.1538C302.129 61.0145 301.407 61.086 300.75 61.3592C300.093 61.6324 299.532 62.095 299.137 62.6886C298.742 63.2821 298.531 63.9799 298.531 64.6938C298.53 65.1679 298.623 65.6376 298.803 66.0757C298.984 66.5139 299.249 66.912 299.582 67.2472C299.916 67.5825 300.313 67.8485 300.749 68.0296C301.186 68.2108 301.653 68.3037 302.125 68.303ZM268.955 68.303C269.666 68.303 270.361 68.0913 270.952 67.6947C271.544 67.2981 272.004 66.7345 272.276 66.0749C272.548 65.4154 272.62 64.6898 272.481 63.9896C272.342 63.2895 272 62.6463 271.497 62.1416C270.994 61.6368 270.354 61.2931 269.657 61.1538C268.959 61.0145 268.237 61.086 267.58 61.3592C266.923 61.6324 266.362 62.095 265.967 62.6886C265.572 63.2821 265.361 63.9799 265.361 64.6938C265.36 65.1679 265.453 65.6376 265.633 66.0757C265.814 66.5139 266.079 66.912 266.412 67.2472C266.746 67.5825 267.143 67.8485 267.579 68.0296C268.016 68.2108 268.483 68.3037 268.955 68.303ZM235.785 68.303C236.496 68.303 237.191 68.0913 237.782 67.6947C238.374 67.2981 238.834 66.7345 239.106 66.0749C239.378 65.4154 239.45 64.6898 239.311 63.9896C239.172 63.2895 238.83 62.6463 238.327 62.1416C237.824 61.6368 237.184 61.293 236.487 61.1538C235.789 61.0145 235.067 61.086 234.41 61.3592C233.753 61.6324 233.192 62.095 232.797 62.6885C232.402 63.2821 232.191 63.9799 232.191 64.6938C232.19 65.1679 232.283 65.6376 232.463 66.0757C232.644 66.5139 232.909 66.912 233.242 67.2472C233.576 67.5825 233.973 67.8485 234.409 68.0296C234.846 68.2108 235.313 68.3037 235.785 68.303ZM302.125 98.8904C302.836 98.8904 303.531 98.6787 304.122 98.2821C304.714 97.8855 305.174 97.3218 305.446 96.6623C305.718 96.0028 305.79 95.2771 305.651 94.577C305.512 93.8768 305.17 93.2337 304.667 92.7289C304.164 92.2241 303.524 91.8804 302.827 91.7411C302.129 91.6018 301.407 91.6734 300.75 91.9465C300.093 92.2197 299.532 92.6823 299.137 93.2759C298.742 93.8694 298.531 94.5673 298.531 95.2811C298.53 95.7553 298.623 96.2249 298.803 96.6631C298.984 97.1013 299.249 97.4993 299.582 97.8346C299.916 98.1698 300.313 98.4358 300.749 98.6169C301.186 98.7981 301.653 98.891 302.125 98.8904ZM268.955 98.8904C269.666 98.8904 270.361 98.6787 270.952 98.2821C271.544 97.8855 272.004 97.3218 272.276 96.6623C272.548 96.0028 272.62 95.2771 272.481 94.577C272.342 93.8768 272 93.2337 271.497 92.7289C270.994 92.2241 270.354 91.8804 269.657 91.7411C268.959 91.6018 268.237 91.6733 267.58 91.9465C266.923 92.2197 266.362 92.6823 265.967 93.2759C265.572 93.8694 265.361 94.5673 265.361 95.2811C265.36 95.7553 265.453 96.2249 265.633 96.6631C265.814 97.1013 266.079 97.4993 266.412 97.8346C266.746 98.1698 267.143 98.4358 267.579 98.6169C268.016 98.7981 268.483 98.891 268.955 98.8904ZM235.785 98.8904C236.496 98.8904 237.191 98.6787 237.782 98.2821C238.374 97.8855 238.834 97.3218 239.106 96.6623C239.378 96.0028 239.45 95.2771 239.311 94.577C239.172 93.8768 238.83 93.2337 238.327 92.7289C237.824 92.2241 237.184 91.8804 236.487 91.7411C235.789 91.6018 235.067 91.6733 234.41 91.9465C233.753 92.2197 233.192 92.6823 232.797 93.2759C232.402 93.8694 232.191 94.5673 232.191 95.2811C232.19 95.7553 232.283 96.2249 232.463 96.6631C232.644 97.1013 232.909 97.4993 233.242 97.8346C233.576 98.1698 233.973 98.4358 234.409 98.6169C234.846 98.7981 235.313 98.891 235.785 98.8904ZM302.125 129.478C302.836 129.478 303.531 129.266 304.122 128.869C304.714 128.473 305.174 127.909 305.446 127.25C305.718 126.59 305.79 125.864 305.651 125.164C305.512 124.464 305.17 123.821 304.667 123.316C304.164 122.811 303.524 122.468 302.827 122.328C302.129 122.189 301.407 122.261 300.75 122.534C300.093 122.807 299.532 123.27 299.137 123.863C298.742 124.457 298.531 125.155 298.531 125.868C298.541 126.819 298.924 127.728 299.597 128.396C300.27 129.065 301.179 129.44 302.125 129.44L302.125 129.478ZM302.125 7.25074C302.836 7.25074 303.531 7.03901 304.122 6.64242C304.714 6.24582 305.174 5.68215 305.446 5.02264C305.718 4.36312 305.79 3.63747 305.651 2.93733C305.512 2.2372 305.17 1.59404 304.667 1.08927C304.164 0.584502 303.524 0.240746 302.827 0.10148C302.129 -0.0377857 301.407 0.033717 300.75 0.306897C300.093 0.580077 299.532 1.0427 299.137 1.63625C298.742 2.22979 298.531 2.92762 298.531 3.64147C298.54 4.59175 298.922 5.50009 299.594 6.16897C300.266 6.83786 301.174 7.2131 302.121 7.21306L302.125 7.25074ZM268.955 7.25074C269.667 7.25167 270.362 7.04074 270.954 6.64471C271.545 6.24868 272.007 5.6854 272.28 5.02597C272.552 4.36653 272.624 3.64065 272.486 2.9402C272.348 2.23976 272.006 1.59612 271.503 1.09088C271.001 0.585638 270.36 0.241471 269.663 0.101823C268.966 -0.0378244 268.243 0.0333949 267.586 0.306436C266.929 0.579477 266.367 1.04202 265.972 1.63567C265.577 2.22932 265.366 2.92742 265.366 3.64147C265.374 4.59094 265.756 5.49861 266.427 6.16736C267.098 6.83611 268.005 7.21186 268.951 7.21306L268.955 7.25074ZM235.785 7.25074C236.497 7.25167 237.192 7.04074 237.784 6.64471C238.375 6.24868 238.837 5.6854 239.11 5.02596C239.382 4.36653 239.454 3.64065 239.316 2.9402C239.178 2.23976 238.836 1.59612 238.333 1.09088C237.831 0.585637 237.19 0.24147 236.493 0.101822C235.796 -0.0378258 235.073 0.0333934 234.416 0.306434C233.759 0.579475 233.197 1.04202 232.802 1.63567C232.407 2.22932 232.196 2.92742 232.196 3.64147C232.204 4.59093 232.586 5.49861 233.257 6.16736C233.928 6.83611 234.835 7.21185 235.781 7.21305L235.785 7.25074ZM302.13 37.8381C302.841 37.8381 303.536 37.6263 304.127 37.2297C304.718 36.8332 305.179 36.2695 305.451 35.61C305.723 34.9505 305.794 34.2248 305.656 33.5247C305.517 32.8245 305.175 32.1814 304.672 31.6766C304.169 31.1718 303.529 30.8281 302.831 30.6888C302.134 30.5495 301.411 30.621 300.755 30.8942C300.098 31.1674 299.536 31.63 299.141 32.2236C298.747 32.8171 298.536 33.5149 298.536 34.2288C298.551 35.175 298.935 36.0773 299.607 36.7411C300.278 37.405 301.183 37.777 302.125 37.7768L302.13 37.8381ZM268.96 37.8381C269.671 37.8381 270.366 37.6263 270.957 37.2297C271.548 36.8332 272.009 36.2695 272.281 35.61C272.553 34.9504 272.624 34.2248 272.486 33.5247C272.347 32.8245 272.004 32.1814 271.502 31.6766C270.999 31.1718 270.359 30.8281 269.661 30.6888C268.964 30.5495 268.241 30.621 267.585 30.8942C266.928 31.1674 266.366 31.63 265.971 32.2236C265.577 32.8171 265.366 33.5149 265.366 34.2288C265.38 35.175 265.765 36.0773 266.437 36.7411C267.108 37.405 268.013 37.7769 268.955 37.7768L268.96 37.8381ZM235.785 37.8381C236.497 37.839 237.192 37.6281 237.784 37.232C238.375 36.836 238.837 36.2727 239.11 35.6133C239.382 34.9539 239.454 34.228 239.316 33.5275C239.178 32.8271 238.836 32.1834 238.333 31.6782C237.831 31.173 237.19 30.8288 236.493 30.6892C235.796 30.5495 235.073 30.6207 234.416 30.8938C233.759 31.1668 233.197 31.6293 232.802 32.223C232.407 32.8166 232.196 33.5147 232.196 34.2288C232.21 35.1742 232.595 36.0758 233.265 36.7395C233.936 37.4032 234.839 37.7757 235.781 37.7768L235.785 37.8381ZM268.96 129.501C269.671 129.501 270.366 129.29 270.957 128.893C271.548 128.496 272.009 127.933 272.281 127.273C272.553 126.614 272.624 125.888 272.486 125.188C272.347 124.488 272.004 123.845 271.502 123.34C270.999 122.835 270.359 122.491 269.661 122.352C268.964 122.213 268.241 122.284 267.585 122.557C266.928 122.831 266.366 123.293 265.971 123.887C265.577 124.48 265.366 125.178 265.366 125.892C265.382 126.838 265.767 127.739 266.438 128.403C267.109 129.067 268.013 129.439 268.955 129.44L268.96 129.501ZM235.79 129.501C236.501 129.501 237.196 129.29 237.787 128.893C238.378 128.496 238.839 127.933 239.111 127.273C239.383 126.614 239.454 125.888 239.316 125.188C239.177 124.488 238.834 123.845 238.332 123.34C237.829 122.835 237.189 122.491 236.491 122.352C235.794 122.213 235.071 122.284 234.415 122.557C233.758 122.831 233.196 123.293 232.801 123.887C232.407 124.48 232.196 125.178 232.196 125.892C232.212 126.838 232.597 127.739 233.268 128.403C233.939 129.067 234.843 129.439 235.785 129.44L235.79 129.501ZM302.13 160.06C302.841 160.06 303.536 159.849 304.127 159.452C304.718 159.055 305.179 158.492 305.451 157.832C305.723 157.173 305.794 156.447 305.656 155.747C305.517 155.047 305.175 154.404 304.672 153.899C304.169 153.394 303.529 153.05 302.831 152.911C302.134 152.772 301.411 152.843 300.755 153.116C300.098 153.39 299.536 153.852 299.141 154.446C298.747 155.039 298.536 155.737 298.536 156.451C298.55 157.397 298.935 158.3 299.607 158.963C300.278 159.627 301.183 159.999 302.125 159.999L302.13 160.06ZM268.96 160.06C269.671 160.06 270.366 159.849 270.957 159.452C271.548 159.055 272.009 158.492 272.281 157.832C272.553 157.173 272.624 156.447 272.486 155.747C272.347 155.047 272.004 154.404 271.502 153.899C270.999 153.394 270.359 153.05 269.661 152.911C268.964 152.772 268.241 152.843 267.585 153.116C266.928 153.39 266.366 153.852 265.971 154.446C265.577 155.039 265.366 155.737 265.366 156.451C265.38 157.397 265.765 158.3 266.437 158.963C267.108 159.627 268.013 159.999 268.955 159.999L268.96 160.06ZM235.79 160.06C236.501 160.06 237.196 159.849 237.787 159.452C238.378 159.055 238.839 158.492 239.111 157.832C239.383 157.173 239.454 156.447 239.316 155.747C239.177 155.047 238.834 154.404 238.332 153.899C237.829 153.394 237.189 153.05 236.491 152.911C235.794 152.772 235.071 152.843 234.415 153.116C233.758 153.39 233.196 153.852 232.801 154.446C232.407 155.039 232.196 155.737 232.196 156.451C232.21 157.397 232.595 158.3 233.267 158.963C233.938 159.627 234.843 159.999 235.785 159.999L235.79 160.06Z" fill="#FFA339"/>
</g>
<defs>
<clipPath id="clip0">
<rect width="160" height="305.714" fill="white" transform="translate(305.715) rotate(90)"/>
</clipPath>
</defs>
</svg>
