<svg width="21" height="19" viewBox="0 0 21 19" fill="none" xmlns="http://www.w3.org/2000/svg">
<path d="M3.94402 9.02028H20.6576L1.64962 0.380278C1.56227 0.344227 1.46661 0.333215 1.37335 0.348475C1.28009 0.363736 1.19293 0.404666 1.12162 0.466678C1.0519 0.53107 1.00283 0.614685 0.980618 0.706956C0.958405 0.799226 0.964043 0.896011 0.996821 0.985079L3.94402 9.02028Z" fill="white"/>
<path d="M3.94402 9.98047L0.996821 17.9773C0.964043 18.0663 0.958405 18.1631 0.980618 18.2554C1.00283 18.3477 1.0519 18.4313 1.12162 18.4957C1.2131 18.5731 1.32821 18.6171 1.44802 18.6205C1.51452 18.6342 1.58312 18.6342 1.64962 18.6205L20.6576 9.98047H3.94402Z" fill="white"/>
</svg>
