<svg width="24" height="25" viewBox="0 0 24 25" fill="none" xmlns="http://www.w3.org/2000/svg">
<path d="M0 12.9951C0 19.6225 5.37258 24.9951 12 24.9951C18.6274 24.9951 24 19.6225 24 12.9951C24 6.3677 18.6274 0.995117 12 0.995117C5.37258 0.995117 0 6.3677 0 12.9951Z" fill="#FF0000"/>
<path d="M17.7 10.0699C17.55 9.54492 17.175 9.16992 16.65 9.01992C15.75 8.79492 11.925 8.79492 11.925 8.79492C11.925 8.79492 8.175 8.79492 7.2 9.01992C6.675 9.16992 6.3 9.54492 6.15 10.0699C6 11.0449 6 12.9949 6 12.9949C6 12.9949 6 14.9449 6.225 15.9199C6.375 16.4449 6.75 16.8199 7.275 16.9699C8.175 17.1949 12 17.1949 12 17.1949C12 17.1949 15.75 17.1949 16.725 16.9699C17.25 16.8199 17.625 16.4449 17.775 15.9199C18 14.9449 18 12.9949 18 12.9949C18 12.9949 18 11.0449 17.7 10.0699ZM10.8 14.7949V11.1949L13.95 12.9949L10.8 14.7949Z" fill="white"/>
</svg>
