<svg width="24" height="24" viewBox="0 0 24 24" fill="none" xmlns="http://www.w3.org/2000/svg">
<path d="M12 11.25C14.0711 11.25 15.75 9.57107 15.75 7.5C15.75 5.42893 14.0711 3.75 12 3.75C9.92893 3.75 8.25 5.42893 8.25 7.5C8.25 9.57107 9.92893 11.25 12 11.25Z" fill="white"/>
<path d="M13.3955 17.0399L12.0005 12.8699L10.6055 17.0399V17.0474L12.0005 18.4424L13.3955 17.0474V17.0399Z" fill="white"/>
<path d="M13.5004 12H13.2904L14.9479 16.965C15.002 17.1027 15.0151 17.2531 14.9859 17.3981C14.9566 17.5431 14.8861 17.6765 14.7829 17.7825L12.3154 20.25H18.7504C18.9492 20.2494 19.1396 20.1702 19.2801 20.0297C19.4207 19.8892 19.4999 19.6987 19.5004 19.5V18C19.4983 16.4093 18.8655 14.8844 17.7407 13.7597C16.616 12.6349 15.0911 12.0021 13.5004 12Z" fill="white"/>
<path d="M9.2175 17.7825C9.11427 17.6765 9.0438 17.5431 9.01454 17.3981C8.98527 17.2531 8.99845 17.1027 9.0525 16.965L10.71 12H10.5C8.90935 12.0021 7.38445 12.6349 6.25968 13.7597C5.13492 14.8844 4.5021 16.4093 4.5 18V19.5C4.50057 19.6987 4.57978 19.8892 4.7203 20.0297C4.86083 20.1702 5.05126 20.2494 5.25 20.25H11.6925C11.6925 20.25 11.2132 19.7782 9.2175 17.7825Z" fill="white"/>
</svg>
