<svg width="157" height="249" viewBox="0 0 157 249" fill="none" xmlns="http://www.w3.org/2000/svg">
<g clip-path="url(#clip0)">
<path opacity="0.7" d="M93.5103 47.0592C94.2108 47.0592 94.8955 47.2656 95.4779 47.6524C96.0603 48.0392 96.5143 48.589 96.7823 49.2322C97.0504 49.8754 97.1206 50.5832 96.9839 51.266C96.8473 51.9489 96.5099 52.5761 96.0146 53.0684C95.5193 53.5607 94.8882 53.8959 94.2012 54.0317C93.5142 54.1676 92.8022 54.0978 92.155 53.8314C91.5079 53.565 90.9548 53.1138 90.5656 52.535C90.1765 51.9561 89.9687 51.2755 89.9687 50.5793C89.9681 50.1168 90.0593 49.6588 90.2371 49.2315C90.4149 48.8041 90.6757 48.4158 91.0047 48.0888C91.3337 47.7618 91.7244 47.5026 92.1543 47.3259C92.5843 47.1492 93.045 47.0586 93.5103 47.0592ZM89.9687 18.0951C89.9687 18.7913 90.1765 19.4719 90.5656 20.0508C90.9548 20.6297 91.5079 21.0809 92.155 21.3473C92.8022 21.6137 93.5142 21.6834 94.2012 21.5476C94.8882 21.4118 95.5193 21.0765 96.0146 20.5842C96.5099 20.0919 96.8473 19.4647 96.9839 18.7819C97.1206 18.099 97.0504 17.3913 96.7823 16.7481C96.5143 16.1048 96.0603 15.555 95.4779 15.1682C94.8955 14.7814 94.2108 14.575 93.5103 14.575C93.0458 14.5756 92.5861 14.6671 92.1572 14.8444C91.7283 15.0216 91.3387 15.281 91.0107 15.6079C90.6827 15.9348 90.4227 16.3227 90.2455 16.7495C90.0683 17.1762 89.9773 17.6335 89.9779 18.0951L89.9687 18.0951ZM89.9687 -14.389C89.9687 -13.6928 90.1765 -13.0122 90.5656 -12.4334C90.9548 -11.8545 91.5079 -11.4033 92.155 -11.1368C92.8022 -10.8704 93.5142 -10.8008 94.2012 -10.9366C94.8882 -11.0724 95.5193 -11.4077 96.0146 -11.8999C96.5099 -12.3922 96.8473 -13.0194 96.9839 -13.7023C97.1206 -14.3851 97.0504 -15.0929 96.7823 -15.7361C96.5143 -16.3793 96.0603 -16.9291 95.4779 -17.3159C94.8955 -17.7026 94.2108 -17.9092 93.5103 -17.9092C93.0454 -17.9085 92.5852 -17.8169 92.156 -17.6393C91.7268 -17.4618 91.3371 -17.2019 91.009 -16.8746C90.6809 -16.5472 90.421 -16.1588 90.2441 -15.7315C90.0672 -15.3042 89.9767 -14.8465 89.9779 -14.3844L89.9687 -14.389ZM89.9687 -46.8732C89.9687 -46.1769 90.1765 -45.4964 90.5656 -44.9175C90.9548 -44.3386 91.5079 -43.8874 92.155 -43.621C92.8022 -43.3546 93.5142 -43.2848 94.2012 -43.4207C94.8882 -43.5565 95.5193 -43.8918 96.0146 -44.384C96.51 -44.8763 96.8473 -45.5036 96.9839 -46.1864C97.1206 -46.8693 97.0504 -47.577 96.7824 -48.2203C96.5143 -48.8635 96.0603 -49.4132 95.4779 -49.8C94.8955 -50.1868 94.2108 -50.3933 93.5103 -50.3933C93.0458 -50.3926 92.5861 -50.3011 92.1572 -50.1239C91.7283 -49.9467 91.3387 -49.6872 91.0107 -49.3603C90.6827 -49.0335 90.4227 -48.6456 90.2455 -48.2188C90.0683 -47.7921 89.9773 -47.3348 89.9779 -46.8732L89.9687 -46.8732ZM59.9641 50.5793C59.9641 51.2755 60.1719 51.9561 60.561 52.535C60.9502 53.1138 61.5033 53.565 62.1505 53.8314C62.7976 54.0978 63.5096 54.1676 64.1967 54.0317C64.8837 53.8959 65.5148 53.5607 66.0101 53.0684C66.5054 52.5761 66.8427 51.9489 66.9793 51.266C67.116 50.5832 67.0458 49.8754 66.7778 49.2322C66.5097 48.589 66.0558 48.0392 65.4733 47.6524C64.8909 47.2656 64.2062 47.0592 63.5057 47.0592C62.5664 47.0592 61.6657 47.43 61.0015 48.0902C60.3373 48.7503 59.9641 49.6457 59.9641 50.5793ZM59.9641 18.0951C59.9641 18.7913 60.1719 19.4719 60.561 20.0508C60.9502 20.6297 61.5033 21.0809 62.1505 21.3473C62.7976 21.6137 63.5096 21.6834 64.1967 21.5476C64.8837 21.4118 65.5148 21.0765 66.0101 20.5842C66.5054 20.0919 66.8427 19.4647 66.9793 18.7819C67.116 18.099 67.0458 17.3913 66.7778 16.7481C66.5097 16.1048 66.0558 15.555 65.4733 15.1682C64.8909 14.7814 64.2062 14.575 63.5057 14.575C63.0405 14.5744 62.5796 14.665 62.1497 14.8417C61.7197 15.0184 61.3291 15.2777 61.0001 15.6047C60.6711 15.9317 60.4102 16.32 60.2324 16.7473C60.0547 17.1747 59.9635 17.6327 59.9641 18.0951ZM59.9641 -14.389C59.9641 -13.6928 60.1719 -13.0122 60.5611 -12.4334C60.9502 -11.8545 61.5033 -11.4033 62.1505 -11.1368C62.7976 -10.8704 63.5097 -10.8008 64.1967 -10.9366C64.8837 -11.0724 65.5148 -11.4077 66.0101 -11.8999C66.5054 -12.3923 66.8427 -13.0194 66.9793 -13.7023C67.116 -14.3851 67.0458 -15.0929 66.7778 -15.7361C66.5097 -16.3793 66.0558 -16.9291 65.4734 -17.3159C64.8909 -17.7026 64.2062 -17.9092 63.5057 -17.9092C63.0401 -17.9098 62.5789 -17.8189 62.1487 -17.642C61.7184 -17.465 61.3275 -17.2053 60.9985 -16.8778C60.6694 -16.5503 60.4087 -16.1615 60.2312 -15.7337C60.0537 -15.3058 59.9629 -14.8473 59.9641 -14.3844L59.9641 -14.389ZM59.9641 -46.8732C59.9641 -46.1769 60.1719 -45.4964 60.5611 -44.9175C60.9502 -44.3386 61.5033 -43.8874 62.1505 -43.621C62.7976 -43.3546 63.5097 -43.2848 64.1967 -43.4207C64.8837 -43.5565 65.5148 -43.8918 66.0101 -44.384C66.5054 -44.8764 66.8427 -45.5036 66.9793 -46.1864C67.116 -46.8693 67.0458 -47.577 66.7778 -48.2203C66.5097 -48.8635 66.0558 -49.4132 65.4734 -49.8C64.8909 -50.1868 64.2062 -50.3933 63.5057 -50.3933C63.0405 -50.3938 62.5796 -50.3032 62.1497 -50.1265C61.7197 -49.9498 61.3291 -49.6906 61.0001 -49.3636C60.6712 -49.0366 60.4102 -48.6483 60.2324 -48.2209C60.0547 -47.7936 59.9635 -47.3356 59.9641 -46.8732ZM29.9503 50.5793C29.9503 51.2755 30.1581 51.9561 30.5472 52.535C30.9364 53.1138 31.4895 53.565 32.1366 53.8314C32.7838 54.0978 33.4958 54.1676 34.1828 54.0317C34.8699 53.8959 35.5009 53.5607 35.9962 53.0683C36.4916 52.5761 36.8289 51.9489 36.9655 51.266C37.1022 50.5832 37.032 49.8754 36.764 49.2322C36.4959 48.589 36.0419 48.0392 35.4595 47.6524C34.8771 47.2656 34.1924 47.0592 33.4919 47.0592C32.559 47.0688 31.6677 47.4439 31.0115 48.103C30.3552 48.7622 29.9872 49.652 29.9873 50.5793L29.9503 50.5793ZM29.9503 18.0951C29.9503 18.7913 30.1581 19.4719 30.5472 20.0508C30.9364 20.6297 31.4895 21.0809 32.1366 21.3473C32.7838 21.6137 33.4958 21.6834 34.1828 21.5476C34.8699 21.4118 35.501 21.0765 35.9963 20.5842C36.4916 20.0919 36.8289 19.4647 36.9655 18.7819C37.1022 18.099 37.032 17.3913 36.764 16.7481C36.4959 16.1048 36.042 15.555 35.4595 15.1682C34.8771 14.7814 34.1924 14.575 33.4919 14.575C32.559 14.5847 31.6677 14.9598 31.0115 15.6189C30.3552 16.278 29.9872 17.1679 29.9873 18.0951L29.9503 18.0951ZM29.9503 -14.389C29.9503 -13.6928 30.1581 -13.0122 30.5472 -12.4334C30.9364 -11.8545 31.4895 -11.4033 32.1366 -11.1369C32.7838 -10.8704 33.4958 -10.8008 34.1828 -10.9366C34.8699 -11.0724 35.501 -11.4077 35.9963 -11.8999C36.4916 -12.3923 36.8289 -13.0195 36.9655 -13.7023C37.1022 -14.3851 37.032 -15.0929 36.764 -15.7361C36.4959 -16.3793 36.042 -16.9291 35.4595 -17.3159C34.8771 -17.7026 34.1924 -17.9092 33.4919 -17.9092C32.5582 -17.8995 31.6662 -17.5237 31.0099 -16.8636C30.3535 -16.2035 29.986 -15.3125 29.9873 -14.3844L29.9503 -14.389ZM29.9503 -46.8732C29.9503 -46.177 30.1581 -45.4964 30.5472 -44.9175C30.9364 -44.3386 31.4895 -43.8874 32.1366 -43.621C32.7838 -43.3546 33.4958 -43.2848 34.1828 -43.4207C34.8699 -43.5565 35.501 -43.8918 35.9963 -44.384C36.4916 -44.8764 36.8289 -45.5036 36.9655 -46.1864C37.1022 -46.8693 37.032 -47.577 36.764 -48.2203C36.4959 -48.8635 36.042 -49.4132 35.4595 -49.8C34.8771 -50.1868 34.1924 -50.3933 33.4919 -50.3933C32.559 -50.3836 31.6677 -50.0085 31.0115 -49.3494C30.3553 -48.6903 29.9872 -47.8005 29.9873 -46.8732L29.9503 -46.8732ZM-0.0357645 50.5793C-0.0357646 51.2755 0.171877 51.9561 0.561037 52.535C0.950197 53.1138 1.5034 53.565 2.15056 53.8314C2.7977 54.0978 3.50975 54.1676 4.19676 54.0317C4.88378 53.8959 5.51486 53.5607 6.01016 53.0683C6.50548 52.5761 6.84279 51.9489 6.97945 51.266C7.11609 50.5832 7.04593 49.8754 6.77788 49.2322C6.50981 48.589 6.05586 48.0392 5.47345 47.6524C4.89104 47.2656 4.20629 47.0592 3.50583 47.0592C2.57256 47.0676 1.6805 47.4424 1.02402 48.1017C0.367556 48.7611 -0.000165677 49.6517 0.00110072 50.5793L-0.0357645 50.5793ZM-0.0357617 18.0951C-0.0357617 18.7913 0.17188 19.4719 0.56104 20.0508C0.9502 20.6297 1.50341 21.0809 2.15056 21.3473C2.7977 21.6137 3.50975 21.6834 4.19677 21.5476C4.88378 21.4118 5.51487 21.0765 6.01017 20.5842C6.50548 20.0919 6.84279 19.4647 6.97945 18.7819C7.11609 18.099 7.04593 17.3913 6.77788 16.748C6.50982 16.1048 6.05587 15.555 5.47345 15.1682C4.89104 14.7814 4.20629 14.575 3.50583 14.575C2.57256 14.5835 1.6805 14.9582 1.02402 15.6176C0.367559 16.277 -0.000162837 17.1675 0.00110356 18.0951L-0.0357617 18.0951ZM-0.0357588 -14.389C-0.0357589 -13.6928 0.171883 -13.0123 0.561043 -12.4334C0.950203 -11.8545 1.50341 -11.4033 2.15057 -11.1369C2.79771 -10.8704 3.50976 -10.8008 4.19677 -10.9366C4.88378 -11.0724 5.51487 -11.4077 6.01017 -11.8999C6.50549 -12.3923 6.8428 -13.0195 6.97945 -13.7023C7.1161 -14.3851 7.04594 -15.0929 6.77789 -15.7361C6.50982 -16.3793 6.05587 -16.9291 5.47346 -17.3159C4.89105 -17.7027 4.20629 -17.9092 3.50584 -17.9092C2.57177 -17.9007 1.67905 -17.5253 1.02245 -16.8649C0.365853 -16.2046 -0.0013807 -15.3128 0.0011064 -14.3844L-0.0357588 -14.389ZM-0.035756 -46.8732C-0.0357561 -46.177 0.171885 -45.4964 0.561046 -44.9175C0.950206 -44.3386 1.50341 -43.8874 2.15057 -43.621C2.79771 -43.3546 3.50976 -43.2848 4.19677 -43.4207C4.88378 -43.5565 5.51487 -43.8918 6.01017 -44.384C6.50549 -44.8764 6.8428 -45.5036 6.97946 -46.1864C7.1161 -46.8693 7.04594 -47.577 6.77789 -48.2203C6.50982 -48.8635 6.05587 -49.4132 5.47346 -49.8C4.89105 -50.1868 4.20629 -50.3933 3.50584 -50.3933C2.57257 -50.3848 1.68051 -50.01 1.02403 -49.3507C0.367564 -48.6913 -0.000157158 -47.8008 0.00110924 -46.8732L-0.035756 -46.8732ZM89.9779 148.032C89.9779 148.728 90.1857 149.408 90.5748 149.987C90.964 150.566 91.5171 151.017 92.1643 151.284C92.8114 151.55 93.5235 151.62 94.2105 151.484C94.8975 151.348 95.5286 151.013 96.0239 150.521C96.5192 150.028 96.8565 149.401 96.9931 148.718C97.1298 148.036 97.0596 147.328 96.7916 146.685C96.5235 146.041 96.0696 145.492 95.4872 145.105C94.9047 144.718 94.22 144.512 93.5195 144.512C92.5802 144.512 91.6795 144.882 91.0153 145.543C90.3511 146.203 89.9779 147.098 89.9779 148.032ZM89.9779 115.548C89.9779 116.244 90.1857 116.924 90.5748 117.503C90.964 118.082 91.5171 118.533 92.1643 118.8C92.8114 119.066 93.5235 119.136 94.2105 119C94.8975 118.864 95.5286 118.529 96.0239 118.037C96.5192 117.544 96.8565 116.917 96.9931 116.234C97.1298 115.551 97.0596 114.844 96.7916 114.2C96.5235 113.557 96.0696 113.007 95.4872 112.621C94.9047 112.234 94.22 112.027 93.5195 112.027C92.5802 112.027 91.6795 112.398 91.0153 113.058C90.3511 113.719 89.9779 114.614 89.9779 115.548ZM89.9779 83.0634C89.9779 83.7596 90.1857 84.4402 90.5749 85.0191C90.964 85.5979 91.5171 86.0491 92.1643 86.3155C92.8114 86.582 93.5235 86.6517 94.2105 86.5159C94.8975 86.3801 95.5286 86.0448 96.0239 85.5525C96.5192 85.0602 96.8565 84.4329 96.9931 83.7501C97.1298 83.0673 97.0596 82.3595 96.7916 81.7163C96.5235 81.0731 96.0696 80.5233 95.4872 80.1365C94.9047 79.7498 94.22 79.5433 93.5195 79.5433C93.0543 79.5427 92.5934 79.6334 92.1635 79.81C91.7335 79.9867 91.3429 80.246 91.0139 80.573C90.685 80.9 90.424 81.2883 90.2462 81.7156C90.0685 82.143 89.9773 82.6009 89.9779 83.0634ZM59.9641 148.032C59.9641 148.728 60.1719 149.408 60.561 149.987C60.9502 150.566 61.5033 151.017 62.1504 151.284C62.7976 151.55 63.5096 151.62 64.1966 151.484C64.8837 151.348 65.5147 151.013 66.0101 150.521C66.5054 150.028 66.8427 149.401 66.9793 148.718C67.116 148.036 67.0458 147.328 66.7778 146.685C66.5097 146.041 66.0558 145.492 65.4733 145.105C64.8909 144.718 64.2062 144.512 63.5057 144.512C62.5664 144.512 61.6657 144.882 61.0015 145.543C60.3373 146.203 59.9641 147.098 59.9641 148.032ZM59.9641 115.548C59.9641 116.244 60.1719 116.924 60.561 117.503C60.9502 118.082 61.5033 118.533 62.1504 118.8C62.7976 119.066 63.5096 119.136 64.1967 119C64.8837 118.864 65.5148 118.529 66.0101 118.037C66.5054 117.544 66.8427 116.917 66.9793 116.234C67.116 115.551 67.0458 114.844 66.7778 114.2C66.5097 113.557 66.0558 113.007 65.4733 112.621C64.8909 112.234 64.2062 112.027 63.5057 112.027C62.5664 112.027 61.6657 112.398 61.0015 113.058C60.3373 113.719 59.9641 114.614 59.9641 115.548ZM59.9641 83.0634C59.9641 83.7596 60.1719 84.4402 60.561 85.019C60.9502 85.5979 61.5033 86.0491 62.1505 86.3155C62.7976 86.582 63.5096 86.6517 64.1967 86.5159C64.8837 86.3801 65.5148 86.0448 66.0101 85.5525C66.5054 85.0602 66.8427 84.4329 66.9793 83.7501C67.116 83.0673 67.0458 82.3595 66.7778 81.7163C66.5097 81.0731 66.0558 80.5233 65.4733 80.1365C64.8909 79.7497 64.2062 79.5433 63.5057 79.5433C63.0405 79.5427 62.5796 79.6334 62.1497 79.81C61.7197 79.9867 61.3291 80.246 61.0001 80.573C60.6711 80.9 60.4102 81.2883 60.2324 81.7156C60.0547 82.143 59.9635 82.6009 59.9641 83.0634ZM29.9503 148.032C29.9503 148.728 30.1581 149.408 30.5472 149.987C30.9364 150.566 31.4895 151.017 32.1366 151.284C32.7838 151.55 33.4958 151.62 34.1828 151.484C34.8698 151.348 35.5009 151.013 35.9962 150.521C36.4915 150.028 36.8289 149.401 36.9655 148.718C37.1022 148.036 37.032 147.328 36.7639 146.685C36.4959 146.041 36.0419 145.492 35.4595 145.105C34.8771 144.718 34.1924 144.512 33.4919 144.512C32.5594 144.522 31.6688 144.898 31.0128 145.557C30.3568 146.216 29.9884 147.105 29.9873 148.032L29.9503 148.032ZM149.886 50.5793C149.886 51.2755 150.093 51.9561 150.482 52.535C150.872 53.1138 151.425 53.565 152.072 53.8314C152.719 54.0978 153.431 54.1676 154.118 54.0318C154.805 53.8959 155.436 53.5607 155.931 53.0684C156.427 52.5761 156.764 51.9489 156.901 51.266C157.037 50.5832 156.967 49.8754 156.699 49.2322C156.431 48.589 155.977 48.0392 155.395 47.6524C154.812 47.2656 154.128 47.0592 153.427 47.0592C152.494 47.0688 151.603 47.444 150.947 48.1031C150.29 48.7622 149.922 49.652 149.922 50.5793L149.886 50.5793ZM149.886 18.0951C149.886 18.7914 150.093 19.4719 150.482 20.0508C150.872 20.6297 151.425 21.0809 152.072 21.3473C152.719 21.6137 153.431 21.6834 154.118 21.5476C154.805 21.4118 155.436 21.0765 155.931 20.5842C156.427 20.0919 156.764 19.4647 156.901 18.7819C157.037 18.099 156.967 17.3913 156.699 16.7481C156.431 16.1048 155.977 15.555 155.395 15.1682C154.812 14.7814 154.128 14.575 153.427 14.575C152.494 14.5835 151.602 14.9583 150.945 15.6176C150.289 16.277 149.921 17.1675 149.922 18.0951L149.886 18.0951ZM149.886 -14.389C149.886 -13.6928 150.093 -13.0122 150.482 -12.4334C150.872 -11.8545 151.425 -11.4033 152.072 -11.1368C152.719 -10.8704 153.431 -10.8008 154.118 -10.9366C154.805 -11.0724 155.436 -11.4077 155.931 -11.8999C156.427 -12.3922 156.764 -13.0194 156.901 -13.7023C157.037 -14.3851 156.967 -15.0929 156.699 -15.7361C156.431 -16.3793 155.977 -16.9291 155.395 -17.3159C154.812 -17.7026 154.128 -17.9091 153.427 -17.9091C152.493 -17.9007 151.6 -17.5253 150.944 -16.8649C150.287 -16.2046 149.92 -15.3128 149.922 -14.3844L149.886 -14.389ZM149.886 -46.8732C149.886 -46.1769 150.093 -45.4964 150.482 -44.9175C150.872 -44.3386 151.425 -43.8874 152.072 -43.621C152.719 -43.3546 153.431 -43.2848 154.118 -43.4207C154.805 -43.5565 155.436 -43.8918 155.931 -44.384C156.427 -44.8763 156.764 -45.5036 156.901 -46.1864C157.037 -46.8693 156.967 -47.577 156.699 -48.2202C156.431 -48.8635 155.977 -49.4132 155.395 -49.8C154.812 -50.1868 154.128 -50.3932 153.427 -50.3932C152.494 -50.3848 151.602 -50.01 150.945 -49.3506C150.289 -48.6913 149.921 -47.8008 149.922 -46.8732L149.886 -46.8732ZM119.872 50.5793C119.872 51.2755 120.079 51.9561 120.469 52.535C120.858 53.1138 121.411 53.565 122.058 53.8314C122.705 54.0978 123.417 54.1676 124.104 54.0318C124.791 53.8959 125.422 53.5607 125.918 53.0684C126.413 52.5761 126.75 51.9489 126.887 51.266C127.024 50.5832 126.953 49.8754 126.685 49.2322C126.417 48.589 125.963 48.0392 125.381 47.6524C124.798 47.2656 124.114 47.0592 123.413 47.0592C122.484 47.0748 121.599 47.4526 120.948 48.1111C120.296 48.7695 119.932 49.6559 119.932 50.5793L119.872 50.5793ZM119.872 18.0951C119.872 18.7913 120.079 19.4719 120.469 20.0508C120.858 20.6297 121.411 21.0809 122.058 21.3473C122.705 21.6137 123.417 21.6834 124.104 21.5476C124.791 21.4118 125.422 21.0765 125.918 20.5842C126.413 20.0919 126.75 19.4647 126.887 18.7819C127.024 18.099 126.953 17.3913 126.685 16.7481C126.417 16.1048 125.963 15.555 125.381 15.1682C124.799 14.7814 124.114 14.575 123.413 14.575C122.484 14.5895 121.598 14.9669 120.946 15.6256C120.295 16.2843 119.93 17.1714 119.932 18.0951L119.872 18.0951ZM119.872 -14.389C119.872 -13.6928 120.079 -13.0122 120.469 -12.4334C120.858 -11.8545 121.411 -11.4033 122.058 -11.1368C122.705 -10.8704 123.417 -10.8008 124.104 -10.9366C124.791 -11.0724 125.422 -11.4077 125.918 -11.8999C126.413 -12.3922 126.75 -13.0194 126.887 -13.7023C127.024 -14.3851 126.953 -15.0929 126.685 -15.7361C126.417 -16.3793 125.963 -16.9291 125.381 -17.3159C124.799 -17.7026 124.114 -17.9092 123.413 -17.9092C122.483 -17.8947 121.596 -17.5166 120.945 -16.8569C120.293 -16.1972 119.929 -15.3089 119.932 -14.3844L119.872 -14.389ZM119.872 -46.8732C119.872 -46.1769 120.079 -45.4964 120.469 -44.9175C120.858 -44.3386 121.411 -43.8874 122.058 -43.621C122.705 -43.3546 123.417 -43.2848 124.104 -43.4207C124.791 -43.5565 125.422 -43.8918 125.918 -44.384C126.413 -44.8763 126.75 -45.5036 126.887 -46.1864C127.024 -46.8693 126.953 -47.577 126.685 -48.2202C126.417 -48.8635 125.963 -49.4132 125.381 -49.8C124.799 -50.1868 124.114 -50.3933 123.413 -50.3933C122.484 -50.3788 121.598 -50.0014 120.946 -49.3427C120.295 -48.684 119.93 -47.7969 119.932 -46.8732L119.872 -46.8732ZM149.885 148.032C149.885 148.728 150.093 149.408 150.482 149.987C150.872 150.566 151.425 151.017 152.072 151.284C152.719 151.55 153.431 151.62 154.118 151.484C154.805 151.348 155.436 151.013 155.931 150.521C156.427 150.028 156.764 149.401 156.901 148.718C157.037 148.036 156.967 147.328 156.699 146.685C156.431 146.041 155.977 145.492 155.395 145.105C154.812 144.718 154.128 144.512 153.427 144.512C152.494 144.52 151.602 144.895 150.945 145.554C150.289 146.214 149.921 147.104 149.922 148.032L149.885 148.032ZM149.886 115.548C149.886 116.244 150.093 116.924 150.482 117.503C150.872 118.082 151.425 118.533 152.072 118.8C152.719 119.066 153.431 119.136 154.118 119C154.805 118.864 155.436 118.529 155.931 118.037C156.427 117.544 156.764 116.917 156.901 116.234C157.037 115.551 156.967 114.844 156.699 114.2C156.431 113.557 155.977 113.007 155.395 112.621C154.812 112.234 154.128 112.027 153.427 112.027C152.494 112.037 151.603 112.412 150.947 113.071C150.29 113.73 149.922 114.62 149.922 115.548L149.886 115.548ZM149.886 83.0634C149.886 83.7596 150.093 84.4402 150.482 85.0191C150.872 85.5979 151.425 86.0491 152.072 86.3156C152.719 86.582 153.431 86.6517 154.118 86.5159C154.805 86.3801 155.436 86.0448 155.931 85.5525C156.427 85.0602 156.764 84.433 156.901 83.7501C157.037 83.0673 156.967 82.3595 156.699 81.7163C156.431 81.0731 155.977 80.5233 155.395 80.1366C154.812 79.7498 154.128 79.5433 153.427 79.5433C152.494 79.5518 151.602 79.9265 150.945 80.5859C150.289 81.2453 149.921 82.1358 149.922 83.0634L149.886 83.0634ZM119.872 148.032C119.872 148.728 120.079 149.408 120.469 149.987C120.858 150.566 121.411 151.017 122.058 151.284C122.705 151.55 123.417 151.62 124.104 151.484C124.791 151.348 125.422 151.013 125.918 150.521C126.413 150.028 126.75 149.401 126.887 148.718C127.024 148.036 126.953 147.328 126.685 146.685C126.417 146.041 125.963 145.492 125.381 145.105C124.798 144.718 124.114 144.512 123.413 144.512C122.484 144.526 121.598 144.903 120.946 145.562C120.295 146.221 119.93 147.108 119.932 148.032L119.872 148.032ZM119.872 115.548C119.872 116.244 120.079 116.924 120.469 117.503C120.858 118.082 121.411 118.533 122.058 118.8C122.705 119.066 123.417 119.136 124.104 119C124.791 118.864 125.422 118.529 125.918 118.037C126.413 117.544 126.75 116.917 126.887 116.234C127.024 115.551 126.953 114.844 126.685 114.2C126.417 113.557 125.963 113.007 125.381 112.621C124.798 112.234 124.114 112.027 123.413 112.027C122.484 112.043 121.599 112.421 120.948 113.079C120.296 113.738 119.932 114.624 119.932 115.548L119.872 115.548ZM119.872 83.0634C119.872 83.7596 120.079 84.4402 120.469 85.0191C120.858 85.5979 121.411 86.0491 122.058 86.3155C122.705 86.582 123.417 86.6517 124.104 86.5159C124.791 86.3801 125.422 86.0448 125.918 85.5525C126.413 85.0602 126.75 84.433 126.887 83.7501C127.024 83.0673 126.953 82.3595 126.685 81.7163C126.417 81.0731 125.963 80.5233 125.381 80.1365C124.798 79.7498 124.114 79.5433 123.413 79.5433C122.484 79.5578 121.598 79.9351 120.946 80.5939C120.295 81.2526 119.93 82.1397 119.932 83.0634L119.872 83.0634ZM29.9272 115.548C29.9272 116.244 30.135 116.924 30.5241 117.503C30.9133 118.082 31.4664 118.533 32.1135 118.8C32.7607 119.066 33.4728 119.136 34.1598 119C34.8469 118.864 35.4778 118.529 35.9731 118.037C36.4684 117.544 36.8058 116.917 36.9424 116.234C37.0791 115.551 37.0089 114.844 36.7408 114.2C36.4728 113.557 36.0188 113.007 35.4364 112.621C34.854 112.234 34.1694 112.027 33.4689 112.027C32.5404 112.044 31.6556 112.422 31.0046 113.081C30.3536 113.739 29.9883 114.625 29.9873 115.548L29.9272 115.548ZM29.9272 83.0634C29.9272 83.7596 30.135 84.4402 30.5241 85.019C30.9133 85.5979 31.4664 86.0491 32.1135 86.3155C32.7607 86.582 33.4728 86.6517 34.1598 86.5159C34.8469 86.3801 35.4778 86.0448 35.9731 85.5525C36.4684 85.0602 36.8058 84.4329 36.9424 83.7501C37.0791 83.0673 37.0089 82.3595 36.7408 81.7163C36.4728 81.0731 36.0188 80.5233 35.4364 80.1365C34.854 79.7497 34.1694 79.5433 33.4689 79.5433C32.5404 79.5601 31.6556 79.9382 31.0046 80.5964C30.3536 81.2546 29.9883 82.1404 29.9873 83.0634L29.9272 83.0634ZM-0.0588901 148.032C-0.0588902 148.728 0.148873 149.408 0.538034 149.987C0.927194 150.566 1.48029 151.017 2.12743 151.284C2.77459 151.55 3.48663 151.62 4.17364 151.484C4.86065 151.348 5.49174 151.013 5.98705 150.521C6.48235 150.028 6.81967 149.401 6.95632 148.718C7.09298 148.036 7.02282 147.328 6.75475 146.685C6.4867 146.041 6.03275 145.492 5.45033 145.105C4.86791 144.718 4.18318 144.512 3.48271 144.512C2.55386 144.527 1.66841 144.905 1.01714 145.563C0.365884 146.222 0.000954953 147.108 0.0010922 148.032L-0.0588901 148.032ZM-0.0588873 115.548C-0.0588873 116.244 0.148876 116.924 0.538036 117.503C0.927197 118.082 1.4803 118.533 2.12744 118.8C2.77459 119.066 3.48663 119.136 4.17364 119C4.86065 118.864 5.49174 118.529 5.98706 118.037C6.48236 117.544 6.81967 116.917 6.95633 116.234C7.09298 115.551 7.02282 114.844 6.75476 114.2C6.48671 113.557 6.03276 113.007 5.45033 112.621C4.86792 112.234 4.18318 112.027 3.48271 112.027C2.55386 112.043 1.66841 112.421 1.01715 113.079C0.365887 113.738 0.000957793 114.624 0.00109504 115.548L-0.0588873 115.548ZM-0.0588844 83.0634C-0.0588845 83.7596 0.148879 84.4402 0.538039 85.019C0.927199 85.5979 1.4803 86.0491 2.12744 86.3155C2.7746 86.582 3.48663 86.6517 4.17364 86.5159C4.86066 86.3801 5.49174 86.0448 5.98706 85.5525C6.48236 85.0602 6.81967 84.4329 6.95633 83.7501C7.09299 83.0673 7.02283 82.3595 6.75476 81.7163C6.48671 81.0731 6.03276 80.5233 5.45033 80.1365C4.86792 79.7497 4.18318 79.5433 3.48271 79.5433C2.55386 79.5589 1.66841 79.9367 1.01715 80.5951C0.36589 81.2536 0.000960633 82.14 0.00109788 83.0634L-0.0588844 83.0634ZM89.9779 245.484C89.9779 246.18 90.1857 246.861 90.5748 247.44C90.964 248.019 91.5171 248.47 92.1643 248.736C92.8114 249.003 93.5234 249.072 94.2105 248.937C94.8975 248.801 95.5286 248.465 96.0239 247.973C96.5192 247.481 96.8565 246.854 96.9931 246.171C97.1298 245.488 97.0596 244.78 96.7916 244.137C96.5235 243.494 96.0696 242.944 95.4871 242.557C94.9047 242.17 94.22 241.964 93.5195 241.964C93.0543 241.963 92.5934 242.054 92.1635 242.231C91.7335 242.407 91.3429 242.667 91.0139 242.994C90.6849 243.321 90.424 243.709 90.2462 244.136C90.0685 244.564 89.9773 245.022 89.9779 245.484ZM89.9779 213C89.9779 213.696 90.1857 214.377 90.5748 214.956C90.964 215.534 91.5171 215.986 92.1643 216.252C92.8114 216.519 93.5234 216.588 94.2105 216.452C94.8975 216.317 95.5286 215.981 96.0239 215.489C96.5192 214.997 96.8565 214.37 96.9931 213.687C97.1298 213.004 97.0596 212.296 96.7916 211.653C96.5235 211.01 96.0696 210.46 95.4871 210.073C94.9047 209.686 94.22 209.48 93.5195 209.48C93.0543 209.479 92.5934 209.57 92.1635 209.747C91.7335 209.923 91.3429 210.183 91.0139 210.51C90.6849 210.836 90.424 211.225 90.2462 211.652C90.0685 212.079 89.9773 212.538 89.9779 213ZM89.9779 180.516C89.9779 181.212 90.1857 181.893 90.5748 182.471C90.964 183.05 91.5171 183.502 92.1643 183.768C92.8114 184.034 93.5235 184.104 94.2105 183.968C94.8975 183.832 95.5286 183.497 96.0239 183.005C96.5192 182.513 96.8565 181.885 96.9931 181.203C97.1298 180.52 97.0596 179.812 96.7916 179.169C96.5235 178.526 96.0696 177.976 95.4872 177.589C94.9047 177.202 94.22 176.996 93.5195 176.996C93.0543 176.995 92.5934 177.086 92.1635 177.262C91.7335 177.439 91.3429 177.698 91.0139 178.025C90.6849 178.352 90.424 178.741 90.2462 179.168C90.0685 179.595 89.9773 180.053 89.9779 180.516ZM59.9641 245.484C59.9641 246.18 60.1719 246.861 60.561 247.44C60.9502 248.019 61.5033 248.47 62.1504 248.736C62.7976 249.003 63.5096 249.072 64.1966 248.937C64.8836 248.801 65.5147 248.465 66.01 247.973C66.5054 247.481 66.8427 246.854 66.9793 246.171C67.116 245.488 67.0458 244.78 66.7778 244.137C66.5097 243.494 66.0557 242.944 65.4733 242.557C64.8909 242.17 64.2062 241.964 63.5057 241.964C63.0404 241.963 62.5796 242.054 62.1497 242.231C61.7197 242.407 61.3291 242.667 61.0001 242.994C60.6711 243.321 60.4102 243.709 60.2324 244.136C60.0546 244.564 59.9635 245.022 59.9641 245.484ZM59.9641 213C59.9641 213.696 60.1719 214.377 60.561 214.956C60.9502 215.534 61.5033 215.986 62.1504 216.252C62.7976 216.519 63.5096 216.588 64.1966 216.452C64.8836 216.317 65.5147 215.981 66.0101 215.489C66.5054 214.997 66.8427 214.37 66.9793 213.687C67.116 213.004 67.0458 212.296 66.7778 211.653C66.5097 211.01 66.0558 210.46 65.4733 210.073C64.8909 209.686 64.2062 209.48 63.5057 209.48C63.0404 209.479 62.5796 209.57 62.1497 209.747C61.7197 209.923 61.3291 210.183 61.0001 210.509C60.6711 210.836 60.4102 211.225 60.2324 211.652C60.0546 212.079 59.9635 212.538 59.9641 213ZM59.9641 180.516C59.9641 181.212 60.1719 181.893 60.561 182.471C60.9502 183.05 61.5033 183.502 62.1504 183.768C62.7976 184.034 63.5096 184.104 64.1966 183.968C64.8836 183.832 65.5147 183.497 66.0101 183.005C66.5054 182.513 66.8427 181.885 66.9793 181.203C67.116 180.52 67.0458 179.812 66.7778 179.169C66.5097 178.526 66.0558 177.976 65.4733 177.589C64.8909 177.202 64.2062 176.996 63.5057 176.996C63.0404 176.995 62.5796 177.086 62.1497 177.262C61.7197 177.439 61.3291 177.698 61.0001 178.025C60.6711 178.352 60.4102 178.741 60.2324 179.168C60.0546 179.595 59.9635 180.053 59.9641 180.516ZM29.9503 245.484C29.9503 246.18 30.1581 246.861 30.5472 247.44C30.9364 248.019 31.4895 248.47 32.1366 248.736C32.7838 249.003 33.4958 249.072 34.1828 248.937C34.8698 248.801 35.5009 248.465 35.9962 247.973C36.4915 247.481 36.8288 246.854 36.9655 246.171C37.1022 245.488 37.032 244.78 36.7639 244.137C36.4959 243.494 36.0419 242.944 35.4595 242.557C34.8771 242.17 34.1924 241.964 33.4919 241.964C32.559 241.974 31.6677 242.349 31.0114 243.008C30.3552 243.667 29.9872 244.557 29.9873 245.484L29.9503 245.484ZM149.885 245.484C149.885 246.18 150.093 246.861 150.482 247.44C150.872 248.019 151.425 248.47 152.072 248.736C152.719 249.003 153.431 249.072 154.118 248.937C154.805 248.801 155.436 248.465 155.931 247.973C156.427 247.481 156.764 246.854 156.901 246.171C157.037 245.488 156.967 244.78 156.699 244.137C156.431 243.494 155.977 242.944 155.395 242.557C154.812 242.17 154.128 241.964 153.427 241.964C152.495 241.972 151.603 242.347 150.947 243.005C150.291 243.663 149.922 244.553 149.922 245.479L149.885 245.484ZM149.885 213C149.885 213.696 150.092 214.377 150.48 214.957C150.869 215.536 151.421 215.988 152.069 216.255C152.716 216.523 153.428 216.593 154.115 216.458C154.803 216.322 155.434 215.987 155.93 215.495C156.426 215.003 156.763 214.376 156.9 213.693C157.037 213.01 156.968 212.302 156.7 211.659C156.432 211.015 155.978 210.465 155.395 210.078C154.813 209.691 154.128 209.484 153.427 209.484C152.495 209.493 151.605 209.866 150.949 210.524C150.292 211.181 149.924 212.069 149.922 212.995L149.885 213ZM149.885 180.516C149.885 181.212 150.092 181.893 150.48 182.473C150.869 183.052 151.421 183.504 152.069 183.771C152.716 184.038 153.428 184.109 154.115 183.973C154.803 183.838 155.434 183.503 155.93 183.011C156.426 182.519 156.763 181.892 156.9 181.209C157.037 180.526 156.968 179.818 156.7 179.174C156.432 178.531 155.978 177.981 155.395 177.594C154.813 177.207 154.128 177 153.427 177C152.495 177.009 151.605 177.382 150.949 178.04C150.292 178.697 149.924 179.585 149.922 180.511L149.885 180.516ZM119.872 245.489C119.872 246.185 120.079 246.865 120.469 247.444C120.858 248.023 121.411 248.474 122.058 248.741C122.705 249.007 123.417 249.077 124.104 248.941C124.791 248.805 125.422 248.47 125.918 247.978C126.413 247.485 126.75 246.858 126.887 246.175C127.024 245.493 126.953 244.785 126.685 244.142C126.417 243.498 125.963 242.949 125.381 242.562C124.798 242.175 124.114 241.969 123.413 241.969C122.485 241.983 121.599 242.36 120.948 243.017C120.297 243.675 119.932 244.561 119.932 245.484L119.872 245.489ZM119.872 213.005C119.872 213.701 120.079 214.381 120.469 214.96C120.858 215.539 121.411 215.99 122.058 216.257C122.705 216.523 123.417 216.593 124.104 216.457C124.791 216.321 125.422 215.986 125.918 215.494C126.413 215.001 126.75 214.374 126.887 213.691C127.024 213.008 126.953 212.301 126.685 211.657C126.417 211.014 125.963 210.464 125.381 210.078C124.798 209.691 124.114 209.484 123.413 209.484C122.485 209.499 121.599 209.876 120.948 210.533C120.297 211.191 119.932 212.077 119.932 213L119.872 213.005ZM119.872 180.516C119.871 181.212 120.078 181.893 120.466 182.473C120.855 183.052 121.408 183.504 122.055 183.771C122.702 184.038 123.414 184.109 124.101 183.973C124.789 183.838 125.42 183.503 125.916 183.011C126.412 182.519 126.75 181.892 126.887 181.209C127.024 180.526 126.954 179.818 126.686 179.174C126.418 178.531 125.964 177.981 125.381 177.594C124.799 177.207 124.114 177 123.413 177C122.486 177.015 121.601 177.391 120.95 178.048C120.298 178.704 119.933 179.589 119.932 180.511L119.872 180.516ZM29.9272 213.005C29.9272 213.701 30.1349 214.381 30.5241 214.96C30.9133 215.539 31.4664 215.99 32.1135 216.257C32.7607 216.523 33.4728 216.593 34.1598 216.457C34.8468 216.321 35.4778 215.986 35.9731 215.494C36.4684 215.001 36.8057 214.374 36.9424 213.691C37.0791 213.008 37.0089 212.301 36.7408 211.657C36.4728 211.014 36.0188 210.464 35.4364 210.078C34.854 209.691 34.1694 209.484 33.4689 209.484C32.5408 209.5 31.656 209.877 31.0049 210.535C30.3538 211.192 29.9884 212.077 29.9873 213L29.9272 213.005ZM29.9272 180.52C29.9272 181.217 30.1349 181.897 30.5241 182.476C30.9133 183.055 31.4664 183.506 32.1135 183.773C32.7607 184.039 33.4728 184.109 34.1598 183.973C34.8468 183.837 35.4778 183.502 35.9731 183.009C36.4684 182.517 36.8057 181.89 36.9424 181.207C37.0791 180.524 37.0089 179.817 36.7408 179.173C36.4728 178.53 36.0188 177.98 35.4364 177.594C34.854 177.207 34.1694 177 33.4689 177C32.5408 177.016 31.656 177.393 31.0049 178.051C30.3538 178.708 29.9884 179.593 29.9873 180.516L29.9272 180.52ZM-0.0588986 245.489C-0.0588987 246.185 0.148865 246.865 0.538025 247.444C0.927185 248.023 1.48029 248.474 2.12743 248.741C2.77458 249.007 3.48662 249.077 4.17363 248.941C4.86064 248.805 5.49173 248.47 5.98705 247.978C6.48235 247.485 6.81966 246.858 6.95631 246.175C7.09297 245.493 7.02281 244.785 6.75475 244.142C6.48669 243.498 6.03275 242.949 5.45032 242.562C4.86791 242.175 4.18317 241.969 3.4827 241.969C2.55426 241.983 1.66885 242.36 1.01747 243.017C0.366089 243.675 0.000961693 244.561 0.00108368 245.484L-0.0588986 245.489ZM-0.0588958 213.005C-0.0588958 213.701 0.148868 214.381 0.538028 214.96C0.927188 215.539 1.48029 215.99 2.12743 216.257C2.77458 216.523 3.48662 216.593 4.17363 216.457C4.86064 216.321 5.49173 215.986 5.98705 215.494C6.48235 215.001 6.81966 214.374 6.95632 213.691C7.09297 213.008 7.02282 212.301 6.75475 211.657C6.4867 211.014 6.03275 210.464 5.45032 210.078C4.86791 209.691 4.18317 209.484 3.4827 209.484C2.55426 209.499 1.66886 209.876 1.01747 210.533C0.366092 211.191 0.000964532 212.077 0.00108652 213L-0.0588958 213.005ZM-0.0588929 180.52C-0.058893 181.217 0.148871 181.897 0.538031 182.476C0.927191 183.055 1.48029 183.506 2.12743 183.773C2.77459 184.039 3.48662 184.109 4.17364 183.973C4.86065 183.837 5.49174 183.502 5.98705 183.009C6.48235 182.517 6.81966 181.89 6.95632 181.207C7.09298 180.524 7.02282 179.817 6.75475 179.173C6.4867 178.53 6.03275 177.98 5.45032 177.594C4.86791 177.207 4.18317 177 3.4827 177C2.55427 177.015 1.66886 177.391 1.01748 178.049C0.366095 178.707 0.000967372 179.593 0.00108936 180.516L-0.0588929 180.52Z" fill="#FFA339"/>
</g>
<defs>
<clipPath id="clip0">
<rect width="157" height="249" fill="white" transform="translate(157 249) rotate(-180)"/>
</clipPath>
</defs>
</svg>
