<svg width="20" height="20" viewBox="0 0 20 20" fill="none" xmlns="http://www.w3.org/2000/svg">
<g clip-path="url(#clip0)">
<path d="M15.2155 3.41492C15.2155 2.9457 15.0323 2.50398 14.7005 2.17211L13.0434 0.515C12.7161 0.187695 12.2515 0 11.7892 0H11.6885V3.51562H15.2155L15.2155 3.41492Z" fill="white"/>
<path d="M10.7007 12.0913C10.8128 11.7508 11.0085 11.4338 11.2637 11.1769L15.231 7.22563V4.6875H11.1138C10.7899 4.6875 10.5469 4.42543 10.5469 4.10156V0H1.75781C0.788516 0 0 0.788516 0 1.75781V18.2422C0 19.2115 0.788516 20 1.75781 20H13.4575C14.4268 20 15.231 19.2115 15.231 18.2422V13.8691L14.5871 14.4974C14.3262 14.756 14.0206 14.9443 13.6761 15.0593L11.813 15.6813L11.5292 15.6968C11.06 15.6968 10.616 15.4684 10.3402 15.0862C10.0667 14.7057 9.9923 14.2125 10.1411 13.7667L10.7007 12.0913ZM2.92969 10.5469H8.77004C9.09391 10.5469 9.35598 10.8089 9.35598 11.1328C9.35598 11.4567 9.09391 11.7188 8.77004 11.7188H2.92969C2.60582 11.7188 2.34375 11.4567 2.34375 11.1328C2.34375 10.8089 2.60582 10.5469 2.92969 10.5469ZM2.34375 8.78906C2.34375 8.4652 2.60582 8.20312 2.92969 8.20312H8.77004C9.09391 8.20312 9.35598 8.4652 9.35598 8.78906C9.35598 9.11293 9.09391 9.375 8.77004 9.375H2.92969C2.60582 9.375 2.34375 9.11293 2.34375 8.78906ZM2.34375 13.4766C2.34375 13.1527 2.60582 12.8906 2.92969 12.8906H8.77004C9.09391 12.8906 9.35598 13.1527 9.35598 13.4766C9.35598 13.8004 9.09391 14.0625 8.77004 14.0625H2.92969C2.60582 14.0625 2.34375 13.8004 2.34375 13.4766ZM11.1138 16.4062C11.4377 16.4062 11.6997 16.6683 11.6997 16.9922C11.6997 17.3161 11.4377 17.5781 11.1138 17.5781H7.59816C7.2743 17.5781 7.01223 17.3161 7.01223 16.9922C7.01223 16.6683 7.2743 16.4062 7.59816 16.4062H11.1138ZM2.92969 7.03125C2.60582 7.03125 2.34375 6.76918 2.34375 6.44531C2.34375 6.12145 2.60582 5.85938 2.92969 5.85938H11.1138C11.4377 5.85938 11.6997 6.12145 11.6997 6.44531C11.6997 6.76918 11.4377 7.03125 11.1138 7.03125H2.92969Z" fill="white"/>
<path d="M11.7626 12.6096L11.2529 14.139C11.1765 14.3681 11.3945 14.586 11.6236 14.5095L13.152 13.999L11.7626 12.6096Z" fill="white"/>
<path d="M16.313 7.7854L12.4541 11.6443L14.1184 13.3086C14.9905 12.4363 16.6876 10.739 17.9771 9.44946L16.313 7.7854Z" fill="white"/>
<path d="M19.6559 6.10488C19.4499 5.89773 19.1466 5.7793 18.825 5.7793C18.5034 5.7793 18.2002 5.89773 17.993 6.10547L17.1416 6.95691L18.8056 8.6209C19.2717 8.15473 19.5939 7.83254 19.6571 7.76937C20.1148 7.31098 20.1148 6.56434 19.6559 6.10488Z" fill="white"/>
<path d="M19.6572 7.76862C19.6573 7.76862 19.6573 7.76859 19.6573 7.76856C19.6585 7.76737 19.659 7.76684 19.66 7.76587C19.659 7.76687 19.6585 7.7674 19.6572 7.76862Z" fill="white"/>
<path d="M19.6602 7.76545C19.662 7.76357 19.6642 7.76139 19.6653 7.76025C19.6642 7.76143 19.662 7.76357 19.6602 7.76545Z" fill="white"/>
<path d="M19.666 7.76011C19.669 7.75708 19.6691 7.75702 19.666 7.76011V7.76011Z" fill="white"/>
</g>
<defs>
<clipPath id="clip0">
<rect width="20" height="20" fill="white"/>
</clipPath>
</defs>
</svg>
