<svg width="24" height="24" viewBox="0 0 24 24" fill="none" xmlns="http://www.w3.org/2000/svg">
<path d="M12 24C18.6274 24 24 18.6274 24 12C24 5.37258 18.6274 0 12 0C5.37258 0 0 5.37258 0 12C0 18.6274 5.37258 24 12 24Z" fill="#0084FF"/>
<path d="M19.5 11.7177C19.5 15.5536 16.1414 18.6627 12 18.6627C11.2729 18.6632 10.5491 18.5655 9.84818 18.3723L7.29409 19.7727V17.1245C5.59091 15.8523 4.5 13.9091 4.5 11.7177C4.5 7.8818 7.85864 4.77271 12 4.77271C16.1414 4.77271 19.5 7.88316 19.5 11.7177Z" fill="white"/>
<path d="M16.8448 9.77319L12.7443 14.1232L10.8352 12.0873L7.1084 14.1246L11.2089 9.77319L13.1657 11.8091L16.8448 9.77319Z" fill="#2196F3"/>
</svg>
