<svg width="16" height="17" viewBox="0 0 16 17" fill="none" xmlns="http://www.w3.org/2000/svg">
<path d="M13.5 0.765625H2.5C1.11929 0.765625 0 1.88491 0 3.26562V14.2656C0 15.6463 1.11929 16.7656 2.5 16.7656H13.5C14.8807 16.7656 16 15.6463 16 14.2656V3.26562C16 1.88491 14.8807 0.765625 13.5 0.765625Z" fill="#25D366"/>
<path fill-rule="evenodd" clip-rule="evenodd" d="M10.8 5.91563C10.05 5.16563 9.05 4.76562 8 4.76562C5.8 4.76562 4 6.56562 4 8.76562C4 9.46562 4.2 10.1656 4.55 10.7656L4 12.7656L6.10001 12.2156C6.70001 12.5156 7.35 12.7156 8 12.7156C10.2 12.7156 12 10.9156 12 8.71562C12 7.66562 11.55 6.66563 10.8 5.91563ZM8 12.0656C7.4 12.0656 6.8 11.9156 6.3 11.6156L6.2 11.5656L4.95 11.9156L5.3 10.7156L5.2 10.5656C4.85 10.0156 4.7 9.41563 4.7 8.81563C4.7 7.01563 6.2 5.51562 8 5.51562C8.9 5.51562 9.70001 5.86562 10.35 6.46562C11 7.11562 11.3 7.91563 11.3 8.81563C11.3 10.5656 9.85 12.0656 8 12.0656ZM9.8 9.56563C9.7 9.51562 9.20001 9.26562 9.10001 9.26562C9.00001 9.21562 8.94999 9.21563 8.89999 9.31563C8.84999 9.41563 8.65001 9.61562 8.60001 9.71562C8.55001 9.76562 8.49999 9.76562 8.39999 9.76562C8.29999 9.71562 8.00001 9.61562 7.60001 9.26562C7.30001 9.01562 7.1 8.66563 7.05 8.56563C7 8.46563 7.05001 8.41562 7.10001 8.36562C7.15001 8.31562 7.2 8.26562 7.25 8.21562C7.3 8.16562 7.30001 8.11563 7.35001 8.06563C7.40001 8.01563 7.35001 7.96563 7.35001 7.91563C7.35001 7.86563 7.15 7.36563 7.05 7.16563C7 7.01562 6.90001 7.01562 6.85001 7.01562C6.80001 7.01562 6.74999 7.01562 6.64999 7.01562C6.59999 7.01562 6.49999 7.01562 6.39999 7.11562C6.29999 7.21562 6.05 7.46562 6.05 7.96562C6.05 8.46562 6.4 8.91563 6.45 9.01562C6.5 9.06563 7.14999 10.1156 8.14999 10.5156C8.99999 10.8656 9.15001 10.7656 9.35001 10.7656C9.55001 10.7656 9.95 10.5156 10 10.3156C10.1 10.0656 10.1 9.86563 10.05 9.86563C10 9.61563 9.9 9.61563 9.8 9.56563Z" fill="white"/>
</svg>
